<svg width="29" height="30" viewBox="0 0 29 30" fill="none" xmlns="http://www.w3.org/2000/svg">
<path d="M10.9679 6.59672e-06C4.90064 -0.00655969 0.00219174 4.8897 2.97825e-06 10.9679C-0.00437454 17.0964 4.81747 22.0671 10.8169 22.1153C16.9301 22.1678 21.9489 17.2387 21.9642 11.1736C21.9774 4.92253 17.1402 0.00438412 10.9679 6.59672e-06ZM10.911 19.3596C6.36492 19.3487 2.64622 15.5709 2.69218 11.0095C2.73814 6.389 6.40651 2.72939 10.9876 2.73377C15.5555 2.73815 19.2699 6.45685 19.2699 11.0292C19.2699 15.6015 15.549 19.3705 10.911 19.3596V19.3596Z" fill="white"/>
<path d="M28.0198 24.9716C26.1857 23.3935 24.3734 21.7869 22.5523 20.1913C20.659 18.5322 20.6744 18.5475 18.989 20.362C18.6038 20.7779 18.6125 21.0274 18.9715 21.4345C21.0027 23.7393 23.0076 26.0638 25.0256 28.3795C25.5028 28.9267 26.0828 29.2484 26.7525 29.1587C28.1818 29.163 28.8953 28.4648 28.9916 27.1406C29.0573 26.2235 28.6984 25.556 28.0198 24.9716Z" fill="white"/>
<path d="M14.175 12.4343C13.6519 12.025 13.2535 11.5107 12.9186 10.9526C12.4349 10.1493 11.7104 9.85598 10.6139 9.84723C10.1148 9.86693 9.44506 9.97199 9.05765 10.6746C8.68337 11.3509 8.15807 11.8915 7.56929 12.3818C6.8076 13.0144 6.80541 13.8067 7.14248 14.6428C7.48612 15.5008 8.22154 15.9057 9.05108 15.7372C10.2855 15.4877 11.4587 15.4811 12.691 15.7394C13.5162 15.9101 14.2669 15.5336 14.6215 14.6778C14.9717 13.8395 14.9629 13.0494 14.175 12.4343V12.4343Z" fill="white"/>
<path d="M9.42096 9.33726C10.1236 9.26503 10.2286 8.73098 10.2352 8.34138C10.222 7.2076 9.57636 6.29488 8.90003 6.31458C8.18212 6.33647 8.04423 6.85521 8.03547 7.4418C8.01796 8.42017 8.72712 9.40949 9.42096 9.33726V9.33726Z" fill="white"/>
<path d="M12.4033 9.33722C13.0665 9.36786 13.7253 8.42889 13.7297 7.50085C13.7363 6.75011 13.4583 6.33643 12.9308 6.30798C12.237 6.26858 11.5037 7.24695 11.53 8.20344C11.5453 8.78128 11.6985 9.30658 12.4033 9.33722V9.33722Z" fill="white"/>
<path d="M8.02316 10.7818C8.08663 10.0442 7.2746 8.98048 6.60703 8.94327C6.04671 8.91263 5.84315 9.2497 5.83659 9.75968C5.81032 10.587 6.58514 11.5326 7.28336 11.5348C7.79115 11.537 7.98376 11.2327 8.02316 10.7818V10.7818Z" fill="white"/>
<path d="M15.4361 8.94107C14.7816 8.93012 13.9193 9.95884 13.9521 10.7183C13.9718 11.2086 14.1753 11.5588 14.7444 11.5304C15.4142 11.4975 16.1365 10.6177 16.1474 9.82314C16.1474 9.33942 16.0139 8.94982 15.4361 8.94107Z" fill="white"/>
</svg>
