<svg width="196" height="205" viewBox="0 0 196 205" fill="none" xmlns="http://www.w3.org/2000/svg">
<path d="M87.9927 189.25C136.59 189.25 175.985 149.855 175.985 101.258C175.985 52.6606 136.59 13.2649 87.9927 13.2649C39.3957 13.2649 0 52.6606 0 101.258C0 149.855 39.3957 189.25 87.9927 189.25Z" fill="#EAE5DF"/>
<path d="M151.829 185.899C151.829 185.899 154.321 187.133 159.29 185.375C165.524 183.164 168.149 176.977 166.493 171.516C163.892 162.945 136.446 146.07 130.36 141.211C124.274 136.352 114.321 100.437 104.68 93.6091C95.0397 86.7809 88.3365 109.039 96.8834 130.914C105.43 152.789 113.469 166.461 119.673 171.195C125.876 175.93 151.829 185.899 151.829 185.899Z" fill="#514D27"/>
<path d="M28.2424 46.8042C31.1565 42.9917 29.2033 38.4291 28.0627 33.5229C26.9221 28.6166 22.5705 19.5228 31.219 14.6477C39.8675 9.78053 60.3441 0.257033 67.9614 0.0148442C75.5708 -0.235157 82.688 2.6633 82.399 9.42115C82.399 9.42115 95.1803 8.2102 99.6959 16.3665C104.212 24.5228 97.4772 31.9603 94.149 33.265C94.149 33.265 94.3756 40.0776 101.719 42.687C109.063 45.2964 127.915 50.1167 124.571 68.6012C124.571 68.6012 133.665 76.2575 128.227 88.3904C122.352 101.508 110.915 105.953 96.5553 105.578C82.188 105.195 69.5864 103.633 59.9535 107.922C50.3206 112.211 33.4065 116.617 22.5627 110.008C6.67978 100.328 13.547 85.6325 13.547 85.6325C13.547 85.6325 9.29698 80.2966 11.9142 72.1871C14.3517 64.6246 20.508 56.9527 28.2424 46.812V46.8042Z" fill="#D86224"/>
<path d="M30.8127 112.945C30.8127 112.945 20.711 110.086 22.9298 96.4764C25.1486 82.8747 38.4533 79.2419 37.3127 54.4605" stroke="#FF8326" stroke-width="0.5" stroke-linecap="round" stroke-linejoin="round"/>
<path d="M36.1409 51.1011C36.1409 51.1011 36.0237 63.2028 28.0158 71.0231C20.008 78.8435 17.1329 92.4842 23.0548 104.133" stroke="#FF8326" stroke-width="0.5" stroke-linecap="round" stroke-linejoin="round"/>
<path d="M48.3831 65.2965C48.3831 65.2965 49.805 77.3825 44.43 89.5857C39.0549 101.789 43.5003 112.805 43.5003 112.805" stroke="#FF8326" stroke-width="0.5" stroke-linecap="round" stroke-linejoin="round"/>
<path d="M85.1333 37.8901C85.1333 37.8901 92.4537 52.7808 102.087 57.148C111.719 61.5152 111.618 70.5621 105.422 76.7184C99.2271 82.8747 113.86 82.7341 113.782 89.5154C113.704 96.2967 110.813 103.969 100.797 105.539" stroke="#FF8326" stroke-width="0.5" stroke-linecap="round" stroke-linejoin="round"/>
<path d="M86.3833 49.7417C86.3833 49.7417 92.2193 57.9605 99.7271 61.5621C107.227 65.1715 109.508 69.0543 106.235 75.8434" stroke="#FF8326" stroke-width="0.5" stroke-linecap="round" stroke-linejoin="round"/>
<path d="M83.352 67.0934C83.352 67.0934 82.0083 89.7654 94.0005 105.492" stroke="#FF8326" stroke-width="0.5" stroke-linecap="round" stroke-linejoin="round"/>
<path d="M125.235 161.305C123.751 149.766 120.649 127.062 117.985 117.461C114.337 104.32 109.383 93.5232 100.376 92.0466C91.3677 90.5622 80.0552 88.1559 80.0552 88.1559L51.4534 90.4919C51.4534 90.4919 39.4377 98.4841 32.8439 103.258C26.2502 108.023 14.5704 117.273 16.1407 130.758C17.711 144.242 50.6097 202.407 60.9457 204.86C71.2817 207.313 125.501 176.797 127.946 174.547C129.962 172.695 129.282 164.172 125.243 161.305H125.235Z" fill="#7E7B44"/>
<path d="M35.6878 108.101L37.7503 113.641L43.4769 115.078L38.8441 118.75L39.2425 124.641L34.3284 121.375L28.844 123.57L30.43 117.883L26.6487 113.351L32.5472 113.101L35.6878 108.101Z" fill="#969269"/>
<path d="M64.1411 142.633L64.227 148.531L69.1411 151.813L63.5473 153.719L61.9457 159.406L58.4067 154.68L52.5082 154.914L55.9066 150.086L53.8598 144.547L59.5004 146.289L64.1411 142.633Z" fill="#969269"/>
<path d="M111.008 132.938L111.094 138.844L116.009 142.125L110.415 144.031L108.821 149.711L105.282 144.984L99.3756 145.227L102.782 140.398L100.727 134.859L106.376 136.602L111.008 132.938Z" fill="#969269"/>
<path d="M68.727 122.383L64.8676 123.625L63.7035 127.508L61.3285 124.219L57.2738 124.305L59.6723 121.031L58.3285 117.211L62.1801 118.476L65.4067 116.016L65.391 120.07L68.727 122.383Z" fill="#969269"/>
<path d="M88.3912 138.375L84.5318 139.617L83.3677 143.5L80.9927 140.211L76.938 140.297L79.3364 137.031L78.0005 133.203L81.8521 134.469L85.0787 132.016L85.063 136.063L88.3912 138.375Z" fill="#969269"/>
<path d="M119.688 161.07L115.829 162.305L114.657 166.188L112.29 162.906L108.235 162.992L110.626 159.719L109.29 155.899L113.141 157.164L116.368 154.703L116.352 158.758L119.688 161.07Z" fill="#969269"/>
<path d="M66.2817 178.047L62.4223 179.289L61.2504 183.172L58.8832 179.883L54.8285 179.977L57.2191 176.703L55.8832 172.875L59.7348 174.141L62.9613 171.688L62.9457 175.742L66.2817 178.047Z" fill="#969269"/>
<path d="M41.7269 143.125L37.8675 144.359L36.7034 148.242L34.3284 144.961L30.2737 145.047L32.6721 141.773L31.3362 137.945L35.1878 139.211L38.4065 136.758L38.3987 140.813L41.7269 143.125Z" fill="#969269"/>
<path d="M88.5162 186L84.6568 187.242L83.4849 191.118L81.1177 187.836L77.063 187.922L79.4536 184.649L78.1177 180.828L81.9693 182.094L85.1959 179.633L85.1802 183.688L88.5162 186Z" fill="#969269"/>
<path d="M95.4381 118.094L88.8131 114.633L82.2115 118.117L83.4536 110.758L78.0942 105.555L85.4849 104.461L88.7818 97.7576L92.1021 104.445L99.4928 105.508L94.1568 110.734L95.4381 118.094Z" fill="#969269"/>
<path d="M100.868 165.867L93.9068 168.578L92.1959 175.852L87.4615 170.078L80.0239 170.703L84.0552 164.414L81.1567 157.524L88.3833 159.414L94.0396 154.539L94.4771 161.992L100.868 165.867Z" fill="#969269"/>
<path d="M50.6957 103.25L52.2348 104.687L54.2895 104.226L53.4066 106.141L54.477 107.953L52.391 107.695L50.9926 109.281L50.5863 107.211L48.6566 106.375L50.4926 105.351L50.6957 103.25Z" fill="#969269"/>
<path d="M61.813 193.219L63.3599 194.657L65.4146 194.196L64.5318 196.11L65.6021 197.922L63.5083 197.664L62.1177 199.25L61.7114 197.18L59.7739 196.344L61.6177 195.321L61.813 193.219Z" fill="#969269"/>
<path d="M106.68 112.008L108.22 113.437L110.282 112.976L109.391 114.891L110.462 116.703L108.376 116.453L106.977 118.031L106.571 115.961L104.641 115.125L106.477 114.101L106.68 112.008Z" fill="#969269"/>
<path d="M41.844 160.195L43.3909 161.625L45.4456 161.172L44.5628 163.078L45.6331 164.891L43.5393 164.641L42.1487 166.219L41.7424 164.156L39.8049 163.32L41.6487 162.289L41.844 160.195Z" fill="#969269"/>
<path d="M101.407 177.602L103.493 177.305L104.43 175.414L105.36 177.305L107.438 177.617L105.93 179.078L106.282 181.157L104.423 180.172L102.555 181.149L102.915 179.078L101.407 177.602Z" fill="#969269"/>
<path d="M48.3832 68.1324C48.3832 68.1324 55.3676 78.9528 51.4535 90.4919C51.4535 90.4919 72.1568 106.914 80.0552 88.1559C80.0552 88.1559 75.9146 82.945 75.3443 74.1012L48.3832 68.1324Z" fill="#FFB48C"/>
<path d="M75.3443 74.1012L48.3832 68.1324C48.3832 68.1324 49.8832 70.4605 51.1019 74.109C56.4301 78.3981 65.0786 84.1481 70.563 81.6247C72.9849 80.5153 74.6021 78.8903 75.688 77.1481C75.5318 76.1871 75.4068 75.1715 75.3365 74.1012H75.3443Z" fill="#EF8D6F"/>
<path d="M63.2817 12.343C82.2662 11.093 89.3678 21.2884 90.7116 38.5776C92.0553 55.8667 88.1959 74.5231 74.2818 76.0465C60.3676 77.5622 41.9457 73.109 37.3753 54.8277C32.805 36.5463 35.0315 14.2024 63.2817 12.343Z" fill="#FFB48C"/>
<path d="M82.7662 31.8041C81.3912 31.1635 80.0943 30.351 78.7818 29.5775C77.6333 28.9056 76.3833 28.3431 75.2974 27.5775C78.0943 25.4681 83.188 28.226 82.7662 31.7963V31.8041Z" fill="#D86224"/>
<path d="M64.055 27.0306C62.3285 28.0072 60.5863 28.9759 59.0394 30.2181C57.6097 31.3666 56.4691 32.8119 55.0784 33.9838C54.8128 31.7963 55.9222 29.39 57.7191 28.1165C59.4066 26.8509 62.0472 25.9993 64.055 27.0384V27.0306Z" fill="#D86224"/>
<path d="M78.0942 58.8667C78.0942 58.8667 68.727 66.4449 60.5238 56.1245" stroke="#EF8D6F" stroke-width="0.75" stroke-linecap="round" stroke-linejoin="round"/>
<path d="M59.5314 52.2875C59.772 47.7418 55.4822 43.8194 49.9498 43.5266C44.4174 43.2337 39.7374 46.6814 39.4968 51.2271C39.2562 55.7727 43.546 59.6952 49.0784 59.988C54.6108 60.2809 59.2908 56.8332 59.5314 52.2875Z" fill="#F27F52"/>
<path d="M89.4771 42.3432C89.9693 42.3666 90.4459 42.437 90.9224 42.5151C91.0943 48.1636 90.6802 53.8042 89.5084 58.8121C89.2115 58.8121 88.9068 58.8121 88.6099 58.8042C83.0786 58.5152 78.7896 54.5933 79.0317 50.0464C79.2739 45.4995 83.9536 42.0541 89.4849 42.351L89.4771 42.3432Z" fill="#F27F52"/>
<path d="M72.3989 33.3119C72.3989 33.3119 71.0239 41.1635 74.0551 48.5698C74.0551 48.5698 79.7271 48.3901 80.1958 50.4214C80.6958 52.6011 74.9927 55.8511 74.9927 55.8511" fill="#FFB48C"/>
<path d="M72.3989 33.3119C72.3989 33.3119 71.0239 41.1635 74.0551 48.5698C74.0551 48.5698 79.7271 48.3901 80.1958 50.4214C80.6958 52.6011 74.9927 55.8511 74.9927 55.8511" stroke="#EF8D6F" stroke-width="0.75" stroke-linecap="round" stroke-linejoin="round"/>
<path d="M61.5942 39.5541C60.5316 39.6479 59.6254 40.0151 58.891 40.4682C56.0863 40.3823 53.9144 38.7573 53.9144 38.7573C54.9847 40.9135 56.5238 41.5463 57.3441 41.7417C56.7894 42.3276 56.5004 42.812 56.5004 42.812C61.5004 39.9995 66.6254 43.3901 66.6254 43.3901C66.6254 43.3901 64.9301 39.2495 61.5942 39.5541Z" fill="#3A130E"/>
<path d="M79.8364 39.8979C80.6255 39.8198 81.3443 40.0073 81.9536 40.3042C83.9693 39.7807 85.2662 37.9682 85.2662 37.9682C84.8599 40.0932 83.8521 40.9135 83.2974 41.2182C83.8052 41.6635 84.0943 42.0542 84.0943 42.0542C79.9849 40.2885 76.8521 44.1792 76.8521 44.1792C76.8521 44.1792 77.3677 40.1557 79.8364 39.9057V39.8979Z" fill="#3A130E"/>
<path d="M67.9612 0.0147967C60.3518 0.264798 39.8673 9.78048 31.2189 14.6555C22.5704 19.5305 26.922 28.6165 28.0626 33.5306C29.2032 38.4369 31.1564 42.9916 28.2423 46.8119C27.586 47.6713 26.9532 48.4994 26.3204 49.3276C28.7423 49.7729 31.8048 49.7573 35.7033 49.062C60.305 44.6713 49.9533 19.7805 55.4846 10.0461C60.9534 0.389799 70.7035 0.0851096 70.8988 0.0851096C69.9378 0.0069842 68.9534 -0.0164534 67.9612 0.0147967Z" fill="#FF8326"/>
<path d="M48.9846 6.02271C48.9846 6.02271 44.1643 14.0306 45.4143 25.89C46.6643 37.7494 37.6642 46.5464 30.1954 49.773" stroke="#D86224" stroke-width="0.5" stroke-linecap="round" stroke-linejoin="round"/>
<path d="M41.4923 9.40552C41.4923 9.40552 39.547 19.4993 45.4611 29.6869" stroke="#D86224" stroke-width="0.5" stroke-linecap="round" stroke-linejoin="round"/>
<path d="M32.1095 14.1555C32.1095 14.1555 28.7423 20.7493 30.633 28.929C32.5236 37.1166 32.9142 46.4448 27.0939 49.437" stroke="#D86224" stroke-width="0.5" stroke-linecap="round" stroke-linejoin="round"/>
<path d="M40.0159 61.648L35.9221 46.9995C35.9221 46.9995 31.5002 37.4213 23.883 41.1557C17.1486 44.4604 27.5705 67.1168 40.0237 61.6402L40.0159 61.648Z" fill="#FFB48C"/>
<path d="M35.6955 46.5619C35.8439 46.8354 35.9143 46.9994 35.9143 46.9994L40.008 61.648C32.2189 65.0699 25.2189 57.4839 22.7267 50.5151C26.3283 45.5541 31.7424 45.6166 35.6877 46.5698L35.6955 46.5619Z" fill="#EF8D6F"/>
<path d="M158.306 113.445C162.813 95.8046 175.032 88.9765 175.032 88.9765C175.032 88.9765 166.485 99.5781 165.524 109.352C165.524 109.352 171.931 86.7108 195.439 85.1405C195.439 85.1405 185.548 91.9765 181.954 108.391C180.157 116.602 181.314 122.914 181.649 128.945C185.462 119.438 183.806 111.008 183.806 111.008C183.806 111.008 189.571 117.5 186.814 130.274C184.454 141.203 174.22 151 171.306 153.602C171.165 153.727 171.024 153.852 170.884 153.969C170.649 154.172 170.524 154.282 170.524 154.282C162.735 160.821 154.29 161.032 147.649 159.539C147.649 159.539 159.134 159.422 160.931 147.321C162.493 136.797 154.462 128.477 158.298 113.453L158.306 113.445Z" fill="#D77B55"/>
<path d="M159.29 110.101C164.368 94.9372 175.032 88.9763 175.032 88.9763C175.032 88.9763 166.485 99.5779 165.524 109.351C165.524 109.351 171.931 86.7106 195.439 85.1403C195.439 85.1403 186.103 91.6013 182.275 107.031C182.142 107.047 182.009 107.055 181.884 107.062C178.165 107.242 174.462 105.07 171.743 108.851C170.126 111.305 172.345 114.406 172.017 117.305C171.649 120.703 168.774 124.172 164.985 123.023C160.493 121.633 160.86 117.844 160.688 114.125C160.618 112.406 160.392 111.539 159.298 110.133H159.29V110.101Z" fill="#CA6339"/>
<g style="mix-blend-mode:multiply">
<g style="mix-blend-mode:multiply">
<g style="mix-blend-mode:multiply">
<g style="mix-blend-mode:multiply">
<path d="M195.439 85.1325C195.439 85.1325 177.907 92.5466 174.165 108.633C170.415 124.711 176.353 138.312 170.892 147.992C165.431 157.664 152.985 160.383 147.657 159.539" stroke="#EDC8B9" stroke-width="0.75" stroke-linejoin="round"/>
</g>
<g style="mix-blend-mode:multiply">
<path d="M185.29 98.4373C185.29 98.4373 175.071 112.172 173.087 129" stroke="#EDC8B9" stroke-width="0.75" stroke-linejoin="round"/>
</g>
</g>
<g style="mix-blend-mode:multiply">
<path d="M160.938 147.313C165.048 136.344 159.227 125.359 165.524 109.344" stroke="#EDC8B9" stroke-width="0.75" stroke-linejoin="round"/>
</g>
</g>
</g>
<path d="M136.259 83.82C136.259 83.82 140.516 79.9684 146.97 76.4684C153.423 72.9684 162.634 69.5543 163.477 70.4684C164.321 71.3903 159.954 100.883 141.595 102.648L136.259 83.82Z" fill="#904A2D"/>
<path d="M139.712 89.1169C139.712 89.1169 151.368 78.0075 162.29 72.5934C162.29 72.5934 159.477 98.4685 142.376 100.804L139.719 89.1247L139.712 89.1169Z" fill="#F5ADA1"/>
<path d="M139.712 89.1169L142.368 100.797C150.571 102.75 154.743 96.3513 154.743 96.3513C151.016 97.7107 148.055 95.07 148.055 95.07C152.227 94.6872 155.266 90.3278 155.266 90.3278C153.845 90.6638 153.001 89.0544 150.501 88.0622C148.001 87.0778 145.18 87.5934 145.18 87.5934C146.048 86.0544 148.649 85.2887 148.649 85.2887C145.274 84.2106 142.602 86.4919 142.602 86.4919L139.712 89.1091V89.1169Z" fill="#B3703B"/>
<path d="M125.852 77.2106C125.852 77.2106 128.063 71.9137 129.212 64.6636C130.36 57.4136 130.509 47.5932 129.36 47.101C128.212 46.6167 101.86 60.5699 106.321 78.4606L125.852 77.2106Z" fill="#904A2D"/>
<path d="M119.704 75.7262C119.704 75.7262 126.29 61.0308 127.751 48.9291C127.751 48.9291 104.297 60.2183 107.805 77.1168L119.704 75.7262Z" fill="#F5ADA1"/>
<path d="M119.704 75.7262L107.805 77.1168C103.227 70.0386 107.868 63.9683 107.868 63.9683C107.829 67.937 111.305 69.8433 111.305 69.8433C110.274 65.7886 113.368 61.4604 113.368 61.4604C113.524 62.9136 115.329 63.1714 117.094 65.2027C118.86 67.2261 119.313 70.0621 119.313 70.0621C120.477 68.7339 120.329 66.023 120.329 66.023C122.469 68.8433 121.212 72.1246 121.212 72.1246L119.712 75.7262H119.704Z" fill="#B3703B"/>
<path d="M132.766 78.1403C142.759 84.7184 145.602 94.0154 143.024 102.39C140.446 110.765 131.915 114.851 131.915 114.851C131.915 114.851 132.626 123.898 138.72 128.023C144.806 132.141 154.751 139.586 159.017 152.234C163.649 165.953 163.243 170.516 157.501 179.758C152.86 187.219 139.063 195.024 131.438 195.086C118.719 195.188 105.368 187.742 97.024 173.383C94.6256 169.25 91.4459 157.859 91.3365 146.281C91.2271 134.695 93.3912 115.945 96.9303 107.14C96.9303 107.14 97.6334 100.344 97.6724 95.2263C97.7115 90.1091 98.2193 84.3122 102.751 79.3903C108.641 72.9996 120.376 69.984 132.766 78.1403Z" fill="#D77B55"/>
<path d="M96.9303 107.14C96.9303 107.14 97.4928 101.679 97.6413 96.8669C98.2506 97.3982 97.7506 105.547 98.0163 108.258C98.5084 113.406 101.844 115.359 105.11 117.562C108.376 119.773 113.962 120.875 117.235 119.476C120.509 118.078 127.563 116.469 131.931 114.851C131.931 114.851 132.032 116.156 132.493 118.008C127.899 120.789 110.555 130.883 103.962 128.906C98.6256 127.305 96.1178 118.336 95.0865 113.086C95.6491 110.828 96.2741 108.805 96.9381 107.14H96.9303Z" fill="#B3703B"/>
<path d="M145.524 153.148C140.821 150.734 130.829 150.781 128.805 138.93C127.313 130.203 131.407 124.141 133.673 121.547C134.688 123.898 136.266 126.359 138.727 128.023C144.813 132.141 154.759 139.586 159.024 152.234C160.728 157.289 161.493 161.203 161.774 164.133C153.735 165.461 149.587 155.227 145.524 153.148Z" fill="#CA6339"/>
<path d="M130.157 76.5856C127.329 84.1247 116.899 107.234 97.5162 99.6638C97.6022 98.1794 97.6569 96.6404 97.6725 95.2341C97.7115 90.1169 98.2194 84.32 102.751 79.3981C108.219 73.4605 118.751 70.4371 130.157 76.5934V76.5856Z" fill="#CA6339"/>
<path d="M105.43 143.937C108.579 152.82 101.282 156.883 103.954 160.703C105.141 162.399 106.204 168.492 104.743 169.805C98.3834 175.516 93.2506 165.289 93.2506 165.289C93.2506 165.289 91.4459 157.859 91.3365 146.273C91.3052 142.672 91.4927 138.383 91.8677 133.914C95.8209 134.898 103.165 137.547 105.43 143.93V143.937Z" fill="#CA6339"/>
<g style="mix-blend-mode:multiply">
<path d="M101.43 133.453C101.43 133.453 96.7585 143.422 100.712 152.641C100.712 152.641 101.587 149.648 103.243 147.742C103.243 147.742 101.032 156.047 108.477 162.234" stroke="#EDC8B9" stroke-width="0.75" stroke-linejoin="round"/>
</g>
<path d="M122.727 104.015C121.766 105.617 121.829 107.414 122.86 108.031C123.891 108.648 125.501 107.851 126.462 106.25C127.423 104.648 127.36 102.851 126.329 102.234C125.298 101.617 123.688 102.414 122.727 104.015Z" fill="#3A130E"/>
<path d="M122.86 108.039C121.829 107.422 121.766 105.625 122.727 104.023C122.985 103.594 123.298 103.219 123.626 102.922L125.931 106.984C124.977 108.086 123.72 108.562 122.86 108.047V108.039Z" fill="#231012"/>
<path d="M125.337 104.805C125.04 105.305 125.001 105.836 125.259 105.992C125.516 106.148 125.97 105.867 126.266 105.359C126.563 104.859 126.602 104.328 126.345 104.172C126.087 104.015 125.634 104.297 125.337 104.805Z" fill="#EFF6FE"/>
<path d="M105.313 94.9216C104.352 96.5232 104.415 98.3201 105.446 98.9373C106.477 99.5545 108.087 98.7576 109.048 97.156C110.009 95.5545 109.946 93.7576 108.915 93.1404C107.884 92.5232 106.274 93.3201 105.313 94.9216Z" fill="#3A130E"/>
<path d="M105.446 98.9373C104.415 98.3201 104.352 96.5232 105.313 94.9216C105.571 94.492 105.884 94.1169 106.212 93.8201L108.516 97.8826C107.563 98.9842 106.305 99.4607 105.446 98.9451V98.9373Z" fill="#231012"/>
<path d="M107.915 95.7107C107.618 96.2108 107.579 96.742 107.837 96.8983C108.094 97.0545 108.548 96.7733 108.844 96.2654C109.141 95.7654 109.18 95.2342 108.923 95.0779C108.665 94.9217 108.212 95.2029 107.915 95.7107Z" fill="#EFF6FE"/>
<path d="M105.094 110.703C107.118 111.937 109.009 110.844 109.759 110.289L110.016 110.445C109.884 111.367 109.813 113.547 111.852 114.75C111.915 114.789 111.977 114.812 112.04 114.851L108.407 120.922C107.094 123.125 104.43 123.953 102.462 122.773C100.493 121.594 99.9616 118.859 101.282 116.656L104.915 110.586C104.977 110.625 105.032 110.672 105.094 110.711V110.703Z" fill="#F49A8E"/>
<path d="M109.883 110.367L105.243 118.125" stroke="#E27169" stroke-linecap="round" stroke-linejoin="round"/>
<path d="M113.422 104.461C116.438 106.265 118.274 108.68 117.188 109.664C116.102 110.656 112.508 110.633 110.094 110.008C108.407 108.18 106.688 105.015 107.047 103.594C107.407 102.172 110.399 102.648 113.415 104.453L113.422 104.461Z" fill="#231012"/>
<path d="M102.899 106.562C102.899 106.562 102.915 109.375 105.094 110.703C107.712 112.289 110.102 110.008 110.102 110.008C110.102 110.008 109.219 113.195 111.86 114.742C114.055 116.039 116.548 114.719 116.548 114.719" stroke="#231012" stroke-linecap="round" stroke-linejoin="round"/>
<path d="M123.501 165.07C123.501 165.07 131.134 147.547 132.22 146.398C133.305 145.258 140.306 139.312 141.766 138.562C143.235 137.812 149.774 137.789 152.196 137.758C154.618 137.727 153.017 139.789 151.149 140.43C149.282 141.07 144.345 141.813 143.891 142.18C143.438 142.547 138.626 147.328 138.852 147.906C139.079 148.484 146.368 146.461 149.126 146.602C151.884 146.75 153.852 149.25 156.173 150.977C158.493 152.703 157.556 153.695 155.938 153.258C155.938 153.258 157.759 154.469 157.931 155.508C158.102 156.547 156.165 156.484 154.149 155.859C152.134 155.234 148.149 154.828 146.852 155.25C145.563 155.672 141.735 157.781 142.243 158.242C142.751 158.703 148.821 157.695 151.126 158.266C153.431 158.836 157.548 159.789 157.392 161.039C157.235 162.281 151.681 161.156 149.79 161.242C147.899 161.328 142.563 163.274 141.774 164.164C140.985 165.055 137.618 171.406 136.384 172.078C133.149 173.828 125.641 172.602 125.641 172.602L123.501 165.063V165.07Z" fill="#FFB48C"/>
<path d="M139.266 152.102C139.266 152.102 148.227 150.023 149.727 150.313C151.227 150.602 155.946 153.258 155.946 153.258" stroke="#EF8D6F" stroke-width="0.75" stroke-linecap="round" stroke-linejoin="round"/>
<path d="M159.938 175.149C159.938 175.149 163.009 182.578 149.337 187.758C143.509 189.969 129.509 192.891 129.157 191.696C128.923 190.907 139.493 187.789 138.126 187.899C136.759 188.008 122.907 188.813 123.751 187.828C124.595 186.844 139.587 183.024 137.181 183.102C134.774 183.18 118.907 183.274 119.477 181.844C120.055 180.422 137.977 180.008 136.446 179.555C134.915 179.102 118.712 176.5 119.196 175.43C119.688 174.36 127.891 174.969 129.985 175.258C132.079 175.555 145.517 175.18 146.001 174.367C146.485 173.555 145.071 172.641 142.29 170.914C139.509 169.18 138.376 166.633 138.274 165.133C138.134 163.063 140.204 163.57 144.61 166.938C147.321 169.008 151.017 170.164 155.376 171.539" fill="#FFB48C"/>
<path d="M60.9379 204.86C71.2739 207.313 125.493 176.797 127.938 174.547C129.954 172.695 129.274 164.172 125.235 161.305C124.376 160.68 123.352 160.328 122.18 160.352C122.18 160.352 85.7115 166.766 81.1724 167.742C76.6333 168.719 75.2114 169.719 74.5005 169.539C73.7895 169.36 74.1879 166.492 73.3989 166.094C72.6098 165.703 70.5551 166.43 70.1723 166.078C69.7895 165.727 71.8364 163.024 70.9457 162.617C70.0551 162.211 66.9535 160.961 66.3754 160.484C65.7973 160.008 51.9769 135.477 44.9768 128.617C44.9768 128.617 24.6252 114.484 16.1407 125.789C15.9454 127.375 15.9298 129.031 16.1251 130.758C17.6954 144.242 50.5941 202.407 60.9301 204.86H60.9379Z" fill="#7E7B44"/>
<path d="M35.6878 108.101L37.7503 113.641L43.4769 115.078L38.8441 118.75L39.2425 124.641L34.3284 121.375L28.844 123.57L30.43 117.883L26.6487 113.351L32.5472 113.101L35.6878 108.101Z" fill="#969269"/>
<path d="M64.1411 142.633L64.227 148.531L69.1411 151.813L63.5473 153.719L61.9457 159.406L58.4067 154.68L52.5082 154.914L55.9066 150.086L53.8598 144.547L59.5004 146.289L64.1411 142.633Z" fill="#969269"/>
<path d="M111.008 132.938L111.094 138.844L116.009 142.125L110.415 144.031L108.821 149.711L105.282 144.984L99.3756 145.227L102.782 140.398L100.727 134.859L106.376 136.602L111.008 132.938Z" fill="#969269"/>
<path d="M68.727 122.383L64.8676 123.625L63.7035 127.508L61.3285 124.219L57.2738 124.305L59.6723 121.031L58.3285 117.211L62.1801 118.476L65.4067 116.016L65.391 120.07L68.727 122.383Z" fill="#969269"/>
<path d="M88.3912 138.375L84.5318 139.617L83.3677 143.5L80.9927 140.211L76.938 140.297L79.3364 137.031L78.0005 133.203L81.8521 134.469L85.0787 132.016L85.063 136.063L88.3912 138.375Z" fill="#969269"/>
<path d="M119.688 161.07L115.829 162.305L114.657 166.188L112.29 162.906L108.235 162.992L110.626 159.719L109.29 155.899L113.141 157.164L116.368 154.703L116.352 158.758L119.688 161.07Z" fill="#969269"/>
<path d="M66.2817 178.047L62.4223 179.289L61.2504 183.172L58.8832 179.883L54.8285 179.977L57.2191 176.703L55.8832 172.875L59.7348 174.141L62.9613 171.688L62.9457 175.742L66.2817 178.047Z" fill="#969269"/>
<path d="M41.7269 143.125L37.8675 144.359L36.7034 148.242L34.3284 144.961L30.2737 145.047L32.6721 141.773L31.3362 137.945L35.1878 139.211L38.4065 136.758L38.3987 140.813L41.7269 143.125Z" fill="#969269"/>
<path d="M88.5162 186L84.6568 187.242L83.4849 191.118L81.1177 187.836L77.063 187.922L79.4536 184.649L78.1177 180.828L81.9693 182.094L85.1959 179.633L85.1802 183.688L88.5162 186Z" fill="#969269"/>
<path d="M95.4381 118.094L88.8131 114.633L82.2115 118.117L83.4536 110.758L78.0942 105.555L85.4849 104.461L88.7818 97.7576L92.1021 104.445L99.4928 105.508L94.1568 110.734L95.4381 118.094Z" fill="#969269"/>
<path d="M100.868 165.867L93.9068 168.578L92.1959 175.852L87.4615 170.078L80.0239 170.703L84.0552 164.414L81.1567 157.524L88.3833 159.414L94.0396 154.539L94.4771 161.992L100.868 165.867Z" fill="#969269"/>
<path d="M50.6957 103.25L52.2348 104.687L54.2895 104.226L53.4066 106.141L54.477 107.953L52.391 107.695L50.9926 109.281L50.5863 107.211L48.6566 106.375L50.4926 105.351L50.6957 103.25Z" fill="#969269"/>
<path d="M61.813 193.219L63.3599 194.657L65.4146 194.196L64.5318 196.11L65.6021 197.922L63.5083 197.664L62.1177 199.25L61.7114 197.18L59.7739 196.344L61.6177 195.321L61.813 193.219Z" fill="#969269"/>
<path d="M106.68 112.008L108.22 113.437L110.282 112.976L109.391 114.891L110.462 116.703L108.376 116.453L106.977 118.031L106.571 115.961L104.641 115.125L106.477 114.101L106.68 112.008Z" fill="#969269"/>
<path d="M41.844 160.195L43.3909 161.625L45.4456 161.172L44.5628 163.078L45.6331 164.891L43.5393 164.641L42.1487 166.219L41.7424 164.156L39.8049 163.32L41.6487 162.289L41.844 160.195Z" fill="#969269"/>
<path d="M101.407 177.602L103.493 177.305L104.43 175.414L105.36 177.305L107.438 177.617L105.93 179.078L106.282 181.157L104.423 180.172L102.555 181.149L102.915 179.078L101.407 177.602Z" fill="#969269"/>
<path d="M67.6097 166.649C67.6097 166.649 57.344 179.438 60.3128 193.071" stroke="#514D27" stroke-width="0.75" stroke-linecap="round" stroke-linejoin="round"/>
<path d="M71.9615 169.906C71.9615 169.906 64.0864 175.656 62.188 185.977" stroke="#514D27" stroke-width="0.75" stroke-linecap="round" stroke-linejoin="round"/>
<path d="M125.235 161.297C124.368 160.68 123.352 160.328 122.181 160.352C122.181 160.352 85.7115 166.766 81.1725 167.742C76.6334 168.719 75.2115 169.719 74.5005 169.539C73.7896 169.36 74.188 166.492 73.399 166.094C72.6099 165.695 70.5552 166.43 70.1724 166.078C69.7896 165.727 71.8365 163.024 70.9458 162.617C70.0552 162.211 66.9536 160.961 66.3755 160.484C65.7974 160.008 51.977 135.477 44.9769 128.617" stroke="#514D27" stroke-width="0.75" stroke-linecap="round" stroke-linejoin="round"/>
<path d="M47.7347 92.9763C47.7347 92.9763 61.4614 104.148 73.1646 101.742C84.8678 99.3357 83.7506 88.9216 83.7506 88.9216" stroke="#514D27" stroke-width="0.75" stroke-linecap="round" stroke-linejoin="round"/>
</svg>
