<svg width="838" height="337" viewBox="0 0 838 337" fill="none" xmlns="http://www.w3.org/2000/svg">
<rect width="838" height="337" fill="#2C2577"/>
<path d="M297.913 181.886C297.179 182.18 295.858 182.4 294.537 182.4C291.015 182.4 289.254 181.006 289.254 178.585C289.254 176.457 291.235 174.989 294.684 174.989C296.592 174.989 297.252 175.136 297.913 175.209V181.886ZM310.24 168.238C310.24 159.433 305.03 153.123 294.097 153.123C289.915 153.123 284.925 153.93 281.183 155.544C280.669 155.765 280.596 156.058 280.596 156.498V164.863C280.596 165.303 280.963 165.45 281.33 165.303C284.265 164.056 288.007 163.102 291.455 163.102C296.812 163.102 297.913 165.524 297.913 166.551V166.991C297.179 166.991 295.491 166.918 293.877 166.918C283.457 166.918 276.78 171.174 276.78 178.951C276.78 187.903 283.898 191.352 292.483 191.352C298.573 191.352 304.516 189.958 310.313 187.536C310.533 187.463 310.533 187.316 310.533 187.243C310.313 185.115 310.24 183.281 310.24 181.079V168.238ZM336.008 191.352C341.291 191.352 347.382 190.178 352.518 187.977C353.032 187.757 353.105 187.61 353.032 187.17C352.885 185.482 352.738 182.767 352.738 180.639V139.548C352.738 139.255 352.665 139.108 352.298 139.108H340.557C340.19 139.108 339.97 139.255 339.97 139.622V153.123C339.457 153.123 339.016 153.123 337.916 153.123C323.607 153.123 316.343 162.148 316.343 172.421C316.343 184.821 324.708 191.352 336.008 191.352ZM339.97 181.226C339.383 181.373 338.576 181.52 337.549 181.52C332.706 181.52 329.551 178.291 329.551 171.981C329.551 165.524 333.66 162.882 337.769 162.882C338.796 162.882 339.53 163.102 339.97 163.176V181.226ZM378.423 153.123C366.609 153.123 358.978 161.268 358.978 172.274C358.978 182.107 364.848 191.352 378.13 191.352C389.356 191.352 397.281 184.088 397.281 171.981C397.281 162.368 391.117 153.123 378.423 153.123ZM378.056 162.955C382.312 162.955 384.366 166.698 384.366 172.274C384.366 178.364 382.018 181.52 378.35 181.52C374.461 181.52 371.966 177.998 371.966 172.054C371.966 166.111 374.461 162.955 378.056 162.955ZM420.694 153.123C414.604 153.123 408.44 154.591 403.45 156.131C403.23 156.205 403.157 156.425 403.157 156.645C403.304 157.672 403.45 161.121 403.45 162.442V204.413C403.45 204.78 403.524 205 404.037 205C404.624 205 411.669 204.34 415.557 204.046C416.071 203.973 416.218 203.679 416.218 203.239V191.279C417.098 191.352 417.172 191.352 417.685 191.352C428.178 191.352 439.845 184.675 439.845 171.174C439.845 162.295 434.342 153.123 420.694 153.123ZM419.446 162.882C423.409 162.882 426.637 165.23 426.637 171.907C426.637 178.878 422.528 181.52 418.419 181.52C417.759 181.52 416.952 181.52 416.218 181.373V163.249C417.025 163.029 417.979 162.882 419.446 162.882ZM466.979 181.813C466.979 181.226 466.612 181.153 466.318 181.226C465.291 181.446 464.924 181.52 464.191 181.52C461.329 181.52 460.522 180.346 460.522 177.19V163.689H466.612C467.052 163.689 467.199 163.542 467.199 163.102V154.37C467.199 153.93 467.052 153.783 466.539 153.783H460.522C460.595 150.188 460.742 145.859 460.889 143.657C460.889 143.07 460.669 143.07 460.302 143.144L449.369 144.465C448.928 144.538 448.708 144.831 448.635 145.272C448.195 147.473 447.974 151.435 447.754 153.783H443.572C442.985 153.783 442.838 154.004 442.838 154.517V162.955C442.838 163.469 442.985 163.616 443.425 163.689H447.681V180.272C447.681 187.83 451.79 191.352 458.834 191.352C461.843 191.352 464.117 191.058 466.318 190.105C466.832 189.884 466.979 189.518 466.979 189.004V181.813ZM528.465 153.123C522.375 153.123 516.211 154.591 511.222 156.131C511.001 156.205 510.928 156.425 510.928 156.645C511.075 157.672 511.222 161.121 511.222 162.442V204.413C511.222 204.78 511.295 205 511.809 205C512.396 205 519.44 204.34 523.329 204.046C523.842 203.973 523.989 203.679 523.989 203.239V191.279C524.87 191.352 524.943 191.352 525.457 191.352C535.949 191.352 547.616 184.675 547.616 171.174C547.616 162.295 542.113 153.123 528.465 153.123ZM527.218 162.882C531.18 162.882 534.408 165.23 534.408 171.907C534.408 178.878 530.299 181.52 526.19 181.52C525.53 181.52 524.723 181.52 523.989 181.373V163.249C524.796 163.029 525.75 162.882 527.218 162.882ZM572.644 181.886C571.91 182.18 570.589 182.4 569.268 182.4C565.746 182.4 563.985 181.006 563.985 178.585C563.985 176.457 565.966 174.989 569.415 174.989C571.323 174.989 571.983 175.136 572.644 175.209V181.886ZM584.971 168.238C584.971 159.433 579.761 153.123 568.828 153.123C564.646 153.123 559.656 153.93 555.914 155.544C555.4 155.765 555.327 156.058 555.327 156.498V164.863C555.327 165.303 555.694 165.45 556.061 165.303C558.996 164.056 562.738 163.102 566.186 163.102C571.543 163.102 572.644 165.524 572.644 166.551V166.991C571.91 166.991 570.222 166.918 568.608 166.918C558.188 166.918 551.511 171.174 551.511 178.951C551.511 187.903 558.629 191.352 567.214 191.352C573.304 191.352 579.247 189.958 585.044 187.536C585.264 187.463 585.264 187.316 585.264 187.243C585.044 185.115 584.971 183.281 584.971 181.079V168.238ZM633.579 190.618C634.313 190.618 634.387 190.471 634.68 189.811L644.806 154.517C644.953 154.004 644.659 153.783 644.219 153.783H633.873C633.359 153.783 633.139 154.004 633.066 154.444C631.011 163.616 629.397 171.614 628.223 177.264H628.076C627.563 174.329 626.535 167.578 623.967 154.37C623.894 153.93 623.747 153.783 623.233 153.783H611.42C610.833 153.783 610.686 154.077 610.613 154.591C607.678 167.872 606.504 174.182 605.917 176.897H605.77C605.256 173.888 604.302 168.752 601.22 154.37C601.074 153.93 600.927 153.783 600.34 153.783H588.82C588.306 153.783 588.086 154.077 588.233 154.517L597.478 189.811C597.698 190.398 597.845 190.618 598.652 190.618H610.246C610.686 190.618 610.979 190.471 611.126 189.811C613.841 179.685 615.822 170.88 616.556 166.844H616.629C617.363 170.66 618.611 177.998 621.032 189.811C621.179 190.398 621.326 190.618 622.059 190.618H633.579Z" fill="white"/>
<path d="M490.883 181.887C490.15 182.18 488.829 182.4 487.508 182.4C483.986 182.4 482.225 181.006 482.225 178.585C482.225 176.457 484.206 174.989 487.655 174.989C489.563 174.989 490.223 175.136 490.883 175.21V181.887ZM503.21 168.239C503.21 159.434 498.001 153.123 487.068 153.123C482.885 153.123 477.896 153.93 474.154 155.545C473.64 155.765 473.567 156.058 473.567 156.499V164.863C473.567 165.304 473.933 165.45 474.3 165.304C477.235 164.056 480.978 163.102 484.426 163.102C489.783 163.102 490.883 165.524 490.883 166.551V166.991C490.15 166.991 488.462 166.918 486.848 166.918C476.428 166.918 469.751 171.174 469.751 178.952C469.751 187.904 476.868 191.352 485.453 191.352C491.544 191.352 497.487 189.958 503.284 187.537C503.504 187.463 503.504 187.317 503.504 187.243C503.284 185.115 503.21 183.281 503.21 181.08V168.239Z" fill="#DF622C"/>
<path d="M228.107 164.369C231.236 164.328 234.013 165.339 236.542 167.145C239.512 169.257 241.883 171.933 244.006 174.862C245.347 176.715 246.659 178.597 247.782 180.579C249.082 182.879 250.235 185.267 250.564 187.943C250.852 190.296 250.447 192.437 248.353 193.914C246.759 195.037 244.959 195.337 243.053 195.155C241.289 194.99 239.73 194.202 238.124 193.549C236.16 192.755 234.213 191.896 232.119 191.473C229.384 190.92 226.713 191.302 224.072 192.072C221.967 192.69 219.961 193.608 217.861 194.255C216.349 194.719 214.82 195.019 213.226 195.06C209.944 195.143 207.327 192.69 206.644 189.726C206.362 188.502 206.527 187.326 206.815 186.12C207.297 184.108 207.879 182.138 208.709 180.244C210.297 176.615 212.291 173.221 214.967 170.304C218.096 166.88 222.043 164.922 226.684 164.428C226.86 164.41 227.037 164.381 227.213 164.375C227.507 164.363 227.807 164.375 228.107 164.375V164.369Z" fill="white"/>
<path d="M246.677 141.959C246.565 145.682 245.506 149.252 242.848 152.24C241.942 153.258 240.86 154.052 239.66 154.705C237.195 156.046 234.901 155.652 232.772 153.993C230.884 152.523 229.814 150.499 229.372 148.199C228.402 143.135 229.449 138.5 232.672 134.424C233.737 133.071 235.125 132.112 236.736 131.471C238.836 130.636 240.801 130.93 242.607 132.201C244.665 133.648 245.806 135.706 246.318 138.13C246.571 139.324 246.659 140.541 246.677 141.953V141.959Z" fill="#DF622C"/>
<path d="M225.137 145.776C225.125 148.229 224.549 150.746 222.873 152.899C221.455 154.722 219.591 155.705 217.232 155.528C216.079 155.44 215.067 154.905 214.109 154.316C211.18 152.523 209.409 149.84 208.392 146.635C207.403 143.517 207.156 140.329 208.092 137.165C208.797 134.771 210.215 132.865 212.538 131.765C213.879 131.13 215.262 131.13 216.656 131.589C219.449 132.512 221.432 134.406 222.867 136.906C224.396 139.576 225.084 142.482 225.137 145.776Z" fill="white"/>
<path d="M260.693 158.399C260.582 162.84 259.141 166.645 255.941 169.686C254.464 171.086 252.717 171.986 250.682 172.309C248.541 172.656 246.777 171.962 245.371 170.368C243.648 168.41 243.03 166.051 243.212 163.504C243.43 160.345 244.4 157.428 246.33 154.875C247.941 152.74 249.965 151.193 252.606 150.517C255.147 149.864 257.17 150.705 258.764 152.676C260.123 154.358 260.652 156.346 260.693 158.399Z" fill="white"/>
<path d="M194.005 159.651C194.005 158.169 194.187 156.71 194.763 155.34C196.099 152.14 200.122 150.67 203.274 152.264C208.109 154.711 210.727 158.728 211.38 164.051C211.633 166.115 211.468 168.174 210.462 170.039C209.274 172.239 207.462 173.58 204.857 173.415C203.216 173.315 201.722 172.633 200.363 171.715C196.834 169.327 194.869 165.939 194.158 161.78C194.087 161.369 194.04 160.957 194.01 160.545C193.987 160.251 194.01 159.951 194.01 159.657L194.005 159.651Z" fill="white"/>
</svg>
