<svg width="42" height="42" viewBox="0 0 42 42" fill="none" xmlns="http://www.w3.org/2000/svg">
<circle cx="21" cy="21" r="21" fill="#451E0E"/>
<path d="M21.1047 20.8422C22.2152 20.8276 23.2004 21.1867 24.098 21.8275C25.1522 22.5769 25.9934 23.5267 26.747 24.5662C27.2229 25.2237 27.6884 25.8917 28.0871 26.5952C28.5484 27.4114 28.9575 28.2588 29.0745 29.2086C29.1767 30.0436 29.0327 30.8034 28.2896 31.3274C27.7239 31.726 27.0851 31.8325 26.4088 31.7678C25.7826 31.7093 25.2294 31.4296 24.6596 31.1979C23.9623 30.9161 23.2714 30.6113 22.5283 30.4611C21.5577 30.2648 20.61 30.4005 19.6727 30.674C18.9254 30.8932 18.2136 31.2188 17.4684 31.4484C16.9319 31.6133 16.3892 31.7198 15.8235 31.7344C14.6587 31.7636 13.7298 30.8932 13.4877 29.8411C13.3875 29.4069 13.4459 28.9894 13.5482 28.5615C13.7194 27.8476 13.926 27.1484 14.2204 26.4762C14.784 25.1883 15.4916 23.9838 16.4414 22.9485C17.5519 21.7336 18.9525 21.0385 20.5995 20.8631C20.6621 20.8568 20.7248 20.8464 20.7874 20.8443C20.8917 20.8402 20.9982 20.8443 21.1047 20.8443V20.8422Z" fill="white"/>
<path d="M27.6946 12.8891C27.6549 14.2105 27.2792 15.4776 26.3357 16.5379C26.0142 16.8991 25.6302 17.1809 25.2043 17.4126C24.3297 17.8885 23.5156 17.7487 22.76 17.16C22.0899 16.6381 21.71 15.9201 21.5534 15.1039C21.209 13.3066 21.5806 11.6617 22.7244 10.2152C23.1023 9.73505 23.5949 9.3948 24.1669 9.16727C24.912 8.87086 25.6093 8.97523 26.2501 9.42611C26.9807 9.93961 27.3857 10.6702 27.5673 11.5302C27.657 11.954 27.6883 12.3861 27.6946 12.8871V12.8891Z" fill="#DF622C"/>
<path d="M20.0504 14.2438C20.0462 15.1143 19.8417 16.0077 19.2468 16.7717C18.7437 17.4188 18.082 17.7674 17.2449 17.7048C16.8358 17.6735 16.4767 17.4835 16.1365 17.2748C15.097 16.6381 14.4686 15.6862 14.1075 14.5486C13.7568 13.4423 13.6692 12.3109 14.0011 11.1879C14.2516 10.3383 14.7546 9.66196 15.5791 9.27161C16.0551 9.04617 16.5456 9.04617 17.0403 9.20899C18.0319 9.53671 18.7354 10.2089 19.2447 11.096C19.7874 12.0437 20.0316 13.0749 20.0504 14.2438Z" fill="white"/>
<path d="M32.6688 18.7235C32.6292 20.2995 32.1177 21.65 30.9822 22.7293C30.4582 23.2261 29.8383 23.5455 29.116 23.6603C28.3562 23.7834 27.73 23.5371 27.2311 22.9714C26.6195 22.2763 26.4003 21.4392 26.465 20.5354C26.5422 19.4144 26.8866 18.3791 27.5713 17.4732C28.1433 16.7154 28.8613 16.1664 29.7986 15.9264C30.7004 15.6946 31.4184 15.9931 31.9841 16.6924C32.4663 17.2895 32.6542 17.995 32.6688 18.7235Z" fill="white"/>
<path d="M9.00162 19.168C9.00162 18.642 9.06633 18.1243 9.2709 17.638C9.74475 16.5024 11.1725 15.9805 12.2914 16.5462C14.0073 17.4146 14.9361 18.8403 15.1678 20.7294C15.2576 21.4621 15.1992 22.1927 14.8422 22.8544C14.4206 23.6351 13.7776 24.111 12.8529 24.0526C12.2705 24.0171 11.7403 23.775 11.2581 23.4493C10.0057 22.6018 9.30847 21.3995 9.0559 19.9237C9.03085 19.7776 9.01415 19.6314 9.00371 19.4853C8.99536 19.3809 9.00371 19.2745 9.00371 19.1701L9.00162 19.168Z" fill="white"/>
</svg>
