<?xml version="1.0" encoding="UTF-8"?><svg xmlns="http://www.w3.org/2000/svg" xmlns:xlink="http://www.w3.org/1999/xlink" viewBox="0 0 387.43 256.96"><defs><style>.cls-1{fill:url(#_åçûìÿííûé_ãðàäèåíò_4-17);opacity:.38;}.cls-1,.cls-2,.cls-3,.cls-4,.cls-5,.cls-6,.cls-7,.cls-8,.cls-9,.cls-10,.cls-11,.cls-12,.cls-13,.cls-14,.cls-15,.cls-16,.cls-17,.cls-18,.cls-19,.cls-20,.cls-21,.cls-22,.cls-23,.cls-24,.cls-25,.cls-26,.cls-27,.cls-28,.cls-29,.cls-30,.cls-31,.cls-32{mix-blend-mode:multiply;}.cls-33{fill:url(#radial-gradient);}.cls-33,.cls-34,.cls-35,.cls-36,.cls-37,.cls-38,.cls-3,.cls-39,.cls-40,.cls-41,.cls-42,.cls-43,.cls-44,.cls-45,.cls-46,.cls-47,.cls-48,.cls-9,.cls-10,.cls-49,.cls-50,.cls-51,.cls-52,.cls-53,.cls-14,.cls-54,.cls-55,.cls-17,.cls-18,.cls-19,.cls-56,.cls-57,.cls-58,.cls-21,.cls-22,.cls-59,.cls-24,.cls-25,.cls-60,.cls-26,.cls-61,.cls-62,.cls-27,.cls-63,.cls-64,.cls-65,.cls-66,.cls-67,.cls-68,.cls-69,.cls-70,.cls-30,.cls-31,.cls-71,.cls-72,.cls-73{fill-rule:evenodd;}.cls-34{fill:url(#_åçûìÿííûé_ãðàäèåíò_128);}.cls-74{fill:url(#_åçûìÿííûé_ãðàäèåíò_196-4);}.cls-35{fill:url(#_åçûìÿííûé_ãðàäèåíò_128-2);}.cls-75{fill:#fff;}.cls-36{fill:#ff9f30;}.cls-37{fill:url(#radial-gradient-2);}.cls-76{fill:url(#_åçûìÿííûé_ãðàäèåíò_8);}.cls-2{fill:url(#_åçûìÿííûé_ãðàäèåíò_4-14);}.cls-2,.cls-20{opacity:.99;}.cls-38{fill:#bd4c3a;}.cls-77{fill:url(#_åçûìÿííûé_ãðàäèåíò_3-4);}.cls-77,.cls-49,.cls-78,.cls-79,.cls-60,.cls-80{mix-blend-mode:screen;}.cls-77,.cls-78,.cls-79,.cls-80{opacity:.5;}.cls-81{fill:url(#_åçûìÿííûé_ãðàäèåíò_115);}.cls-82{fill:url(#_åçûìÿííûé_ãðàäèåíò_12-2);}.cls-3{fill:url(#_åçûìÿííûé_ãðàäèåíò_4-2);}.cls-83{fill:url(#_åçûìÿííûé_ãðàäèåíò_168);}.cls-84{fill:url(#_åçûìÿííûé_ãðàäèåíò_169-2);}.cls-4{fill:url(#_åçûìÿííûé_ãðàäèåíò_4-9);}.cls-4,.cls-6,.cls-7,.cls-8,.cls-9,.cls-12,.cls-13,.cls-15,.cls-16,.cls-18,.cls-19,.cls-21,.cls-22,.cls-24,.cls-26,.cls-27,.cls-28,.cls-29,.cls-31,.cls-32{opacity:.6;}.cls-5{fill:url(#_åçûìÿííûé_ãðàäèåíò_32);opacity:.9;}.cls-39{fill:url(#_åçûìÿííûé_ãðàäèåíò_184-2);}.cls-40{fill:#4a4200;opacity:.31;}.cls-41{fill:#635110;}.cls-85{fill:url(#_åçûìÿííûé_ãðàäèåíò_114);}.cls-42{fill:url(#_åçûìÿííûé_ãðàäèåíò_135);}.cls-6{fill:url(#_åçûìÿííûé_ãðàäèåíò_217-3);}.cls-86{fill:url(#_åçûìÿííûé_ãðàäèåíò_9);}.cls-87{isolation:isolate;}.cls-43{fill:url(#_åçûìÿííûé_ãðàäèåíò_128-5);}.cls-44{fill:url(#_åçûìÿííûé_ãðàäèåíò_135-4);}.cls-45{fill:url(#_åçûìÿííûé_ãðàäèåíò_135-3);}.cls-88{fill:#3c1434;}.cls-46{fill:url(#_åçûìÿííûé_ãðàäèåíò_184-3);}.cls-7{fill:url(#_åçûìÿííûé_ãðàäèåíò_4-13);}.cls-8{fill:url(#_åçûìÿííûé_ãðàäèåíò_4-12);}.cls-47{fill:url(#_åçûìÿííûé_ãðàäèåíò_120);}.cls-48{fill:#522f2e;}.cls-89{fill:url(#_åçûìÿííûé_ãðàäèåíò_169);}.cls-9{fill:url(#_åçûìÿííûé_ãðàäèåíò_119-3);}.cls-90{fill:url(#_åçûìÿííûé_ãðàäèåíò_193);}.cls-10{fill:url(#_åçûìÿííûé_ãðàäèåíò_4-7);}.cls-10,.cls-11,.cls-14{opacity:.91;}.cls-49{fill:url(#_åçûìÿííûé_ãðàäèåíò_3);}.cls-49,.cls-60{opacity:.04;}.cls-11{fill:url(#_åçûìÿííûé_ãðàäèåíò_4-6);}.cls-50{fill:url(#_åçûìÿííûé_ãðàäèåíò_11-2);}.cls-91{fill:url(#_åçûìÿííûé_ãðàäèåíò_196);}.cls-12{fill:url(#_åçûìÿííûé_ãðàäèåíò_4-8);}.cls-92{fill:url(#_åçûìÿííûé_ãðàäèåíò_154-2);}.cls-78{fill:url(#_åçûìÿííûé_ãðàäèåíò_3-3);}.cls-51{fill:#d1e011;}.cls-93{fill:url(#_åçûìÿííûé_ãðàäèåíò_115-3);}.cls-52{fill:url(#_åçûìÿííûé_ãðàäèåíò_128-7);}.cls-94{fill:url(#_åçûìÿííûé_ãðàäèåíò_168-2);}.cls-53{fill:url(#_åçûìÿííûé_ãðàäèåíò_565-2);}.cls-95{fill:url(#_åçûìÿííûé_ãðàäèåíò_20);}.cls-96{fill:url(#_åçûìÿííûé_ãðàäèåíò_112);}.cls-13{fill:url(#_åçûìÿííûé_ãðàäèåíò_217);}.cls-14{fill:url(#_åçûìÿííûé_ãðàäèåíò_4);}.cls-97{fill:#bf512c;}.cls-54{fill:url(#_åçûìÿííûé_ãðàäèåíò_99);}.cls-15{fill:url(#_åçûìÿííûé_ãðàäèåíò_4-15);}.cls-16{fill:url(#_åçûìÿííûé_ãðàäèåíò_4-10);}.cls-55{fill:#ea6d2c;}.cls-98{fill:url(#_åçûìÿííûé_ãðàäèåíò_154-3);}.cls-99{fill:url(#_åçûìÿííûé_ãðàäèåíò_6-2);}.cls-17{fill:#ce777c;opacity:.8;}.cls-18{fill:#ffcad4;}.cls-79{fill:url(#_åçûìÿííûé_ãðàäèåíò_3-6);}.cls-19{fill:#ac6393;}.cls-100{fill:url(#_åçûìÿííûé_ãðàäèåíò_6);}.cls-56{fill:#ffc763;mix-blend-mode:soft-light;}.cls-57{fill:url(#_åçûìÿííûé_ãðàäèåíò_185);}.cls-58{fill:url(#_åçûìÿííûé_ãðàäèåíò_128-6);}.cls-101{fill:#ffce5c;}.cls-102{fill:url(#_åçûìÿííûé_ãðàäèåíò_154);}.cls-103{fill:url(#_åçûìÿííûé_ãðàäèåíò_5);}.cls-104{fill:url(#_åçûìÿííûé_ãðàäèåíò_196-2);}.cls-105{fill:url(#_åçûìÿííûé_ãðàäèåíò_10);}.cls-106{fill:url(#_åçûìÿííûé_ãðàäèåíò_193-2);}.cls-20{fill:url(#_åçûìÿííûé_ãðàäèåíò_217-2);}.cls-107{fill:url(#_åçûìÿííûé_ãðàäèåíò_26);}.cls-21{fill:url(#_åçûìÿííûé_ãðàäèåíò_119-2);}.cls-22{fill:url(#_åçûìÿííûé_ãðàäèåíò_149);}.cls-108{fill:url(#_åçûìÿííûé_ãðàäèåíò_120-3);}.cls-109{fill:url(#radial-gradient-3);}.cls-59{fill:#a48000;}.cls-110{fill:url(#_åçûìÿííûé_ãðàäèåíò_8-2);}.cls-23{fill:#764d53;}.cls-24{fill:url(#_åçûìÿííûé_ãðàäèåíò_119);}.cls-25{fill:#decad4;}.cls-60{fill:url(#_åçûìÿííûé_ãðàäèåíò_3-2);}.cls-26{fill:url(#_åçûìÿííûé_ãðàäèåíò_119-4);}.cls-61{fill:url(#radial-gradient-4);}.cls-62{fill:url(#_åçûìÿííûé_ãðàäèåíò_11);}.cls-27{fill:url(#_åçûìÿííûé_ãðàäèåíò_4-4);}.cls-111{fill:url(#_åçûìÿííûé_ãðàäèåíò_120-2);}.cls-63{fill:url(#_åçûìÿííûé_ãðàäèåíò_565);}.cls-64{fill:url(#_åçûìÿííûé_ãðàäèåíò_7-2);}.cls-112{fill:#fd8;}.cls-28{fill:url(#_åçûìÿííûé_ãðàäèåíò_4-16);}.cls-65{fill:url(#_åçûìÿííûé_ãðàäèåíò_7);}.cls-29{fill:url(#_åçûìÿííûé_ãðàäèåíò_4-11);}.cls-113{fill:#6d5c6d;}.cls-66{fill:url(#_åçûìÿííûé_ãðàäèåíò_128-4);}.cls-80{fill:url(#_åçûìÿííûé_ãðàäèåíò_3-5);}.cls-114{fill:url(#_åçûìÿííûé_ãðàäèåíò_10-2);}.cls-115{fill:url(#_åçûìÿííûé_ãðàäèåíò_193-3);}.cls-116{fill:url(#_åçûìÿííûé_ãðàäèåíò_162);}.cls-117{fill:url(#_åçûìÿííûé_ãðàäèåíò_12);}.cls-67{fill:url(#_åçûìÿííûé_ãðàäèåíò_135-2);}.cls-68{fill:#9f1d4c;}.cls-69{fill:url(#radial-gradient-5);}.cls-70{fill:url(#_åçûìÿííûé_ãðàäèåíò_2);}.cls-30{fill:url(#_åçûìÿííûé_ãðàäèåíò_4-5);}.cls-31{fill:url(#_åçûìÿííûé_ãðàäèåíò_119-5);}.cls-71{fill:url(#_åçûìÿííûé_ãðàäèåíò_184);}.cls-32{fill:url(#_åçûìÿííûé_ãðàäèåíò_4-3);}.cls-72{fill:url(#_åçûìÿííûé_ãðàäèåíò_128-3);}.cls-73{fill:url(#_åçûìÿííûé_ãðàäèåíò_194);}.cls-118{fill:url(#_åçûìÿííûé_ãðàäèåíò_196-3);}.cls-119{fill:url(#_åçûìÿííûé_ãðàäèåíò_115-2);}</style><radialGradient id="radial-gradient" cx="1749.95" cy="156.35" fx="1749.95" fy="156.35" r="75.6" gradientTransform="translate(2054.44) rotate(-180) scale(1 -1)" gradientUnits="userSpaceOnUse"><stop offset="0" stop-color="#5a3941"/><stop offset=".99" stop-color="#3b2240"/></radialGradient><linearGradient id="_åçûìÿííûé_ãðàäèåíò_135" x1="1718.83" y1="226.93" x2="1753.73" y2="226.93" gradientTransform="translate(2054.44) rotate(-180) scale(1 -1)" gradientUnits="userSpaceOnUse"><stop offset="0" stop-color="#d94e41"/><stop offset="1" stop-color="#c05636"/></linearGradient><linearGradient id="_åçûìÿííûé_ãðàäèåíò_4" x1="1718.83" y1="206.05" x2="1753.73" y2="206.05" gradientTransform="translate(2054.44) rotate(-180) scale(1 -1)" gradientUnits="userSpaceOnUse"><stop offset=".02" stop-color="#f0c2d6"/><stop offset=".99" stop-color="#bd89c4"/></linearGradient><radialGradient id="radial-gradient-2" cx="1728.48" cy="146.41" fx="1728.48" fy="146.41" r="53.74" xlink:href="#radial-gradient"/><linearGradient id="_åçûìÿííûé_ãðàäèåíò_135-2" x1="1709.71" y1="152.23" x2="1709.71" y2="101.52" xlink:href="#_åçûìÿííûé_ãðàäèåíò_135"/><linearGradient id="_åçûìÿííûé_ãðàäèåíò_119" x1="1717.26" y1="150.1" x2="1717.26" y2="122.64" gradientTransform="translate(2054.44) rotate(-180) scale(1 -1)" gradientUnits="userSpaceOnUse"><stop offset=".02" stop-color="#ac6393"/><stop offset="1" stop-color="#fff2ef"/></linearGradient><linearGradient id="_åçûìÿííûé_ãðàäèåíò_120" x1="1836.92" y1="215.16" x2="1836.92" y2="161.58" gradientTransform="translate(2054.44) rotate(-180) scale(1 -1)" gradientUnits="userSpaceOnUse"><stop offset="0" stop-color="#3b2240"/><stop offset="1" stop-color="#5a3941"/></linearGradient><linearGradient id="_åçûìÿííûé_ãðàäèåíò_128" x1="1807.58" y1="226.44" x2="1857.58" y2="226.44" gradientTransform="translate(2054.44) rotate(-180) scale(1 -1)" gradientUnits="userSpaceOnUse"><stop offset="0" stop-color="#eb5a41"/><stop offset="1" stop-color="#ff7236"/></linearGradient><linearGradient id="_åçûìÿííûé_ãðàäèåíò_135-3" x1="1789.5" y1="170.69" x2="1872.76" y2="170.69" xlink:href="#_åçûìÿííûé_ãðàäèåíò_135"/><linearGradient id="_åçûìÿííûé_ãðàäèåíò_565" x1="1753.13" y1="218.95" x2="1787.02" y2="218.95" gradientTransform="translate(2202.8 -48.8) rotate(-180) scale(1.12 -.86)" gradientUnits="userSpaceOnUse"><stop offset="0" stop-color="#f20044"/><stop offset="1" stop-color="#d90e27"/></linearGradient><linearGradient id="_åçûìÿííûé_ãðàäèåíò_128-2" x1="1726.72" y1="184.88" x2="1796.25" y2="184.88" xlink:href="#_åçûìÿííûé_ãðàäèåíò_128"/><linearGradient id="_åçûìÿííûé_ãðàäèåíò_135-4" x1="1727.21" y1="185.95" x2="1796.25" y2="185.95" xlink:href="#_åçûìÿííûé_ãðàäèåíò_135"/><radialGradient id="radial-gradient-3" cx="1865.43" cy="153.26" fx="1865.43" fy="153.26" r="50.97" xlink:href="#radial-gradient"/><linearGradient id="_åçûìÿííûé_ãðàäèåíò_149" x1="1790.12" y1="193" x2="1857.5" y2="193" gradientTransform="translate(2054.44) rotate(-180) scale(1 -1)" gradientUnits="userSpaceOnUse"><stop offset=".02" stop-color="#e08893"/><stop offset="1" stop-color="#fff2ef"/></linearGradient><radialGradient id="radial-gradient-4" cx="1729.67" cy="158.48" fx="1729.67" fy="158.48" r="75.6" xlink:href="#radial-gradient"/><linearGradient id="_åçûìÿííûé_ãðàäèåíò_128-3" x1="1731.21" y1="323.8" x2="1776.24" y2="323.8" gradientTransform="translate(2202.8 -48.8) rotate(-180) scale(1.12 -.86)" xlink:href="#_åçûìÿííûé_ãðàäèåíò_128"/><linearGradient id="_åçûìÿííûé_ãðàäèåíò_119-2" x1="1752.94" y1="209.96" x2="1845.1" y2="209.96" xlink:href="#_åçûìÿííûé_ãðàäèåíò_119"/><linearGradient id="_åçûìÿííûé_ãðàäèåíò_128-4" x1="513.3" y1="224.27" x2="612.31" y2="224.27" gradientTransform="translate(-257.21)" xlink:href="#_åçûìÿííûé_ãðàäèåíò_128"/><linearGradient id="_åçûìÿííûé_ãðàäèåíò_3" x1="1707.39" y1="184.55" x2="1736.28" y2="184.55" gradientTransform="translate(2054.44) rotate(-180) scale(1 -1)" gradientUnits="userSpaceOnUse"><stop offset="0" stop-color="#c48260"/><stop offset="1" stop-color="#decfef"/></linearGradient><linearGradient id="_åçûìÿííûé_ãðàäèåíò_119-3" x1="598.5" y1="235.52" x2="598.5" y2="208.6" gradientTransform="translate(-257.21)" xlink:href="#_åçûìÿííûé_ãðàäèåíò_119"/><linearGradient id="_åçûìÿííûé_ãðàäèåíò_119-4" x1="1703.64" y1="158.38" x2="1729.82" y2="158.38" xlink:href="#_åçûìÿííûé_ãðàäèåíò_119"/><linearGradient id="_åçûìÿííûé_ãðàäèåíò_3-2" x1="1741.32" y1="155.72" x2="1788.41" y2="155.72" xlink:href="#_åçûìÿííûé_ãðàäèåíò_3"/><linearGradient id="_åçûìÿííûé_ãðàäèåíò_194" x1="4935.81" y1="62.62" x2="4935.81" y2="46.19" gradientTransform="translate(-4722.23)" gradientUnits="userSpaceOnUse"><stop offset="0" stop-color="#6da000"/><stop offset="1" stop-color="#818b05"/></linearGradient><linearGradient id="_åçûìÿííûé_ãðàäèåíò_185" x1="4968.19" y1="62.62" x2="4968.19" y2="48.22" gradientTransform="translate(-4722.23)" gradientUnits="userSpaceOnUse"><stop offset="0" stop-color="#cddb05"/><stop offset="1" stop-color="#6da000"/></linearGradient><linearGradient id="_åçûìÿííûé_ãðàäèåíò_169" x1="4965.49" y1="62.62" x2="4965.49" y2="51.45" gradientTransform="translate(-4722.23)" gradientUnits="userSpaceOnUse"><stop offset="0" stop-color="#3989e8"/><stop offset="1" stop-color="#5142d8"/></linearGradient><linearGradient id="_åçûìÿííûé_ãðàäèåíò_4-2" x1="4958.02" y1="54.98" x2="4958.02" y2="50.72" gradientTransform="translate(-4722.23)" xlink:href="#_åçûìÿííûé_ãðàäèåíò_4"/><linearGradient id="_åçûìÿííûé_ãðàäèåíò_168" x1="4931.41" y1="57.06" x2="4931.41" y2="53.9" gradientTransform="translate(-4722.23)" gradientUnits="userSpaceOnUse"><stop offset="0" stop-color="#3d2cbf"/><stop offset="1" stop-color="#1b4a97"/></linearGradient><linearGradient id="_åçûìÿííûé_ãðàäèåíò_20" x1="4936.04" y1="56.86" x2="4936.04" y2="1.31" gradientTransform="translate(-4722.23)" gradientUnits="userSpaceOnUse"><stop offset="0" stop-color="#5142d8"/><stop offset="1" stop-color="#3989e8"/></linearGradient><linearGradient id="_åçûìÿííûé_ãðàäèåíò_184" x1="4929.7" y1="48.22" x2="4929.7" y2="17.11" gradientTransform="translate(-4722.23)" gradientUnits="userSpaceOnUse"><stop offset="0" stop-color="#6da000"/><stop offset="1" stop-color="#cddb05"/></linearGradient><linearGradient id="_åçûìÿííûé_ãðàäèåíò_4-3" x1="4932.32" y1="33.86" x2="4921.41" y2="12.28" gradientTransform="translate(-4722.23)" xlink:href="#_åçûìÿííûé_ãðàäèåíò_4"/><linearGradient id="_åçûìÿííûé_ãðàäèåíò_99" x1="4925.95" y1="32.66" x2="4925.95" y2="21.21" gradientTransform="translate(-4722.23)" gradientUnits="userSpaceOnUse"><stop offset="0" stop-color="#ff5a55"/><stop offset="1" stop-color="#ff9536"/></linearGradient><linearGradient id="_åçûìÿííûé_ãðàäèåíò_11" x1="4922.42" y1="35.2" x2="4922.42" y2="21.21" gradientTransform="translate(-4722.23)" gradientUnits="userSpaceOnUse"><stop offset="0" stop-color="#ff9d31"/><stop offset="1" stop-color="#ffcc1b"/></linearGradient><linearGradient id="_åçûìÿííûé_ãðàäèåíò_168-2" x1="3134.55" y1="3300.84" x2="3134.55" y2="3294.52" gradientTransform="translate(-4330.96 384.21) rotate(-51.08)" xlink:href="#_åçûìÿííûé_ãðàäèåíò_168"/><linearGradient id="_åçûìÿííûé_ãðàäèåíò_115" x1="3134.38" y1="3300.86" x2="3134.38" y2="3295.05" gradientTransform="translate(-4330.96 384.21) rotate(-51.08)" gradientUnits="userSpaceOnUse"><stop offset="0" stop-color="#fff"/><stop offset="1" stop-color="#d0c7f8"/></linearGradient><linearGradient id="_åçûìÿííûé_ãðàäèåíò_154" x1="3098.4" y1="2613.88" x2="3098.4" y2="2609.89" gradientTransform="translate(-4591.2 445.97) rotate(-37.96) scale(1.31 1)" gradientUnits="userSpaceOnUse"><stop offset="0" stop-color="#934a1a"/><stop offset=".98" stop-color="#33112f"/></linearGradient><linearGradient id="_åçûìÿííûé_ãðàäèåíò_4-4" x1="4940.29" y1="56.86" x2="4940.29" y2="32.66" gradientTransform="translate(-4722.23)" xlink:href="#_åçûìÿííûé_ãðàäèåíò_4"/><linearGradient id="_åçûìÿííûé_ãðàäèåíò_184-2" x1="4926.92" y1="6.67" x2="4926.92" y2="0" xlink:href="#_åçûìÿííûé_ãðàäèåíò_184"/><linearGradient id="_åçûìÿííûé_ãðàäèåíò_4-5" x1="4949.27" y1="52.7" x2="4949.27" y2="32.66" gradientTransform="translate(-4722.23)" xlink:href="#_åçûìÿííûé_ãðàäèåíò_4"/><linearGradient id="_åçûìÿííûé_ãðàäèåíò_184-3" x1="4950.65" y1="51.45" x2="4950.65" y2="21.21" xlink:href="#_åçûìÿííûé_ãðàäèåíò_184"/><linearGradient id="_åçûìÿííûé_ãðàäèåíò_169-2" x1="4946.92" y1="57.11" x2="4946.92" y2="54.06" xlink:href="#_åçûìÿííûé_ãðàäèåíò_169"/><linearGradient id="_åçûìÿííûé_ãðàäèåíò_112" x1="4911.71" y1="155.35" x2="4911.71" y2="58.04" gradientTransform="translate(-4722.23)" gradientUnits="userSpaceOnUse"><stop offset="0" stop-color="#30142e"/><stop offset="1" stop-color="#482127"/></linearGradient><linearGradient id="_åçûìÿííûé_ãðàäèåíò_120-2" x1="1866.47" y1="152.01" x2="1866.47" y2="151.16" xlink:href="#_åçûìÿííûé_ãðàäèåíò_120"/><linearGradient id="_åçûìÿííûé_ãðàäèåíò_120-3" x1="1854.31" y1="166.26" x2="1854.31" y2="60.32" xlink:href="#_åçûìÿííûé_ãðàäèåíò_120"/><linearGradient id="_åçûìÿííûé_ãðàäèåíò_128-5" x1="4907.9" y1="137.17" x2="4907.9" y2="99.76" gradientTransform="translate(-4722.23)" xlink:href="#_åçûìÿííûé_ãðàäèåíò_128"/><linearGradient id="_åçûìÿííûé_ãðàäèåíò_115-2" x1="4901.92" y1="97.86" x2="4901.92" y2="77.65" gradientTransform="translate(-4722.23)" xlink:href="#_åçûìÿííûé_ãðàäèåíò_115"/><linearGradient id="_åçûìÿííûé_ãðàäèåíò_114" x1="4896.28" y1="109.13" x2="4896.28" y2="96.38" gradientTransform="translate(-4722.23)" gradientUnits="userSpaceOnUse"><stop offset="0" stop-color="#30142e"/><stop offset="1" stop-color="#2f2127"/></linearGradient><linearGradient id="_åçûìÿííûé_ãðàäèåíò_115-3" x1="4934.47" y1="102.64" x2="4934.47" y2="77.69" gradientTransform="translate(-4722.23)" xlink:href="#_åçûìÿííûé_ãðàäèåíò_115"/><linearGradient id="_åçûìÿííûé_ãðàäèåíò_32" x1="4890.14" y1="114.67" x2="4924.89" y2="114.67" gradientTransform="translate(-4722.23)" gradientUnits="userSpaceOnUse"><stop offset="0" stop-color="#ccb8ff"/><stop offset="1" stop-color="#af8bc2"/></linearGradient><linearGradient id="_åçûìÿííûé_ãðàäèåíò_4-6" x1="1882.95" y1="160.38" x2="1799.32" y2="89.63" xlink:href="#_åçûìÿííûé_ãðàäèåíò_4"/><linearGradient id="_åçûìÿííûé_ãðàäèåíò_4-7" x1="1860.47" y1="186.96" x2="1776.84" y2="116.22" xlink:href="#_åçûìÿííûé_ãðàäèåíò_4"/><linearGradient id="_åçûìÿííûé_ãðàäèåíò_565-2" x1="1840.09" y1="166.26" x2="1840.09" y2="140.16" gradientTransform="translate(2054.44) rotate(-180) scale(1 -1)" xlink:href="#_åçûìÿííûé_ãðàäèåíò_565"/><linearGradient id="_åçûìÿííûé_ãðàäèåíò_154-2" x1="4880.36" y1="-913.92" x2="4880.36" y2="-928.44" gradientTransform="translate(-4756.97 -121.37) rotate(13.13)" xlink:href="#_åçûìÿííûé_ãðàäèåíò_154"/><linearGradient id="_åçûìÿííûé_ãðàäèåíò_154-3" x1="9362.84" y1="-1716.34" x2="9362.84" y2="-1730.85" gradientTransform="translate(-4509.71 -132.86) rotate(20.34) scale(.48 .82)" xlink:href="#_åçûìÿííûé_ãðàäèåíò_154"/><linearGradient id="_åçûìÿííûé_ãðàäèåíò_162" x1="4974.95" y1="159.08" x2="4974.95" y2="58.05" gradientTransform="translate(-4722.23)" gradientUnits="userSpaceOnUse"><stop offset="0" stop-color="#47233b"/><stop offset="1" stop-color="#764d53"/></linearGradient><linearGradient id="_åçûìÿííûé_ãðàäèåíò_217" x1="4951.49" y1="108.57" x2="4996.9" y2="108.57" gradientTransform="translate(-4722.23)" gradientUnits="userSpaceOnUse"><stop offset="0" stop-color="#bd89c4"/><stop offset=".98" stop-color="#f0c2d6"/></linearGradient><linearGradient id="_åçûìÿííûé_ãðàäèåíò_128-6" x1="4951.49" y1="86.8" x2="4959.1" y2="86.8" gradientTransform="translate(-4722.23)" xlink:href="#_åçûìÿííûé_ãðàäèåíò_128"/><linearGradient id="_åçûìÿííûé_ãðàäèåíò_11-2" x1="4926.17" y1="166.56" x2="4926.17" y2="154.97" xlink:href="#_åçûìÿííûé_ãðàäèåíò_11"/><linearGradient id="_åçûìÿííûé_ãðàäèåíò_3-3" x1="4935.16" y1="87.75" x2="4935.16" y2="78.84" gradientTransform="translate(-4722.23)" xlink:href="#_åçûìÿííûé_ãðàäèåíò_3"/><linearGradient id="_åçûìÿííûé_ãðàäèåíò_3-4" x1="4903.04" y1="84.91" x2="4903.04" y2="78.3" gradientTransform="translate(-4722.23)" xlink:href="#_åçûìÿííûé_ãðàäèåíò_3"/><linearGradient id="_åçûìÿííûé_ãðàäèåíò_12" x1="771.62" y1="103.18" x2="771.62" y2="72.07" gradientTransform="translate(856.73) rotate(-180) scale(1 -1)" gradientUnits="userSpaceOnUse"><stop offset="0" stop-color="#fffedc"/><stop offset="1" stop-color="#ffa69f"/></linearGradient><linearGradient id="_åçûìÿííûé_ãðàäèåíò_10" x1="767.72" y1="101.64" x2="767.72" y2="73.1" gradientTransform="translate(856.73) rotate(-180) scale(1 -1)" gradientUnits="userSpaceOnUse"><stop offset=".02" stop-color="#ff8359"/><stop offset="1" stop-color="#ff8b7c"/></linearGradient><linearGradient id="_åçûìÿííûé_ãðàäèåíò_4-8" x1="768.65" y1="97.03" x2="768.65" y2="73.1" gradientTransform="translate(856.73) rotate(-180) scale(1 -1)" xlink:href="#_åçûìÿííûé_ãðàäèåíò_4"/><linearGradient id="_åçûìÿííûé_ãðàäèåíò_12-2" x1="811.77" y1="106.32" x2="839.75" y2="101.89" xlink:href="#_åçûìÿííûé_ãðàäèåíò_12"/><linearGradient id="_åçûìÿííûé_ãðàäèåíò_10-2" x1="828.26" y1="114.64" x2="828.26" y2="97.37" xlink:href="#_åçûìÿííûé_ãðàäèåíò_10"/><linearGradient id="_åçûìÿííûé_ãðàäèåíò_4-9" x1="828.3" y1="103.47" x2="828.3" y2="97.37" gradientTransform="translate(856.73) rotate(-180) scale(1 -1)" xlink:href="#_åçûìÿííûé_ãðàäèåíò_4"/><linearGradient id="_åçûìÿííûé_ãðàäèåíò_9" x1="755.82" y1="216.26" x2="755.82" y2="179.88" gradientTransform="translate(856.73) rotate(-180) scale(1 -1)" gradientUnits="userSpaceOnUse"><stop offset="0" stop-color="#ffa48d"/><stop offset="1" stop-color="#ce8eab"/></linearGradient><linearGradient id="_åçûìÿííûé_ãðàäèåíò_6" x1="801.22" y1="210.95" x2="801.22" y2="162.36" gradientTransform="translate(856.73) rotate(-180) scale(1 -1)" gradientUnits="userSpaceOnUse"><stop offset="0" stop-color="#ffb397"/><stop offset="1" stop-color="#ce8eab"/></linearGradient><linearGradient id="_åçûìÿííûé_ãðàäèåíò_4-10" x1="789.94" y1="198.07" x2="789.94" y2="162.36" gradientTransform="translate(856.73) rotate(-180) scale(1 -1)" xlink:href="#_åçûìÿííûé_ãðàäèåíò_4"/><linearGradient id="_åçûìÿííûé_ãðàäèåíò_4-11" x1="757.04" y1="216.26" x2="757.04" y2="181.37" gradientTransform="translate(856.73) rotate(-180) scale(1 -1)" xlink:href="#_åçûìÿííûé_ãðàäèåíò_4"/><linearGradient id="_åçûìÿííûé_ãðàäèåíò_196" x1="685.05" y1="256.96" x2="685.05" y2="203.08" gradientTransform="translate(856.73) rotate(-180) scale(1 -1)" gradientUnits="userSpaceOnUse"><stop offset="0" stop-color="#ffd5cb"/><stop offset="1" stop-color="#fffedc"/></linearGradient><linearGradient id="_åçûìÿííûé_ãðàäèåíò_196-2" x1="768.49" y1="216.26" x2="768.49" y2="91.05" xlink:href="#_åçûìÿííûé_ãðàäèåíò_196"/><linearGradient id="_åçûìÿííûé_ãðàäèåíò_8" x1="783.43" y1="139.91" x2="783.43" y2="114.86" gradientTransform="translate(856.73) rotate(-180) scale(1 -1)" gradientUnits="userSpaceOnUse"><stop offset="0" stop-color="#ce8eab"/><stop offset="1" stop-color="#ffb397"/></linearGradient><linearGradient id="_åçûìÿííûé_ãðàäèåíò_193" x1="783.92" y1="130.63" x2="783.92" y2="111.39" gradientTransform="translate(856.73) rotate(-180) scale(1 -1)" gradientUnits="userSpaceOnUse"><stop offset="0" stop-color="#6f2e45"/><stop offset="1" stop-color="#923e42"/></linearGradient><linearGradient id="_åçûìÿííûé_ãðàäèåíò_8-2" x1="818.41" y1="144.45" x2="818.41" y2="127.49" xlink:href="#_åçûìÿííûé_ãðàäèåíò_8"/><linearGradient id="_åçûìÿííûé_ãðàäèåíò_7" x1="783.64" y1="138.61" x2="783.64" y2="113.4" gradientTransform="translate(856.73) rotate(-180) scale(1 -1)" gradientUnits="userSpaceOnUse"><stop offset="0" stop-color="#ffdb1b"/><stop offset="1" stop-color="#ff8e31"/></linearGradient><linearGradient id="_åçûìÿííûé_ãðàäèåíò_7-2" x1="818.63" y1="143.21" x2="818.63" y2="124.58" xlink:href="#_åçûìÿííûé_ãðàäèåíò_7"/><linearGradient id="_åçûìÿííûé_ãðàäèåíò_26" x1="807.22" y1="146.57" x2="807.22" y2="139.8" gradientTransform="translate(856.73) rotate(-180) scale(1 -1)" gradientUnits="userSpaceOnUse"><stop offset=".02" stop-color="#ff8359"/><stop offset="1" stop-color="#ffc7c0"/></linearGradient><linearGradient id="_åçûìÿííûé_ãðàäèåíò_193-2" x1="819.06" y1="131.52" x2="819.06" y2="124.14" xlink:href="#_åçûìÿííûé_ãðàäèåíò_193"/><linearGradient id="_åçûìÿííûé_ãðàäèåíò_193-3" x1="802.99" y1="152.55" x2="802.99" y2="144.42" xlink:href="#_åçûìÿííûé_ãðàäèåíò_193"/><linearGradient id="_åçûìÿííûé_ãðàäèåíò_6-2" x1="800.34" y1="157.96" x2="800.34" y2="155.13" xlink:href="#_åçûìÿííûé_ãðàäèåíò_6"/><linearGradient id="_åçûìÿííûé_ãðàäèåíò_4-12" x1="807.23" y1="146.57" x2="807.23" y2="141.45" gradientTransform="translate(856.73) rotate(-180) scale(1 -1)" xlink:href="#_åçûìÿííûé_ãðàäèåíò_4"/><linearGradient id="_åçûìÿííûé_ãðàäèåíò_196-3" x1="825.55" y1="115.83" x2="825.55" y2="103.18" xlink:href="#_åçûìÿííûé_ãðàäèåíò_196"/><linearGradient id="_åçûìÿííûé_ãðàäèåíò_196-4" x1="767.2" y1="103.18" x2="767.2" y2="87.62" xlink:href="#_åçûìÿííûé_ãðàäèåíò_196"/><linearGradient id="_åçûìÿííûé_ãðàäèåíò_5" x1="804.79" y1="113.68" x2="804.79" y2="91.09" gradientTransform="translate(856.73) rotate(-180) scale(1 -1)" gradientUnits="userSpaceOnUse"><stop offset="0" stop-color="#f7ac95"/><stop offset=".99" stop-color="#cc6a77"/></linearGradient><linearGradient id="_åçûìÿííûé_ãðàäèåíò_4-13" x1="785.21" y1="164.35" x2="785.21" y2="101.79" gradientTransform="translate(856.73) rotate(-180) scale(1 -1)" xlink:href="#_åçûìÿííûé_ãðàäèåíò_4"/><linearGradient id="_åçûìÿííûé_ãðàäèåíò_4-14" x1="773.64" y1="172.51" x2="773.64" y2="140.63" gradientTransform="translate(856.73) rotate(-180) scale(1 -1)" xlink:href="#_åçûìÿííûé_ãðàäèåíò_4"/><linearGradient id="_åçûìÿííûé_ãðàäèåíò_4-15" x1="749.14" y1="216.26" x2="749.14" y2="143.19" gradientTransform="translate(856.73) rotate(-180) scale(1 -1)" xlink:href="#_åçûìÿííûé_ãðàäèåíò_4"/><linearGradient id="_åçûìÿííûé_ãðàäèåíò_217-2" x1="734.99" y1="193.87" x2="734.99" y2="171.33" gradientTransform="translate(856.73) rotate(-180) scale(1 -1)" xlink:href="#_åçûìÿííûé_ãðàäèåíò_217"/><linearGradient id="_åçûìÿííûé_ãðàäèåíò_4-16" x1="740.56" y1="213.4" x2="740.56" y2="206.89" gradientTransform="translate(856.73) rotate(-180) scale(1 -1)" xlink:href="#_åçûìÿííûé_ãðàäèåíò_4"/><linearGradient id="_åçûìÿííûé_ãðàäèåíò_4-17" x1="685.05" y1="256.96" x2="685.05" y2="203.08" gradientTransform="translate(856.73) rotate(-180) scale(1 -1)" xlink:href="#_åçûìÿííûé_ãðàäèåíò_4"/><linearGradient id="_åçûìÿííûé_ãðàäèåíò_3-5" x1="785.76" y1="125.68" x2="785.76" y2="113.93" gradientTransform="translate(856.73) rotate(-180) scale(1 -1)" xlink:href="#_åçûìÿííûé_ãðàäèåíò_3"/><linearGradient id="_åçûìÿííûé_ãðàäèåíò_3-6" x1="820.71" y1="133.87" x2="820.71" y2="125.76" gradientTransform="translate(856.73) rotate(-180) scale(1 -1)" xlink:href="#_åçûìÿííûé_ãðàäèåíò_3"/><linearGradient id="_åçûìÿííûé_ãðàäèåíò_217-3" x1="808.01" y1="210.68" x2="808.01" y2="194.94" gradientTransform="translate(856.73) rotate(-180) scale(1 -1)" xlink:href="#_åçûìÿííûé_ãðàäèåíò_217"/><linearGradient id="_åçûìÿííûé_ãðàäèåíò_2" x1="804.32" y1="216.92" x2="804.32" y2="199.93" gradientTransform="translate(856.73) rotate(-180) scale(1 -1)" gradientUnits="userSpaceOnUse"><stop offset="0" stop-color="#f20044"/><stop offset="1" stop-color="#ff5427"/></linearGradient><radialGradient id="radial-gradient-5" cx="1729.67" cy="158.48" fx="1729.67" fy="158.48" r="75.6" xlink:href="#radial-gradient"/><linearGradient id="_åçûìÿííûé_ãðàäèåíò_128-7" x1="1731.21" y1="323.8" x2="1776.24" y2="323.8" gradientTransform="translate(2202.8 -48.8) rotate(-180) scale(1.12 -.86)" xlink:href="#_åçûìÿííûé_ãðàäèåíò_128"/><linearGradient id="_åçûìÿííûé_ãðàäèåíò_119-5" x1="1752.94" y1="225.33" x2="1845.1" y2="225.33" xlink:href="#_åçûìÿííûé_ãðàäèåíò_119"/></defs><g class="cls-87"><g id="Layer_2"><g id="Museum"><g><g><path class="cls-33" d="M330.67,191.98c-.24,3.45-.37,6.08,.06,7.25,1.01,2.75,2.65,5.03,3.76,6.85v.02c.61,1.03,1.05,1.92,1.11,2.67,.22,2.14-2.32,17.73-7.18,21.61-4.89,3.92-20.46,2.32-20.46,2.32,0,0-3.23-4.51-2.04-7.66,1.17-3.15,7.1-10.81,6.51-13.83-.57-3.03-7.78-4.27-11.3-11.7-.14-.3-.28-.64-.41-.98,10.28-1.84,20-4.57,29.96-6.55Z"/><path class="cls-42" d="M308.18,220.84c3.84,2.05,8.17,3.24,12.72,3.24s8.66-1.13,12.42-3.07c-1.19,3.95-2.84,7.72-4.91,9.37-4.89,3.92-20.46,2.32-20.46,2.32,0,0-3.23-4.51-2.04-7.66,.38-1.02,1.27-2.53,2.27-4.2Z"/><path class="cls-19" d="M330.67,191.98c-.24,3.45-.37,6.08,.06,7.25,1.01,2.75,2.65,5.03,3.76,6.85v.02c.61,1.03,1.05,1.92,1.11,2.67,.22,2.14-2.32,17.73-7.18,21.61-4.89,3.92-20.46,2.32-20.46,2.32,0,0-3.23-4.51-2.04-7.66,1.17-3.15,7.1-10.81,6.51-13.83-.57-3.03-7.78-4.27-11.3-11.7-.14-.3-.28-.64-.41-.98,10.28-1.84,20-4.57,29.96-6.55Z"/><path class="cls-14" d="M317.36,214.65c-2.08,0-4.11,.27-6.08,.73,.82-1.67,1.34-3.18,1.14-4.17-.57-3.03-7.78-4.27-11.3-11.7-.14-.3-.28-.64-.41-.98,10.28-1.84,20-4.57,29.96-6.55-.24,3.45-.37,6.08,.06,7.25,1.01,2.75,2.65,5.03,3.76,6.85v.02c.61,1.03,1.05,1.92,1.11,2.67,.12,1.16-.58,6.29-2.02,11.36-4.6-3.41-10.22-5.47-16.22-5.47Z"/><path class="cls-37" d="M324.36,146.29v.37c.1,.07,.18,.12,.3,.15,4.24,2.2,10.18,1.93,10.18,1.93,1.31-6.54,4.92-13.11,28.16-16.58,16.1-2.41,23.75-18.78,24.43-31.63-.17,.52-.35,1.01-.52,1.5-10.08,28.11-31.25,21.94-53.17,32.9-.15,.07-.28,.15-.42,.22-8.37,4.36-8.96,10.21-8.96,11.16Z"/><path class="cls-67" d="M331.54,147.54c0-.95,4.23-13.59,31.93-15.72,.44,0,.88-.02,1.32-.05-.59,.13-1.17,.28-1.79,.37-23.23,3.48-26.84,10.05-28.16,16.58,0,0-5.94,.27-10.18-1.93-.12-.03,6.88,.75,6.88,.74Z"/><path class="cls-24" d="M333.33,135.13c.13-.07,.27-.15,.42-.22,1.38-.69,2.75-1.31,4.12-1.88,2.06,.58,4.09,1,6.38,1.32,1.91,.27,3.83,.46,5.74,.61-11.74,3.65-14.14,8.72-15.15,13.76,0,0-5.94,.27-10.18-1.93-.12-.03-.2-.08-.3-.15v-.37c0-.95,.6-6.8,8.96-11.16Z"/><g><path class="cls-47" d="M201.92,234.05s11.82,.95,15.69,0c3.19-.79,15.16-19.48,19.2-35.49,.2-.77,.38-1.52,.51-2.28,.57-2.71,.87-5.32,.83-7.7-.24-13.7-24.96-14.55-34.16-14.37-2.12,.04-3.4,.12-3.4,.12,0,0,3.66,8.85,5.36,19.61,1.37,8.53,1.5,18.25-2.34,25.75,0,0-5.54,2.79-6.63,5.17-1.09,2.37,4.93,9.18,4.93,9.18Z"/><path class="cls-34" d="M201.92,234.05s7.7,.61,12.71,.36c.1-.02,.18-.04,.26-.06,.97-.28,3.03-1.33,5.66-2.89,1.64-.95,3.52-2.1,5.5-3.36,.65-2.02,.32-3.5-.12-4.43-.18-.44-.4-.75-.55-.93-.46-.55-11.95-5.7-18.37-3.98,0,0-1.54,.36-3.44,.99-.04,.02-.1,.04-.18,.08-1.07,.57-5.44,2.97-6.39,5.05-1.09,2.37,4.93,9.18,4.93,9.18Z"/><path class="cls-19" d="M201.92,234.05s7.7,.61,12.71,.36c1.21-.06,2.24-.18,2.99-.36,.65-.16,1.68-1.09,2.93-2.59,1.54-1.84,3.42-4.53,5.38-7.8,4.18-6.97,8.71-16.43,10.89-25.1,.2-.77,.38-1.52,.51-2.28,.57-2.71,.87-5.32,.83-7.7-.24-13.7-24.96-14.55-34.16-14.37-2.12,.04-3.4,.12-3.4,.12,0,0,3.66,8.85,5.36,19.61,1.37,8.53,1.5,18.25-2.34,25.75,0,0-.02,.02-.06,.04s-.1,.04-.18,.08c-1.07,.57-5.44,2.97-6.39,5.05-1.09,2.37,4.93,9.18,4.93,9.18Z"/><path class="cls-17" d="M200.59,174.34s3.66,8.85,5.36,19.61l.04,.14,18.19,20.17,12.63-15.7,1.37-1.7-.85-.57-33.33-22.07c-2.12,.04-3.4,.12-3.4,.12Z"/><path class="cls-45" d="M181.67,151.56l6.08-.53s.04,.12,.1,.34c.06,.16,.14,.38,.24,.65,.51,1.42,1.62,4.29,3.46,7.94,0,.02,.02,.02,.02,.04,.61,1.23,1.31,2.55,2.08,3.92,.95,1.68,2.02,3.44,3.23,5.24,0,0,0,.04,.06,.1,.83,1.25,1.74,2.53,2.71,3.82,1.37,1.82,3.44,3.27,4.51,5.46,.81,1.66,2.93,3.68,5.98,5.92,.04,.02,.06,.04,.1,.06,10.98,7.92,34,18.45,53.12,24.42,.2,.06,.26-.67,.24-1.74-.02-.67-.04-1.46-.1-2.26-.1-1.25-.22-2.47-.34-3.27,1.15,.16,1.78,.22,1.78,.22,0,0-6.85-9.26-2.49-25.63,0,0-10.75-5.94-18.72-14.59-1.05-1.11-2.02-2.28-2.93-3.46-1.96-2.55-3.56-5.28-4.55-8.13-.83-2.41-1.21-4.89-.99-7.42l-38.02-10.21,1.56,6.41s-6.69,8.55-17.12,12.71Z"/><path class="cls-63" d="M235.26,142.64s-26.56,6.78-36.47-3.79l-1.56-6.41,38.03,10.2Z"/><path class="cls-35" d="M258.19,207.87s4.24,1.7,13.14,2.39c2,.14,4.24,.26,6.73,.28,5.72,.02,12.73-.36,21.08-1.56,9.4-1.37,15.73-3.21,20.01-5.15,10.89-4.99,8.29-10.67,8.29-10.67,0,0,.55-6.1,.04-13.14-.61-8.65-2.83-18.68-9.62-20.52-12.29-3.31-56.57,24.32-56.57,24.32l-.04,.26-1.43,11.04-.71,5.48-.69,5.42-.24,1.84Z"/><path class="cls-44" d="M258.19,205.93s.08,.02,.24,.1c.99,.32,5.17,1.6,12.81,2.3,6.61,.57,15.81,.71,27.77-.63,33.13-3.7,27.93-13.72,27.93-13.72,0,0,2.12-27.29-10.19-30.52-11.6-3.03-50.9,18.13-55.48,20.62-.28,.16-.44,.24-.44,.24l-2.06,16.94-.57,4.67Z"/><path class="cls-19" d="M258.19,207.87s4.24,1.7,13.14,2.39c2,.14,4.24,.26,6.73,.28-5.11-1.26-7.65-11.49-7.65-11.49,0,0-8.51-1.39-10.58-3.93l-.71,5.48-.69,5.42-.24,1.84Z"/><path class="cls-19" d="M318.89,203.39c.06,.16,.16,.3,.26,.44,10.89-4.99,8.29-10.67,8.29-10.67,0,0,.55-6.1,.04-13.14l-1.78-4.18-3.68-8.67c-7.88,14.55-8.93,26.64-3.13,36.22Z"/><path class="cls-109" d="M191.57,159.99c.61,1.23,1.31,2.55,2.08,3.92,.51,.89,1.05,1.82,1.64,2.75,.49,.83,1.03,1.66,1.58,2.49,0,0,0,.04,.06,.1v.02c.32,.48,.63,.93,.99,1.41,.53,.79,1.11,1.58,1.72,2.39,1.11,1.46,2.3,2.95,3.56,4.39,.32,.36,.63,.71,.95,1.07,0-.36,0-.69,.02-1.01,.16-2.79,1.35-4.53,4.18-4.06,3.25,.53,6.61,1.43,9.96,2.55,16.96,5.62,33.65,16.94,33.65,16.94-.91-3.13-2.02-7.01-3.19-11.28-.26-.93-.51-1.88-.77-2.87-.4-1.46-.79-2.97-1.19-4.49-.4-1.52-.79-3.05-1.17-4.59v-.02c-.26-1.03-.51-2.04-.75-3.07v-.02c-.26-1.03-.49-2.06-.73-3.07-.14-.63-.3-1.27-.44-1.88-.08-.4-.18-.77-.26-1.17-.42-1.86-.79-3.7-1.15-5.46-.24-1.27-.47-2.51-.69-3.7-.16-1.01-.34-2-.47-2.93-.02-.2-.06-.38-.08-.55-.04-.28-.08-.55-.12-.83-.08-.61-.16-1.25-.24-1.9,0,0-.02,0-.02,.02v.02c-.04,.06-.12,.16-.22,.28-.08,.1-.18,.2-.3,.34-1.17,1.41-4.22,4.85-8.47,8.55-.67,.57-1.39,1.17-2.12,1.76-1.62,1.31-3.4,2.61-5.3,3.84-.44,.3-.91,.57-1.39,.85-.18,.12-.36,.24-.55,.34-.77,.46-1.54,.89-2.34,1.29-2.36,1.21-4.83,2.22-7.38,2.89-.26,.08-.53,.16-.81,.22-.4,.1-.79,.18-1.21,.26-.34,.08-.69,.14-1.05,.18-.12,.02-.26,.04-.38,.06-.3,.04-.59,.08-.89,.1-.34,.06-.65,.08-.99,.1-.53,.04-1.09,.06-1.64,.06-.91,0-1.76-.04-2.57-.14-.3-.02-.59-.06-.87-.12-.55-.08-1.09-.18-1.6-.3-.26-.06-.51-.12-.77-.2-.4-.1-.77-.24-1.15-.38-.32-.1-.61-.22-.89-.34-2.26-.95-4.02-2.3-5.36-3.78-.2-.22-.4-.44-.57-.67-.1-.12-.2-.24-.3-.36Z"/><path class="cls-22" d="M234.08,178.6s24.58,18.6,29.41,26.34c.65,1.05,.95,1.9,.77,2.47-.2-.06-.44-.14-.67-.22-8-2.61-37.14-13.84-52.68-22.31,9.09,3.58,20.37,0,23.17-6.29Z"/><path class="cls-61" d="M212.53,236.07s10.81,1.19,15.16,0c.1-.02,.24-.06,.4-.12,3.64-1.33,16.29-9.38,24.78-15.93,.04-.02,.08-.04,.12-.08,5.21-3.01,9.12-8.59,11.7-13.28,2.14-3.9,3.34-7.18,3.6-7.86l.06-.12c25.27,4.97,47.5-9.06,49.26-23.93,0,0,.3,19.48,3.8,26.88,3.52,7.42,10.73,8.67,11.3,11.7,.59,3.03-5.34,10.69-6.51,13.83-1.19,3.15,2.04,7.66,2.04,7.66,0,0,15.58,1.6,20.47-2.32,4.87-3.88,7.4-19.48,7.18-21.61-.06-.75-.49-1.64-1.11-2.67v-.02c-1.11-1.82-2.75-4.1-3.76-6.85-1.56-4.28,4.29-27.65-4.08-40.75-8.37-13.1-21.83-18.07-35.27-14.19-13.44,3.9-18.8,7.11-29.91,12.31-3.17,1.5-6.19,2.41-8.91,2.95,0,0-.02,0-.08-.02-13.6-3.5-27.17-16.53-27.17-16.53-3.31-1.7-6.57-2.24-8.51-2.39-1.15-.1-1.84-.08-1.84-.08-.22,.38-.4,1.15-.51,2.28-.36,2.69-.49,7.3-.55,12.96-.08,7.9-.02,17.79-.18,27.13-.3,18.76-14.21,35.45-14.21,35.45,0,0-9.12,2.06-10.25,5.46-1.17,3.42,2.99,10.13,2.99,10.13Z"/><path class="cls-72" d="M219.8,220.48c6.41-1.73,17.9,3.43,18.36,3.98,.46,.55,1.63,2.39,.67,5.36-5.14,3.3-9.58,5.83-11.15,6.25-4.35,1.19-15.15,0-15.15,0,0,0-4.16-6.72-3.01-10.12,1.13-3.41,10.27-5.46,10.27-5.46Z"/><path class="cls-21" d="M212.53,236.07s10.81,1.19,15.16,0c.1-.02,.24-.06,.4-.12,3.64-1.33,16.29-9.38,24.78-15.93,.04-.02,.08-.04,.12-.08,5.21-3.01,9.12-8.59,11.7-13.28,2.14-3.9,3.34-7.18,3.6-7.86l.06-.12c0-7.28-.36-14.01-1.64-15.36-1.76,30.93-27.15,41.13-32.62,42.61-11.26,3.09-24.54,0-24.54,0-1.17,3.42,2.99,10.13,2.99,10.13Z"/><path class="cls-38" d="M225.63,236.43s-1.24-3.5-1.08-5.58c.16-2.08,2.07-3.68,2.07-3.68,0,0-3.08,1.69-3.55,3.98-.47,2.28,1.52,5.37,1.52,5.37l1.04-.09Z"/><path class="cls-38" d="M214.5,236.26s-2.24-6.7-1.47-8.13c.77-1.44,1.47-1.79,1.47-1.79,0,0-1.78,.07-2.56,2.11-.78,2.05,2.18,7.81,2.18,7.81h.38Z"/><path class="cls-36" d="M209.79,225.4s5.44,1.26,12.03,1.43c6.59,.17,13.28-2.04,13.28-2.04,0,0-7.27-4.48-15.31-4.32,0,0-9.66,1.76-10.01,4.92Z"/></g><g><path class="cls-66" d="M332.6,215.33c3.45-4.5,21.43-1.07,21.43-1.07,0,0,.69,.69,1.05,2.41-.16,3.61-1.49,12.6-6.03,16.21-4.87,3.9-20.45,2.31-20.45,2.31,0,0-3.22-4.52-2.05-7.66,1.17-3.15,4.17-9.77,6.05-12.21Z"/><path class="cls-49" d="M321.4,166.89c-5.8,3.53-3.42,28.04,4.01,35.28,7.43,7.24,18.34-4.1,21.21-12.02,2.87-7.92-8.9-33.21-25.22-23.27Z"/><path class="cls-38" d="M330.48,235.35s-1.74-5.18-.79-7.88c.95-2.7,2.91-4.53,2.91-4.53,0,0-2.87,4.15-2.12,12.41Z"/><path class="cls-38" d="M342.69,235.08s-3.28-2.94-3.21-5.93c.07-2.99,1.8-6.57,1.8-6.57,0,0-2.7,7.54,2.9,12.24l-1.49,.26Z"/><path class="cls-9" d="M349.05,232.89c-4.87,3.9-20.45,2.31-20.45,2.31,0,0-3.22-4.52-2.05-7.66,0,0,9.79,3.07,18.98-1.9,7.11-3.84,9.08-13.05,9.61-17.04,.6,1.02,1.05,1.91,1.11,2.67,.2,2.14-2.33,17.74-7.2,21.62Z"/><path class="cls-56" d="M326.55,227.54s9.65,2.7,17.63-1.46c7.97-4.16,7.45-9.93,7.38-10.73-.07-.8-12.53-1.97-16.66,0-4.13,1.97-8.35,12.19-8.35,12.19Z"/><path class="cls-26" d="M324.62,147.14s21.3,7.8,26.18,22.47c0,0-2.26-14.23-18.12-21.64,0,0-4.91,.2-8.06-.83Z"/><path class="cls-60" d="M266.02,162.78s6.72,4.38,23.57,.9c16.85-3.49,24.61-12.64,23.4-13.7-1.21-1.06-5.45-6.18-12.61-1.82-7.16,4.37-19.01,16.79-34.37,14.62Z"/></g><g><g><path class="cls-73" d="M198.73,46.19s4.84,11.55,12.08,16.43h2.05l-3.67-4.7s2.77,2.31,11.6,4.7h7.65s-8.06-8.53-8.94-11.17l-20.77-5.26Z"/><path class="cls-25" d="M201.95,52.41l4.59,3.08,2.64,2.43s3.23,2.53,11.6,4.7c0,0-4.17-1.51-6.98-3.66l11.41,.66-3.22-4.14-23.27-9.29s2.18,4.55,3.22,6.22Z"/><path class="cls-57" d="M230.13,54.03l7.14,8.58h6l-6.57-7.04s6.47,5.62,13.89,7.04h11.22s-17.49-7.49-29.43-14.4l-2.25,5.82Z"/><path class="cls-89" d="M230.13,54.03l9.92,8.58h3.22l-6.57-7.04s5.94,5.38,13.89,7.04h5.8l-22.51-11.17-3.76,2.59Z"/><polygon class="cls-3" points="241.46 53.14 230.92 54.98 230.13 54.03 234.59 50.89 236.88 50.72 241.46 53.14"/><path class="cls-83" d="M206.55,53.9s.82,2.31,2.14,2.95c1.32,.64,3.14-.4,3.14-.4l-5.28-2.55Z"/><path class="cls-95" d="M234.59,50.89s-2.05,1.83-4.46,3.14c-2.42,1.32-11.2,3.32-16.83,2.71-3.61-.39-8.21-3.38-11.69-7.02-2.8-2.93-4.89-6.29-5.2-9.07-.29-2.67,1.53-8.76,1.53-8.76l-2.89-7.86s-2.03-3.77-2.01-7.02c0-2.5,3.56-9.22,11.46-11.9,0,0,3.37-1.81,3.71-3.8,0,0,.53,2.83-.39,4.1,0,0,2.63,1.14,4.1,3.19s7.61,12.08,9.95,17.2c1.87,4.09,4.4,13.55,8.91,20.47,1.14,1.74,2.41,3.33,3.82,4.62Z"/><path class="cls-71" d="M217.18,17.11s-1.49,4.49-5.36,7.8c-3.87,3.32-14.23,6.07-14.23,6.07,0,0-1.71,7.6-1.2,9.67,.51,2.07,1.85,4.61,4.73,5.49l-.29-.73s1.51,1.01,6.64,2.82c0,0-.35-1.46,.14-2.54,.84-1.86,4.74-6.79,7.08-11.98,0,0,.15,1.76-.44,3.59,0,0,3.43-5.27,4.1-11.12,.66-5.85,0-7.03,0-7.03l-1.16-2.02Z"/><path class="cls-32" d="M193.03,17.01s1.29,.29,8.16-3.51l3.68-4.09s5.64,4.1,4.31,9.85c0,0,3.37,2.15,8-2.14,0,0-1.81,6.72-9.71,10.38,0,0,4.97-1.95,8.56-7.77,0,0-4.85,9.34-11.73,15.48-2.24,2.07-4.59,3.9-4.59,3.9,0,0-3.76,.32-3.17-2.33l1.06-5.8-2.55-6.94s-2.52-4.9-2.01-7.02Z"/><path class="cls-54" d="M203.28,32.66s3.89-8.63,3.02-11.46l-5.27,8.54,2.25,2.92Z"/><path class="cls-62" d="M204.29,35.2c-8-1.51-10.2-6.63-10.2-6.63-.24-3.47,1.66-6.54,1.66-6.54,3.97-.22,5.07,.7,6.73,.61,.11,0,.22-.01,.34-.02,1.86-.24,3.47-1.41,3.47-1.41,.19,1.95-3.32,7.41-3.47,9.02-.15,1.61,1.46,4.98,1.46,4.98Z"/><g><path class="cls-94" d="M201.27,15.83c-.53,2.19,1.45,5.01,3.74,4.15,2.41-.9,2.72-3.91,.9-5.6-1.83-1.69-4.09-.79-4.64,1.45Z"/><path class="cls-81" d="M201.61,16.2c-.48,1.99,1.43,4.54,3.51,3.76,2.19-.82,2.36-3.48,.7-5.01-1.66-1.53-3.72-.78-4.21,1.25Z"/><path class="cls-102" d="M206.37,15.63c.66,.88,.52,2.15-.3,2.82-.83,.68-2.03,.51-2.69-.38-.66-.88-.52-2.15,.3-2.82,.83-.68,2.03-.51,2.69,.38Z"/><path class="cls-75" d="M203.86,17.54c.2,.17,.23,.47,.07,.67-.16,.2-.44,.23-.64,.07-.2-.17-.23-.47-.07-.67,.16-.2,.44-.23,.64-.07Z"/></g><path class="cls-27" d="M234.59,50.89s-2.05,1.83-4.46,3.14c-2.42,1.32-11.2,3.32-16.83,2.71-3.61-.39-8.21-3.38-11.69-7.02-.02-.02-.05-.05-.06-.07,0,0,6.42,1.07,19.17-3.46,0,0-1.66-5.97-1.16-13.53l11.23,13.6,3.82,4.62Z"/><path class="cls-39" d="M201.03,6.67s5.46-.49,6.67-2.06c1.21-1.57,.4-4.61,.4-4.61,0,0-.37,2.31-1.8,3.62-1.42,1.31-5.28,3.05-5.28,3.05Z"/><path class="cls-30" d="M219.54,32.66s-.69,13.1,3.26,17.2,9.86,2.55,9.86,2.55l1.92-1.52-15.04-18.23Z"/><path class="cls-46" d="M219.5,21.21s-1.21,16.88,2.89,22.83c4.1,5.95,15.12,7.41,15.12,7.41,0,0-3.8-4.29-7.8-10.05-4-5.76-10.2-20.19-10.2-20.19Z"/><polygon class="cls-101" points="208.33 56.63 206.55 60.57 199.42 62.18 206.55 61.89 210.05 62.62 207.81 60.67 209.61 57.06 208.33 56.63"/><polygon class="cls-101" points="224.69 57.11 225.61 60.18 220.78 62.62 227.04 61.45 230.34 61.94 226.73 60.18 226.12 56.86 224.69 57.11"/><path class="cls-25" d="M219.37,29.08s.73,9.44,3.51,12.88c2.78,3.44,11.27,6.26,11.27,6.26l-5.93-6.48,3.5,2.47,5.79,7.25s-10.79-1.62-14.56-6.69c-3.91-5.26-3.58-15.68-3.58-15.68Z"/><path class="cls-18" d="M204.29,35.2c-8-1.51-10.2-6.63-10.2-6.63,0,0,4.14-.84,6.09-2.09l2.3-3.84c.11,0,.22-.01,.34-.02,1.86-.24,3.47-1.41,3.47-1.41,.19,1.95-3.32,7.41-3.47,9.02-.15,1.61,1.46,4.98,1.46,4.98Z"/><path class="cls-84" d="M221.17,56.4s2.44,.91,4.23,.66c1.79-.25,2.82-2.26,2.82-2.26,0,0-3.71-2.48-7.05,1.6Z"/></g><g><path class="cls-96" d="M206.92,132.09c-3.51,8.06-13.99,19.04-20.49,22.31h-.03c-1.89,.98-3.47,1.25-4.38,.57-5.09-3.74-8.8-14.43-10.41-27.06-1.38-10.35-1.38-22.01,.3-32.22,.2-1.31,.44-2.6,.71-3.84,.74-3.47,1.72-6.74,2.9-9.64,7.92-19.31,19.78-24.17,19.78-24.17,2.7-.13,8.32,3.37,8.32,3.37,0,0,.07,.64,.24,1.82,1.25,10.08,7.18,59.45,3.07,68.86Z"/><path class="cls-111" d="M187.85,151.36c.06,.16,.14,.38,.24,.65-.08-.48-.12-.77-.12-.85h-.02c-.04,.06-.06,.14-.1,.2Z"/><path class="cls-108" d="M160.38,113.78v.02c.04,.08,.12,.18,.22,.28,1.41,1.54,7.34,4.35,7.34,4.35v.02c.02,.1,.06,.51,.12,1.09l.02,.02c.02,.38,.1,.81,.16,1.27,.16,.99,.4,2.06,.71,2.77,0,.02,.02,.04,.04,.06,0,.04,.02,.08,.06,.12,.06,.16,.18,.36,.32,.57,.12,.22,.28,.46,.44,.73,0,.02,.02,.06,.06,.1,.2,.32,.42,.67,.65,1.05,.32,.49,.67,1.05,1.09,1.66v.02c2.26,3.38,5.8,8.31,10.01,13.36,2.26,2.71,4.71,5.48,7.28,8.04,0,0-.08,.16-.24,.48l-.26,.53-.22,.42-.2,.42v.02h-.02c.04,.38,.55,4.85,3.6,8.83,.1,.12,.2,.24,.3,.36,.18,.24,.38,.46,.57,.67,1.35,1.48,3.11,2.83,5.36,3.78,.28,.12,.57,.24,.89,.34,.38,.14,.75,.28,1.15,.38,.26,.08,.51,.14,.77,.2,.51,.12,1.05,.22,1.6,.3,.28,.06,.57,.1,.87,.12,.81,.1,1.66,.14,2.57,.14,.55,0,1.11-.02,1.64-.06,.34-.02,.65-.04,.99-.1,.3-.02,.59-.06,.89-.1,.12-.02,.26-.04,.38-.06,.36-.04,.71-.1,1.05-.18,.42-.08,.81-.16,1.21-.26,.28-.06,.55-.14,.81-.22,2.55-.67,5.03-1.68,7.38-2.89,.79-.4,1.56-.83,2.34-1.29,.2-.1,.38-.22,.55-.34,.47-.28,.93-.55,1.39-.85,1.9-1.23,3.68-2.53,5.3-3.84,.73-.59,1.44-1.19,2.12-1.76,4.26-3.7,7.3-7.14,8.47-8.55,.12-.14,.22-.24,.3-.34,.1-.12,.18-.22,.22-.28v-.02s.02-.02,.02-.02v-.02c-.04-.34-.06-.67-.12-1.03-.02-.14-.04-.28-.04-.42l-.02-.2-.04-.4v-.04c-.04-.38-.08-.77-.1-1.15-.06-.61-.12-1.23-.16-1.88,0-.14-.02-.28-.02-.42-.04-.4-.08-.79-.08-1.19-.08-1.21-.16-2.45-.22-3.74-.1-2.16-.2-4.39-.28-6.69-.02-.47-.04-.93-.04-1.41,0-.32-.02-.65-.02-.99-.02-.59-.04-1.21-.06-1.82-.02-.34-.02-.69-.02-1.03-.02-.61-.04-1.23-.04-1.84-.16-7.86-.14-15.97-.08-23.08,0-1.27,.02-2.49,.04-3.68,0-.55,.02-1.09,.02-1.64,.04-3.31,.08-6.25,.14-8.69,.02-.99,.04-1.9,.06-2.69,.02-1.27,.04-2.28,.08-3.03,0-.91,.02-1.41,.02-1.41,0,0-1.29-3.88-3.68-7.8-.12-.22-.26-.42-.4-.63-.75-1.19-1.62-2.36-2.57-3.4l-.08-.08c-1.07-1.21-2.32-2.26-3.68-2.97t-.04-.02l-.02-.02s-.73-.2-2.06-.46c-.77-.14-1.76-.3-2.93-.44-2.2-.3-5.03-.53-8.35-.53-.63,0-1.31,0-2,.04h-.02c-.87,.02-1.78,.06-2.71,.12-.89,.06-1.8,.14-2.75,.24-.16,.02-.34,.04-.51,.06-1.39,.16-2.83,.38-4.31,.63-.57,.1-1.19,.2-1.78,.34-.47,.1-.95,.2-1.43,.34,0,0-.06,.04-.16,.06h-.02s-.12,.04-.2,.08c-.16,.04-.3,.1-.46,.16-1.54,.48-3.03,1.17-4.47,1.96-.36,.18-.69,.38-1.03,.55-.02,.02-.04,.02-.04,.02-.65,.38-1.29,.79-1.9,1.23,0,0-.08,.06-.22,.18-1.9,1.33-3.7,2.91-5.36,4.63-.18,.18-.36,.36-.51,.51-.16,.16-.32,.34-.48,.49-.14,.16-.28,.3-.42,.46-3.42,3.74-6.33,8.02-8.67,12.01-.18,.32-.36,.63-.53,.95-.04,.02-.08,.1-.08,.12-.53,.95-1.05,1.88-1.52,2.77-.65,1.27-1.25,2.47-1.74,3.58-.49,1.01-.91,1.94-1.25,2.79,0,0-7.44,2.61-10.05,5.64l-.02,.02c-.34,.38-.59,.83-.83,1.37v.02c-.22,.53-.4,1.13-.53,1.78-.81,3.88-.16,9.26,.46,10.31Z"/><path class="cls-43" d="M211.8,107.2s-12.99,26.54-25.59,29.77c-8.1,2.08-17.27-13.37-17.27-13.37-.71-1.61-1.02-5.15-1.02-5.15,0,0-6.75-3.23-7.55-4.65-.81-1.4-1.71-10.49,.9-13.51l25.52-.53s14.74,.29,25.01,7.44Z"/><path class="cls-88" d="M181.81,93.45s6.4-11.88,3.73-16.11c-2.67-4.24-8.78,6.48-10.02,10.89l6.29,5.22Z"/><path class="cls-119" d="M174.89,97.06c1.14,2.37,6.56-.68,8.88-7.77,1.68-5.13,2.02-10.8,0-11.6-2.19-.88-12.21,12.47-8.88,19.37Z"/><path class="cls-85" d="M186.79,99.76c-.66,3.49-9.93,10.01-16.69,9.31-4.67-.48-9.14-5.25-8.78-7.25,.26-1.4,5.07-5.2,12.9-5.44,7.81-.23,12.58,3.37,12.58,3.37Z"/><path class="cls-88" d="M200.44,91.01s-.73-8.05,7.04-13.36c7.77-5.31,18.92,1.95,16.47,13.36h-23.51Z"/><path class="cls-93" d="M208.04,78.87c-7.94,3.56-11,16.76-2.57,21.83,8.88,5.34,18.16-1.01,18.56-10.69,.4-9.69-7.88-14.77-15.99-11.13Z"/><path class="cls-5" d="M202.66,107.2s-.06,.06-.11,.11c-.95,.98-6.17,5.25-12.42,9.73-4.63,3.29-10.26,4.77-14.61,5.04-8.26,.52-7.6-3.63-7.6-3.63,0,0,.27,.16,.89,.34,1.5,.44,5.07,1,11.83-.34,8.75-1.73,19.97-9.77,21.81-11.11,.1-.08,.16-.13,.21-.15Z"/><path class="cls-11" d="M168.99,123.65s.02,.08,.06,.12c.06,.16,.18,.36,.32,.57,.12,.22,.28,.46,.44,.73,0,.02,.02,.06,.06,.1,.18,.32,.4,.65,.65,1.05,.32,.49,.67,1.05,1.09,1.66v.02c2.26,3.38,5.8,8.31,10.01,13.36,2.28,2.71,4.73,5.46,7.3,8.04v.02l-.14,.26c-.04,.06-.08,.12-.12,.2l-.46,.91-.24,.46s1.35,15.12,17.69,15.12c17.81,0,34.02-19.85,35.03-21.1v-.02c-.02-.34-.06-.69-.1-1.07-.04-.2-.06-.4-.06-.61l-.04-.4v-.04c-.04-.38-.08-.77-.1-1.15-.08-.75-.14-1.5-.18-2.3-.04-.4-.08-.79-.08-1.19-.1-1.21-.16-2.45-.22-3.74-.12-2.14-.22-4.39-.28-6.69-.02-.47-.04-.93-.04-1.41-.02-.34-.02-.67-.04-1.01v-.02c-.02-.59-.02-1.19-.04-1.78-.02-.34-.02-.69-.02-1.03-.02-.61-.04-1.23-.04-1.84-.16-7.86-.14-15.97-.08-23.08,0-1.27,.02-2.49,.04-3.68,0-.55,.02-1.09,.02-1.64,.04-3.31,.1-6.25,.14-8.69,.02-.99,.04-1.9,.06-2.69,.04-1.27,.06-2.28,.08-3.03,.02-.91,.04-1.41,.04-1.41,0,0-1.31-3.92-3.7-7.86-.14-.2-.26-.42-.4-.61-.75-1.17-1.6-2.34-2.57-3.36v-.02h-.02l-.02-.02-1.17-.42s-.02,.12-.04,.34c-.1,1.15-.51,5.17-1.09,10.73,0,.16-.02,.32-.04,.48-1.68,16.33-4.77,45.22-6.43,54.63,0,0-9.18,6.21-21.06,7.88-5.3,.75-11.18,.59-17-1.44h-.02c-5.07-1.78-10.11-4.99-14.74-10.25-.83-.95-1.66-1.98-2.47-3.07Z"/><path class="cls-10" d="M187.99,151.16v-.02l.2-.42,.22-.42c2.24,2.26,7.9,6.39,19.28,6.73,9.21,.28,21.14-7.65,29.01-13.94l.4-.37s.04,0,.06,0c1.9-1.54,3.56-2.96,4.85-4.12,.04,.65,.1,1.27,.16,1.88,.02,.38,.06,.77,.1,1.15v.04l.04,.4,.02,.2c0,.14-1.29-1.17-1.27-1.03,.06,.36,.08,.69,.12,1.03v.02c.05,.41,.1,.8,.15,1.19,1.35,.36,2.81,.88,4.28,1.64,0,0,13.58,13.02,27.17,16.53-1.58-.26-26.52-4.43-38.59-3.76-2.73,.16-4.81,.57-5.8,1.33h-.02c-6.42,5.52-14.04,10.19-21.87,10.33-4.75,.08-8.39-1.09-11.2-2.89-.59-.93-1.13-1.86-1.64-2.75-.77-1.37-1.46-2.69-2.08-3.92-3.05-3.98-3.56-8.45-3.6-8.83h.02Z"/><path class="cls-53" d="M187.97,151.14v.02c.08,.69,1.74,15.1,17.69,15.1,17.81,0,34.02-19.85,35.03-21.1v-.02s.02-.02,.02-.02l.02-.02-.18-1.44-.02-.2-.04-.4v-.04l-1.25-2.87s-18.45,16.63-32.34,16.03c-13.87-.61-17.99-6.87-17.99-6.87l-.14,.26-.57,1.11-.02,.04-.22,.42Z"/><path class="cls-92" d="M210.63,91.09c-.91,3.9-4.07,6.5-7.06,5.81-2.99-.7-4.68-4.43-3.77-8.33,.91-3.9,4.07-6.5,7.06-5.81,2.99,.7,4.68,4.43,3.77,8.33Z"/><path class="cls-98" d="M179.44,89.78c-1.15,3.1-3.19,5.2-4.57,4.69-1.37-.51-1.56-3.44-.41-6.53,1.15-3.1,3.2-5.2,4.57-4.69,1.37,.51,1.56,3.44,.41,6.53Z"/><path class="cls-75" d="M213.82,90.69c0,1.12-.9,2.02-2.02,2.02s-2.02-.9-2.02-2.02,.9-2.02,2.02-2.02,2.02,.9,2.02,2.02Z"/><path class="cls-75" d="M182.01,88.67c0,.64-.52,1.15-1.15,1.15s-1.15-.52-1.15-1.15,.52-1.15,1.15-1.15,1.15,.52,1.15,1.15Z"/><path class="cls-23" d="M186.79,99.76c-.66,3.49-9.93,10.01-16.69,9.31-4.67-.48-9.14-5.25-8.78-7.25,0,0,14.42,1.97,25.47-2.07Z"/><path class="cls-116" d="M274.69,119.45s-.02,.05-.02,.06c-2.65,14.74-9.49,31.9-25.55,39.57,0,0-12.78-18.31-16.95-43.46-4.18-25.15-.27-51.24-.27-51.24l-2.63-2.63s2.23-3.44,7.6-3.71c0,0,11.85,16.95,19.24,22.87,7.39,5.92,17.63,10.9,19.24,13.45,.76,1.19,1.65,12.2-.66,25.09Z"/><path class="cls-13" d="M274.67,119.52c-2.65,14.74-9.49,31.9-25.55,39.57,0,0-12.78-18.31-16.95-43.46-4.18-25.15-.27-51.24-.27-51.24l-2.63-2.63s2.23-3.44,7.6-3.71c0,0-.05,.81-.15,2.28-.45,7.88-3.63,34.41,.15,55.3,5.05,27.92,22.87,29.19,22.87,29.19,0,0,11.57-7.01,14.93-25.3Z"/><path class="cls-55" d="M208.95,69.66c-1.7,2.13,5.7,3.81,9.21,3.07,3.51-.74,4.5-2.32,4-3.62s-8.81-4.96-13.21,.55Z"/><path class="cls-55" d="M185.16,72.42s5.77,.41,8.09-2.61c2.32-3.02-1.11-3.66-1.11-3.66,0,0-4.94,3.9-6.98,6.27Z"/><path class="cls-97" d="M199.88,106.04s4.24-1.6,5.25,5.08c0,0-3.03-4.07-5.65-3.28l.4-1.8Z"/><path class="cls-58" d="M233.09,64.83l-3.83-3.07s3.56-4.39,7.6-3.71c0,0-5.63,44.53-4.7,57.58,0,0-3.13-36.36,.92-50.8Z"/><path class="cls-50" d="M197.75,164.79s-1.14-3.25,.89-9.82c0,0,5.26,1.78,11.81,1.03,0,0-.51,3.57,0,9.91,0,0-7.97,2.05-12.7-1.12Z"/><path class="cls-112" d="M229.27,61.75c-9.31-1.3-17.47-.62-25.53,.62-5.79,.89-9.69,2.55-9.69,2.55,2.16-1.25,5.02-2.33,6-2.7,.1-.03,.17-.07,.2-.07,.1-.03,.17-.07,.17-.07l-1.69-1.76s-4.11-.16-13.11,8.97c-4.45,4.52-7.57,10.55-9.66,16.08-.03,.03-.07,.1-.07,.13-2.06,5.53-3,9.91-3,9.91-.34,.07-.81,1.1-1.12,1.17-6.54,1.27-9.87,4.63-9.87,4.63-2.97,4.18-1.52,12.57-1.52,12.57-.81-1.38-1.72-10.48,.91-13.48,2.6-3.03,10.08-5.66,10.08-5.66,.34-.84,.74-1.79,1.25-2.8,.74-3.47,1.72-6.74,2.9-9.64,7.92-19.31,19.78-24.17,19.78-24.17,2.7-.13,8.32,3.37,8.32,3.37,14.66-2.63,25.65,.34,25.65,.34Z"/><path class="cls-78" d="M204.08,85.91l11.41,1.84,6.29-3.75s-3.47-5.66-9.97-5.13c-6.51,.53-7.72,7.03-7.72,7.03Z"/><path class="cls-77" d="M177.01,84.91h5l2.55-1.47s.5-4.7-1.33-5.13c-1.83-.43-6.22,6.59-6.22,6.59Z"/><path class="cls-113" d="M171.07,102.29s7.06-2.39,9.75-.93c0,0-2.74,2.08-9.75,.93Z"/></g></g></g><g><path class="cls-51" d="M214.59,222.52s-63.39-10.43-112.54-9.75C52.91,213.45,.01,216.13,.01,216.13c0,0,61.22,15.96,93.99,15.28,32.76-.68,120.59-8.89,120.59-8.89Z"/><path class="cls-59" d="M10.31,231.49S-.43,221.15,.01,216.13c0,0,67.76,13.54,126.13,7.68l-3.76,10.33-112.07-2.65Z"/><path class="cls-41" d="M206.79,234.06l7.8-11.55s-58.99-6.48-88.45,1.29l-3.76,10.33,84.41-.08Z"/><path class="cls-40" d="M111.23,233.88v-8.98s34.32-9.65,82.53-5.4l-20.29-2.48s-62.74-1.73-83.5,8.12l1.6,8.28,19.66,.47Z"/><path class="cls-40" d="M70.27,232.91l-3.64-8.54s44.29-9.22,93.88-8.7l-6.74-.62s-69.38-3.12-100.83,8.28l5.56,8.76,11.78,.82Z"/><path class="cls-40" d="M32.76,232.02l-5.52-11.55s67.29-9.53,114.62-6.37l-11.76-.72s-81.83-2.11-119.8,4.57l8.94,13.48,13.51,.59Z"/><polygon class="cls-68" points="10.31 231.49 122.37 235.5 206.79 234.06 122.38 234.14 10.31 231.49"/></g><g><path class="cls-117" d="M70.63,91.3l19.83,9.4,5.23,2.48c1.48-2.07,2.46-4.22,3.06-6.39,2.31-8.18-.69-16.46-2.29-19.8-.89-1.83-2.14-3.07-3.15-3.86l-.07-.04c-.96-.73-1.7-1.02-1.7-1.02-9.13,11.49-20.91,19.23-20.91,19.23Z"/><path class="cls-105" d="M78.42,94.98l.04,.04c.46,.53,4.17,4.74,10.54,6.43,1.38,.35,3.89,.14,4.74-.07,1.77-.39,3.61-2.05,5.02-4.6,1.77-6.26,.42-12.55-1.03-16.69-.46-1.27-.92-2.33-1.27-3.11-.88-1.84-2.16-3.08-3.15-3.85-.04-.04-.07-.04-.07-.04,0,0-5.34,3.25-9.69,10.54-4.35,7.32-5.13,11.35-5.13,11.35Z"/><path class="cls-12" d="M78.42,94.98l.04,.04,4.28,2.02c2.4-14.6,14.99-16.94,14.99-16.94-.46-1.27-.92-2.33-1.27-3.11-.88-1.84-2.16-3.08-3.15-3.85-.04-.04-.07-.04-.07-.04,0,0-5.34,3.25-9.69,10.54-4.35,7.32-5.13,11.35-5.13,11.35Z"/><path class="cls-82" d="M33.08,114.63l13.26-17.03s-1.84-.64-5.53-2.02c-2.72-1.01-16.25-1.23-22.06,3.47h-.01s-.01,.02-.02,.04c-.01,0-.02,.02-.05,.04-.11,.1-.23,.2-.34,.31,0,0-.01-.01-.01,0-.38,.36-.71,.73-1.01,1.13-1.67,2.28,8.99,7.24,15.79,14.07Z"/><path class="cls-114" d="M18.85,103.47c3.08,2.65,9.58,6.51,14.25,11.17l6.72-11.46s-.04,0-.07-.04c-.85-.85-10.01-9.3-21-4.1,0,0-.04,0-.04,.04l-.04,.04c-.11,.07-.21,.18-.35,.32h-.04c-.35,.35-.71,.71-.99,1.13-.53,.71,.18,1.7,1.56,2.9Z"/><path class="cls-4" d="M18.85,103.47c6.33-3.5,19.8-.53,20.9-.32-.85-.85-10.01-9.3-21-4.1,0,0-.04,0-.04,.04l-.04,.04c-.11,.07-.21,.18-.35,.32h-.04c-.35,.35-.71,.71-.99,1.13-.53,.71,.18,1.7,1.56,2.9Z"/><path class="cls-86" d="M74.32,216.26l25.42-.52,7.85-.16,16.7-.34,3.22-24.79-8.03-4.49-7.02-3.92h-.01l-3.85-2.15-4.1,1.49h-.01l-25.05,9.08s-2.2,2.04-1.73,4.5c.1,.49,.38,1.38,.8,2.5,1.65,4.49,5.2,12.57,5.2,12.57,0,0-5.53-1.39-7.54,0-2,1.39-1.84,6.25-1.84,6.25Z"/><path class="cls-100" d="M37.58,205.55c.3,1.7,5.53,4.92,7.67,5.39,2.16,.47,8.77-7.99,8.77-7.99,0,0,5.13-2.74,8.41-4.87,1.05-.69,1.91-1.3,2.35-1.75,1.84-1.84,7.53-9.99,8.61-15.37,1.08-5.37-7.85-18.59-7.85-18.59l-2.77,1.92s-1.08,2.8-2.69,6.57c-2.53,5.9-6.41,14.11-9.59,17.49,0,0-9.22,6-10.77,7.99-1.52,2-2.46,7.54-2.14,9.22Z"/><path class="cls-16" d="M60.09,170.84v.02l2.35,27.2c1.05-.69,1.91-1.3,2.35-1.75,1.84-1.84,7.53-9.99,8.61-15.37,1.08-5.37-7.85-18.59-7.85-18.59l-2.77,1.92s-1.08,2.8-2.69,6.57Z"/><path class="cls-29" d="M77.7,194.95c.1,.49,.38,1.38,.8,2.5l22.16,7.53-.92,10.77-.05,.52,7.9-.68,14.16-8.98-2.26-20.65-.37-3.36-6.65-.57h-.01l-7.94-.66h-.01l-25.05,9.08s-2.2,2.04-1.73,4.5Z"/><path class="cls-91" d="M143.36,210.28c2.63-2.2,12.53,1.06,14.18,2.19,.93,.65,2.66,3.25,5.62,7.6,2.21,3.23,5.12,7.42,8.92,12.48,8.89,11.89,12.93,13.64,12.93,13.64l-2.15-6.87c4.92,5.65,7.17,17.64,7.17,17.64,0,0,8.18-11.29,9.72-22.92,.12-.86,.2-1.73,.23-2.59,.37-9.09-4.34-15.84-6.95-18.85-.01-.01-.01-.02-.04-.04-.63-.74-1.14-1.25-1.41-1.51-.06-.07-.14-.14-.21-.2,3.69-.31,8.61,.81,8.61,.81-10.15-5.14-21.85-7.32-31.9-8.14-13.42-1.09-23.91,.25-23.91,.25l-.8,6.53Z"/><path class="cls-104" d="M33.43,140.84s-2.55,5.99,.14,12.81c.26,.68,.58,1.35,.95,2.04,4.14,7.64,29.66,8.66,29.66,8.66-3.07,14.76,4.45,19.06,4.45,19.06-.38-2.39,.09-3.6,.09-3.6,.59,.97,1.23,1.89,1.92,2.77l.02,.02s.02,.05,.06,.09c.06,.09,.12,.17,.2,.25,.26,.33,.53,.64,.8,.96,7.1,8.08,17.44,11.34,18.88,11.77,.06,.02,.11,.04,.17,.05-.15,7.85-3.37,13.38-3.37,13.38-4.3,2.46-5.08,7.17-5.08,7.17h17.38l11.36-22.4c0,7.21,2.5,15.3,2.61,15.68-.12-.11-1.44-1.19-5.52-.76-4.3,.46-5.84,7.48-5.84,7.48h39.76c4.3-15.57,2.05-38.12,0-41.2-12.04-18.07-37.3-34.43-37.3-34.43h.01c.27-.3,4.51-4.81,4.7-7.78,.21-3.07-1.64-12.45-7.78-22.28-1.76-2.82-3.85-5.28-5.95-7.34l-.05-.04c-5.2-5.12-10.39-7.85-10.39-7.85,0,0-14.08-7.03-28.35-3.07-13.82,3.84-23.37,17.98-24.61,25.06-1.25,7.06,1.09,23.51,1.09,23.51Z"/><path class="cls-76" d="M80.47,115.82s6.05,2.88,6.04,12.02c0,4.6-4.29,13.19-16.81,11.96-12.14-1.19-9.34-23.25-9.34-23.25,0,0,16.48-3.24,20.11-.73Z"/><path class="cls-90" d="M85.8,126.01s-.51-6.28-5.02-8.64c-4.51-2.36-12.09-4.61-17.93-1.02,0,0-3.3,6.74-1.55,14.28,0,0-3.29-12.51-.19-16.5,2.46-3.16,13-4.26,19.54,.44,6.14,4.41,5.16,11.44,5.16,11.44Z"/><path class="cls-110" d="M42.37,129.14s4.48,10.78-.85,14.82c-3.35,2.55-9.03-5.36-9.03-13.34,0-6.04,9.88-1.49,9.88-1.49Z"/><path class="cls-65" d="M81.7,116.55c3.89,2.54,5.73,11.12,2.31,16.6-4.12,6.61-15.37,7.07-20.14,2.15-3.82-3.95-4.18-12.53-2.67-17.64,.57-1.92,2.18-3.35,4.15-3.74,3.65-.73,10.37-1.27,16.35,2.63Z"/><path class="cls-64" d="M41.65,128c2.72,3.32,3.33,13.37-.08,14.95-4.92,2.29-10.52-11.7-9.06-16.32,.69-2.2,4.96-3.74,9.13,1.36Z"/><path class="cls-107" d="M43.26,143.65s1.96,2.95,5.95,2.91c3.41-.04,5.56-2.96,5.56-2.96,.7-.77,.93-1.41,.96-1.88,.06-.86-.58-1.24-.58-1.24-6.94-2.21-11.89,1.51-11.89,3.17Z"/><path class="cls-106" d="M43.27,131.52s-1.85-5.6-7-6.06c-5.15-.46-3.63,6.06-3.63,6.06,0,0-1.13-4.29-.21-6.94,0,0,7.23-3.06,10.84,6.94Z"/><path class="cls-48" d="M63.64,134.4c2.67,3.38,6.97,4.43,9.61,2.35,2.64-2.08,2.61-6.51-.06-9.89-2.67-3.38-6.97-4.43-9.61-2.35-2.64,2.08-2.61,6.51,.06,9.89Z"/><path class="cls-48" d="M35.83,139.45c1.74,2.7,4.31,4.15,5.74,3.23,1.43-.92,1.17-3.86-.57-6.56-1.74-2.7-4.31-4.15-5.74-3.23-1.43,.92-1.17,3.86,.57,6.56Z"/><path class="cls-115" d="M63.56,144.42s-1.02,4.2-5.43,6.56c0,0-3.59,.78-7.58-2.05,0,0-.82,2.77-2.36,3.59,0,0-2.29,.51-4.27-2.87,0,0,1.3,1.9,3.68,2.2,0,0,1.54-1.56,2.61-4.43,0,0,2.56,2.1,7.71,2.59,0,0,3.64-1.36,5.64-5.59Z"/><path class="cls-99" d="M60.36,155.13s-2.26,2.61-7.95,2c0,0,6.6,2.84,7.95-2Z"/><path class="cls-75" d="M69.7,125.07c0,.93,.76,1.69,1.69,1.69s1.69-.76,1.69-1.69-.76-1.69-1.69-1.69-1.69,.76-1.69,1.69Z"/><path class="cls-75" d="M38.1,134.15c0,.66,.54,1.2,1.2,1.2s1.2-.54,1.2-1.2-.54-1.2-1.2-1.2-1.2,.54-1.2,1.2Z"/><path class="cls-8" d="M43.26,143.65s1.96,2.95,5.95,2.91c3.41-.04,5.56-2.96,5.56-2.96,.7-.77,.93-1.41,.96-1.88-.06-.11-.15-.2-.23-.27,0,0-5.66,3.42-12.24,2.2Z"/><path class="cls-118" d="M39.8,103.18s-10.16,.25-17.23,8.96c0,0,4.71-3.07,10.56-3.38,0,0-1.83,.72-1.94,7.07l1.9-1.2,6.71-11.45Z"/><path class="cls-74" d="M78.41,94.99s2.06-6.88,12-7.36c0,0-5.64,1.25-7.79,6.48,0,0,3.79-2.97,8.81-2.05,0,0-4.1,1.84-4.92,6.25,0,0,8.3-1.93,14.14,4.87,0,0-5.43-3.12-7.89,0,0,0-11.45-.94-14.36-8.19Z"/><path class="cls-103" d="M64.45,91.09s-4.68,3.89-6.94,11.16l-1.49-2.51s-4.66,2.25-8.86,13.94c0,0-4.44-3.66-5.12-7.68l-1.38,1.33s-.85-.51-1.23-3.51c0,0,9.69-12.61,25.03-12.73Z"/><path class="cls-7" d="M33.56,153.65c.26,.68,.58,1.35,.95,2.04,4.14,7.64,29.66,8.66,29.66,8.66,0,0,19.53-.1,40.58-23.72h.01c.27-.3,4.51-4.81,4.7-7.78,.21-3.07-1.64-12.45-7.78-22.28-1.76-2.82-3.85-5.28-5.95-7.34l-.05-.04-9.03-1.39c.64,.34,13.74,5.65,16.72,25.6,0,0-6.69,5.88-13.84,10.39-8.55,5.4-25.97,6.64-25.97,6.64,0,0-3-3.32-8.36-3.94,.42,.12,3.8,1.22,4.89,6.08,0,0-.83,3.62-4.35,3.69-2.53-.67-4.12-1.59-5.53-2.85,0,0,.12,3.57-2.03,5.1,0,0-3.17,.49-4.92-4.03l-9.7,5.17Z"/><path class="cls-2" d="M104.76,140.63s-6.85,10.97-18.95,21.73c-12.1,10.76-22.25,10.15-22.25,10.15l-2.13-4.82,1.36-3.4s23.06-4.18,41.97-23.65Z"/><path class="cls-15" d="M70.65,182.6s.02,.05,.06,.09c.06,.09,.12,.17,.2,.25,.17,.22,.44,.55,.8,.96,2.41,2.75,8.87,9.13,18.88,11.77,.06,.02,.11,.04,.17,.05-.15,7.85-3.37,13.38-3.37,13.38-4.3,2.46-5.08,7.17-5.08,7.17h17.38l11.36-22.4c0,7.21,2.5,15.3,2.61,15.68-.12-.11-1.44-1.19-5.52-.76-4.3,.46-5.84,7.48-5.84,7.48h39.76c4.3-15.57,2.05-38.12,0-41.2,0,0,2.98,14.47-.41,24.71,0,0-11.68,2.35-21.32-4.62-5.49-3.97-2.56-11.13-2.56-11.13,0,0,7.17-2.65,14.65,4.93l-8.46-16.43s-5.83-8.33-6.75-15.82c.12,1.28,1.18,11.65,2.77,15.82,0,0-3.78,10.59-8.93,15.36-6.3,5.83-16.75,1.84-16.75,1.84l10.45-28.14s1.74-9.04,0-18.4c0,0,0,8.57-2.31,17.74,0,0-9.22,23.88-17.34,25.73-5.27,1.2-14.01-3.86-14.45-4.06Z"/><path class="cls-20" d="M111.05,193.87s4.31-9.01,6.72-9.85c0,0,7.48-2.65,14.65,4.93l-9.24-17.62-2.64,2.51-9.49,20.03Z"/><path class="cls-28" d="M119.41,213.4s-3.27-3.05-5.75-3.85l-.73-2.65s4.12,3.02,6.48,6.5Z"/><path class="cls-1" d="M143.36,210.28c2.63-2.2,12.53,1.06,14.18,2.19,1.64,1.13,5.63,8.2,14.54,20.08,8.89,11.89,12.93,13.64,12.93,13.64l-2.15-6.87c4.92,5.65,7.17,17.64,7.17,17.64,0,0,9.43-13.02,9.95-25.52,.37-9.09-4.34-15.84-6.95-18.85,3.71,4.78,4.59,12.49,4.59,12.49,0,0-18.3-.92-22.75-3.34-4.45-2.42-18.91-14.84-18.91-14.84,3.69-2.04,12.14-3.37,12.14-3.37h-.01c-13.42-1.11-23.91,.23-23.91,.23l-.8,6.53Z"/><path class="cls-80" d="M80.77,117.37s-2.08,3.47-5.73,6.77c0,0-10.23,2.72-13.62,.93,0,0-1.56-7.57,3.03-9.87,3.24-1.63,10.56-2.38,16.32,2.17Z"/><path class="cls-79" d="M39.29,126.76l-.59,5.49s-1.61,2.54-5.14,1.25c0,0-1.67-4.56-.26-6.43,1.4-1.88,3.61-1.52,6-.31Z"/><path class="cls-6" d="M55.74,200.6s-1.59-5.35-6.24-5.65c-4.65-.29-8.81,6.37-7.6,10.75,1.21,4.38,4.44,4.97,4.44,4.97l9.4-10.08Z"/><path class="cls-70" d="M43.91,208.42c0,4.69,3.8,8.5,8.5,8.5s8.5-3.8,8.5-8.5-3.8-8.5-8.5-8.5-8.5,3.8-8.5,8.5Z"/></g><path class="cls-40" d="M144.51,216.08s-10.17,1.47-22.39,1.7c-11.53,.22-25.42,.21-36.39,.14h-.03c-10.89-.05-18.92-.17-18.92-.17,46.22-7.07,77.73-1.67,77.73-1.67Z"/><path class="cls-51" d="M146.7,216.45c-.64,.78-10.74,1.18-23.65,1.37-12.18,.18-26.85,.17-38.44,.11h-.03c-11.5-.04-19.98-.14-19.98-.14-.93-1.45,58.55-4.69,77.45-2.52,1.6,.18,2.91,.41,3.87,.67,.67,.19,.92,.36,.78,.51Z"/><path class="cls-40" d="M146.7,216.45c-8.25,.26-16.2,.75-23.65,1.37-12.18,.18-26.85,.17-38.44,.11,20.14-2.5,42.83-2.8,57.44-2.66,1.6,.18,9.76-.04,10.72,.22,.67,.19-5.93,.81-6.07,.96Z"/><g><path class="cls-69" d="M253.44,207.09h-25.27c-3.92,8.04-8.38,13.38-8.38,13.38,0,0-9.12,2.06-10.25,5.46-1.17,3.42,2.99,10.13,2.99,10.13,0,0,10.81,1.19,15.16,0,.1-.02,.24-.06,.4-.12,3.64-1.33,16.29-9.38,24.78-15.93,.04-.02,.08-.04,.12-.08,.16-.09,.3-.2,.46-.3v-12.55Z"/><path class="cls-52" d="M219.8,220.48c6.41-1.73,17.9,3.43,18.36,3.98,.46,.55,1.63,2.39,.67,5.36-5.14,3.3-9.58,5.83-11.15,6.25-4.35,1.19-15.15,0-15.15,0,0,0-4.16-6.72-3.01-10.12,1.13-3.41,10.27-5.46,10.27-5.46Z"/><path class="cls-31" d="M253.44,214.05c-7.7,7.73-16.41,11.08-19.36,11.88-11.26,3.09-24.54,0-24.54,0-1.17,3.42,2.99,10.13,2.99,10.13,0,0,10.81,1.19,15.16,0,.1-.02,.24-.06,.4-.12,3.64-1.33,16.29-9.38,24.78-15.93,.04-.02,.08-.04,.12-.08,.16-.09,.3-.2,.46-.3v-5.59Z"/><path class="cls-38" d="M225.63,236.43s-1.24-3.5-1.08-5.58c.16-2.08,2.07-3.68,2.07-3.68,0,0-3.08,1.69-3.55,3.98-.47,2.28,1.52,5.37,1.52,5.37l1.04-.09Z"/><path class="cls-38" d="M214.5,236.26s-2.24-6.7-1.47-8.13c.77-1.44,1.47-1.79,1.47-1.79,0,0-1.78,.07-2.56,2.11-.78,2.05,2.18,7.81,2.18,7.81h.38Z"/><path class="cls-36" d="M209.79,225.4s5.44,1.26,12.03,1.43c6.59,.17,13.28-2.04,13.28-2.04,0,0-7.27-4.48-15.31-4.32,0,0-9.66,1.76-10.01,4.92Z"/></g></g></g></g></g></svg>