<svg width="161" height="182" viewBox="0 0 161 182" fill="none" xmlns="http://www.w3.org/2000/svg">
<path fill-rule="evenodd" clip-rule="evenodd" d="M0 118.005H121.155L115.457 182L7.31897 178.02C7.31897 178.02 1.90162 148.385 0 118.005Z" fill="url(#paint0_radial_123_149)"/>
<path fill-rule="evenodd" clip-rule="evenodd" d="M160.468 103.569L121.162 118.005L115.463 182L150.536 165.291C150.536 165.291 158.194 121.991 160.475 103.569H160.468Z" fill="url(#paint1_radial_123_149)"/>
<path fill-rule="evenodd" clip-rule="evenodd" d="M0 118.005L63.0477 103.569H160.468L121.155 118.005H0Z" fill="url(#paint2_radial_123_149)"/>
<path fill-rule="evenodd" clip-rule="evenodd" d="M10.4424 116.58L121.155 116.959L154.868 104.805H63.8055L10.4424 116.58Z" fill="url(#paint3_radial_123_149)"/>
<g style="mix-blend-mode:soft-light" opacity="0.58">
<path fill-rule="evenodd" clip-rule="evenodd" d="M63.8054 104.805L63.6616 116.757L121.155 116.959L154.868 104.805H63.8054Z" fill="#FFDD98"/>
</g>
<path fill-rule="evenodd" clip-rule="evenodd" d="M160.469 103.569C160.469 103.569 148.379 52.0426 132.428 22.6687C132.428 22.6687 69.635 27.988 19.5001 41.1556L16.4614 55.8393C16.4614 55.8393 33.4911 77.1101 48.1094 100.655C48.1094 100.655 57.3496 103.569 63.048 103.569H160.469Z" fill="url(#paint4_radial_123_149)"/>
<path opacity="0.43" fill-rule="evenodd" clip-rule="evenodd" d="M64.9431 103.569H160.469L130.147 37.9929L76.6273 43.848C76.6273 43.848 72.151 37.3917 64.9431 39.5743C57.7352 41.7569 55.6441 48.4028 55.6441 48.4028L32.1123 54.8788L64.9431 103.569Z" fill="#9F3950"/>
<path fill-rule="evenodd" clip-rule="evenodd" d="M132.428 22.6687C132.428 22.6687 132.049 29.1251 127.873 37.9863C127.873 37.9863 140.72 69.3859 147.752 94.6429C147.752 94.6429 152.117 102.622 160.475 103.569C160.475 103.569 147.687 49.8273 132.434 22.6687H132.428Z" fill="url(#paint5_radial_123_149)"/>
<path fill-rule="evenodd" clip-rule="evenodd" d="M32.1123 54.8787L64.9431 103.569C64.9431 103.569 54.6704 105.915 48.874 99.8053L22.0356 58.4989L32.1188 54.8787H32.1123Z" fill="#A23B58"/>
<path fill-rule="evenodd" clip-rule="evenodd" d="M63.0089 103.863C63.0089 103.863 53.8994 105.02 48.8676 99.7989C48.8676 99.7989 35.7 78.1164 22.0293 58.4924C22.0293 58.4924 31.5243 53.807 56.7813 49.6313C56.7813 49.6313 61.5974 39.7376 67.7924 39.5677C74.6931 39.3782 75.8302 43.9329 75.8302 43.9329C75.8302 43.9329 112.164 39.5023 125.834 40.1362C125.834 40.1362 140.139 72.0391 145.079 94.5776C145.079 94.5776 148.752 101.034 156.221 103.569H160.462C160.462 103.569 154.953 103.824 147.739 94.6429C147.739 94.6429 136.342 54.5716 127.86 37.9863C127.86 37.9863 108.746 38.3653 76.2092 42.2927C76.2092 42.2927 71.1643 38.1758 65.2765 39.3782C58.977 40.6655 55.0692 47.4813 55.0692 47.4813L16.4551 55.8393C16.4551 55.8393 31.2041 76.5415 48.1031 100.655C48.1031 100.655 54.2131 106.033 63.0024 103.863H63.0089Z" fill="#D2715E"/>
<path fill-rule="evenodd" clip-rule="evenodd" d="M55.0684 47.4879L56.7805 49.6378C56.7805 49.6378 60.9105 40.3715 68.1772 39.5677C68.1772 39.5677 61.5313 37.3524 55.0749 47.4813L55.0684 47.4879Z" fill="#A23B58"/>
<path opacity="0.5" fill-rule="evenodd" clip-rule="evenodd" d="M88.4619 178.929V164.683H110.902L109.955 179.308L88.4619 178.929Z" fill="#FFFFCE"/>
<g style="mix-blend-mode:multiply" opacity="0.5">
<g style="mix-blend-mode:multiply" opacity="0.5">
<path d="M108.38 178.275L90.187 177.955V165.715H109.197L108.38 178.275ZM90.6967 177.452L107.903 177.759L108.654 166.232H90.7033V177.452H90.6967Z" fill="#C1748D"/>
</g>
</g>
<g style="mix-blend-mode:multiply" opacity="0.5">
<path d="M105.014 167.721H93.2383V169.623H105.014V167.721Z" fill="#C1748D"/>
</g>
<g style="mix-blend-mode:multiply" opacity="0.5">
<path d="M105.014 171.335H93.2383V172.283H105.014V171.335Z" fill="#C1748D"/>
</g>
<path d="M82.5342 175.831H84.658V170.009H83.0504L82.5342 175.831Z" fill="#5A4153"/>
<path d="M81.6387 170.649H86.1281L83.8866 166.16L81.6387 170.649Z" fill="#5A4153"/>
<path d="M76.0581 175.831H78.1754V170.009H76.5678L76.0581 175.831Z" fill="#5A4153"/>
<path d="M75.1567 170.649H79.6527L77.4047 166.16L75.1567 170.649Z" fill="#5A4153"/>
<path opacity="0.65" d="M22.0288 58.499L48.8672 99.8054C48.8672 99.8054 52.5594 105.157 64.9363 103.569H66.3674L50.2264 64.7659L127.736 44.5015L125.841 40.1428C125.841 40.1428 104.413 40.2408 75.8363 43.9395C75.8363 43.9395 73.0394 37.6792 66.5307 39.7638C60.0221 41.8418 56.7808 49.6378 56.7808 49.6378C56.7808 49.6378 32.7916 53.1209 22.0288 58.499Z" fill="#791B40"/>
<g style="mix-blend-mode:soft-light" opacity="0.5">
<path fill-rule="evenodd" clip-rule="evenodd" d="M132.428 22.6687C132.428 22.6687 132.879 30.2033 127.873 37.9863C127.873 37.9863 90.3044 39.9467 76.2219 42.2927C76.2219 42.2927 71.1771 37.4831 64.9494 39.5677C58.7217 41.6588 55.0819 47.4813 55.0819 47.4813L16.4678 55.8393L19.5065 41.1556C19.5065 41.1556 81.6981 25.5179 132.434 22.6687H132.428Z" fill="#FFFFB8"/>
</g>
<g style="mix-blend-mode:multiply" opacity="0.5">
<g style="mix-blend-mode:multiply" opacity="0.5">
<path fill-rule="evenodd" clip-rule="evenodd" d="M6.42385 143.628C6.69177 145.059 7.42367 145.836 9.10311 145.497C10.1879 145.281 10.8152 144.347 10.6257 143.203C10.4297 142.046 9.24688 141.092 8.07062 141.243C6.84861 141.399 6.2278 142.968 6.43038 143.628H6.42385Z" fill="#E3D9D2"/>
</g>
<g style="mix-blend-mode:multiply" opacity="0.5">
<path fill-rule="evenodd" clip-rule="evenodd" d="M47.0831 159.854C47.2269 158.246 48.8933 157.37 50.3113 157.214C51.5137 157.083 52.592 157.416 53.6179 158.07C54.6243 158.71 55.4281 159.84 54.9184 161.049C54.7485 161.448 54.2649 162.324 53.9185 162.598C53.3958 163.023 52.3437 162.742 51.749 162.637C50.6642 162.454 50.2721 162.088 49.5141 161.389C48.8345 160.762 47.0309 161.265 47.0831 159.854Z" fill="#E3D9D2"/>
</g>
<g style="mix-blend-mode:multiply" opacity="0.5">
<path fill-rule="evenodd" clip-rule="evenodd" d="M7.49544 137.439C6.55443 137.825 5.2148 139.269 6.5871 139.877C7.33207 140.203 9.61271 139.779 10.2335 139.302C12.769 137.361 8.75665 135.688 7.10335 137.733L7.49544 137.439Z" fill="#E3D9D2"/>
</g>
<g style="mix-blend-mode:multiply" opacity="0.5">
<path fill-rule="evenodd" clip-rule="evenodd" d="M8.71129 149.855C9.6327 148.235 11.3187 150.084 10.2208 151.012C9.4824 151.633 8.63288 150.999 8.52832 150.215L8.71783 149.862L8.71129 149.855Z" fill="#E3D9D2"/>
</g>
<g style="mix-blend-mode:multiply" opacity="0.5">
<path fill-rule="evenodd" clip-rule="evenodd" d="M11.214 143.693C11.8283 142.608 12.9523 143.843 12.2204 144.464C11.7303 144.876 11.1617 144.458 11.0898 143.928L11.214 143.693Z" fill="#E3D9D2"/>
</g>
<g style="mix-blend-mode:multiply" opacity="0.5">
<path fill-rule="evenodd" clip-rule="evenodd" d="M109.354 127.938C107.89 129.911 110.576 132.218 111.634 129.839C112.203 128.565 111.105 127.01 109.863 127.938H109.36H109.354Z" fill="#E3D9D2"/>
</g>
<g style="mix-blend-mode:multiply" opacity="0.5">
<path fill-rule="evenodd" clip-rule="evenodd" d="M113.784 133.636C113.588 133.257 113.405 133.355 113.196 133.597C112.85 134.002 113.078 134.087 113.327 134.401C113.869 135.087 114.353 135.067 115.098 134.59C115.699 134.204 116.705 133.146 115.62 132.617C115.163 132.394 114.189 132.721 113.908 133.067L113.784 133.636Z" fill="#E3D9D2"/>
</g>
<g style="mix-blend-mode:multiply" opacity="0.5">
<path fill-rule="evenodd" clip-rule="evenodd" d="M111.379 134.394C111.268 133.42 112.719 134.675 112.085 135.204C111.549 135.649 111.209 134.721 111.379 134.329V134.394Z" fill="#E3D9D2"/>
</g>
<g style="mix-blend-mode:multiply" opacity="0.5">
<path fill-rule="evenodd" clip-rule="evenodd" d="M114.287 131.042C114.692 131.682 115.516 130.78 115.222 130.356C114.869 129.852 114.359 130.669 114.222 130.911L114.287 131.035V131.042Z" fill="#E3D9D2"/>
</g>
<g style="mix-blend-mode:multiply" opacity="0.5">
<path fill-rule="evenodd" clip-rule="evenodd" d="M98.8452 142.562C99.087 141.759 100.074 142.504 100.191 143.02C100.361 143.739 99.7405 144.68 98.9759 144.752C97.8062 144.863 97.4925 143.04 98.5316 142.628L98.8452 142.562Z" fill="#E3D9D2"/>
</g>
<g style="mix-blend-mode:multiply" opacity="0.5">
<path fill-rule="evenodd" clip-rule="evenodd" d="M109.791 144.02C109.098 145.033 111.457 145.248 111.438 144.098C111.418 143.19 110.059 143.19 109.791 143.954V144.02Z" fill="#E3D9D2"/>
</g>
<g style="mix-blend-mode:multiply" opacity="0.5">
<path fill-rule="evenodd" clip-rule="evenodd" d="M99.9824 124.141C99.5054 123.52 100.139 122.586 100.884 122.69C101.845 122.827 101.864 124.154 101.538 124.808C100.825 126.252 98.8519 125.265 99.6688 123.886L99.9824 124.141Z" fill="#E3D9D2"/>
</g>
<g style="mix-blend-mode:multiply" opacity="0.5">
<path fill-rule="evenodd" clip-rule="evenodd" d="M114.032 121.037C113.19 123.037 116.45 122.331 116.633 120.723C116.849 118.782 114.274 119.292 114.032 121.037Z" fill="#E3D9D2"/>
</g>
<g style="mix-blend-mode:multiply" opacity="0.5">
<path fill-rule="evenodd" clip-rule="evenodd" d="M54.6573 155.985C53.3177 157.808 56.8204 158.697 57.1014 156.403C56.4021 155.508 55.1148 155.305 54.2783 156.174L54.6573 155.985Z" fill="#E3D9D2"/>
</g>
<g style="mix-blend-mode:multiply" opacity="0.5">
<path fill-rule="evenodd" clip-rule="evenodd" d="M36.4248 178.014C39.3524 174.263 45.0311 172.792 49.0631 175.55C50.1217 176.275 51.6313 177.582 50.3701 178.759C49.2722 179.785 44.0248 178.778 42.5544 178.772C40.4372 178.772 38.2545 178.85 36.4313 178.014H36.4248Z" fill="#E3D9D2"/>
</g>
<g style="mix-blend-mode:multiply" opacity="0.5">
<path fill-rule="evenodd" clip-rule="evenodd" d="M26.1719 176.112C26.4137 177.792 29.3739 177.203 28.9361 175.818C28.6486 174.897 27.0279 174.661 26.7404 175.537L26.1719 176.106V176.112Z" fill="#E3D9D2"/>
</g>
<g style="mix-blend-mode:multiply" opacity="0.5">
<path fill-rule="evenodd" clip-rule="evenodd" d="M63.9624 176.681C64.459 173.995 67.367 178.112 64.5636 177.785C64.5113 177.569 64.4329 177.439 64.3414 177.249L63.9624 176.681Z" fill="#E3D9D2"/>
</g>
<g style="mix-blend-mode:multiply" opacity="0.5">
<path fill-rule="evenodd" clip-rule="evenodd" d="M63.3942 122.749C63.0086 124.553 65.3088 124.193 65.3023 122.742C65.3023 121.54 63.7274 121.122 63.3942 122.37V122.749Z" fill="#E3D9D2"/>
</g>
<g style="mix-blend-mode:multiply" opacity="0.5">
<path fill-rule="evenodd" clip-rule="evenodd" d="M111.627 151.424C111.81 151.13 112.065 150.94 112.379 150.849C113.562 152.417 110.928 153.469 111.627 151.613V151.424Z" fill="#E3D9D2"/>
</g>
<g style="mix-blend-mode:multiply" opacity="0.5">
<path fill-rule="evenodd" clip-rule="evenodd" d="M28.3283 43.116C25.4399 50.4938 37.6011 45.3575 39.3655 41.9463C41.1953 38.411 36.5425 37.8294 33.9351 38.2999C30.8376 38.8619 28.4328 41.0837 28.3348 43.116H28.3283Z" fill="#E3D9D2"/>
</g>
<g style="mix-blend-mode:multiply" opacity="0.5">
<path fill-rule="evenodd" clip-rule="evenodd" d="M39.7188 44.887C40.0128 43.2468 43.0842 41.8287 42.7051 44.3185C42.4895 45.7169 40.516 46.6318 39.9736 45.1419L39.7188 44.887Z" fill="#E3D9D2"/>
</g>
<g style="mix-blend-mode:multiply" opacity="0.5">
<path fill-rule="evenodd" clip-rule="evenodd" d="M101.25 33.4968C98.3224 37.5876 110.595 37.6334 111.157 33.5622C111.738 29.3734 102.348 30.798 100.995 33.2485L101.25 33.5034V33.4968Z" fill="#E3D9D2"/>
</g>
<g style="mix-blend-mode:multiply" opacity="0.5">
<path fill-rule="evenodd" clip-rule="evenodd" d="M109.856 28.6872C110.111 26.1517 113.62 27.2626 112.876 28.7918C112.268 30.0465 110.49 29.1381 109.856 28.4324V28.6872Z" fill="#E3D9D2"/>
</g>
<g style="mix-blend-mode:multiply" opacity="0.5">
<path fill-rule="evenodd" clip-rule="evenodd" d="M119.227 31.7259C120.384 31.6998 121.475 31.4384 122.494 30.9483C122.213 28.6677 119.377 29.1904 118.698 30.9679C118.796 31.3273 119.038 31.262 119.227 31.4776V31.7325V31.7259Z" fill="#E3D9D2"/>
</g>
<g style="mix-blend-mode:multiply" opacity="0.5">
<path fill-rule="evenodd" clip-rule="evenodd" d="M87.0695 36.5355C87.0499 35.5749 87.3179 35.0979 88.285 35.0521C89.4743 36.0323 89.1737 37.9405 87.5727 37.5484L87.063 36.5355H87.0695Z" fill="#E3D9D2"/>
</g>
<g style="mix-blend-mode:multiply" opacity="0.5">
<path fill-rule="evenodd" clip-rule="evenodd" d="M31.3673 156.802C27.2047 160.311 36.1704 159.259 32.1254 157.305L31.3673 156.802Z" fill="#E3D9D2"/>
</g>
<g style="mix-blend-mode:multiply" opacity="0.5">
<path fill-rule="evenodd" clip-rule="evenodd" d="M13.6383 166.238C12.6123 167.29 13.0044 169.46 14.8342 168.676C16.2326 168.074 15.9124 165.63 14.2068 166.428L13.6383 166.238Z" fill="#E3D9D2"/>
</g>
<g style="mix-blend-mode:multiply" opacity="0.5">
<path fill-rule="evenodd" clip-rule="evenodd" d="M21.9966 171.936C22.3299 170.78 23.7936 170.76 23.7218 171.936C23.663 172.917 22.6893 172.812 22.3756 172.132L21.9966 171.943V171.936Z" fill="#E3D9D2"/>
</g>
<g style="mix-blend-mode:multiply" opacity="0.5">
<path fill-rule="evenodd" clip-rule="evenodd" d="M78.7769 121.801C79.2082 121.553 79.5545 121.213 79.8093 120.802C79.1232 120.207 79.084 120.671 78.7769 121.233V121.801Z" fill="#E3D9D2"/>
</g>
</g>
<path d="M63.8057 167.068H69.6609C69.6609 167.068 69.7066 171.499 66.7333 171.629C63.76 171.753 63.8057 167.068 63.8057 167.068Z" fill="#5A4153"/>
<path d="M66.1847 171.028L66.727 174.433L64.7666 175.596H68.792L67.2106 174.433V171.629L66.1847 171.028Z" fill="#5A4153"/>
<path style="mix-blend-mode:multiply" opacity="0.5" fill-rule="evenodd" clip-rule="evenodd" d="M9.5542 177.805C9.5542 177.805 27.0936 166.205 47.0835 164.683C67.0669 163.167 105.995 181.647 105.995 181.647L9.56073 177.805H9.5542Z" fill="url(#paint6_linear_123_149)"/>
<path fill-rule="evenodd" clip-rule="evenodd" d="M39.9014 134.113V152.58L70.5365 154.26L71.5102 134.682L39.9014 134.113Z" fill="url(#paint7_linear_123_149)"/>
<path d="M42.8945 137.165L55.3891 137.72V138.648L42.8945 137.91V137.165Z" fill="#5A4153"/>
<g style="mix-blend-mode:multiply" opacity="0.5">
<path d="M42.5742 139.452V147.019L55.6895 147.575L55.7091 139.988L42.5742 139.452Z" fill="#C1748D"/>
</g>
<path fill-rule="evenodd" clip-rule="evenodd" d="M121.155 118.005C121.155 118.005 114.712 161.291 115.457 182L121.155 118.005Z" fill="#DF7668"/>
<path style="mix-blend-mode:multiply" opacity="0.5" fill-rule="evenodd" clip-rule="evenodd" d="M150.431 67.7065C145.523 52.1537 139.224 34.7777 132.421 22.6752C107.791 24.0606 80.4694 28.452 58.8654 32.6146C45.7501 34.9868 32.21 37.8163 19.4933 41.1622L16.4546 55.8458C16.4546 55.8458 31.2036 76.548 48.1026 100.661C48.1026 100.661 52.677 104.68 59.6038 104.36L0 118.005C1.90162 148.392 7.31897 178.02 7.31897 178.02L115.457 182L150.529 165.291C150.529 165.291 158.188 121.991 160.468 103.569C160.468 103.569 156.632 87.2259 150.437 67.7065H150.431Z" fill="url(#paint8_linear_123_149)"/>
<path d="M69.5104 60.6294C66.6417 67.2164 58.068 76.2083 52.7487 78.881H52.7226C51.1803 79.6783 49.8799 79.9005 49.135 79.3515C44.9723 76.2933 41.9402 67.5497 40.6136 57.2117C39.4831 48.7491 39.4831 39.2083 40.8619 30.8503C41.0253 29.7721 41.2213 28.7265 41.4435 27.7071C42.0512 24.8645 42.8485 22.1917 43.8156 19.8196C50.2916 4.025 60.0023 0.0518512 60.0023 0.0518512C62.2111 -0.0592403 66.8116 2.80953 66.8116 2.80953C66.8116 2.80953 66.8638 3.33232 67.0076 4.29947C68.027 12.5464 72.8824 52.9379 69.517 60.6294H69.5104Z" fill="url(#paint9_linear_123_149)"/>
<path d="M108.249 116.822H44.064L43.9006 109.902C44.9462 100.472 47.5928 91.7872 50.0237 85.4419C51.017 82.8476 51.9515 80.6193 52.7226 78.881H52.7487C53.2454 77.8028 53.6571 76.9206 53.9903 76.2344H54.0165C54.487 75.2411 54.7614 74.7184 54.7614 74.7184C48.7494 68.7063 43.4562 61.4527 40.6136 57.2116C39.3981 55.3623 38.627 54.0684 38.4375 53.6829C37.8559 52.3563 37.6076 49.4614 37.6076 49.4614C37.6076 49.4614 32.0922 46.8409 31.4322 45.6581C30.7722 44.5276 30.0272 37.0845 32.1772 34.6274C34.301 32.1442 40.4241 29.9942 40.4241 29.9942C40.6986 29.3081 41.0318 28.5304 41.4435 27.7071C42.1297 26.1649 43.0446 24.3678 44.1163 22.525C44.1163 22.4988 44.1424 22.44 44.1685 22.4139C47.5601 16.4019 52.6311 9.48153 58.9764 5.67828C60.5186 4.71113 62.1719 3.96616 63.884 3.46952C63.969 3.44338 64.0212 3.41724 64.0474 3.41724C64.0997 3.3911 64.1323 3.3911 64.1846 3.36496C64.5702 3.25387 64.9557 3.16892 65.3413 3.0905C65.8379 2.97941 66.3346 2.89446 66.8051 2.81604C78.7964 0.666094 87.7883 3.0905 87.7883 3.0905C88.9449 3.69824 89.997 4.58043 90.9054 5.59986C94.4342 9.46192 96.3619 15.304 96.3619 15.304C96.3619 15.304 95.1203 57.8455 97.4402 73.5356C99.0412 84.5075 103.7 101.328 106.347 110.431V110.457C107.478 114.345 108.249 116.829 108.249 116.829V116.822Z" fill="url(#paint10_linear_123_149)"/>
<path fill-rule="evenodd" clip-rule="evenodd" d="M73.5035 40.2734C73.5035 40.2734 62.878 61.9885 52.5726 64.6286C45.9398 66.3276 38.4444 53.6893 38.4444 53.6893C37.8628 52.3693 37.6145 49.4744 37.6145 49.4744C37.6145 49.4744 32.0926 46.8343 31.4325 45.6711C30.7725 44.521 30.0341 37.0844 32.171 34.6208L53.0496 34.183C53.0496 34.183 65.1063 34.4182 73.5101 40.2734H73.5035Z" fill="url(#paint11_linear_123_149)"/>
<path d="M48.9653 29.0271C48.9653 29.0271 54.1997 19.3098 52.0105 15.8464C49.8214 12.3829 44.8288 21.1461 43.8159 24.7598L48.9588 29.0336L48.9653 29.0271Z" fill="#3C1434"/>
<path d="M43.3063 31.9743C44.2408 33.9151 48.6714 31.4123 50.5665 25.6159C51.9388 21.4206 52.2198 16.7874 50.5665 16.1209C48.7759 15.4021 40.5813 26.3282 43.3063 31.9678V31.9743Z" fill="url(#paint12_linear_123_149)"/>
<path d="M53.0431 34.183C52.5007 37.0322 44.9203 42.3711 39.3854 41.8026C35.569 41.4039 31.9096 37.5092 32.2036 35.8755C32.4127 34.7254 36.3532 31.6214 42.7573 31.4253C49.1483 31.2423 53.0431 34.183 53.0431 34.183Z" fill="url(#paint13_linear_123_149)"/>
<path d="M64.211 27.0209C64.211 27.0209 63.6098 20.4338 69.9682 16.0947C76.3265 11.7556 85.4425 17.6958 83.4429 27.0209H64.211Z" fill="#3C1434"/>
<path d="M70.4256 17.088C63.9301 19.996 61.4272 30.798 68.3214 34.9476C75.5816 39.3194 83.175 34.1242 83.5083 26.1975C83.8416 18.2708 77.0584 14.1212 70.4256 17.088Z" fill="url(#paint14_linear_123_149)"/>
<path style="mix-blend-mode:multiply" opacity="0.9" d="M66.0277 40.2734C66.0277 40.2734 65.9754 40.3257 65.9362 40.3649C65.1586 41.1687 60.8848 44.6648 55.7746 48.3243C51.9844 51.0166 47.3774 52.2256 43.8225 52.4543C37.0589 52.879 37.6079 49.481 37.6079 49.481C37.6079 49.481 37.8301 49.6117 38.3332 49.7554C39.5618 50.1148 42.4828 50.5723 48.0113 49.481C55.1669 48.0694 64.3482 41.4889 65.8512 40.3976C65.9297 40.3322 65.9819 40.293 66.0211 40.28L66.0277 40.2734Z" fill="url(#paint15_linear_123_149)"/>
<path style="mix-blend-mode:multiply" opacity="0.91" d="M106.354 110.431V110.444C106.354 110.444 90.7029 100.753 75.5814 94.5972C65.2565 90.3822 55.2974 87.0952 50.0173 85.4484C51.6184 81.2204 53.1214 78.0118 53.9905 76.2409L54.0036 76.2279C54.4806 75.2476 54.7681 74.7249 54.7681 74.7249C46.1814 66.1381 39.0127 55.0094 38.4312 53.6894C56.3169 77.9204 83.7173 59.3746 83.7173 59.3746C85.632 48.4289 89.9384 5.24695 89.9384 5.24695L90.9186 5.60636C94.4343 9.44882 96.3751 15.2975 96.3751 15.2975C96.3751 15.2975 95.1205 57.8455 97.4338 73.5355C99.0609 84.5074 103.707 101.335 106.36 110.431H106.354Z" fill="url(#paint16_linear_123_149)"/>
<path fill-rule="evenodd" clip-rule="evenodd" d="M54.7812 74.7314C54.7812 74.7314 58.1466 79.8482 69.5041 80.3448C80.8615 80.8415 95.9569 67.236 95.9569 67.236L96.9698 69.6147L97.1658 71.2811C97.1658 71.2811 83.5146 88.5983 68.4912 88.5983C55.1144 88.5983 54.0166 76.2279 54.0166 76.2279L54.7812 74.7314Z" fill="url(#paint17_linear_123_149)"/>
<path d="M73.6599 26.5765C72.915 29.772 70.3272 31.8958 67.8832 31.3273C65.4391 30.7587 64.0603 27.707 64.7987 24.5115C65.5437 21.316 68.1315 19.1922 70.5755 19.7607C73.0195 20.3292 74.3983 23.381 73.6534 26.5765H73.6599Z" fill="url(#paint18_linear_123_149)"/>
<path d="M48.1421 25.5048C47.2011 28.0403 45.5282 29.759 44.4042 29.3408C43.2803 28.9225 43.13 26.5308 44.071 23.9953C45.012 21.4598 46.6849 19.7411 47.8089 20.1594C48.9329 20.5776 49.0831 22.9693 48.1421 25.5048Z" fill="url(#paint19_linear_123_149)"/>
<path d="M75.1567 26.766C75.1567 27.6808 74.4183 28.4193 73.5034 28.4193C72.5885 28.4193 71.8501 27.6808 71.8501 26.766C71.8501 25.8511 72.5885 25.1127 73.5034 25.1127C74.4183 25.1127 75.1567 25.8511 75.1567 26.766Z" fill="white"/>
<path d="M49.1291 25.1128C49.1291 25.6355 48.7043 26.0538 48.1881 26.0538C47.6718 26.0538 47.2471 25.629 47.2471 25.1128C47.2471 24.5965 47.6718 24.1718 48.1881 24.1718C48.7043 24.1718 49.1291 24.5965 49.1291 25.1128Z" fill="white"/>
<g style="mix-blend-mode:multiply">
<path d="M53.0431 34.183C52.5007 37.0322 44.9203 42.3711 39.3854 41.8025C35.569 41.4039 31.9096 37.5092 32.2036 35.8755C32.2036 35.8755 43.9989 37.4896 53.0431 34.183Z" fill="#764D53"/>
</g>
<path d="M124.952 50.2913C124.952 50.2913 124.939 50.3305 124.939 50.3436C122.776 62.4003 117.175 76.437 104.034 82.7104C104.034 82.7104 93.5717 67.7327 90.167 47.1611C86.7493 26.5831 89.9449 5.24697 89.9449 5.24697L87.7949 3.09703C87.7949 3.09703 89.6116 0.280533 94.0095 0.0583496C94.0095 0.0583496 103.701 13.9252 109.752 18.774C115.803 23.6228 124.174 27.6874 125.494 29.772C126.115 30.7523 126.84 39.7572 124.952 50.2913Z" fill="url(#paint20_linear_123_149)"/>
<path style="mix-blend-mode:multiply" opacity="0.6" d="M124.939 50.3436C122.776 62.4003 117.175 76.437 104.034 82.7104C104.034 82.7104 93.5717 67.7327 90.167 47.1611C86.7493 26.5831 89.9449 5.24697 89.9449 5.24697L87.7949 3.09703C87.7949 3.09703 89.6116 0.280533 94.0095 0.0583496C94.0095 0.0583496 93.9703 0.718364 93.8919 1.92077C93.5194 8.36407 90.9185 30.0727 94.0095 47.1677C98.1395 70.0068 112.725 71.0458 112.725 71.0458C112.725 71.0458 122.194 65.3148 124.939 50.3501V50.3436Z" fill="url(#paint21_linear_123_149)"/>
<path fill-rule="evenodd" clip-rule="evenodd" d="M71.1706 9.55996C69.7786 11.3048 75.8364 12.6771 78.7052 12.0759C81.5805 11.4681 82.3843 10.1742 81.9726 9.1156C81.5609 8.05696 74.7647 5.05749 71.1706 9.55996Z" fill="#EA6D2C"/>
<path fill-rule="evenodd" clip-rule="evenodd" d="M51.7095 11.821C51.7095 11.821 56.4341 12.1542 58.3292 9.6841C60.2308 7.21395 57.4209 6.69116 57.4209 6.69116C57.4209 6.69116 53.3824 9.88014 51.7095 11.821Z" fill="#EA6D2C"/>
<path fill-rule="evenodd" clip-rule="evenodd" d="M58.9901 116.829C58.9901 116.829 57.5982 103.955 70.9618 104.282C84.3255 104.608 87.7889 116.829 87.7889 116.829H58.9901Z" fill="url(#paint22_linear_123_149)"/>
<path d="M63.7471 39.3194C63.7471 39.3194 67.2106 38.0124 68.0405 43.4755C68.0405 43.4755 65.5638 40.1428 63.4204 40.7897L63.7471 39.3194Z" fill="#BF512C"/>
<path fill-rule="evenodd" clip-rule="evenodd" d="M90.9187 5.60637L87.7886 3.09701C87.7886 3.09701 90.7031 -0.497122 94.0097 0.0583354C94.0097 0.0583354 89.4027 36.4898 90.1672 47.1611C90.1672 47.1611 87.6056 17.4147 90.9187 5.59984V5.60637Z" fill="url(#paint23_linear_123_149)"/>
<path fill-rule="evenodd" clip-rule="evenodd" d="M35.8823 117.985C35.8823 117.985 38.3002 108.738 46.0047 109.843C53.7092 110.941 53.768 117.985 53.768 117.985H35.8823Z" fill="url(#paint24_linear_123_149)"/>
<path fill-rule="evenodd" clip-rule="evenodd" d="M62.0087 87.3828C62.0087 87.3828 61.0742 84.7231 62.7341 79.3515C62.7341 79.3515 67.034 80.8088 72.3925 80.188C72.3925 80.188 71.9808 83.1025 72.3925 88.2976C72.3925 88.2976 65.8708 89.9705 62.0022 87.3828H62.0087Z" fill="url(#paint25_linear_123_149)"/>
<path style="mix-blend-mode:multiply" opacity="0.91" d="M53.8857 115.724C53.8857 115.724 79.2473 113.633 106.354 110.438L108.249 116.829H54.0164L53.8923 115.724H53.8857Z" fill="url(#paint26_linear_123_149)"/>
<path d="M87.7946 3.08399C80.1816 2.01882 73.503 2.58082 66.9094 3.58717C62.1717 4.31254 58.9827 5.67177 58.9827 5.67177C60.7471 4.65234 63.0931 3.77015 63.8903 3.46301C63.9753 3.43687 64.0276 3.41073 64.0537 3.41073C64.1387 3.38459 64.191 3.35846 64.191 3.35846L62.8056 1.9208C62.8056 1.9208 59.4402 1.79011 52.082 9.25937C48.4421 12.9515 45.887 17.8918 44.1749 22.4139C44.1487 22.44 44.1226 22.4989 44.1226 22.525C42.4432 27.0471 41.6655 30.6281 41.6655 30.6281C41.3911 30.6804 41.0055 31.5299 40.7507 31.5822C35.4052 32.6213 32.6802 35.3724 32.6802 35.3724C30.2492 38.7901 31.4386 45.6582 31.4386 45.6582C30.7786 44.5276 30.0336 37.0845 32.1835 34.6274C34.3073 32.1442 40.4304 29.9943 40.4304 29.9943C40.7049 29.3081 41.0382 28.5305 41.4499 27.7071C42.0576 24.8645 42.8549 22.1917 43.822 19.8196C50.2914 4.025 60.0021 0.0518512 60.0021 0.0518512C62.2109 -0.0592403 66.8114 2.80953 66.8114 2.80953C78.8027 0.659587 87.7946 3.08399 87.7946 3.08399Z" fill="#FFDD88"/>
<path style="mix-blend-mode:screen" opacity="0.99" d="M67.1841 22.8517L76.5158 24.3547L81.6586 21.2899C81.6586 21.2899 78.8225 16.6632 73.4967 17.0945C68.1708 17.5258 67.1841 22.8517 67.1841 22.8517Z" fill="url(#paint27_linear_123_149)"/>
<path style="mix-blend-mode:screen" opacity="0.99" d="M45.0381 22.0348H49.1289L51.22 20.8324C51.22 20.8324 51.6317 16.99 50.1287 16.6371C48.6257 16.2907 45.0446 22.0283 45.0446 22.0283L45.0381 22.0348Z" fill="url(#paint28_linear_123_149)"/>
<path d="M40.1758 36.2545C40.1758 36.2545 45.9525 34.2941 48.1548 35.4965C48.1548 35.4965 45.9133 37.2021 40.1758 36.2545Z" fill="#6D5C6D"/>
<path fill-rule="evenodd" clip-rule="evenodd" d="M80.0054 117.985C80.0054 117.985 82.4232 108.738 90.1278 109.843C97.8323 110.941 97.8911 117.985 97.8911 117.985H80.0054Z" fill="url(#paint29_linear_123_149)"/>
<defs>
<radialGradient id="paint0_radial_123_149" cx="0" cy="0" r="1" gradientUnits="userSpaceOnUse" gradientTransform="translate(60.9304 121.638) scale(46.9851 46.9852)">
<stop offset="0.02" stop-color="#FFA874"/>
<stop offset="1" stop-color="#F49372"/>
</radialGradient>
<radialGradient id="paint1_radial_123_149" cx="0" cy="0" r="1" gradientUnits="userSpaceOnUse" gradientTransform="translate(138.093 108.026) scale(42.5807 42.5807)">
<stop offset="0.02" stop-color="#BD4D4D"/>
<stop offset="1" stop-color="#9F3E54"/>
</radialGradient>
<radialGradient id="paint2_radial_123_149" cx="0" cy="0" r="1" gradientUnits="userSpaceOnUse" gradientTransform="translate(80.6981 104.386) scale(44.5869 44.5869)">
<stop stop-color="#FFCF84"/>
<stop offset="0.98" stop-color="#FFB88B"/>
</radialGradient>
<radialGradient id="paint3_radial_123_149" cx="0" cy="0" r="1" gradientUnits="userSpaceOnUse" gradientTransform="translate(83.0701 105.497) scale(40.0583 40.0582)">
<stop offset="0.02" stop-color="#BD4D4D"/>
<stop offset="1" stop-color="#9F3E54"/>
</radialGradient>
<radialGradient id="paint4_radial_123_149" cx="0" cy="0" r="1" gradientUnits="userSpaceOnUse" gradientTransform="translate(88.88 27.2692) scale(57.6499 57.6499)">
<stop offset="0.02" stop-color="#FFA874"/>
<stop offset="1" stop-color="#F49372"/>
</radialGradient>
<radialGradient id="paint5_radial_123_149" cx="0" cy="0" r="1" gradientUnits="userSpaceOnUse" gradientTransform="translate(144.262 27.2692) scale(42.9793 42.9793)">
<stop offset="0.02" stop-color="#CE634F"/>
<stop offset="1" stop-color="#9F3E54"/>
</radialGradient>
<linearGradient id="paint6_linear_123_149" x1="9.5542" y1="173.126" x2="105.988" y2="173.126" gradientUnits="userSpaceOnUse">
<stop stop-color="#D3B8D6"/>
<stop offset="1" stop-color="white"/>
</linearGradient>
<linearGradient id="paint7_linear_123_149" x1="55.709" y1="154.26" x2="55.709" y2="134.113" gradientUnits="userSpaceOnUse">
<stop offset="0.03" stop-color="#ECC5C4"/>
<stop offset="1" stop-color="#FFF2E3"/>
</linearGradient>
<linearGradient id="paint8_linear_123_149" x1="80.2342" y1="182" x2="80.2342" y2="22.6687" gradientUnits="userSpaceOnUse">
<stop stop-color="#6D3E80"/>
<stop offset="1" stop-color="#8E31D6"/>
</linearGradient>
<linearGradient id="paint9_linear_123_149" x1="55.2385" y1="79.6587" x2="55.2385" y2="0.0518472" gradientUnits="userSpaceOnUse">
<stop stop-color="#30142E"/>
<stop offset="1" stop-color="#482127"/>
</linearGradient>
<linearGradient id="paint10_linear_123_149" x1="69.5039" y1="116.822" x2="69.5039" y2="1.92077" gradientUnits="userSpaceOnUse">
<stop stop-color="#3B2240"/>
<stop offset="1" stop-color="#5A3941"/>
</linearGradient>
<linearGradient id="paint11_linear_123_149" x1="52.1217" y1="64.7854" x2="52.1217" y2="34.183" gradientUnits="userSpaceOnUse">
<stop stop-color="#EB5A41"/>
<stop offset="1" stop-color="#FF7236"/>
</linearGradient>
<linearGradient id="paint12_linear_123_149" x1="47.2337" y1="32.6212" x2="47.2337" y2="16.0948" gradientUnits="userSpaceOnUse">
<stop stop-color="white"/>
<stop offset="1" stop-color="#D0C7F8"/>
</linearGradient>
<linearGradient id="paint13_linear_123_149" x1="42.6135" y1="41.8418" x2="42.6135" y2="31.4122" gradientUnits="userSpaceOnUse">
<stop stop-color="#30142E"/>
<stop offset="1" stop-color="#2F2127"/>
</linearGradient>
<linearGradient id="paint14_linear_123_149" x1="73.8564" y1="36.5421" x2="73.8564" y2="16.1274" gradientUnits="userSpaceOnUse">
<stop stop-color="white"/>
<stop offset="1" stop-color="#D0C7F8"/>
</linearGradient>
<linearGradient id="paint15_linear_123_149" x1="37.5948" y1="46.3769" x2="66.0277" y2="46.3769" gradientUnits="userSpaceOnUse">
<stop stop-color="#CCB8FF"/>
<stop offset="1" stop-color="#AF8BC2"/>
</linearGradient>
<linearGradient id="paint16_linear_123_149" x1="38.4377" y1="57.8455" x2="106.354" y2="57.8455" gradientUnits="userSpaceOnUse">
<stop offset="0.02" stop-color="#F0C2D6"/>
<stop offset="0.99" stop-color="#BD89C4"/>
</linearGradient>
<linearGradient id="paint17_linear_123_149" x1="75.5879" y1="88.5983" x2="75.5879" y2="67.236" gradientUnits="userSpaceOnUse">
<stop stop-color="#F20044"/>
<stop offset="1" stop-color="#D90E27"/>
</linearGradient>
<linearGradient id="paint18_linear_123_149" x1="67.8691" y1="31.3292" x2="70.5664" y2="19.7659" gradientUnits="userSpaceOnUse">
<stop stop-color="#934A1A"/>
<stop offset="0.98" stop-color="#33112F"/>
</linearGradient>
<linearGradient id="paint19_linear_123_149" x1="44.4773" y1="28.5681" x2="47.8616" y2="19.4387" gradientUnits="userSpaceOnUse">
<stop stop-color="#934A1A"/>
<stop offset="0.98" stop-color="#33112F"/>
</linearGradient>
<linearGradient id="paint20_linear_123_149" x1="106.975" y1="82.7169" x2="106.975" y2="0.0583496" gradientUnits="userSpaceOnUse">
<stop stop-color="#47233B"/>
<stop offset="1" stop-color="#764D53"/>
</linearGradient>
<linearGradient id="paint21_linear_123_149" x1="87.7884" y1="41.3844" x2="124.939" y2="41.3844" gradientUnits="userSpaceOnUse">
<stop stop-color="#BD89C4"/>
<stop offset="0.98" stop-color="#F0C2D6"/>
</linearGradient>
<linearGradient id="paint22_linear_123_149" x1="58.9509" y1="110.549" x2="87.7889" y2="110.549" gradientUnits="userSpaceOnUse">
<stop stop-color="#D94E41"/>
<stop offset="1" stop-color="#C05636"/>
</linearGradient>
<linearGradient id="paint23_linear_123_149" x1="87.7886" y1="23.5836" x2="94.0097" y2="23.5836" gradientUnits="userSpaceOnUse">
<stop stop-color="#EB5A41"/>
<stop offset="1" stop-color="#FF7236"/>
</linearGradient>
<linearGradient id="paint24_linear_123_149" x1="35.8823" y1="113.868" x2="53.768" y2="113.868" gradientUnits="userSpaceOnUse">
<stop stop-color="#EB5A41"/>
<stop offset="1" stop-color="#FF7236"/>
</linearGradient>
<linearGradient id="paint25_linear_123_149" x1="67.0732" y1="88.8269" x2="67.0732" y2="79.345" gradientUnits="userSpaceOnUse">
<stop stop-color="#FF9D31"/>
<stop offset="1" stop-color="#FFCC1B"/>
</linearGradient>
<linearGradient id="paint26_linear_123_149" x1="53.8857" y1="113.626" x2="108.249" y2="113.626" gradientUnits="userSpaceOnUse">
<stop offset="0.02" stop-color="#F0C2D6"/>
<stop offset="0.99" stop-color="#BD89C4"/>
</linearGradient>
<linearGradient id="paint27_linear_123_149" x1="74.4246" y1="24.3612" x2="74.4246" y2="17.0749" gradientUnits="userSpaceOnUse">
<stop stop-color="#C48260"/>
<stop offset="1" stop-color="#DECFEF"/>
</linearGradient>
<linearGradient id="paint28_linear_123_149" x1="48.1552" y1="22.0348" x2="48.1552" y2="16.624" gradientUnits="userSpaceOnUse">
<stop stop-color="#C48260"/>
<stop offset="1" stop-color="#DECFEF"/>
</linearGradient>
<linearGradient id="paint29_linear_123_149" x1="80.0054" y1="113.868" x2="97.8911" y2="113.868" gradientUnits="userSpaceOnUse">
<stop stop-color="#EB5A41"/>
<stop offset="1" stop-color="#FF7236"/>
</linearGradient>
</defs>
</svg>
