<svg width="229" height="241" viewBox="0 0 229 241" fill="none" xmlns="http://www.w3.org/2000/svg">
<path d="M21.6381 112.667L1.88223 169.254C0.883578 172.115 3.00817 175.105 6.03969 175.105H21.6381" fill="#FF570F"/>
<g opacity="0.3">
<path opacity="0.3" d="M21.6381 112.667L1.88223 169.254C0.883578 172.115 3.00817 175.105 6.03969 175.105H21.6381" fill="#451E0E"/>
</g>
<path d="M207.647 112.666H21.6377V237.544H207.647V112.666Z" fill="#FF611E"/>
<g opacity="0.66">
<path opacity="0.66" d="M207.647 112.666H21.6377V116.122H207.647V112.666Z" fill="white"/>
</g>
<g opacity="0.66">
<path opacity="0.66" d="M207.647 237.544H21.6377V241H207.647V237.544Z" fill="white"/>
</g>
<g opacity="0.3">
<path opacity="0.3" d="M203.435 112.666H102.653L102.101 156.122L102.544 206.209C102.643 217.363 93.6229 226.458 82.4627 226.458H21.6377V237.543H203.435V112.666Z" fill="#451E0E"/>
</g>
<path d="M53.4837 168.874C53.1832 168.761 52.8772 168.67 52.5692 168.592C52.7798 168.131 52.9043 167.623 52.9202 167.086C52.9867 164.919 51.2776 163.102 49.11 163.036C47.5582 162.988 46.1889 163.854 45.5104 165.143C44.9142 164.7 44.1794 164.45 43.3802 164.424C42.2196 164.389 41.0057 164.844 40.0482 165.674C38.1613 167.309 37.7598 169.842 39.0917 171.511C38.1052 172.219 37.4407 173.377 37.4004 174.706C37.3321 176.936 39.0393 178.805 41.2069 178.871C41.7619 178.888 42.2945 178.784 42.7802 178.584C42.8935 178.928 43.0217 179.27 43.1827 179.603C44.1224 181.545 45.7734 183.043 47.8315 183.82C48.6411 184.126 49.4423 184.293 50.2135 184.317C51.9384 184.37 55.1103 183.724 56.9691 178.809C58.7277 174.158 57.3922 170.35 53.4837 168.873V168.874Z" fill="white"/>
<path d="M55.0433 178.082C53.8846 181.146 51.7909 183.116 48.5591 181.896C45.3273 180.675 43.6472 177.201 44.8059 174.137C45.9646 171.072 49.524 169.579 52.7558 170.799C55.9877 172.02 56.202 175.018 55.0433 178.083V178.082Z" fill="#262626"/>
<path d="M43.2043 174.888C43.2381 173.79 42.427 172.874 41.3926 172.842C40.3583 172.81 39.4924 173.675 39.4586 174.773C39.4248 175.872 40.236 176.788 41.2703 176.82C42.3047 176.851 43.1706 175.987 43.2043 174.888Z" fill="#262626"/>
<path d="M43.858 170.051C44.9006 169.147 45.196 167.781 44.5179 167C43.8398 166.219 42.4449 166.318 41.4024 167.222C40.3598 168.126 40.0644 169.492 40.7425 170.273C41.4206 171.054 42.8154 170.955 43.858 170.051Z" fill="#262626"/>
<path d="M50.8536 167.138C50.9517 166.108 50.1961 165.194 49.1659 165.096C48.1357 164.998 47.2211 165.753 47.123 166.782C47.0248 167.812 47.7804 168.726 48.8106 168.824C49.8408 168.922 50.7555 168.167 50.8536 167.138Z" fill="#262626"/>
<path d="M81.7081 178.534C81.5227 178.307 81.3215 178.097 81.1137 177.895C81.4891 177.626 81.8194 177.281 82.0768 176.865C83.1157 175.184 82.5916 172.971 80.9097 171.934C79.7051 171.19 78.2301 171.252 77.1079 171.961C76.8383 171.34 76.3722 170.809 75.7517 170.426C74.8513 169.87 73.6852 169.679 72.5517 169.899C70.3167 170.333 68.8473 172.151 69.1393 174.074C68.0377 174.186 66.9857 174.798 66.3492 175.828C65.2804 177.559 65.7783 179.811 67.4602 180.849C67.8907 181.115 68.3587 181.275 68.8332 181.337C68.7658 181.661 68.7116 181.988 68.6872 182.325C68.5459 184.286 69.1683 186.22 70.4402 187.769C70.94 188.379 71.4979 188.875 72.0959 189.245C73.4343 190.071 76.2337 191.003 79.9391 187.966C83.4452 185.091 84.1228 181.477 81.7071 178.534H81.7081Z" fill="white"/>
<path d="M78.7493 186.516C76.4394 188.409 73.889 189.014 71.8926 186.58C69.8953 184.146 70.1489 180.638 72.4588 178.745C74.7687 176.852 78.2598 177.289 80.2571 179.723C82.2544 182.157 81.0592 184.622 78.7493 186.515V186.516Z" fill="#262626"/>
<path d="M70.8548 178.596C71.3811 177.744 71.157 176.652 70.3543 176.157C69.5516 175.661 68.4742 175.951 67.948 176.803C67.4217 177.655 67.6458 178.747 68.4485 179.242C69.2512 179.737 70.3286 179.448 70.8548 178.596Z" fill="#262626"/>
<path d="M73.5551 175.097C74.7896 174.857 75.6445 173.912 75.4645 172.987C75.2845 172.061 74.1378 171.505 72.9033 171.745C71.6687 171.985 70.8139 172.93 70.9939 173.855C71.1739 174.781 72.3206 175.337 73.5551 175.097Z" fill="#262626"/>
<path d="M80.1258 176.29C80.8479 175.683 80.9413 174.606 80.3342 173.884C79.7272 173.162 78.6498 173.069 77.9276 173.676C77.2055 174.283 77.1122 175.359 77.7192 176.081C78.3262 176.803 79.4037 176.896 80.1258 176.29Z" fill="#262626"/>
<path d="M114.642 111.403L31.8954 112.666C25.9569 111.356 22.0868 105.285 20.0558 101.024C19.073 98.9617 18.5676 96.7119 18.5676 94.4388C18.5676 94.0085 18.5863 93.5782 18.6238 93.1479L19.4568 83.176L20.6594 68.8075C16.56 68.6672 12.6057 68.1153 8.83381 67.0349C7.3597 66.6139 6.05874 65.8001 5.0526 64.7196L5.03388 64.7009C4.72502 64.3641 4.43956 63.9993 4.18686 63.6111C3.51766 62.5915 3.07776 61.4175 2.92333 60.1593C1.95463 52.1846 2.4694 44.5654 5.09472 37.442C5.80604 35.5196 7.48137 34.1211 9.48429 33.6908C16.209 32.2409 23.252 32.8489 30.4915 34.7479C39.6216 22.8069 52.9167 17.096 72.141 20.2484C75.1032 13.3776 78.964 7.46088 84.2474 3.0596C85.8198 1.74529 87.9537 1.28692 89.9052 1.91367C93.808 3.1625 97.4395 4.98662 100.856 7.2925C103.771 9.26161 106.532 11.5815 109.153 14.1961C111.483 16.5207 112.167 20.0333 110.931 23.0875C108.895 28.1109 105.844 32.7881 102.1 37.2315L107.637 42.5635L112.129 46.89C112.129 46.89 115.555 51.2211 118.994 58.0218C125.621 71.1181 132.299 93.3584 114.642 111.403V111.403Z" fill="#FF540B"/>
<g opacity="0.66">
<path opacity="0.66" d="M111.006 17.0679C105.517 11.7686 99.4377 7.75554 92.5305 5.54321C90.579 4.91646 88.4451 5.37483 86.8727 6.68913C81.5893 11.0904 77.7285 17.0071 74.7663 23.878C55.542 20.7255 42.247 26.4364 33.1168 38.3774C25.8773 36.4785 18.8344 35.8704 12.1096 37.3204C10.1067 37.7507 8.43135 39.1492 7.72004 41.0715C5.09472 48.1949 4.57995 55.8142 5.54865 63.7888C5.62353 64.4062 5.7686 65.0003 5.97451 65.5709C4.31321 64.2566 3.19008 62.3342 2.92333 60.1593C1.95463 52.1846 2.4694 44.5654 5.09472 37.442C5.80604 35.5196 7.48137 34.1211 9.48429 33.6908C16.209 32.2409 23.252 32.8489 30.4915 34.7479C39.6216 22.8069 52.9167 17.096 72.141 20.2484C75.1032 13.3776 78.964 7.46088 84.2474 3.0596C85.8198 1.74529 87.9537 1.28692 89.9052 1.91367C97.14 4.22891 103.462 8.52261 109.153 14.1961C109.986 15.0286 110.608 16.0109 111.006 17.0679V17.0679Z" fill="white"/>
</g>
<path d="M40.2649 108.383C28.8109 97.8896 32.3179 80.5895 45.0308 74.8954C46.2587 74.3454 47.4651 73.7467 48.593 73.0123C50.3497 71.8692 51.9455 70.6494 53.283 69.307C56.3603 66.221 57.5481 61.728 56.599 57.4998C56.5007 57.062 56.4015 56.6224 56.3594 56.1752C55.5676 47.7637 60.9221 44.6402 66.3478 51.4278C66.5584 51.6916 66.7428 51.9751 66.9281 52.2576C69.3185 55.9142 73.4647 58.1434 77.8524 58.0227C80.4824 57.9507 83.2809 57.3567 86.1617 56.5111C102.101 51.8591 117.534 64.4268 114.643 82.22C114.643 82.22 113.558 92.6268 106.523 101.292L88.9882 112.665H44.2979L40.264 108.381L40.2649 108.383Z" fill="white"/>
<path d="M73.9033 53.2417C73.6009 52.4774 73.4512 51.6944 73.4933 50.8189C73.5354 49.933 73.8022 49.0359 74.2542 48.2323C75.164 46.6196 76.8131 45.4372 78.6307 45.0312C78.8563 44.9742 79.0856 44.933 79.3167 44.9078C79.547 44.8769 79.7772 44.8498 80.0093 44.847C80.2415 44.8385 80.4726 44.8357 80.7029 44.8582C80.9294 44.876 81.1765 44.8909 81.3608 44.9227C82.1517 45.0481 82.9154 45.2389 83.6473 45.4943C85.1112 46.0041 86.4552 46.7281 87.6429 47.6963C87.8844 47.8937 87.9209 48.2492 87.7234 48.4905C87.6101 48.6299 87.4435 48.701 87.2769 48.6982H87.2685C85.7729 48.6673 84.3774 48.5298 83.0352 48.4597C82.3651 48.4297 81.7109 48.3989 81.0744 48.4101C80.9022 48.4026 80.7909 48.4213 80.6598 48.4279C80.5316 48.4279 80.4062 48.4578 80.2808 48.4728C80.1544 48.4812 80.0309 48.5111 79.9083 48.5382C79.7838 48.5579 79.664 48.5981 79.5442 48.6327C78.5848 48.9227 77.7125 49.4344 76.9657 50.1603C76.5866 50.5214 76.2412 50.9433 75.9296 51.4437C75.6048 51.9526 75.3212 52.6056 74.974 53.2697L74.959 53.2987C74.8102 53.5822 74.4601 53.6925 74.1756 53.5447C74.0474 53.4774 73.9538 53.3689 73.9042 53.2435L73.9033 53.2417Z" fill="#451E0E"/>
<g opacity="0.3">
<path opacity="0.3" d="M114.643 111.403L31.8962 112.666C25.9576 111.356 22.0875 105.285 20.0565 101.024C19.0738 98.9616 18.5684 96.7119 18.5684 94.4388C26.0325 114.383 122.107 78.4566 114.643 58.5176L118.995 58.0218C125.621 71.118 132.299 93.3583 114.643 111.403Z" fill="#451E0E"/>
</g>
<path d="M77.7285 89.0974C77.6817 89.102 77.635 89.1067 77.5835 89.1114C74.7148 89.4154 72.0287 87.6474 71.0787 84.9253L68.1211 76.4642C69.0879 73.0732 70.4703 70.0704 77.0547 71.9132L82.0152 79.4342C84.5328 83.2555 82.2679 88.5408 77.7285 89.0974V89.0974Z" fill="#FF0000"/>
<path d="M53.1571 60.7598C52.4289 60.583 51.7503 60.3651 51.1532 60.2734C50.5711 60.178 50.0263 60.1602 49.505 60.2061C48.4671 60.2884 47.5068 60.6064 46.656 61.1359C46.5502 61.2033 46.4407 61.2659 46.3443 61.3473C46.2423 61.4212 46.1394 61.4951 46.0495 61.584C45.9559 61.6682 45.8502 61.743 45.7659 61.8394C45.6742 61.9338 45.5872 62.0049 45.4795 62.1396C45.0509 62.6111 44.6437 63.1228 44.2244 63.6466C43.3924 64.7018 42.5753 65.8412 41.6122 66.9843L41.6085 66.989C41.4072 67.2275 41.0516 67.2584 40.8129 67.0573C40.6753 66.9413 40.607 66.772 40.6126 66.6055C40.6678 65.0751 41.0104 63.5877 41.5916 62.1518C41.8827 61.4334 42.2421 60.7337 42.6698 60.0564C42.7672 59.8974 42.9197 59.7009 43.0554 59.5194C43.1902 59.3314 43.3446 59.1593 43.5038 58.9909C43.6582 58.8179 43.8313 58.6635 44.0064 58.5101C44.1776 58.352 44.3601 58.2079 44.5511 58.076C46.0542 56.9788 48.0318 56.5185 49.8438 56.8983C50.7461 57.0891 51.5969 57.4802 52.2913 58.033C52.9783 58.5793 53.4678 59.2079 53.844 59.9385C53.9901 60.2238 53.8777 60.5728 53.5923 60.7196C53.4631 60.786 53.3209 60.7991 53.1908 60.7673L53.1589 60.7589L53.1571 60.7598Z" fill="#451E0E"/>
<path d="M73.8224 65.713C74.5188 67.3071 73.4012 69.9834 71.0324 71.0161C68.6635 72.0498 65.9408 71.0488 65.2445 69.4558C64.5482 67.8618 66.202 66.4137 68.5708 65.38C70.9397 64.3464 73.1261 64.119 73.8224 65.713Z" fill="#451E0E"/>
<path d="M57.7892 76.104C58.5136 76.3341 59.2202 76.5671 59.9259 76.7551C60.6316 76.9347 61.3299 77.0834 62.0122 77.1526C63.3777 77.3145 64.6384 77.1526 65.6445 76.582C66.6638 76.031 67.5071 75.0685 68.1828 73.8795C68.8698 72.6999 69.3621 71.3276 69.7561 69.9141C69.9658 69.162 70.7464 68.7214 71.4998 68.9319C71.5457 68.945 71.5934 68.9609 71.6374 68.9778C73.0291 69.5241 74.4433 69.9871 75.8473 70.25C77.2418 70.5222 78.6298 70.6288 79.8419 70.3996C81.0577 70.177 82.0657 69.5418 82.849 68.4689C83.6306 67.4062 84.1603 66.0171 84.5637 64.5709L84.5674 64.5587C84.6723 64.1826 85.0616 63.9637 85.4379 64.0685C85.757 64.1574 85.9639 64.453 85.9545 64.7701C85.9049 66.3838 85.6513 68.0732 84.8014 69.67C84.3905 70.4689 83.7878 71.2163 83.0484 71.8281C82.3006 72.4361 81.4068 72.8617 80.5083 73.1171C78.6841 73.6223 76.8946 73.4361 75.2595 73.0993C73.6197 72.7298 72.0829 72.1826 70.5891 71.5811L72.4694 70.6447C72.0558 72.2022 71.5363 73.7682 70.7286 75.2902C70.3233 76.0488 69.8198 76.7841 69.2011 77.4623C68.5862 78.1395 67.8122 78.7373 66.9455 79.1461C66.0807 79.5642 65.1242 79.7953 64.2013 79.8271C63.2757 79.8757 62.3856 79.7364 61.5526 79.5259C59.8866 79.075 58.4331 78.2911 57.1387 77.3463C56.8224 77.1152 56.7531 76.6718 56.9843 76.3556C57.1687 76.1031 57.4887 76.0086 57.7714 76.0975L57.792 76.104H57.7892Z" fill="#451E0E"/>
<path d="M20.5929 43.9405C23.9052 47.1416 26.757 50.8731 28.9172 54.9722C30.0076 57.0153 30.9688 59.1266 31.7933 61.2837C31.9983 61.8235 32.2061 62.3623 32.3951 62.9067L32.5402 63.3146L32.6132 63.5185C32.6366 63.583 32.6619 63.6523 32.689 63.7533C32.8013 64.1181 32.8743 64.4979 32.8977 64.8842C33.0026 66.4333 32.3118 68.0049 31.0792 68.989C30.4671 69.4838 29.7174 69.8215 28.9396 69.9656L28.6467 70.0096C28.5484 70.0236 28.4445 70.0386 28.3828 70.0414L27.9522 70.0788L27.0902 70.1527C25.939 70.2378 24.785 70.3108 23.6263 70.3445C21.3108 70.4174 18.9784 70.3894 16.6479 70.1826C14.3165 69.9843 11.9991 69.5559 9.71726 68.974C9.43179 68.9039 9.14914 68.8187 8.86461 68.742L8.43876 68.6242C8.29275 68.583 8.12054 68.5231 7.96236 68.4726C7.3175 68.2612 6.69603 67.9796 6.11201 67.6345C4.93553 66.9553 3.91161 66.0208 3.10576 64.9273C2.70424 64.3772 2.3673 63.7832 2.07997 63.1658C1.81229 62.54 1.58485 61.8946 1.44727 61.2257C1.37614 60.902 1.32373 60.5354 1.28442 60.2379L1.18895 59.3717C1.11969 58.7954 1.07851 58.2145 1.0261 57.6364C0.836099 55.3184 0.783686 52.9807 0.883832 50.643C1.07102 45.9667 1.9349 41.2866 3.56905 36.8451C4.07914 35.4813 4.99823 34.2801 6.15974 33.4289C6.74096 33.0033 7.37834 32.66 8.05034 32.4083C8.38541 32.2811 8.73077 32.1829 9.07988 32.1015L9.96341 31.9256C12.2958 31.4673 14.6665 31.2746 17.0242 31.2502C19.3837 31.239 21.731 31.4261 24.0465 31.7535C26.3602 32.0931 28.6429 32.573 30.8892 33.1567L30.907 33.1614L29.1895 33.7507C31.6277 30.5645 34.4917 27.6553 37.7684 25.2615C41.0376 22.8621 44.7131 21.0005 48.5748 19.7751C52.4365 18.5412 56.4648 17.9332 60.4687 17.806C64.4774 17.6769 68.4673 18.0108 72.388 18.6282L72.4057 18.631L70.6368 19.5983C72.4769 15.3429 74.7447 11.2101 77.6714 7.50296C79.1427 5.66107 80.7543 3.91178 82.5514 2.35707L83.2318 1.77148C83.5107 1.54697 83.7999 1.33462 84.1069 1.14847C84.7181 0.772417 85.3807 0.480558 86.0742 0.284114C87.4594 -0.110645 88.9729 -0.0956779 90.3637 0.339305C94.8805 1.78457 99.0895 3.99784 102.905 6.71344C104.816 8.06797 106.633 9.5413 108.351 11.1138C108.776 11.5104 109.211 11.8986 109.624 12.3074L110.251 12.9136C110.46 13.1241 110.72 13.3944 110.934 13.6489C111.379 14.1708 111.755 14.748 112.087 15.3467C112.4 15.9557 112.667 16.5899 112.856 17.2485C113.232 18.5637 113.34 19.9566 113.151 21.3111C113.065 21.9893 112.903 22.6581 112.672 23.3008C112.615 23.458 112.555 23.6301 112.497 23.7741L112.326 24.182C112.21 24.4533 112.1 24.7274 111.979 24.9958C111.033 27.1576 109.887 29.2175 108.626 31.1866C107.359 33.1529 105.995 35.0472 104.505 36.8264C103.767 37.7226 103.001 38.5898 102.227 39.4485L101.639 40.0855L101.345 40.4036C101.305 40.4494 101.232 40.5224 101.157 40.5944L100.938 40.803C100.334 41.3418 99.5893 41.7366 98.8031 41.9228C97.2307 42.3025 95.5198 41.876 94.3246 40.8142C94.0251 40.5523 93.7621 40.253 93.5365 39.9321C93.4719 39.8461 93.4289 39.7815 93.3942 39.7245L93.2773 39.542L93.0433 39.1772C92.7279 38.6927 92.4284 38.1969 92.126 37.7039C90.9411 35.7142 89.877 33.6459 88.9457 31.5187C87.0645 27.2727 85.8871 22.7096 85.4827 18.1175C85.449 17.7311 85.7345 17.3906 86.121 17.357C86.4861 17.3252 86.8108 17.5777 86.8735 17.9313V17.9379C87.6522 22.3373 89.0814 26.5711 91.074 30.5243C92.0708 32.5009 93.1921 34.4148 94.4313 36.2577C94.7383 36.7207 95.0406 37.1847 95.3616 37.6393L95.5984 37.9817L95.7173 38.1529L95.7762 38.239L95.8202 38.2923C95.9269 38.4298 96.0448 38.5542 96.1777 38.6599C96.6991 39.0874 97.4413 39.2324 98.0721 39.0509C98.3875 38.9611 98.6664 38.7937 98.8985 38.5682L98.9828 38.4794C99.0099 38.4522 99.038 38.427 99.0895 38.3643L99.3618 38.0481L99.9056 37.4148C100.62 36.5626 101.324 35.7048 101.997 34.8246C103.341 33.065 104.634 31.2746 105.782 29.4027C106.937 27.5356 107.953 25.5973 108.845 23.6132C108.958 23.3653 109.058 23.1137 109.166 22.8639L109.325 22.4888L109.445 22.1642C109.599 21.7414 109.707 21.3017 109.763 20.8555C109.891 19.965 109.816 19.0492 109.581 18.1839C109.462 17.7508 109.287 17.3355 109.089 16.9341C108.871 16.5431 108.633 16.1615 108.343 15.8182C108.192 15.6385 108.061 15.4982 107.873 15.3055L107.283 14.7246C106.892 14.3327 106.484 13.9622 106.084 13.5834C104.468 12.0801 102.767 10.6797 100.988 9.39724C97.4403 6.82009 93.5066 4.79578 89.3819 3.46651C88.6069 3.2261 87.7589 3.213 86.9625 3.43938C86.5647 3.55257 86.1809 3.72188 85.8262 3.93984C85.6475 4.04742 85.4799 4.17183 85.3171 4.30186L84.7096 4.82665C83.0745 6.23917 81.6004 7.83972 80.2424 9.5385C77.5422 12.9576 75.4017 16.8378 73.6459 20.8995C73.3473 21.5899 72.6304 21.9706 71.92 21.8733L71.8769 21.8668L71.8601 21.8649C68.1126 21.2746 64.3323 20.9622 60.5792 21.0838C56.8298 21.2035 53.1085 21.7704 49.5725 22.9004C46.0365 24.0239 42.6989 25.7161 39.7086 27.9079C36.7145 30.0959 34.0714 32.7703 31.7943 35.746C31.3843 36.2811 30.7095 36.4934 30.0946 36.34L30.0777 36.3353L30.0609 36.3306C27.9185 35.7731 25.7556 35.3194 23.5823 35.0004C21.4081 34.6936 19.2227 34.5206 17.0457 34.5308C14.8706 34.5542 12.702 34.7301 10.5821 35.1482L9.79775 35.3035C9.59465 35.3522 9.39342 35.4074 9.19874 35.4831C8.80846 35.6291 8.43969 35.8283 8.10556 36.0715C7.43824 36.5617 6.92721 37.2371 6.64081 37.9967C5.14331 42.0696 4.33372 46.4092 4.15963 50.7899C4.06604 52.9807 4.11377 55.1837 4.29441 57.3838C4.34401 57.9339 4.38238 58.4839 4.44884 59.033L4.53962 59.8572C4.57612 60.1209 4.60327 60.3165 4.65287 60.5466C4.74272 60.99 4.89715 61.4165 5.07124 61.8328C5.26498 62.2416 5.4868 62.6373 5.75448 63.004C6.29358 63.7327 6.97682 64.3604 7.76582 64.8141C8.15704 65.0461 8.57353 65.236 9.00594 65.3763C9.11825 65.4109 9.21278 65.4483 9.34007 65.4829L9.73504 65.5877C9.99897 65.656 10.2601 65.7308 10.5259 65.7926C11.5845 66.0526 12.6561 66.2659 13.7334 66.4521C14.8135 66.6251 15.8973 66.7832 16.9886 66.9104C19.1703 67.1639 21.3772 67.3155 23.5963 67.3361C24.7054 67.3529 25.8173 67.3304 26.9311 67.2977L27.766 67.2631L28.1834 67.2453C28.2639 67.2435 28.3004 67.2369 28.3425 67.2322L28.4717 67.221C28.8105 67.1752 29.1353 67.0536 29.417 66.8487C29.9823 66.4427 30.3492 65.7308 30.3351 65.0115C30.3342 64.8309 30.308 64.6504 30.2631 64.4708C30.2584 64.4334 30.2387 64.3688 30.2163 64.2987L30.1554 64.0994L30.0328 63.7C29.8737 63.1658 29.6968 62.6392 29.5218 62.1106C28.8198 59.9993 27.9878 57.9376 27.0313 55.9367C25.1163 51.9367 22.6407 48.1987 19.5952 44.9312L19.5933 44.9293C19.3294 44.6458 19.3444 44.2015 19.628 43.9377C19.9022 43.6823 20.328 43.6898 20.5948 43.9471L20.5929 43.9405Z" fill="#451E0E"/>
<path d="M22.2904 68.9431L20.2304 93.6586C20.1247 95.5071 20.3952 97.3751 21.0288 99.1123C21.187 99.5491 21.3667 99.9663 21.5698 100.393C21.786 100.839 22.0069 101.282 22.2408 101.717C22.7097 102.585 23.2011 103.441 23.7458 104.251C24.2915 105.059 24.8587 105.852 25.4895 106.573C25.7909 106.95 26.1325 107.28 26.4535 107.631C26.7998 107.95 27.1265 108.296 27.4924 108.583C28.9085 109.806 30.5352 110.664 32.2479 111.067L32.2863 111.077C33.167 111.284 33.7118 112.166 33.5049 113.046C33.2971 113.926 32.423 114.472 31.5432 114.265C29.2145 113.728 27.0946 112.564 25.3772 111.082C24.9289 110.727 24.5395 110.322 24.1268 109.936C23.7477 109.527 23.3453 109.131 22.998 108.7C22.2661 107.861 21.6259 106.965 21.0138 106.059C20.4045 105.15 19.8626 104.208 19.3478 103.254C19.0923 102.776 18.8499 102.294 18.615 101.807C18.3726 101.299 18.1433 100.765 17.9486 100.228C17.1633 98.073 16.8283 95.7587 16.9593 93.4734L19.0259 68.6691C19.1007 67.7682 19.8926 67.0984 20.7939 67.1733C21.6952 67.2481 22.3653 68.0395 22.2904 68.9403V68.9431Z" fill="#451E0E"/>
<path d="M112.128 48.5289C111.719 48.5289 111.309 48.3764 110.992 48.0705L100.965 38.4092C100.314 37.7815 100.295 36.746 100.923 36.0949C101.55 35.4438 102.587 35.4242 103.238 36.0528L113.265 45.7141C113.917 46.3418 113.935 47.3773 113.307 48.0284C112.986 48.3614 112.558 48.5298 112.128 48.5298V48.5289Z" fill="#451E0E"/>
<path d="M76.9338 90.551C73.7292 90.551 70.8465 88.5164 69.7533 85.3902L66.7967 76.9272C66.5411 76.1957 66.9268 75.3949 67.6587 75.1395C68.3915 74.8851 69.1917 75.2705 69.4472 76.0011L72.4048 84.4641C73.1442 86.5791 75.2623 87.9486 77.4383 87.7176L77.5534 87.7045C79.1698 87.5061 80.4942 86.5267 81.1924 85.0179C81.9205 83.4426 81.7905 81.6446 80.8423 80.2069L75.8837 72.6849C75.4569 72.0376 75.6366 71.1676 76.2834 70.7411C76.931 70.3136 77.8015 70.4932 78.2283 71.1405L83.1869 78.6624C84.6722 80.9159 84.8791 83.7307 83.74 86.1937C82.6422 88.5679 80.4586 90.1731 77.8988 90.4883L77.7322 90.508C77.4645 90.5361 77.1968 90.5501 76.9329 90.5501L76.9338 90.551Z" fill="#451E0E"/>
<path d="M72.1593 69.7598L76.0107 79.0909C76.1099 79.3304 75.9957 79.6045 75.7561 79.7027C75.5371 79.7934 75.289 79.7055 75.173 79.5062L70.0646 70.7991C69.737 70.2406 69.9242 69.5222 70.483 69.1948C71.0417 68.8674 71.7605 69.0545 72.0881 69.6129C72.1153 69.6588 72.1405 69.7111 72.1602 69.7589L72.1593 69.7598Z" fill="#451E0E"/>
<path d="M207.647 239.18H21.6379C20.7328 239.18 20 238.446 20 237.543V112.667C20 111.763 20.7328 111.03 21.6379 111.03H207.647C208.552 111.03 209.285 111.763 209.285 112.667V237.543C209.285 238.446 208.552 239.18 207.647 239.18ZM23.2758 235.906H206.009V114.304H23.2758V235.906V235.906Z" fill="#451E0E"/>
<path d="M221.818 175.102H123.853L117.825 157.226L103.959 116.122L102.794 112.666H207.648L208.541 115.318L208.813 116.122L226.506 168.579C227.587 171.783 225.202 175.102 221.818 175.102Z" fill="#FF570F"/>
<path d="M21.638 176.742H6.0405C4.08718 176.742 2.24618 175.792 1.11463 174.201C-0.0159898 172.609 -0.307068 170.558 0.335925 168.715L20.0909 112.128C20.3885 111.274 21.3226 110.824 22.1771 111.122C23.0316 111.419 23.4818 112.353 23.1842 113.207L3.42922 169.793C3.12971 170.65 3.25981 171.565 3.78581 172.304C4.31181 173.044 5.13357 173.467 6.0405 173.467H21.638C22.543 173.467 23.2759 174.201 23.2759 175.104C23.2759 176.008 22.543 176.741 21.638 176.741V176.742Z" fill="#451E0E"/>
<g opacity="0.66">
<path opacity="0.66" d="M208.813 116.122H103.959L102.794 112.666H207.648L208.813 116.122Z" fill="white"/>
</g>
<path d="M217.905 48.7702C217.437 50.3558 216.927 51.9087 216.37 53.4334C216.361 53.4615 216.333 53.5363 216.281 53.6626C216.272 53.6954 216.258 53.7234 216.244 53.7562C213.787 60.4165 210.427 66.5157 205.981 71.9319C206.796 81.0198 205.457 88.3864 201.76 93.3349C201.32 93.929 200.848 94.4855 200.333 95.0094C200.333 95.0141 200.328 95.0141 200.328 95.0188C198.096 97.2966 195.218 98.8915 191.661 99.7053C188.952 100.327 185.845 100.491 182.335 100.159L180.767 99.7895L173.757 98.1385L173.439 99.6305L170.65 112.666H131.34L114.643 100.159C116.646 94.3499 119.079 88.8869 122.617 84.2985C122.664 84.233 122.711 84.1676 122.762 84.1068C114.638 76.8383 110.258 70.0423 108.774 63.8075C108.77 63.8029 108.77 63.7982 108.77 63.7888C108.012 60.613 108.012 57.5868 108.653 54.7103C108.653 54.701 108.653 54.6963 108.657 54.6869C108.671 54.6308 108.681 54.5747 108.69 54.5232C108.699 54.4671 108.714 54.4157 108.723 54.3689C108.821 53.9386 108.896 53.7094 108.896 53.7094C110.693 47.18 115.808 41.4831 122.879 36.7591C123.394 36.413 123.913 36.0762 124.447 35.7441C128.415 22.9566 134.639 12.0867 144.738 4.51421C147.153 2.70412 150.527 3.13442 152.436 5.46836C155.754 9.52353 158.164 14.6591 159.732 20.7957C164.131 20.8378 168.249 21.3944 172.039 22.5216C181.02 25.197 188.203 31.0949 193.112 41.0621C201.119 40.6646 208.518 40.8517 214.391 42.5074C217.1 43.2745 218.701 46.0761 217.905 48.7702V48.7702Z" fill="white"/>
<path d="M172.039 22.5216C171.618 37.6384 159.844 49.7618 145.379 49.7618C135.921 49.7618 127.61 44.5794 122.879 36.7591C123.394 36.413 123.913 36.0762 124.447 35.7441C128.415 22.9566 134.639 12.0867 144.738 4.51421C147.153 2.70412 150.527 3.13442 152.436 5.46836C155.754 9.52353 158.164 14.6591 159.732 20.7957C164.131 20.8378 168.249 21.3944 172.039 22.5216V22.5216Z" fill="#FF540B"/>
<g opacity="0.66">
<path opacity="0.66" d="M217.905 48.7702C217.858 48.9339 217.812 49.0929 217.755 49.252C217.194 47.8254 215.982 46.6701 214.391 46.2211C208.518 44.5654 201.119 44.3783 193.112 44.7759C186.13 30.5992 174.548 24.6544 159.732 24.5094C158.164 18.3729 155.754 13.2373 152.436 9.18209C150.527 6.84815 147.153 6.41784 144.738 8.22793C134.639 15.8004 128.415 26.6703 124.447 39.4578C115.331 45.1454 109.079 52.3389 108.274 60.7814C107.338 50.7206 114.025 42.2502 124.447 35.7441C128.415 22.9565 134.639 12.0867 144.738 4.51421C147.153 2.70412 150.527 3.13442 152.436 5.46836C155.754 9.52353 158.164 14.6591 159.732 20.7957C174.548 20.9407 186.13 26.8854 193.112 41.0621C201.119 40.6646 208.518 40.8517 214.391 42.5074C217.1 43.2745 218.701 46.0761 217.905 48.7702V48.7702Z" fill="white"/>
</g>
<path d="M102.793 239.18C101.888 239.18 101.155 238.446 101.155 237.543V112.667C101.155 111.763 101.888 111.03 102.793 111.03C103.698 111.03 104.431 111.763 104.431 112.667V237.543C104.431 238.446 103.698 239.18 102.793 239.18Z" fill="#451E0E"/>
<path d="M221.819 176.742H129.009C125.222 176.742 121.864 174.333 120.655 170.745L101.243 113.19C101.075 112.69 101.157 112.14 101.465 111.712C101.773 111.283 102.268 111.03 102.795 111.03H207.649C208.351 111.03 208.976 111.479 209.2 112.144L228.059 168.058C228.745 170.091 228.419 172.257 227.168 174C225.915 175.742 223.966 176.741 221.82 176.741L221.819 176.742ZM105.075 114.304L123.758 169.699C124.518 171.954 126.629 173.468 129.009 173.468H221.819C222.898 173.468 223.877 172.966 224.507 172.09C225.136 171.215 225.299 170.126 224.955 169.104L206.472 114.304H105.075V114.304Z" fill="#451E0E"/>
<path d="M144.132 12.0633C144.132 12.0633 144.734 18.153 144.309 23.0361C144.225 23.9874 143.71 24.8462 142.906 25.3635L134.499 30.7722C136.007 23.3242 139.004 16.9351 144.132 12.0633V12.0633Z" fill="#FF3998"/>
<path d="M200.486 58.4624L201.896 63.5578C202.272 64.9151 204.067 65.2032 204.856 64.0367C208.119 59.2126 210.431 54.5054 210.545 50.0668C207.421 50.3474 204.563 51.7047 201.913 53.9114C200.586 55.0171 200.025 56.7982 200.486 58.4624V58.4624Z" fill="#FF3998"/>
<path d="M134.499 31.9415C134.269 31.9415 134.038 31.8732 133.839 31.7376C133.451 31.4729 133.259 31.0005 133.353 30.5402C135.014 22.3345 138.276 16.0137 143.326 11.2158C143.65 10.908 144.12 10.8116 144.54 10.9669C144.959 11.1222 145.252 11.5029 145.296 11.9473C145.321 12.2008 145.904 18.2017 145.475 23.1362C145.36 24.4589 144.654 25.6291 143.539 26.3457L135.133 31.7544C134.94 31.8779 134.72 31.9406 134.499 31.9406V31.9415ZM143.157 14.762C139.992 18.3691 137.727 22.8116 136.292 28.2278L142.273 24.3794C142.774 24.0576 143.091 23.5309 143.143 22.9341C143.385 20.1605 143.284 16.9491 143.157 14.762V14.762Z" fill="#451E0E"/>
<path d="M203.497 65.9347C203.342 65.9347 203.185 65.9216 203.027 65.8964C201.93 65.7168 201.065 64.9404 200.768 63.8693L199.357 58.7739C198.776 56.6719 199.485 54.411 201.163 53.0134C204.09 50.5756 207.21 49.1921 210.438 48.9012C210.771 48.8703 211.1 48.9844 211.343 49.2127C211.586 49.4409 211.721 49.7618 211.713 50.0948C211.607 54.2697 209.735 58.9077 205.824 64.6906C205.289 65.482 204.425 65.9347 203.496 65.9347H203.497ZM201.614 58.1509L203.025 63.2463C203.095 63.5016 203.294 63.5709 203.406 63.5886C203.521 63.6083 203.735 63.6055 203.887 63.381C207.086 58.6504 208.821 54.8085 209.263 51.4344C206.99 51.9012 204.819 53.0134 202.662 54.8095C201.688 55.6205 201.277 56.932 201.614 58.1509Z" fill="#451E0E"/>
<path d="M63.6553 109.34C63.6553 115.066 56.865 116.122 48.4893 116.122C40.1135 116.122 33.3232 115.066 33.3232 109.34C33.3232 103.615 40.1135 98.9729 48.4893 98.9729C56.865 98.9729 63.6553 103.615 63.6553 109.34Z" fill="#FF540B"/>
<g opacity="0.3">
<path opacity="0.3" d="M62.4694 109.34C62.4694 115.065 55.6791 116.122 47.3071 116.122C39.3796 116.122 32.8702 115.178 32.1963 110.22C34.9386 111.188 38.7058 111.445 42.8707 111.445C51.2474 111.445 58.0377 110.388 58.0377 104.663C58.0377 103.587 57.799 102.554 57.3544 101.581C60.4898 103.475 62.4694 106.249 62.4694 109.34V109.34Z" fill="#451E0E"/>
</g>
<g opacity="0.66">
<path opacity="0.66" d="M61.7772 106.235C59.0256 103.606 54.5284 101.894 49.4415 101.894C41.0648 101.894 34.2746 106.539 34.2746 112.264C34.2746 112.83 34.3401 113.349 34.4711 113.831C32.997 112.811 32.1406 111.37 32.1406 109.34C32.1406 103.616 38.9309 98.971 47.3076 98.971C54.0978 98.971 59.8445 102.025 61.7772 106.235V106.235Z" fill="white"/>
</g>
<path d="M42.9768 108.648L43.6788 115.72C43.7555 116.495 43.1893 117.186 42.4143 117.263C41.6393 117.339 40.9477 116.774 40.8709 115.999C40.8616 115.907 40.8625 115.809 40.8709 115.72L41.5729 108.648C41.6113 108.261 41.9566 107.978 42.3441 108.016C42.6848 108.05 42.944 108.32 42.9768 108.648Z" fill="#451E0E"/>
<path d="M53.0383 108.648L53.7403 115.72C53.817 116.495 53.2508 117.186 52.4758 117.263C51.7009 117.339 51.0092 116.774 50.9325 115.999C50.9231 115.907 50.924 115.809 50.9325 115.72L51.6344 108.648C51.6728 108.261 52.0181 107.978 52.4056 108.016C52.7463 108.05 53.0056 108.32 53.0383 108.648Z" fill="#451E0E"/>
<path d="M112.128 109.34C112.128 115.066 105.338 116.122 96.9619 116.122C88.5862 116.122 81.7959 115.066 81.7959 109.34C81.7959 103.615 88.5862 98.9729 96.9619 98.9729C105.338 98.9729 112.128 103.615 112.128 109.34Z" fill="#FF540B"/>
<g opacity="0.3">
<path opacity="0.3" d="M112.127 109.34C112.127 115.065 105.336 116.122 96.9643 116.122C89.0369 116.122 82.5274 115.178 81.8535 110.22C84.5958 111.188 88.363 111.445 92.5279 111.445C100.905 111.445 107.695 110.388 107.695 104.663C107.695 103.587 107.456 102.554 107.012 101.581C110.147 103.475 112.127 106.249 112.127 109.34Z" fill="#451E0E"/>
</g>
<g opacity="0.66">
<path opacity="0.66" d="M111.434 106.235C108.683 103.606 104.186 101.894 99.0987 101.894C90.7221 101.894 83.9318 106.539 83.9318 112.264C83.9318 112.83 83.9973 113.349 84.1283 113.831C82.6542 112.811 81.7979 111.37 81.7979 109.34C81.7979 103.616 88.5881 98.971 96.9648 98.971C103.755 98.971 109.502 102.025 111.434 106.235Z" fill="white"/>
</g>
<path d="M92.6331 108.648L93.335 115.72C93.4118 116.495 92.8455 117.186 92.0706 117.263C91.2956 117.339 90.6039 116.774 90.5272 115.999C90.5178 115.907 90.5188 115.809 90.5272 115.72L91.2291 108.648C91.2675 108.261 91.6129 107.978 92.0004 108.016C92.341 108.05 92.6003 108.32 92.6331 108.648Z" fill="#451E0E"/>
<path d="M102.695 108.648L103.397 115.72C103.473 116.495 102.907 117.186 102.132 117.263C101.357 117.339 100.665 116.774 100.589 115.999C100.579 115.907 100.58 115.809 100.589 115.72L101.291 108.648C101.329 108.261 101.674 107.978 102.062 108.016C102.403 108.05 102.662 108.32 102.695 108.648Z" fill="#451E0E"/>
<path d="M48.4895 117.759C43.0348 117.759 31.6855 117.759 31.6855 109.34C31.6855 102.721 39.2236 97.3349 48.4895 97.3349C57.7553 97.3349 65.2934 102.72 65.2934 109.34C65.2934 117.759 53.9441 117.759 48.4895 117.759ZM48.4895 100.609C41.1564 100.609 34.9613 104.607 34.9613 109.34C34.9613 112.995 38.8811 114.485 48.4895 114.485C58.0978 114.485 62.0176 112.995 62.0176 109.34C62.0176 104.608 55.8226 100.609 48.4895 100.609Z" fill="#451E0E"/>
<path d="M96.9631 117.759C91.5084 117.759 80.1592 117.759 80.1592 109.34C80.1592 102.721 87.6973 97.3349 96.9631 97.3349C106.229 97.3349 113.767 102.72 113.767 109.34C113.767 117.759 102.418 117.759 96.9631 117.759ZM96.9631 100.609C89.63 100.609 83.435 104.607 83.435 109.34C83.435 112.995 87.3547 114.485 96.9631 114.485C106.571 114.485 110.491 112.995 110.491 109.34C110.491 104.608 104.296 100.609 96.9631 100.609Z" fill="#451E0E"/>
<path d="M185.782 101.966C184.623 101.966 183.423 101.907 182.18 101.79C181.279 101.704 180.619 100.906 180.704 100.005C180.789 99.1048 181.586 98.4453 182.489 98.5295C189.751 99.2198 195.309 97.7007 199.012 94.0178C203.4 89.6539 205.245 82.0675 204.349 72.0769C204.31 71.6494 204.441 71.2238 204.714 70.8917C209.921 64.5503 213.722 57.1631 216.333 48.3081C216.587 47.4475 216.486 46.5373 216.049 45.7459C215.598 44.9283 214.851 44.339 213.947 44.0836C208.972 42.6805 202.377 42.238 193.192 42.6964C192.537 42.73 191.93 42.3699 191.641 41.7843C185.297 28.9097 174.853 22.5786 159.713 22.4308C158.97 22.4233 158.326 21.9182 158.142 21.1988C156.622 15.2494 154.275 10.3046 151.165 6.5039C149.811 4.84909 147.42 4.55068 145.721 5.82476C136.707 12.5824 130.26 22.5281 126.01 36.2305C125.893 36.6057 125.646 36.9265 125.313 37.1342C118.589 41.3297 110.449 48.3212 109.855 57.802C109.308 66.5297 115.1 75.8916 127.069 85.6287C127.771 86.1993 127.876 87.2302 127.305 87.9318C126.734 88.6334 125.702 88.7391 125 88.1685C112.164 77.7261 105.969 67.4399 106.585 57.5971C107.114 49.1341 112.809 41.2202 123.061 34.6814C127.526 20.5945 134.299 10.2934 143.754 3.20457C146.862 0.874375 151.231 1.41319 153.699 4.43095C156.896 8.34018 159.347 13.2981 160.991 19.183C176.238 19.675 187.364 26.4635 194.091 39.3765C203.096 38.9892 209.707 39.4868 214.834 40.933C216.587 41.427 218.036 42.5747 218.914 44.1641C219.778 45.7272 219.976 47.5289 219.472 49.2342C216.843 58.1499 212.872 65.9563 207.665 72.4492C208.523 83.2611 206.39 91.2956 201.319 96.3377C197.557 100.079 192.34 101.964 185.779 101.964L185.782 101.966Z" fill="#451E0E"/>
<path d="M114.643 101.797C114.466 101.797 114.286 101.768 114.109 101.707C113.254 101.413 112.8 100.481 113.095 99.6258C115.537 92.5398 118.199 87.2882 121.473 83.0993C122.03 82.3865 123.06 82.2611 123.773 82.8168C124.485 83.3734 124.613 84.4023 124.056 85.1142C121.012 89.0094 118.513 93.9589 116.193 100.691C115.959 101.369 115.324 101.796 114.644 101.796L114.643 101.797Z" fill="#451E0E"/>
<path d="M136.855 109.34C136.855 115.066 130.065 116.122 121.689 116.122C113.314 116.122 106.523 115.066 106.523 109.34C106.523 103.615 113.314 98.9729 121.689 98.9729C130.065 98.9729 136.855 103.615 136.855 109.34Z" fill="white"/>
<path d="M190.456 109.34C190.456 115.066 183.666 116.122 175.29 116.122C166.914 116.122 160.124 115.066 160.124 109.34C160.124 103.615 166.914 98.9729 175.29 98.9729C183.666 98.9729 190.456 103.615 190.456 109.34Z" fill="white"/>
<g opacity="0.3">
<path opacity="0.3" d="M190.454 109.34C190.454 115.065 183.663 116.122 175.291 116.122C167.364 116.122 160.855 115.178 160.181 110.22C162.923 111.188 166.69 111.445 170.855 111.445C179.232 111.445 186.022 110.388 186.022 104.663C186.022 103.587 185.783 102.554 185.339 101.581C188.474 103.475 190.454 106.249 190.454 109.34Z" fill="#451E0E"/>
</g>
<g opacity="0.66">
<path opacity="0.66" d="M189.762 106.235C187.01 103.606 182.513 101.894 177.426 101.894C169.049 101.894 162.259 106.539 162.259 112.264C162.259 112.83 162.324 113.349 162.455 113.831C160.981 112.811 160.125 111.37 160.125 109.34C160.125 103.616 166.915 98.971 175.292 98.971C182.082 98.971 187.829 102.025 189.762 106.235V106.235Z" fill="white"/>
</g>
<g opacity="0.3">
<path opacity="0.3" d="M136.853 109.34C136.853 115.065 130.063 116.122 121.691 116.122C113.763 116.122 107.254 115.178 106.58 110.22C109.322 111.188 113.09 111.445 117.255 111.445C125.631 111.445 132.421 110.388 132.421 104.663C132.421 103.587 132.183 102.554 131.738 101.581C134.874 103.475 136.853 106.249 136.853 109.34Z" fill="#451E0E"/>
</g>
<g opacity="0.66">
<path opacity="0.66" d="M136.161 106.235C133.409 103.606 128.912 101.894 123.825 101.894C115.449 101.894 108.658 106.539 108.658 112.264C108.658 112.83 108.724 113.349 108.855 113.831C107.381 112.811 106.524 111.37 106.524 109.34C106.524 103.616 113.315 98.971 121.691 98.971C128.482 98.971 134.228 102.025 136.161 106.235V106.235Z" fill="white"/>
</g>
<path d="M121.69 117.759C116.235 117.759 104.886 117.759 104.886 109.34C104.886 102.721 112.424 97.3349 121.69 97.3349C130.955 97.3349 138.494 102.72 138.494 109.34C138.494 117.759 127.144 117.759 121.69 117.759ZM121.69 100.609C114.357 100.609 108.162 104.607 108.162 109.34C108.162 112.995 112.081 114.485 121.69 114.485C131.298 114.485 135.218 112.995 135.218 109.34C135.218 104.608 129.023 100.609 121.69 100.609Z" fill="#451E0E"/>
<path d="M175.289 117.759C169.835 117.759 158.485 117.759 158.485 109.34C158.485 102.721 166.023 97.3349 175.289 97.3349C184.555 97.3349 192.093 102.72 192.093 109.34C192.093 117.759 180.744 117.759 175.289 117.759V117.759ZM175.289 100.609C167.956 100.609 161.761 104.607 161.761 109.34C161.761 112.995 165.681 114.485 175.289 114.485C184.898 114.485 188.817 112.995 188.817 109.34C188.817 104.608 182.622 100.609 175.289 100.609Z" fill="#451E0E"/>
<path d="M170.96 108.648L171.662 115.72C171.739 116.495 171.173 117.186 170.398 117.263C169.623 117.339 168.931 116.774 168.854 115.999C168.845 115.907 168.846 115.809 168.854 115.72L169.556 108.648C169.595 108.261 169.94 107.978 170.327 108.016C170.668 108.05 170.927 108.32 170.96 108.648Z" fill="#451E0E"/>
<path d="M181.022 108.648L181.724 115.72C181.8 116.495 181.234 117.186 180.459 117.263C179.684 117.339 178.993 116.774 178.916 115.999C178.906 115.907 178.907 115.809 178.916 115.72L179.618 108.648C179.656 108.261 180.002 107.978 180.389 108.016C180.73 108.05 180.989 108.32 181.022 108.648Z" fill="#451E0E"/>
<path d="M117.361 108.648L118.063 115.72C118.139 116.495 117.573 117.186 116.798 117.263C116.023 117.339 115.331 116.774 115.255 115.999C115.245 115.907 115.246 115.809 115.255 115.72L115.957 108.648C115.995 108.261 116.34 107.978 116.728 108.016C117.069 108.05 117.328 108.32 117.361 108.648Z" fill="#451E0E"/>
<path d="M127.422 108.648L128.124 115.72C128.201 116.495 127.635 117.186 126.86 117.263C126.085 117.339 125.393 116.774 125.316 115.999C125.307 115.907 125.308 115.809 125.316 115.72L126.018 108.648C126.057 108.261 126.402 107.978 126.789 108.016C127.13 108.05 127.389 108.32 127.422 108.648Z" fill="#451E0E"/>
<g opacity="0.3">
<path opacity="0.3" d="M205.981 71.9319C206.795 81.0198 205.457 88.3864 201.76 93.3349C201.194 93.8962 200.712 94.4575 200.332 95.0094C200.332 95.0141 200.328 95.0141 200.328 95.0187C198.096 97.2966 195.218 98.8915 191.661 99.7053C189.148 99.8644 185.68 99.869 180.767 99.7895C178.614 99.7521 176.185 99.696 173.438 99.6305C172.423 99.6071 171.365 99.5837 170.261 99.5557C142.725 98.8868 131.573 90.1731 131.573 90.1731C128.11 88.2601 125.148 86.291 122.616 84.2985C113.402 77.0535 109.925 69.5652 108.774 63.8076C108.769 63.8029 108.769 63.7982 108.769 63.7888C107.927 59.5606 108.339 56.2772 108.652 54.7103C108.652 54.701 108.652 54.6963 108.657 54.6869C108.671 54.6308 108.68 54.5747 108.69 54.5232C108.699 54.4671 108.713 54.4157 108.722 54.3689C108.821 53.9386 108.896 53.7094 108.896 53.7094C110.846 82.7971 193.393 107.768 196.29 69.7804C196.489 67.1705 198.645 65.1415 201.264 65.1415C214.711 65.1434 215.368 55.8076 216.243 53.7552C213.787 60.4156 210.427 66.5147 205.981 71.931V71.9319Z" fill="#451E0E"/>
</g>
<g opacity="0.3">
<path opacity="0.3" d="M110.932 23.0875C108.896 28.1109 105.845 32.7881 102.101 37.2315L107.637 42.5635C107.309 43.237 107.113 43.6346 107.113 43.6346C81.9548 60.7065 86.7608 21.4177 86.7608 21.4177C96.7006 39.7057 106.893 16.3804 100.856 7.29248C103.772 9.2616 106.533 11.5815 109.153 14.1961C111.484 16.5207 112.167 20.0333 110.932 23.0875V23.0875Z" fill="#451E0E"/>
</g>
<g opacity="0.3">
<path opacity="0.3" d="M19.4574 83.176L20.6601 68.8075C16.5607 68.6672 12.6063 68.1153 8.83445 67.0348C7.36034 66.6139 6.05938 65.8 5.05325 64.7196L5.03453 64.7009L4.1875 63.6111C20.9596 65.931 26.5472 59.8366 20.9596 45.3371C57.9901 74.4061 19.4574 83.176 19.4574 83.176V83.176Z" fill="#451E0E"/>
</g>
<g opacity="0.3">
<path opacity="0.3" d="M206.92 123.195C202.523 151.109 179.239 165.763 118.705 154.271L117.825 157.227L121.985 169.566C123.101 172.875 126.205 175.103 129.699 175.103H224.428L206.92 123.195V123.195Z" fill="#451E0E"/>
</g>
<path d="M137.818 39.9518C138.178 39.7366 138.556 39.5598 138.943 39.398C139.333 39.2492 139.743 39.1566 140.155 39.065C140.568 38.9705 140.999 38.9667 141.429 38.9368C141.86 38.9162 142.298 38.9826 142.734 39.0275C144.492 39.282 146.143 40.2605 147.387 41.4681C148.641 42.6908 149.51 44.1575 150.11 45.6486C150.706 47.1472 151.064 48.686 151.199 50.2417C151.226 50.5494 150.999 50.8198 150.691 50.8469C150.471 50.8666 150.269 50.7552 150.162 50.5775L150.158 50.5691C149.379 49.266 148.659 47.9901 147.864 46.8273C147.073 45.6645 146.215 44.6187 145.25 43.8105C144.777 43.3933 144.254 43.0752 143.727 42.7778C143.454 42.6468 143.173 42.5355 142.9 42.4017C142.607 42.3138 142.329 42.1865 142.033 42.0893C141.728 42.0172 141.435 41.8872 141.116 41.8152C140.796 41.7488 140.48 41.6318 140.142 41.5635C139.804 41.5037 139.462 41.3942 139.104 41.3175C138.746 41.2446 138.378 41.1557 137.992 41.0294L137.937 41.0107C137.629 40.9097 137.462 40.5785 137.563 40.2708C137.609 40.1314 137.702 40.021 137.818 39.9508V39.9518Z" fill="#451E0E"/>
<path d="M186.074 67.3183C185.758 67.062 185.486 66.8 185.23 66.5381C184.973 66.2781 184.696 66.0489 184.463 65.7972C184.223 65.5494 183.954 65.3464 183.725 65.1125C183.492 64.8824 183.225 64.7065 183 64.4886C182.758 64.2912 182.5 64.1256 182.269 63.9264C182.01 63.7692 181.764 63.5924 181.506 63.4343C180.972 63.1509 180.421 62.8824 179.814 62.7093C178.613 62.3342 177.269 62.1761 175.862 62.1368C174.453 62.0938 172.99 62.1761 171.472 62.2238H171.463C171.154 62.2341 170.896 61.9919 170.886 61.6832C170.879 61.4624 171.002 61.2669 171.186 61.1705C172.57 60.4465 174.059 59.917 175.643 59.6111C177.223 59.3118 178.927 59.2519 180.634 59.6486C182.321 60.0433 184.037 60.9058 185.199 62.2482C185.473 62.5905 185.765 62.9236 185.98 63.2977C186.187 63.6757 186.416 64.0405 186.559 64.439C186.704 64.8356 186.848 65.2313 186.933 65.6392C187.006 66.0517 187.061 66.4661 187.073 66.8842C187.083 67.2079 186.829 67.4782 186.505 67.4876C186.359 67.4923 186.223 67.4427 186.118 67.3566L186.072 67.3192L186.074 67.3183Z" fill="#451E0E"/>
<path d="M160.192 71.9394C159.061 73.6653 157.37 74.4427 155.557 74.5109C152.491 74.6372 149.081 72.7532 147.477 70.0975C146.51 68.5016 146.201 66.6223 147.008 64.7318C148.764 65.9507 151.421 66.6597 153.689 66.3145C154.341 66.2182 154.988 66.5718 155.258 67.1724C156.19 69.2668 158.22 71.1162 160.192 71.9403V71.9394Z" fill="#451E0E"/>
<path d="M163.071 62.3557C161.174 64.3585 158.921 64.5138 156.4 63.2238L156.398 63.2266C153.953 61.7963 152.868 59.8169 153.533 57.1406C153.851 55.8712 155.312 55.2716 156.458 55.8983L162.54 59.2238C163.686 59.8506 163.969 61.4034 163.071 62.3557V62.3557Z" fill="#451E0E"/>
<path d="M146.573 59.9628C146.252 60.3969 145.993 60.8403 145.929 61.2631C145.865 61.6813 145.917 62.047 146.121 62.4062C146.508 63.1349 147.358 63.7682 148.276 64.2304C149.203 64.6943 150.228 65.0367 151.268 65.2051C151.787 65.2902 152.313 65.3351 152.826 65.3155C152.954 65.3061 153.083 65.3043 153.209 65.2912L153.651 65.2416C154.165 65.192 154.681 65.3042 155.124 65.5465C155.568 65.786 155.942 66.1611 156.179 66.6186L156.377 67.0189C156.434 67.133 156.502 67.2425 156.563 67.3538C156.824 67.7963 157.144 68.2144 157.496 68.6054C158.198 69.3912 159.039 70.0685 159.93 70.6007C160.814 71.1246 161.807 71.4978 162.629 71.4324C163.042 71.4118 163.378 71.2593 163.695 70.9796C164.017 70.698 164.251 70.2406 164.444 69.7364L164.455 69.7102C164.56 69.4333 164.87 69.2949 165.147 69.4006C165.369 69.4857 165.502 69.7018 165.492 69.9272C165.461 70.5774 165.311 71.2789 164.885 71.9244C164.463 72.5642 163.725 73.0703 162.966 73.2359C162.206 73.408 161.46 73.3687 160.782 73.2153C160.099 73.0675 159.467 72.8178 158.878 72.5109C157.7 71.8954 156.688 71.047 155.833 70.0554C155.408 69.5559 155.027 69.0152 154.695 68.4343C154.616 68.2865 154.532 68.1415 154.459 67.9899L154.271 67.5924C154.238 67.5241 154.181 67.4586 154.105 67.4146C154.028 67.3735 153.94 67.3613 153.865 67.3716L153.426 67.4277C153.259 67.4474 153.092 67.4548 152.925 67.4679C152.256 67.5007 151.596 67.4726 150.945 67.3847C149.648 67.2004 148.387 66.8066 147.232 66.1471C146.656 65.8159 146.106 65.4193 145.613 64.9235C145.118 64.4334 144.684 63.8262 144.42 63.0938C144.152 62.3641 144.181 61.4727 144.493 60.772C144.807 60.0667 145.316 59.5615 145.848 59.1855C146.089 59.0143 146.425 59.0704 146.596 59.3127C146.733 59.5064 146.724 59.7599 146.59 59.9413L146.573 59.9638V59.9628Z" fill="#451E0E"/>
<path d="M155.739 74.1779C152.673 74.3042 149.263 72.4202 147.659 69.7645C151.113 67.8365 155.999 70.844 155.739 74.1779Z" fill="#FF0000"/>
<path d="M157.624 63.2051L155.55 66.9927C155.269 67.5082 154.621 67.6971 154.105 67.4156C153.59 67.1331 153.401 66.4867 153.682 65.9712L155.755 62.1836C156.037 61.6682 156.685 61.4792 157.201 61.7608C157.716 62.0433 157.905 62.6897 157.624 63.2051Z" fill="#451E0E"/>
<path d="M155.276 75.5642C153.638 75.5642 151.973 75.0937 150.556 74.336C147.098 72.4857 144.207 68.5596 146.03 64.3099C146.262 63.7701 146.889 63.5213 147.429 63.7514C147.969 63.9834 148.219 64.6083 147.987 65.149C146.693 68.1667 148.933 71.0544 151.562 72.4604C154.151 73.8458 157.548 74.0413 159.301 71.3566C159.622 70.8636 160.281 70.7261 160.774 71.046C161.267 71.3669 161.406 72.0264 161.084 72.5184C159.66 74.7018 157.494 75.5642 155.276 75.5652L155.276 75.5642Z" fill="#451E0E"/>
</svg>
