<svg width="25" height="22" viewBox="0 0 25 22" fill="none" xmlns="http://www.w3.org/2000/svg">
<path d="M24.3952 4.50846C24.0073 3.62621 23.448 2.82672 22.7486 2.15475C22.0486 1.48077 21.2234 0.945175 20.3177 0.577078C19.3786 0.193869 18.3713 -0.0022792 17.3544 1.99806e-05C15.9277 1.99806e-05 14.5358 0.383778 13.3262 1.10865C13.0368 1.28206 12.7619 1.47251 12.5014 1.68003C12.241 1.47251 11.9661 1.28206 11.6767 1.10865C10.4671 0.383778 9.07511 1.99806e-05 7.64844 1.99806e-05C6.62113 1.99806e-05 5.62564 0.19332 4.68514 0.577078C3.77647 0.946623 2.95751 1.4782 2.25431 2.15475C1.55399 2.82596 0.994552 3.62564 0.607708 4.50846C0.205463 5.42664 0 6.40167 0 7.40512C0 8.35173 0.196782 9.33813 0.587452 10.3416C0.914457 11.1802 1.38326 12.05 1.98229 12.9284C2.93147 14.3184 4.2366 15.7682 5.85715 17.2379C8.54264 19.674 11.2021 21.3569 11.315 21.4251L12.0008 21.8572C12.3047 22.0476 12.6953 22.0476 12.9992 21.8572L13.685 21.4251C13.7979 21.354 16.4544 19.674 19.1428 17.2379C20.7634 15.7682 22.0685 14.3184 23.0177 12.9284C23.6167 12.05 24.0884 11.1802 24.4125 10.3416C24.8032 9.33813 25 8.35173 25 7.40512C25.0029 6.40167 24.7974 5.42664 24.3952 4.50846Z" fill="#FF0000"/>
</svg>
