<svg width="101" height="104" viewBox="0 0 101 104" fill="none" xmlns="http://www.w3.org/2000/svg">
<g filter="url(#filter0_d_306_363)">
<path d="M48.3812 64.3061L27.7672 59.1183L27.6504 27.3773L48.2644 32.5651L48.3812 64.3061Z" fill="url(#paint0_linear_306_363)"/>
<path d="M34.6272 41.0318L34.6162 60.838L41.1187 62.4782L41.2946 42.6946L34.6272 41.0318Z" fill="url(#paint1_linear_306_363)"/>
<path d="M73.2507 28.0528L73.3675 59.7938L48.3814 64.3061L48.2646 32.5651L73.2507 28.0528Z" fill="url(#paint2_linear_306_363)"/>
<path d="M57.5439 42.9174L57.5731 62.6608L64.961 61.3054L64.8515 41.6233L57.5439 42.9174Z" fill="white"/>
<path d="M33.7969 28.1879L33.902 41.0289L40.1943 42.5982L40.4651 29.85L33.7969 28.1879Z" fill="url(#paint3_linear_306_363)"/>
<path d="M48.2517 44.4275L73.9998 39.8685L73.8596 27.018L48.1123 31.5771L48.2517 44.4275Z" fill="url(#paint4_linear_306_363)"/>
<path d="M27 26.3126L52.748 21.7536L73.8599 27.018L48.1126 31.5771L27 26.3126Z" fill="#FF6B45"/>
<g style="mix-blend-mode:screen" opacity="0.16">
<g style="mix-blend-mode:screen">
<path d="M48.1133 31.5771C48.1133 31.5771 48.5118 31.4851 49.2096 31.3237C49.9095 31.1747 50.9051 30.9388 52.1072 30.6978C53.3093 30.4583 54.7085 30.1589 56.2142 29.8734C57.7185 29.5813 59.3272 29.2914 60.9351 29.0007C62.5452 28.7217 64.1553 28.4406 65.6684 28.1989C67.18 27.9491 68.5974 27.7505 69.809 27.5628C71.0206 27.3759 72.0366 27.2568 72.7453 27.1561C73.4555 27.0684 73.862 27.018 73.862 27.018C73.862 27.018 73.4635 27.1101 72.7658 27.2722C72.0658 27.4211 71.071 27.6578 69.8681 27.898C68.666 28.1375 67.2668 28.4377 65.7611 28.7225C64.2568 29.0146 62.6481 29.3038 61.0402 29.5951C59.4301 29.8741 57.82 30.1545 56.3069 30.3962C54.7953 30.6445 53.3779 30.8446 52.1663 31.0323C50.9547 31.2193 49.9387 31.339 49.23 31.4398C48.5198 31.5282 48.1133 31.5778 48.1133 31.5778V31.5771Z" fill="white"/>
</g>
</g>
<g style="mix-blend-mode:screen" opacity="0.16">
<g style="mix-blend-mode:screen">
<path d="M27 26.3126C27 26.3126 27.335 26.374 27.9211 26.482C28.5043 26.6025 29.3437 26.7508 30.3392 26.9713C31.3355 27.1926 32.5018 27.4314 33.7434 27.7213C34.9864 28.0046 36.3075 28.3296 37.6285 28.6524C38.9467 28.9876 40.2649 29.3206 41.4962 29.6536C42.729 29.9793 43.8712 30.3174 44.8544 30.5898C45.8375 30.8629 46.6477 31.1265 47.2192 31.2937C47.7878 31.4741 48.1118 31.5771 48.1118 31.5771C48.1118 31.5771 47.7768 31.5157 47.1907 31.4077C46.6075 31.2872 45.7682 31.1397 44.7719 30.9191C43.7756 30.6978 42.6085 30.4605 41.3677 30.1691C40.1247 29.8858 38.8036 29.5601 37.4833 29.2373C36.1651 28.9021 34.847 28.5684 33.6164 28.2354C32.3836 27.9082 31.2413 27.5716 30.2582 27.2992C29.275 27.0261 28.4649 26.7632 27.8934 26.5952C27.3248 26.4149 27 26.3126 27 26.3126V26.3126Z" fill="white"/>
</g>
</g>
<path d="M58.2051 29.6923L58.4197 42.7326L66.3177 41.3341L65.9382 28.323L58.2051 29.6923Z" fill="white"/>
<path style="mix-blend-mode:multiply" opacity="0.48" d="M49.8309 27.3175C50.0126 27.7666 47.8712 29.0591 45.0472 30.2035C42.2233 31.3485 39.787 31.913 39.6045 31.4639C39.4228 31.0148 41.5642 29.7222 44.3882 28.5779C47.2121 27.4328 49.6484 26.8683 49.8309 27.3175Z" fill="url(#paint5_radial_306_363)"/>
<path style="mix-blend-mode:multiply" opacity="0.48" d="M42.2304 31.0871C41.9465 31.8378 39.235 31.5077 36.1732 30.3495C33.112 29.1913 30.8603 27.6432 31.1443 26.8924C31.4282 26.1417 34.1397 26.4718 37.2016 27.63C40.2627 28.7882 42.5144 30.3364 42.2304 31.0871Z" fill="url(#paint6_radial_306_363)"/>
<path style="mix-blend-mode:multiply" opacity="0.48" d="M68.6028 27.4562C68.7736 28.2288 66.3029 29.433 63.0834 30.145C59.8646 30.8578 57.1166 30.8088 56.9458 30.0362C56.7751 29.2636 59.2457 28.0594 62.4652 27.3474C65.684 26.6347 68.432 26.6836 68.6028 27.4562Z" fill="url(#paint7_radial_306_363)"/>
<path style="mix-blend-mode:multiply" opacity="0.48" d="M61.4589 30.619C61.2363 31.3785 58.4912 31.2419 55.3279 30.3137C52.1646 29.3856 49.7801 28.0178 50.0027 27.2583C50.2253 26.4988 52.9704 26.6354 56.1337 27.5636C59.297 28.4917 61.6815 29.8595 61.4589 30.619Z" fill="url(#paint8_radial_306_363)"/>
<path d="M38.7539 21.2796C38.7539 21.2796 38.7743 18.6799 42.0347 17.9642C44.72 17.3742 46.5614 15.7924 47.7862 17.8737C49.0109 19.9549 48.9817 23.2579 50.313 25.2289C51.6443 27.1999 46.0739 26.4813 46.0739 26.4813L38.6816 22.9724L38.7539 21.2804V21.2796Z" fill="url(#paint9_linear_306_363)"/>
<path d="M46.4542 25.3231C46.4542 25.3231 43.5055 20.7517 41.5932 20.3244C39.6817 19.8972 38.1817 20.7626 38.9153 22.2823C39.6495 23.8027 44.6682 25.2201 46.4535 25.3231H46.4542Z" fill="url(#paint10_linear_306_363)"/>
<path d="M40.1327 30.9052C39.6065 31.0761 34.0368 29.6572 32.3157 27.2079C31.1815 25.5948 32.004 22.1859 34.7688 21.2555C38.1913 20.1039 39.9255 23.5361 45.2156 24.6104C50.5058 25.6853 45.2565 27.9228 45.2565 27.9228L40.1327 30.9045V30.9052Z" fill="url(#paint11_linear_306_363)"/>
<path d="M52.2342 26.5799C52.2342 26.5799 44.0712 30.5474 40.1343 30.906C38.611 31.0447 36.2403 27.6534 39.3102 25.0346C41.9531 22.7796 45.6098 28.2537 52.2342 26.5806V26.5799Z" fill="url(#paint12_linear_306_363)"/>
<path d="M59.2278 26.0256C59.7672 25.9022 65.5814 25.7817 65.8004 22.7957C65.9449 20.8283 60.4576 14.4195 57.6082 15.0424C54.0807 15.8136 55.6222 19.5971 51.6348 23.2389C47.6475 26.8808 53.3004 26.1016 53.3004 26.1016L59.2278 26.0263V26.0256Z" fill="url(#paint13_linear_306_363)"/>
<path style="mix-blend-mode:multiply" opacity="0.48" d="M55.6896 27.9199C55.2743 29.3374 52.373 29.7332 49.2097 28.805C46.0464 27.8768 43.8181 25.976 44.2334 24.5585C44.6487 23.1411 47.55 22.7453 50.7133 23.6727C53.8766 24.6009 56.1049 26.5017 55.6896 27.9192V27.9199Z" fill="url(#paint14_radial_306_363)"/>
<path d="M52.0596 26.1943C52.0596 26.1943 61.2809 26.6273 64.8427 24.9105C66.2207 24.2467 66.5134 20.1185 62.5348 19.4496C59.1095 18.8734 58.6022 24.224 52.0596 26.1943Z" fill="url(#paint15_linear_306_363)"/>
<path d="M58.6067 30.21C58.6067 30.21 65.2618 29.5703 67.2865 28.1741C69.3112 26.7778 67.6098 23.7567 64.7523 22.1056C61.8956 20.4544 55.7237 25.272 52.213 26.7625C48.7022 28.2529 58.6067 30.2093 58.6067 30.2093V30.21Z" fill="url(#paint16_linear_306_363)"/>
<path d="M48.8086 27.1239C48.8086 27.1239 55.8301 29.8938 58.2547 30.1728C60.6794 30.4517 62.7917 28.2274 59.9911 25.1347C57.1906 22.042 53.0536 28.277 48.8086 27.1239V27.1239Z" fill="url(#paint17_linear_306_363)"/>
<path style="mix-blend-mode:multiply" opacity="0.48" d="M54.2862 27.3498C54.4533 25.7696 52.6202 24.2802 50.1917 24.0231C47.7633 23.766 45.6592 24.8386 45.492 26.4188C45.3249 27.9991 47.1581 29.4885 49.5865 29.7456C52.015 30.0027 54.1191 28.9301 54.2862 27.3498Z" fill="url(#paint18_radial_306_363)"/>
<path style="mix-blend-mode:multiply" d="M52.9731 25.7532C52.806 27.3335 50.7017 28.4055 48.2734 28.1485C45.8451 27.8914 44.0124 26.4017 44.1795 24.8214C44.3467 23.2411 46.4509 22.1691 48.8792 22.4261C51.3076 22.6832 53.1403 24.1729 52.9731 25.7532Z" fill="url(#paint19_radial_306_363)"/>
<path style="mix-blend-mode:multiply" opacity="0.48" d="M56.9985 25.3414C56.8314 26.9217 54.7271 27.9937 52.2988 27.7366C49.8705 27.4796 48.0378 25.9898 48.2049 24.4095C48.3721 22.8293 50.4763 21.7572 52.9046 22.0143C55.3329 22.2713 57.1657 23.7611 56.9985 25.3414Z" fill="url(#paint20_radial_306_363)"/>
<path style="mix-blend-mode:multiply" opacity="0.48" d="M56.52 28.0835C56.3529 29.6638 54.2486 30.7358 51.8203 30.4788C49.392 30.2217 47.5593 28.732 47.7264 27.1517C47.8935 25.5714 49.9978 24.4994 52.4261 24.7564C54.8544 25.0135 56.6872 26.5032 56.52 28.0835Z" fill="url(#paint21_radial_306_363)"/>
<path d="M51.471 28.9474L48.2019 28.6013C47.38 28.5144 46.7414 27.8469 46.6896 27.0217L46.5151 24.2379C46.4494 23.1907 47.3414 22.3363 48.3836 22.4466L52.5797 22.8913C53.6227 23.0016 54.3154 24.024 54.0322 25.0339L53.2789 27.7191C53.0556 28.5151 52.2914 29.0336 51.4696 28.9467L51.471 28.9474Z" fill="url(#paint22_linear_306_363)"/>
</g>
<defs>
<filter id="filter0_d_306_363" x="0" y="0" width="101" height="103.306" filterUnits="userSpaceOnUse" color-interpolation-filters="sRGB">
<feFlood flood-opacity="0" result="BackgroundImageFix"/>
<feColorMatrix in="SourceAlpha" type="matrix" values="0 0 0 0 0 0 0 0 0 0 0 0 0 0 0 0 0 0 127 0" result="hardAlpha"/>
<feOffset dy="12"/>
<feGaussianBlur stdDeviation="13.5"/>
<feComposite in2="hardAlpha" operator="out"/>
<feColorMatrix type="matrix" values="0 0 0 0 0.819608 0 0 0 0 0.176471 0 0 0 0 0.121569 0 0 0 0.31 0"/>
<feBlend mode="normal" in2="BackgroundImageFix" result="effect1_dropShadow_306_363"/>
<feBlend mode="normal" in="SourceGraphic" in2="effect1_dropShadow_306_363" result="shape"/>
</filter>
<linearGradient id="paint0_linear_306_363" x1="28.2488" y1="46.6503" x2="47.6545" y2="45.0508" gradientUnits="userSpaceOnUse">
<stop stop-color="#A12117"/>
<stop offset="0.27" stop-color="#B12419"/>
<stop offset="0.45" stop-color="#BF271B"/>
<stop offset="0.89" stop-color="#C1271B"/>
<stop offset="1" stop-color="#C4281C"/>
</linearGradient>
<linearGradient id="paint1_linear_306_363" x1="37.0666" y1="59.4531" x2="38.8518" y2="42.59" gradientUnits="userSpaceOnUse">
<stop stop-color="#E8E8E8"/>
<stop offset="0.09" stop-color="#F0F0F0"/>
<stop offset="0.29" stop-color="#FBFBFB"/>
<stop offset="0.51" stop-color="white"/>
<stop offset="0.7" stop-color="#FAFAFA"/>
<stop offset="0.93" stop-color="#ECECEC"/>
<stop offset="1" stop-color="#E6E6E6"/>
</linearGradient>
<linearGradient id="paint2_linear_306_363" x1="49.4187" y1="60.0196" x2="72.4803" y2="32.0412" gradientUnits="userSpaceOnUse">
<stop stop-color="#CF2A1D"/>
<stop offset="1" stop-color="#FF6B45"/>
</linearGradient>
<linearGradient id="paint3_linear_306_363" x1="36.3636" y1="41.4314" x2="37.6515" y2="29.2653" gradientUnits="userSpaceOnUse">
<stop stop-color="#E6E6E6"/>
<stop offset="0.15" stop-color="#ECECEC"/>
<stop offset="0.61" stop-color="#FAFAFA"/>
<stop offset="1" stop-color="white"/>
</linearGradient>
<linearGradient id="paint4_linear_306_363" x1="60.5195" y1="41.0807" x2="61.8093" y2="28.3905" gradientUnits="userSpaceOnUse">
<stop stop-color="#CF2A1D"/>
<stop offset="1" stop-color="#FF6B45"/>
</linearGradient>
<radialGradient id="paint5_radial_306_363" cx="0" cy="0" r="1" gradientUnits="userSpaceOnUse" gradientTransform="translate(45.2973 30.1827) rotate(-22.0704) scale(5.52182 0.863108)">
<stop stop-color="#4F100B"/>
<stop offset="0.63" stop-color="#C0A9A8"/>
<stop offset="1" stop-color="white"/>
</radialGradient>
<radialGradient id="paint6_radial_306_363" cx="0" cy="0" r="1" gradientUnits="userSpaceOnUse" gradientTransform="translate(36.3095 29.6998) rotate(20.7199) scale(5.9244 1.4673)">
<stop stop-color="#4F100B"/>
<stop offset="0.12" stop-color="#52140F"/>
<stop offset="0.25" stop-color="#5B201C"/>
<stop offset="0.38" stop-color="#6A3531"/>
<stop offset="0.51" stop-color="#80524E"/>
<stop offset="0.65" stop-color="#9B7875"/>
<stop offset="0.78" stop-color="#BDA6A4"/>
<stop offset="0.92" stop-color="#E4DBDA"/>
<stop offset="1" stop-color="white"/>
</radialGradient>
<radialGradient id="paint7_radial_306_363" cx="0" cy="0" r="1" gradientUnits="userSpaceOnUse" gradientTransform="translate(63.4199 28.545) rotate(-12.4763) scale(5.98167 1.43858)">
<stop stop-color="#4F100B"/>
<stop offset="0.12" stop-color="#52140F"/>
<stop offset="0.25" stop-color="#5B201C"/>
<stop offset="0.38" stop-color="#6A3531"/>
<stop offset="0.51" stop-color="#80524E"/>
<stop offset="0.65" stop-color="#9B7875"/>
<stop offset="0.78" stop-color="#BDA6A4"/>
<stop offset="0.92" stop-color="#E4DBDA"/>
<stop offset="1" stop-color="white"/>
</radialGradient>
<radialGradient id="paint8_radial_306_363" cx="0" cy="0" r="1" gradientUnits="userSpaceOnUse" gradientTransform="translate(56.3067 29.3851) rotate(16.3481) scale(5.98178 1.43856)">
<stop stop-color="#4F100B"/>
<stop offset="0.12" stop-color="#52140F"/>
<stop offset="0.25" stop-color="#5B201C"/>
<stop offset="0.38" stop-color="#6A3531"/>
<stop offset="0.51" stop-color="#80524E"/>
<stop offset="0.65" stop-color="#9B7875"/>
<stop offset="0.78" stop-color="#BDA6A4"/>
<stop offset="0.92" stop-color="#E4DBDA"/>
<stop offset="1" stop-color="white"/>
</radialGradient>
<linearGradient id="paint9_linear_306_363" x1="42.4562" y1="17.4774" x2="44.8087" y2="24.9566" gradientUnits="userSpaceOnUse">
<stop stop-color="#CF2A1D"/>
<stop offset="1" stop-color="#FF6B45"/>
</linearGradient>
<linearGradient id="paint10_linear_306_363" x1="41.3656" y1="19.6222" x2="42.8903" y2="24.4703" gradientUnits="userSpaceOnUse">
<stop stop-color="#611207"/>
<stop offset="0.27" stop-color="#751B0B"/>
<stop offset="0.74" stop-color="#922911"/>
<stop offset="1" stop-color="#9E2F14"/>
</linearGradient>
<linearGradient id="paint11_linear_306_363" x1="37.6892" y1="30.1622" x2="40.8294" y2="22.6264" gradientUnits="userSpaceOnUse">
<stop stop-color="#CF2A1D"/>
<stop offset="1" stop-color="#FF6B45"/>
</linearGradient>
<linearGradient id="paint12_linear_306_363" x1="42.2118" y1="22.9859" x2="45.2795" y2="28.1375" gradientUnits="userSpaceOnUse">
<stop stop-color="#611207"/>
<stop offset="0.27" stop-color="#751B0B"/>
<stop offset="0.74" stop-color="#922911"/>
<stop offset="1" stop-color="#9E2F14"/>
</linearGradient>
<linearGradient id="paint13_linear_306_363" x1="63.9375" y1="23.9543" x2="53.9665" y2="20.228" gradientUnits="userSpaceOnUse">
<stop stop-color="#FF6B45"/>
<stop offset="1" stop-color="#CF2A1D"/>
</linearGradient>
<radialGradient id="paint14_radial_306_363" cx="0" cy="0" r="1" gradientUnits="userSpaceOnUse" gradientTransform="translate(50.5906 26.4846) rotate(16.3481) scale(5.98178 2.67572)">
<stop stop-color="#4F100B"/>
<stop offset="0.12" stop-color="#52140F"/>
<stop offset="0.25" stop-color="#5B201C"/>
<stop offset="0.38" stop-color="#6A3531"/>
<stop offset="0.51" stop-color="#80524E"/>
<stop offset="0.65" stop-color="#9B7875"/>
<stop offset="0.78" stop-color="#BDA6A4"/>
<stop offset="0.92" stop-color="#E4DBDA"/>
<stop offset="1" stop-color="white"/>
</radialGradient>
<linearGradient id="paint15_linear_306_363" x1="58.9086" y1="19.207" x2="58.9222" y2="24.33" gradientUnits="userSpaceOnUse">
<stop stop-color="#611207"/>
<stop offset="0.27" stop-color="#751B0B"/>
<stop offset="0.74" stop-color="#922911"/>
<stop offset="1" stop-color="#9E2F14"/>
</linearGradient>
<linearGradient id="paint16_linear_306_363" x1="58.5471" y1="22.7696" x2="60.2955" y2="28.3287" gradientUnits="userSpaceOnUse">
<stop stop-color="#FF6B45"/>
<stop offset="1" stop-color="#CF2A1D"/>
</linearGradient>
<linearGradient id="paint17_linear_306_363" x1="54.376" y1="25.0927" x2="55.7573" y2="29.4843" gradientUnits="userSpaceOnUse">
<stop stop-color="#611207"/>
<stop offset="0.27" stop-color="#751B0B"/>
<stop offset="0.74" stop-color="#922911"/>
<stop offset="1" stop-color="#9E2F14"/>
</linearGradient>
<radialGradient id="paint18_radial_306_363" cx="0" cy="0" r="1" gradientUnits="userSpaceOnUse" gradientTransform="translate(50.1872 26.9196) rotate(6.04314) scale(4.42866 2.87722)">
<stop stop-color="#4F100B"/>
<stop offset="0.63" stop-color="#C0A9A8"/>
<stop offset="1" stop-color="white"/>
</radialGradient>
<radialGradient id="paint19_radial_306_363" cx="0" cy="0" r="1" gradientUnits="userSpaceOnUse" gradientTransform="translate(48.877 25.3066) rotate(6.04314) scale(4.42866 2.87722)">
<stop stop-color="#A10A00"/>
<stop offset="0.65" stop-color="#DEABA8"/>
<stop offset="1" stop-color="white"/>
</radialGradient>
<radialGradient id="paint20_radial_306_363" cx="0" cy="0" r="1" gradientUnits="userSpaceOnUse" gradientTransform="translate(52.909 24.8955) rotate(6.04314) scale(4.42866 2.87722)">
<stop stop-color="#4F100B"/>
<stop offset="0.63" stop-color="#C0A9A8"/>
<stop offset="1" stop-color="white"/>
</radialGradient>
<radialGradient id="paint21_radial_306_363" cx="0" cy="0" r="1" gradientUnits="userSpaceOnUse" gradientTransform="translate(52.4309 27.6376) rotate(6.04314) scale(4.42866 2.87722)">
<stop stop-color="#4F100B"/>
<stop offset="0.63" stop-color="#C0A9A8"/>
<stop offset="1" stop-color="white"/>
</radialGradient>
<linearGradient id="paint22_linear_306_363" x1="47.9814" y1="28.3908" x2="51.7451" y2="23.1989" gradientUnits="userSpaceOnUse">
<stop offset="0.35" stop-color="#CF2A1D"/>
<stop offset="1" stop-color="#FF6B45"/>
</linearGradient>
</defs>
</svg>
