<svg width="24" height="23" viewBox="0 0 24 23" fill="none" xmlns="http://www.w3.org/2000/svg">
<path d="M12.1044 11.8422C13.2149 11.8276 14.2002 12.1867 15.0978 12.8275C16.1519 13.5769 16.9932 14.5267 17.7467 15.5662C18.2227 16.2237 18.6882 16.8917 19.0868 17.5952C19.5482 18.4114 19.9573 19.2588 20.0742 20.2086C20.1765 21.0436 20.0324 21.8034 19.2894 22.3274C18.7236 22.726 18.0849 22.8325 17.4086 22.7678C16.7823 22.7093 16.2292 22.4296 15.6593 22.1979C14.9621 21.9161 14.2712 21.6113 13.5281 21.4611C12.5574 21.2648 11.6097 21.4005 10.6725 21.674C9.92517 21.8932 9.21334 22.2188 8.46815 22.4484C7.93167 22.6133 7.38894 22.7198 6.82327 22.7344C5.6585 22.7636 4.72958 21.8932 4.48744 20.8411C4.38724 20.4069 4.44569 19.9894 4.54797 19.5615C4.71914 18.8476 4.9258 18.1484 5.22012 17.4762C5.78371 16.1883 6.49136 14.9838 7.44113 13.9485C8.55165 12.7336 9.9523 12.0385 11.5993 11.8631C11.6619 11.8568 11.7245 11.8464 11.7872 11.8443C11.8915 11.8402 11.998 11.8443 12.1044 11.8443V11.8422Z" fill="#451E0E"/>
<path d="M18.6943 3.88914C18.6547 5.21048 18.279 6.47756 17.3355 7.53795C17.014 7.89909 16.6299 8.18087 16.2041 8.41258C15.3294 8.88852 14.5153 8.74866 13.7597 8.15999C13.0896 7.63815 12.7098 6.92008 12.5532 6.10388C12.2087 4.30663 12.5803 2.66174 13.7242 1.21516C14.102 0.735051 14.5946 0.394799 15.1666 0.16727C15.9118 -0.129144 16.609 -0.0247727 17.2498 0.42611C17.9804 0.939615 18.3854 1.67021 18.567 2.53023C18.6568 2.95398 18.6881 3.38607 18.6943 3.88706V3.88914Z" fill="#DF622C"/>
<path d="M11.0502 5.24385C11.046 6.11432 10.8415 7.00773 10.2465 7.77169C9.74347 8.41879 9.08172 8.76741 8.24468 8.7048C7.83557 8.6735 7.47649 8.48352 7.13628 8.27476C6.09672 7.63812 5.46839 6.68624 5.10729 5.5486C4.7566 4.44227 4.66893 3.31089 5.00083 2.18786C5.25132 1.33828 5.7544 0.661957 6.57891 0.27161C7.05485 0.0461685 7.54539 0.0461686 8.0401 0.208987C9.03164 0.536712 9.73512 1.20886 10.2444 2.09601C10.7871 3.0437 11.0314 4.07489 11.0502 5.24385Z" fill="#451E0E"/>
<path d="M23.6688 9.72353C23.6292 11.2995 23.1177 12.65 21.9822 13.7293C21.4582 14.2261 20.8383 14.5455 20.116 14.6603C19.3562 14.7834 18.73 14.5371 18.2311 13.9714C17.6195 13.2763 17.4003 12.4392 17.465 11.5354C17.5422 10.4144 17.8866 9.37909 18.5713 8.47315C19.1433 7.71538 19.8613 7.16641 20.7986 6.92635C21.7004 6.69465 22.4184 6.99313 22.9841 7.69243C23.4663 8.28946 23.6542 8.99499 23.6688 9.72353Z" fill="#451E0E"/>
<path d="M0.00162355 10.168C0.00162355 9.64199 0.0663337 9.12432 0.270901 8.63797C0.744746 7.50239 2.17254 6.98055 3.2914 7.54622C5.00726 8.41461 5.93613 9.84033 6.16784 11.7294C6.25762 12.4621 6.1992 13.1927 5.84223 13.8544C5.42057 14.6351 4.77764 15.111 3.85292 15.0526C3.27052 15.0171 2.74032 14.775 2.25812 14.4493C1.00567 13.6018 0.308474 12.3995 0.0558963 10.9237C0.0308474 10.7776 0.0141481 10.6314 0.00371097 10.4853C-0.00463871 10.3809 0.00371097 10.2745 0.00371097 10.1701L0.00162355 10.168Z" fill="#451E0E"/>
</svg>
