<svg width="160" height="27" viewBox="0 0 160 27" fill="none" xmlns="http://www.w3.org/2000/svg">
<path d="M36.8776 18.0591C36.6172 18.1632 36.1484 18.2414 35.6797 18.2414C34.4298 18.2414 33.8048 17.7466 33.8048 16.8873C33.8048 16.1321 34.5079 15.6113 35.7318 15.6113C36.4088 15.6113 36.6432 15.6634 36.8776 15.6894V18.0591ZM41.2524 13.2156C41.2524 10.0907 39.4035 7.85123 35.5235 7.85123C34.0392 7.85123 32.2684 8.13767 30.9404 8.71056C30.7581 8.78868 30.732 8.89284 30.732 9.04909V12.0177C30.732 12.1739 30.8622 12.226 30.9924 12.1739C32.0341 11.7313 33.3621 11.3927 34.586 11.3927C36.487 11.3927 36.8776 12.2521 36.8776 12.6166V12.7729C36.6172 12.7729 36.0182 12.7468 35.4453 12.7468C31.7476 12.7468 29.3779 14.2572 29.3779 17.0175C29.3779 20.1944 31.9039 21.4183 34.9506 21.4183C37.1119 21.4183 39.2212 20.9235 41.2784 20.0642C41.3565 20.0381 41.3565 19.9861 41.3565 19.96C41.2784 19.2049 41.2524 18.5538 41.2524 17.7726V13.2156ZM50.3972 21.4183C52.2721 21.4183 54.4337 21.0016 56.2565 20.2204C56.4388 20.1423 56.4649 20.0902 56.4388 19.934C56.3867 19.3351 56.3347 18.3716 56.3347 17.6164V3.03375C56.3347 2.92958 56.3086 2.8775 56.1784 2.8775H52.0117C51.8815 2.8775 51.8034 2.92958 51.8034 3.05979V7.85123C51.6211 7.85123 51.4649 7.85123 51.0743 7.85123C45.9964 7.85123 43.4184 11.0542 43.4184 14.6999C43.4184 19.1007 46.387 21.4183 50.3972 21.4183ZM51.8034 17.8247C51.5951 17.8768 51.3086 17.9289 50.9441 17.9289C49.2254 17.9289 48.1057 16.7831 48.1057 14.5436C48.1057 12.2521 49.5639 11.3146 51.0222 11.3146C51.3868 11.3146 51.6472 11.3927 51.8034 11.4188V17.8247ZM65.4499 7.85123C61.2574 7.85123 58.5492 10.7417 58.5492 14.6478C58.5492 18.1372 60.6324 21.4183 65.3457 21.4183C69.3299 21.4183 72.1423 18.8403 72.1423 14.5436C72.1423 11.1323 69.9549 7.85123 65.4499 7.85123ZM65.3197 11.3406C66.83 11.3406 67.5592 12.6687 67.5592 14.6478C67.5592 16.8091 66.7259 17.9289 65.4239 17.9289C64.0437 17.9289 63.1583 16.6789 63.1583 14.5697C63.1583 12.4604 64.0437 11.3406 65.3197 11.3406ZM80.4514 7.85123C78.29 7.85123 76.1026 8.37203 74.3318 8.91888C74.2537 8.94492 74.2277 9.02304 74.2277 9.10117C74.2798 9.46573 74.3318 10.6896 74.3318 11.1584V26.0535C74.3318 26.1837 74.3579 26.2618 74.5402 26.2618C74.7485 26.2618 77.2484 26.0274 78.6285 25.9233C78.8108 25.8972 78.8629 25.7931 78.8629 25.6368V21.3923C79.1754 21.4183 79.2014 21.4183 79.3837 21.4183C83.1075 21.4183 87.2479 19.0486 87.2479 14.2572C87.2479 11.1063 85.2949 7.85123 80.4514 7.85123ZM80.0087 11.3146C81.4148 11.3146 82.5606 12.1479 82.5606 14.5176C82.5606 16.9914 81.1024 17.9289 79.6441 17.9289C79.4097 17.9289 79.1233 17.9289 78.8629 17.8768V11.4448C79.1493 11.3667 79.4879 11.3146 80.0087 11.3146ZM96.8774 18.033C96.8774 17.8247 96.7472 17.7987 96.6431 17.8247C96.2785 17.9028 96.1483 17.9289 95.8879 17.9289C94.8723 17.9289 94.5859 17.5122 94.5859 16.3925V11.601H96.7472C96.9035 11.601 96.9556 11.549 96.9556 11.3927V8.29391C96.9556 8.13767 96.9035 8.08559 96.7212 8.08559H94.5859C94.6119 6.80961 94.664 5.27322 94.7161 4.49201C94.7161 4.28369 94.638 4.28369 94.5078 4.30973L90.6277 4.77845C90.4715 4.80449 90.3934 4.90866 90.3673 5.0649C90.2111 5.84611 90.133 7.2523 90.0548 8.08559H88.5705C88.3622 8.08559 88.3101 8.16371 88.3101 8.34599V11.3406C88.3101 11.5229 88.3622 11.575 88.5185 11.601H90.0288V17.4862C90.0288 20.1683 91.4871 21.4183 93.9869 21.4183C95.0546 21.4183 95.8619 21.3141 96.6431 20.9756C96.8254 20.8975 96.8774 20.7673 96.8774 20.585V18.033ZM118.698 7.85123C116.537 7.85123 114.349 8.37203 112.579 8.91888C112.501 8.94492 112.475 9.02304 112.475 9.10117C112.527 9.46573 112.579 10.6896 112.579 11.1584V26.0535C112.579 26.1837 112.605 26.2618 112.787 26.2618C112.995 26.2618 115.495 26.0274 116.875 25.9233C117.058 25.8972 117.11 25.7931 117.11 25.6368V21.3923C117.422 21.4183 117.448 21.4183 117.631 21.4183C121.354 21.4183 125.495 19.0486 125.495 14.2572C125.495 11.1063 123.542 7.85123 118.698 7.85123ZM118.256 11.3146C119.662 11.3146 120.808 12.1479 120.808 14.5176C120.808 16.9914 119.349 17.9289 117.891 17.9289C117.657 17.9289 117.37 17.9289 117.11 17.8768V11.4448C117.396 11.3667 117.735 11.3146 118.256 11.3146ZM134.377 18.0591C134.116 18.1632 133.648 18.2414 133.179 18.2414C131.929 18.2414 131.304 17.7466 131.304 16.8873C131.304 16.1321 132.007 15.6113 133.231 15.6113C133.908 15.6113 134.142 15.6634 134.377 15.6894V18.0591ZM138.752 13.2156C138.752 10.0907 136.903 7.85123 133.023 7.85123C131.538 7.85123 129.768 8.13767 128.44 8.71056C128.257 8.78868 128.231 8.89284 128.231 9.04909V12.0177C128.231 12.1739 128.361 12.226 128.492 12.1739C129.533 11.7313 130.861 11.3927 132.085 11.3927C133.986 11.3927 134.377 12.2521 134.377 12.6166V12.7729C134.116 12.7729 133.517 12.7468 132.945 12.7468C129.247 12.7468 126.877 14.2572 126.877 17.0175C126.877 20.1944 129.403 21.4183 132.45 21.4183C134.611 21.4183 136.72 20.9235 138.778 20.0642C138.856 20.0381 138.856 19.9861 138.856 19.96C138.778 19.2049 138.752 18.5538 138.752 17.7726V13.2156ZM156.002 21.1579C156.263 21.1579 156.289 21.1058 156.393 20.8714L159.986 8.34599C160.038 8.16371 159.934 8.08559 159.778 8.08559H156.106C155.924 8.08559 155.846 8.16371 155.82 8.31995C155.091 11.575 154.518 14.4134 154.101 16.4185H154.049C153.867 15.3769 153.502 12.9812 152.591 8.29391C152.565 8.13767 152.513 8.08559 152.331 8.08559H148.138C147.93 8.08559 147.878 8.18975 147.852 8.37203C146.81 13.0854 146.393 15.3248 146.185 16.2883H146.133C145.951 15.2207 145.612 13.3978 144.518 8.29391C144.466 8.13767 144.414 8.08559 144.206 8.08559H140.118C139.935 8.08559 139.857 8.18975 139.909 8.34599L143.19 20.8714C143.268 21.0798 143.321 21.1579 143.607 21.1579H147.721C147.878 21.1579 147.982 21.1058 148.034 20.8714C148.997 17.2779 149.7 14.153 149.961 12.7208H149.987C150.247 14.0749 150.69 16.6789 151.549 20.8714C151.601 21.0798 151.653 21.1579 151.914 21.1579H156.002Z" fill="white"/>
<path d="M105.36 18.0592C105.1 18.1633 104.631 18.2415 104.163 18.2415C102.913 18.2415 102.288 17.7467 102.288 16.8873C102.288 16.1322 102.991 15.6114 104.215 15.6114C104.892 15.6114 105.126 15.6634 105.36 15.6895V18.0592ZM109.735 13.2156C109.735 10.0908 107.886 7.85132 104.006 7.85132C102.522 7.85132 100.751 8.13776 99.4233 8.71065C99.241 8.78877 99.2149 8.89294 99.2149 9.04918V12.0178C99.2149 12.174 99.3451 12.2261 99.4753 12.174C100.517 11.7313 101.845 11.3928 103.069 11.3928C104.97 11.3928 105.36 12.2522 105.36 12.6167V12.773C105.1 12.773 104.501 12.7469 103.928 12.7469C100.231 12.7469 97.8608 14.2573 97.8608 17.0175C97.8608 20.1945 100.387 21.4184 103.433 21.4184C105.595 21.4184 107.704 20.9236 109.761 20.0643C109.839 20.0382 109.839 19.9862 109.839 19.9601C109.761 19.2049 109.735 18.5539 109.735 17.7727V13.2156Z" fill="#DF622C"/>
<path d="M12.1044 11.8422C13.2149 11.8276 14.2002 12.1867 15.0978 12.8275C16.1519 13.5769 16.9932 14.5267 17.7467 15.5662C18.2227 16.2237 18.6882 16.8917 19.0868 17.5952C19.5482 18.4114 19.9573 19.2588 20.0742 20.2086C20.1765 21.0436 20.0324 21.8034 19.2894 22.3274C18.7236 22.726 18.0849 22.8325 17.4086 22.7678C16.7823 22.7093 16.2292 22.4296 15.6593 22.1979C14.9621 21.9161 14.2712 21.6113 13.5281 21.4611C12.5574 21.2648 11.6097 21.4005 10.6725 21.674C9.92517 21.8932 9.21334 22.2188 8.46815 22.4484C7.93167 22.6133 7.38894 22.7198 6.82327 22.7344C5.6585 22.7636 4.72958 21.8932 4.48744 20.8411C4.38724 20.4069 4.44569 19.9894 4.54797 19.5615C4.71914 18.8476 4.9258 18.1484 5.22012 17.4762C5.78371 16.1883 6.49136 14.9838 7.44113 13.9485C8.55165 12.7336 9.9523 12.0385 11.5993 11.8631C11.6619 11.8568 11.7245 11.8464 11.7872 11.8443C11.8915 11.8402 11.998 11.8443 12.1044 11.8443V11.8422Z" fill="white"/>
<path d="M18.6943 3.88914C18.6547 5.21048 18.279 6.47756 17.3355 7.53795C17.014 7.89909 16.6299 8.18087 16.2041 8.41258C15.3294 8.88852 14.5153 8.74866 13.7597 8.15999C13.0896 7.63815 12.7098 6.92008 12.5532 6.10388C12.2087 4.30663 12.5803 2.66174 13.7242 1.21516C14.102 0.735051 14.5946 0.394799 15.1666 0.16727C15.9118 -0.129144 16.609 -0.0247727 17.2498 0.42611C17.9804 0.939615 18.3854 1.67021 18.567 2.53023C18.6568 2.95398 18.6881 3.38607 18.6943 3.88706V3.88914Z" fill="#DF622C"/>
<path d="M11.0502 5.24385C11.046 6.11432 10.8415 7.00773 10.2465 7.77169C9.74347 8.41879 9.08172 8.76741 8.24468 8.7048C7.83557 8.6735 7.47649 8.48352 7.13628 8.27476C6.09672 7.63812 5.46839 6.68624 5.10729 5.5486C4.7566 4.44227 4.66893 3.31089 5.00083 2.18786C5.25132 1.33828 5.7544 0.661957 6.57891 0.27161C7.05485 0.0461685 7.54539 0.0461686 8.0401 0.208987C9.03164 0.536712 9.73512 1.20886 10.2444 2.09601C10.7871 3.0437 11.0314 4.07489 11.0502 5.24385Z" fill="white"/>
<path d="M23.6688 9.72353C23.6292 11.2995 23.1177 12.65 21.9822 13.7293C21.4582 14.2261 20.8383 14.5455 20.116 14.6603C19.3562 14.7834 18.73 14.5371 18.2311 13.9714C17.6195 13.2763 17.4003 12.4392 17.465 11.5354C17.5422 10.4144 17.8866 9.37909 18.5713 8.47315C19.1433 7.71538 19.8613 7.16641 20.7986 6.92635C21.7004 6.69465 22.4184 6.99313 22.9841 7.69243C23.4663 8.28946 23.6542 8.99499 23.6688 9.72353Z" fill="white"/>
<path d="M0.00162355 10.168C0.00162355 9.64199 0.0663337 9.12432 0.270901 8.63797C0.744746 7.50239 2.17254 6.98055 3.2914 7.54622C5.00726 8.41461 5.93613 9.84033 6.16784 11.7294C6.25762 12.4621 6.1992 13.1927 5.84223 13.8544C5.42057 14.6351 4.77764 15.111 3.85292 15.0526C3.27052 15.0171 2.74032 14.775 2.25812 14.4493C1.00567 13.6018 0.308474 12.3995 0.0558963 10.9237C0.0308474 10.7776 0.0141481 10.6314 0.00371097 10.4853C-0.00463871 10.3809 0.00371097 10.2745 0.00371097 10.1701L0.00162355 10.168Z" fill="white"/>
</svg>
