<svg width="160" height="27" viewBox="0 0 160 27" fill="none" xmlns="http://www.w3.org/2000/svg">
<path d="M36.8785 18.0591C36.6181 18.1633 36.1494 18.2414 35.6807 18.2414C34.4307 18.2414 33.8058 17.7466 33.8058 16.8873C33.8058 16.1321 34.5089 15.6113 35.7328 15.6113C36.4098 15.6113 36.6442 15.6634 36.8785 15.6894V18.0591ZM41.2533 13.2156C41.2533 10.0907 39.4045 7.85126 35.5244 7.85126C34.0401 7.85126 32.2694 8.1377 30.9413 8.71059C30.759 8.78871 30.733 8.89287 30.733 9.04912V12.0177C30.733 12.174 30.8632 12.226 30.9934 12.174C32.035 11.7313 33.3631 11.3928 34.587 11.3928C36.4879 11.3928 36.8785 12.2521 36.8785 12.6167V12.7729C36.6181 12.7729 36.0192 12.7469 35.4463 12.7469C31.7486 12.7469 29.3789 14.2572 29.3789 17.0175C29.3789 20.1944 31.9048 21.4183 34.9516 21.4183C37.1129 21.4183 39.2222 20.9236 41.2794 20.0642C41.3575 20.0382 41.3575 19.9861 41.3575 19.9601C41.2794 19.2049 41.2533 18.5539 41.2533 17.7727V13.2156ZM50.3982 21.4183C52.2731 21.4183 54.4347 21.0017 56.2575 20.2205C56.4398 20.1423 56.4658 20.0903 56.4398 19.934C56.3877 19.3351 56.3356 18.3716 56.3356 17.6164V3.03378C56.3356 2.92961 56.3096 2.87753 56.1794 2.87753H52.0127C51.8825 2.87753 51.8044 2.92961 51.8044 3.05982V7.85126C51.6221 7.85126 51.4659 7.85126 51.0752 7.85126C45.9974 7.85126 43.4194 11.0542 43.4194 14.6999C43.4194 19.1007 46.388 21.4183 50.3982 21.4183ZM51.8044 17.8247C51.5961 17.8768 51.3096 17.9289 50.945 17.9289C49.2264 17.9289 48.1066 16.7831 48.1066 14.5436C48.1066 12.2521 49.5649 11.3146 51.0232 11.3146C51.3877 11.3146 51.6481 11.3928 51.8044 11.4188V17.8247ZM65.4509 7.85126C61.2584 7.85126 58.5502 10.7417 58.5502 14.6478C58.5502 18.1372 60.6334 21.4183 65.3467 21.4183C69.3309 21.4183 72.1433 18.8403 72.1433 14.5436C72.1433 11.1324 69.9559 7.85126 65.4509 7.85126ZM65.3207 11.3407C66.831 11.3407 67.5601 12.6687 67.5601 14.6478C67.5601 16.8092 66.7269 17.9289 65.4248 17.9289C64.0447 17.9289 63.1593 16.679 63.1593 14.5697C63.1593 12.4604 64.0447 11.3407 65.3207 11.3407ZM80.4523 7.85126C78.291 7.85126 76.1036 8.37206 74.3328 8.91891C74.2547 8.94495 74.2287 9.02307 74.2287 9.1012C74.2807 9.46576 74.3328 10.6897 74.3328 11.1584V26.0535C74.3328 26.1837 74.3589 26.2618 74.5412 26.2618C74.7495 26.2618 77.2494 26.0275 78.6295 25.9233C78.8118 25.8973 78.8639 25.7931 78.8639 25.6369V21.3923C79.1763 21.4183 79.2024 21.4183 79.3847 21.4183C83.1084 21.4183 87.2489 19.0486 87.2489 14.2572C87.2489 11.1063 85.2958 7.85126 80.4523 7.85126ZM80.0096 11.3146C81.4158 11.3146 82.5616 12.1479 82.5616 14.5176C82.5616 16.9914 81.1033 17.9289 79.6451 17.9289C79.4107 17.9289 79.1243 17.9289 78.8639 17.8768V11.4448C79.1503 11.3667 79.4888 11.3146 80.0096 11.3146ZM96.8784 18.0331C96.8784 17.8247 96.7482 17.7987 96.6441 17.8247C96.2795 17.9029 96.1493 17.9289 95.8889 17.9289C94.8733 17.9289 94.5869 17.5123 94.5869 16.3925V11.6011H96.7482C96.9044 11.6011 96.9565 11.549 96.9565 11.3928V8.29394C96.9565 8.1377 96.9045 8.08562 96.7222 8.08562H94.5869C94.6129 6.80964 94.665 5.27325 94.7171 4.49204C94.7171 4.28372 94.6389 4.28372 94.5087 4.30976L90.6287 4.77848C90.4725 4.80452 90.3943 4.90869 90.3683 5.06493C90.2121 5.84614 90.1339 7.25233 90.0558 8.08562H88.5715C88.3632 8.08562 88.3111 8.16374 88.3111 8.34602V11.3407C88.3111 11.523 88.3632 11.575 88.5194 11.6011H90.0298V17.4862C90.0298 20.1684 91.488 21.4183 93.9879 21.4183C95.0556 21.4183 95.8628 21.3142 96.6441 20.9756C96.8263 20.8975 96.8784 20.7673 96.8784 20.585V18.0331ZM118.699 7.85126C116.538 7.85126 114.35 8.37206 112.58 8.91891C112.502 8.94495 112.476 9.02307 112.476 9.1012C112.528 9.46576 112.58 10.6897 112.58 11.1584V26.0535C112.58 26.1837 112.606 26.2618 112.788 26.2618C112.996 26.2618 115.496 26.0275 116.876 25.9233C117.059 25.8973 117.111 25.7931 117.111 25.6369V21.3923C117.423 21.4183 117.449 21.4183 117.632 21.4183C121.355 21.4183 125.496 19.0486 125.496 14.2572C125.496 11.1063 123.543 7.85126 118.699 7.85126ZM118.257 11.3146C119.663 11.3146 120.808 12.1479 120.808 14.5176C120.808 16.9914 119.35 17.9289 117.892 17.9289C117.658 17.9289 117.371 17.9289 117.111 17.8768V11.4448C117.397 11.3667 117.736 11.3146 118.257 11.3146ZM134.378 18.0591C134.117 18.1633 133.649 18.2414 133.18 18.2414C131.93 18.2414 131.305 17.7466 131.305 16.8873C131.305 16.1321 132.008 15.6113 133.232 15.6113C133.909 15.6113 134.143 15.6634 134.378 15.6894V18.0591ZM138.753 13.2156C138.753 10.0907 136.904 7.85126 133.024 7.85126C131.539 7.85126 129.769 8.1377 128.44 8.71059C128.258 8.78871 128.232 8.89287 128.232 9.04912V12.0177C128.232 12.174 128.362 12.226 128.493 12.174C129.534 11.7313 130.862 11.3928 132.086 11.3928C133.987 11.3928 134.378 12.2521 134.378 12.6167V12.7729C134.117 12.7729 133.518 12.7469 132.945 12.7469C129.248 12.7469 126.878 14.2572 126.878 17.0175C126.878 20.1944 129.404 21.4183 132.451 21.4183C134.612 21.4183 136.721 20.9236 138.779 20.0642C138.857 20.0382 138.857 19.9861 138.857 19.9601C138.779 19.2049 138.753 18.5539 138.753 17.7727V13.2156ZM156.003 21.1579C156.264 21.1579 156.29 21.1058 156.394 20.8715L159.987 8.34602C160.039 8.16374 159.935 8.08562 159.779 8.08562H156.107C155.925 8.08562 155.847 8.16374 155.821 8.31998C155.092 11.575 154.519 14.4134 154.102 16.4186H154.05C153.868 15.3769 153.503 12.9812 152.592 8.29394C152.566 8.1377 152.514 8.08562 152.332 8.08562H148.139C147.931 8.08562 147.879 8.18978 147.853 8.37206C146.811 13.0854 146.394 15.3249 146.186 16.2884H146.134C145.952 15.2207 145.613 13.3979 144.519 8.29394C144.467 8.1377 144.415 8.08562 144.207 8.08562H140.119C139.936 8.08562 139.858 8.18978 139.91 8.34602L143.191 20.8715C143.269 21.0798 143.322 21.1579 143.608 21.1579H147.722C147.879 21.1579 147.983 21.1058 148.035 20.8715C148.998 17.2779 149.701 14.153 149.962 12.7208H149.988C150.248 14.0749 150.691 16.679 151.55 20.8715C151.602 21.0798 151.654 21.1579 151.915 21.1579H156.003Z" fill="#451E0E"/>
<path d="M105.361 18.0592C105.101 18.1633 104.632 18.2415 104.163 18.2415C102.913 18.2415 102.288 17.7467 102.288 16.8873C102.288 16.1322 102.991 15.6114 104.215 15.6114C104.892 15.6114 105.127 15.6634 105.361 15.6895V18.0592ZM109.736 13.2156C109.736 10.0908 107.887 7.85132 104.007 7.85132C102.523 7.85132 100.752 8.13776 99.4238 8.71065C99.2415 8.78877 99.2154 8.89294 99.2154 9.04918V12.0178C99.2154 12.174 99.3456 12.2261 99.4758 12.174C100.517 11.7313 101.846 11.3928 103.069 11.3928C104.97 11.3928 105.361 12.2522 105.361 12.6167V12.773C105.101 12.773 104.502 12.7469 103.929 12.7469C100.231 12.7469 97.8613 14.2573 97.8613 17.0175C97.8613 20.1945 100.387 21.4184 103.434 21.4184C105.595 21.4184 107.705 20.9236 109.762 20.0643C109.84 20.0382 109.84 19.9862 109.84 19.9601C109.762 19.2049 109.736 18.5539 109.736 17.7727V13.2156Z" fill="#FF540B"/>
<path d="M12.1044 11.8422C13.2149 11.8276 14.2002 12.1867 15.0978 12.8275C16.1519 13.5769 16.9932 14.5267 17.7467 15.5662C18.2227 16.2237 18.6882 16.8917 19.0868 17.5952C19.5482 18.4114 19.9573 19.2588 20.0742 20.2086C20.1765 21.0436 20.0324 21.8034 19.2894 22.3274C18.7236 22.726 18.0849 22.8325 17.4086 22.7678C16.7823 22.7093 16.2292 22.4296 15.6593 22.1979C14.9621 21.9161 14.2712 21.6113 13.5281 21.4611C12.5574 21.2648 11.6097 21.4005 10.6725 21.674C9.92517 21.8932 9.21334 22.2188 8.46815 22.4484C7.93167 22.6133 7.38894 22.7198 6.82327 22.7344C5.6585 22.7636 4.72958 21.8932 4.48744 20.8411C4.38724 20.4069 4.44569 19.9894 4.54797 19.5615C4.71914 18.8476 4.9258 18.1484 5.22012 17.4762C5.78371 16.1883 6.49136 14.9838 7.44113 13.9485C8.55165 12.7336 9.9523 12.0385 11.5993 11.8631C11.6619 11.8568 11.7245 11.8464 11.7872 11.8443C11.8915 11.8402 11.998 11.8443 12.1044 11.8443V11.8422Z" fill="#451E0E"/>
<path d="M18.6943 3.88914C18.6547 5.21048 18.279 6.47756 17.3355 7.53795C17.014 7.89909 16.6299 8.18087 16.2041 8.41258C15.3294 8.88852 14.5153 8.74866 13.7597 8.15999C13.0896 7.63815 12.7098 6.92008 12.5532 6.10388C12.2087 4.30663 12.5803 2.66174 13.7242 1.21516C14.102 0.735051 14.5946 0.394799 15.1666 0.16727C15.9118 -0.129144 16.609 -0.0247727 17.2498 0.42611C17.9804 0.939615 18.3854 1.67021 18.567 2.53023C18.6568 2.95398 18.6881 3.38607 18.6943 3.88706V3.88914Z" fill="#FF540B"/>
<path d="M11.0502 5.24385C11.046 6.11432 10.8415 7.00773 10.2465 7.77169C9.74347 8.41879 9.08172 8.76741 8.24468 8.7048C7.83557 8.6735 7.47649 8.48352 7.13628 8.27476C6.09672 7.63812 5.46839 6.68624 5.10729 5.5486C4.7566 4.44227 4.66893 3.31089 5.00083 2.18786C5.25132 1.33828 5.7544 0.661957 6.57891 0.27161C7.05485 0.0461685 7.54539 0.0461686 8.0401 0.208987C9.03164 0.536712 9.73512 1.20886 10.2444 2.09601C10.7871 3.0437 11.0314 4.07489 11.0502 5.24385Z" fill="#451E0E"/>
<path d="M23.6678 9.72353C23.6282 11.2995 23.1168 12.65 21.9812 13.7293C21.4572 14.2261 20.8373 14.5455 20.1151 14.6603C19.3552 14.7834 18.729 14.5371 18.2301 13.9714C17.6185 13.2763 17.3993 12.4392 17.464 11.5354C17.5412 10.4144 17.8857 9.37909 18.5703 8.47315C19.1423 7.71538 19.8604 7.16641 20.7976 6.92635C21.6994 6.69465 22.4175 6.99313 22.9831 7.69243C23.4653 8.28946 23.6532 8.99499 23.6678 9.72353Z" fill="#451E0E"/>
<path d="M0.00162355 10.168C0.00162355 9.64196 0.0663337 9.12429 0.270901 8.63793C0.744746 7.50235 2.17254 6.98051 3.2914 7.54619C5.00726 8.41458 5.93613 9.8403 6.16784 11.7294C6.25762 12.4621 6.1992 13.1927 5.84223 13.8544C5.42057 14.6351 4.77764 15.111 3.85292 15.0526C3.27052 15.0171 2.74032 14.775 2.25812 14.4493C1.00567 13.6018 0.308474 12.3995 0.0558963 10.9236C0.0308474 10.7775 0.0141481 10.6314 0.00371097 10.4853C-0.00463871 10.3809 0.00371097 10.2745 0.00371097 10.1701L0.00162355 10.168Z" fill="#451E0E"/>
</svg>
