<svg width="250" height="308" viewBox="0 0 250 308" fill="none" xmlns="http://www.w3.org/2000/svg">
<g style="mix-blend-mode:multiply" opacity="0.4">
<path d="M199.63 236.01C186.54 310.97 141.84 312.66 88.6898 303.37C35.5398 294.08 -5.94021 277.34 7.15979 202.38C20.2498 127.43 82.9598 22.64 136.11 31.92C151.8 34.66 180.88 -1.13998 223.17 56.87C224.98 59.35 149.36 24.41 179.65 73.39C200.97 117.26 208.29 186.44 199.64 236L199.63 236.01Z" fill="#F3DACF"/>
</g>
<g style="mix-blend-mode:multiply" opacity="0.4">
<path d="M190.47 217.79C181.07 271.6 159.65 293.98 124.22 291.6C119.26 273.83 101.71 278.23 93.3303 276.76C86.4803 275.56 72.0003 267.02 60.1103 279.46C23.6903 270.07 12.1703 244.3 21.9403 188.34C33.4103 122.73 88.3203 30.98 134.85 39.11C181.39 47.24 201.93 152.16 190.47 217.79V217.79Z" fill="#F3DACF"/>
</g>
<path d="M128.77 40.09C124.75 18.62 146.11 -7.45001 183.83 1.98999C221.55 11.42 239.57 61.74 223.74 94.65C223.74 94.65 223.74 47.84 200.63 37.64C177.52 27.44 143.24 25.72 143.99 45.76L128.77 40.1V40.09Z" fill="#CB5B2B"/>
<g style="mix-blend-mode:multiply" opacity="0.3">
<path d="M149.91 34.15C142.68 30.69 136.06 25.81 132.33 19.53C128.78 25.99 127.49 33.27 128.76 40.08L143.98 45.74C143.78 40.43 146.04 36.65 149.91 34.14V34.15Z" fill="#FF7236"/>
</g>
<path d="M216.72 26.06C214.77 25.64 213.01 23.83 211.45 22.81C208.89 21.15 200.09 17.38 199.41 22.87C199.11 25.28 201.84 27.17 200.61 29.65C199.75 31.38 197.39 32 195.81 32.81C194.84 33.31 193.76 33.89 192.95 34.69C195.6 35.57 198.17 36.55 200.62 37.63C223.73 47.83 223.73 94.64 223.73 94.64C233.75 73.82 230.21 46.05 216.72 26.05V26.06Z" fill="#F7EFE9"/>
<path d="M70.9296 262.8C69.4096 268.74 67.1296 274.69 63.7496 279.21C53.5096 292.9 42.3396 282.89 42.3396 282.89C32.5796 283.58 32.2296 278.15 32.2296 278.15C26.0596 277.18 27.9596 265.82 27.9596 265.82C27.9596 265.82 25.0296 264.96 26.2996 251.32C26.7996 245.89 33.1896 241.43 40.0896 235.03C42.7996 232.52 45.5896 229.71 48.1296 226.43L74.0996 238.74C74.0996 238.74 74.0496 250.76 70.9396 262.81L70.9296 262.8Z" fill="#F7EFE9"/>
<g style="mix-blend-mode:multiply" opacity="0.3">
<path d="M61.8598 278.2C59.3998 280.03 56.7998 281.97 53.7098 282.53C50.8398 283.04 47.2298 282.36 44.6898 280.95C44.1398 280.64 43.6098 280.29 43.1398 279.87C42.9298 279.68 42.6498 279.23 42.3898 279.07C39.7398 277.47 41.2398 278.94 40.1698 279.13C39.1798 279.31 38.5498 279.63 37.4798 279.33C36.0898 278.94 35.1398 277.82 34.0898 276.91C33.0898 276.03 31.7698 275.52 30.8598 274.54C28.8098 272.35 30.1998 269.43 30.4698 266.89C30.6998 264.71 29.2898 264.14 27.9998 262.8C27.1498 261.92 26.4998 260.86 26.0498 259.73C26.3898 265.34 27.9598 265.81 27.9598 265.81C27.9598 265.81 26.0598 277.17 32.2298 278.14C32.2298 278.14 32.5798 283.57 42.3398 282.88C42.3398 282.88 53.5098 292.89 63.7498 279.2C64.9098 277.65 65.9298 275.93 66.8398 274.11C65.2798 275.57 63.5998 276.9 61.8598 278.2Z" fill="#FF7236"/>
</g>
<path d="M168.241 276.1C164.801 289.36 161.761 289.18 161.761 289.18C161.761 289.18 159.691 300.51 153.561 299.33C153.561 299.33 151.391 304.32 142.451 300.36C142.451 300.36 128.551 305.99 123.561 289.64C121.921 284.28 121.791 277.96 122.361 271.89C123.501 259.45 127.561 248.06 127.561 248.06L156.161 245.29C157.471 249.35 159.201 253.03 160.951 256.38C165.231 264.6 169.611 270.87 168.251 276.09L168.241 276.1Z" fill="#CB5B2B"/>
<g style="mix-blend-mode:multiply" opacity="0.3">
<path d="M165.32 284.3C164.22 285.31 163.31 285.9 161.82 286.02C160.65 286.11 159.8 285.97 159.21 287.08C158.86 287.73 158.77 288.61 158.61 289.33C158.15 291.5 158 294.39 156.23 295.99C154.9 297.2 154.1 296.23 153.69 295.02C152.63 297.24 150.99 299.35 148.56 300.06C146.3 300.72 144.11 299.68 143.59 297.47C140.59 298.72 137.36 299.53 134.15 298.54C131.09 297.59 128.55 295.18 126.71 292.63C124.43 289.45 123.03 285.76 122.17 281.93C122.37 284.62 122.79 287.24 123.53 289.65C128.52 306 142.42 300.37 142.42 300.37C151.37 304.33 153.53 299.34 153.53 299.34C159.66 300.52 161.73 289.19 161.73 289.19C161.73 289.19 163.41 289.28 165.68 283.91C165.55 284.04 165.43 284.17 165.3 284.3H165.32Z" fill="#FF7236"/>
</g>
<g style="mix-blend-mode:multiply" opacity="0.15">
<path d="M74.0898 238.73C74.0898 238.73 74.0398 250.75 70.9298 262.8C57.7698 256.09 47.1098 246.37 40.0898 235.02C42.7998 232.51 45.5898 229.7 48.1298 226.42L74.0998 238.73H74.0898Z" fill="#FF7236"/>
</g>
<g style="mix-blend-mode:multiply" opacity="0.2">
<path d="M160.93 256.39C150.41 264.65 137.03 270.12 122.34 271.9C123.48 259.46 127.54 248.07 127.54 248.07L156.14 245.3C157.45 249.36 159.18 253.04 160.93 256.39Z" fill="#FF7236"/>
</g>
<path d="M136.73 39.04C136.66 39.02 136.59 39.01 136.52 39C136.45 38.99 136.38 38.97 136.31 38.96C88.07 30.74 39.2501 57.82 30.8201 138.69C22.3601 219.79 40.9101 249.38 98.0301 259.36C155.15 269.34 182.63 247.78 202.17 168.62C221.65 89.68 184.9 47.65 136.74 39.04H136.73Z" fill="#DC815A"/>
<path d="M134.7 50.23C134.7 50.23 134.61 50.21 134.56 50.2C134.51 50.2 134.47 50.18 134.42 50.17C102.06 44.69 68.1998 69.2 59.9798 138.12C51.7398 207.24 63.3598 231.78 101.67 238.48C139.98 245.17 159.24 226.02 174.91 158.2C190.54 90.58 167 56.04 134.7 50.22V50.23Z" fill="#F7EFE9"/>
<g style="mix-blend-mode:multiply" opacity="0.3">
<path d="M28.9305 167.19C28.8305 172.23 28.8805 177.01 29.0905 181.55C31.8005 181.66 34.3305 181.16 37.0205 182.23C41.5805 184.05 44.0605 188.31 45.2205 192.87C46.2205 196.83 46.3105 200.93 47.3905 204.87C48.7505 209.82 50.6305 214.65 52.8605 219.28C57.3205 228.56 63.7205 237.14 71.8305 243.53C75.8805 246.72 80.1905 249.13 84.8505 251.29C87.8005 252.66 90.7105 254.18 93.8005 255.24C95.2505 255.74 96.7305 256.11 98.2005 256.5C99.7205 256.64 101.24 256.78 102.77 256.81C106.04 256.86 109.28 256.42 112.53 256.13C117.65 255.67 122.52 254.87 127.41 253.24C137.21 249.98 146.14 244.08 153.48 236.86C157.14 233.26 160.55 229.35 163.51 225.16C165.87 221.81 167.34 217.99 169.62 214.6C172.25 210.7 176.02 207.54 180.94 207.37C183.83 207.27 186.05 208.61 188.63 209.42C190.37 205.22 192.03 200.74 193.64 195.97L28.9305 167.19Z" fill="#FF7236"/>
</g>
<path d="M96.9398 57.47C118.48 56.17 119.35 79.87 119.35 79.87C119.35 79.87 98.5498 136.76 56.8398 125.54C15.1198 114.31 76.1298 65.25 76.1298 65.25C76.1298 65.25 82.9398 58.33 96.9398 57.48V57.47Z" fill="#A44D28"/>
<path d="M178.92 77.55C160.42 66.44 148.69 87.06 148.69 87.06C148.69 87.06 140.84 147.12 183.03 156.45C225.21 165.77 193.79 94.07 193.79 94.07C193.79 94.07 190.95 84.78 178.92 77.56V77.55Z" fill="#A44D28"/>
<path d="M165.54 205.61C152.37 214.25 151.59 265.06 93.0599 250.73C70.9999 245.33 60.4899 235.5 55.5499 224.63C47.3799 206.65 54.4199 185.79 49.6399 177.22C47.6699 173.69 46.1099 169.27 44.9799 164.57C41.6799 150.91 41.9399 134.82 45.9999 131.03C51.4799 125.93 55.3999 99.29 65.6899 86.43C75.9899 73.57 111.1 72.18 135.33 78.11C159.56 84.04 190.06 101.5 193.24 117.66C196.43 133.82 187.6 159.26 190.1 166.31C192.59 173.36 178.7 196.94 165.54 205.59V205.61Z" fill="#FF7236"/>
<g style="mix-blend-mode:multiply" opacity="0.3">
<path d="M49.6396 177.23C49.7696 177.47 49.8996 177.73 50.0096 177.99C51.0996 177.13 52.1296 176.2 53.0396 175.15C57.1496 170.44 58.9096 164.3 60.3296 158.34C61.7796 152.28 63.1196 146.21 64.3896 140.11C66.9196 127.96 69.4896 115.6 74.9796 104.38C79.8896 94.35 87.0596 85.51 97.3496 80.76C104.15 77.62 111.54 76.23 118.97 75.42C97.4596 73.3 73.8296 76.3 65.6796 86.46C55.3796 99.32 51.4596 125.96 45.9896 131.06C41.9196 134.85 41.6696 150.94 44.9696 164.6C46.1096 169.31 47.6596 173.72 49.6296 177.25L49.6396 177.23Z" fill="#FF7236"/>
</g>
<g style="mix-blend-mode:multiply" opacity="0.3">
<path d="M165.53 205.61C165.3 205.76 165.07 205.93 164.85 206.11C164.28 204.84 163.8 203.54 163.47 202.19C162 196.11 163.28 189.86 164.77 183.91C166.29 177.87 167.9 171.86 169.6 165.87C172.97 153.92 176.4 141.78 176.72 129.29C177 118.13 174.73 106.97 167.79 98C163.21 92.08 157.3 87.43 151.09 83.27C171.15 91.33 190.72 104.91 193.24 117.68C196.43 133.84 187.6 159.28 190.1 166.33C191.96 171.57 184.75 185.95 175.51 196.54C172.33 200.19 168.91 203.38 165.53 205.6V205.61Z" fill="#FF7236"/>
</g>
<g style="mix-blend-mode:multiply" opacity="0.3">
<path d="M144.12 209.25C151.16 211.83 158.42 209.01 165.1 205.93C165.24 205.82 165.39 205.71 165.54 205.62C177.68 197.64 190.43 176.97 190.39 168.28C185.5 177.72 177.73 185.77 170.13 192.96C162.92 199.79 154.33 207.64 144.13 209.26L144.12 209.25Z" fill="#FF7236"/>
</g>
<g style="mix-blend-mode:multiply" opacity="0.3">
<path d="M130.7 232.75C137.07 234.31 143.45 234.09 149.34 232.41C140.47 246.37 125.8 258.74 93.0601 250.72C71.0001 245.32 60.4901 235.49 55.5501 224.62C53.1501 219.36 52.0701 213.84 51.6201 208.47C56.0601 212.68 61.6201 215.82 67.9901 217.38C81.6201 220.72 95.3101 215.92 104 206.09C107.16 218.82 117.1 229.41 130.71 232.74L130.7 232.75Z" fill="#FF7236"/>
</g>
<g style="mix-blend-mode:multiply" opacity="0.3">
<path d="M98.2496 251.86C98.4896 251.9 98.7196 251.95 98.9596 251.99C99.6296 252.11 100.29 252.22 100.95 252.33C101.09 252.35 101.23 252.38 101.37 252.4C104.32 252.85 107.1 253.12 109.72 253.22L109.7 253.2C110.88 253.24 112.04 253.27 113.16 253.25C106.17 249.69 100.64 244.31 97.0996 237.75C96.9296 237.37 96.7496 236.99 96.5896 236.6C96.5696 236.62 96.5496 236.63 96.5296 236.65C96.5196 236.63 96.5096 236.6 96.4896 236.58C96.1596 236.85 95.8296 237.11 95.5096 237.36C89.3296 241.54 81.9496 243.75 74.0996 243.68C75.0796 244.22 76.1196 244.73 77.1896 245.24H77.1596C79.5296 246.37 82.1196 247.41 84.9396 248.37C85.0696 248.42 85.2096 248.46 85.3496 248.51C85.9796 248.72 86.6196 248.93 87.2696 249.13C87.4996 249.2 87.7296 249.27 87.9596 249.34C88.5596 249.52 89.1696 249.7 89.7896 249.87C90.0296 249.94 90.2596 250 90.4996 250.07C91.3396 250.3 92.1996 250.52 93.0796 250.74C93.9596 250.96 94.8196 251.15 95.6796 251.34C95.9196 251.39 96.1596 251.44 96.3996 251.49C97.0296 251.62 97.6496 251.75 98.2696 251.87L98.2496 251.86Z" fill="#FF7236"/>
</g>
<path d="M129.84 99.91C90.54 90.65 120.2 157.06 81.96 213.62L101.46 215.81L119.76 222.88C111.98 155.05 168.97 109.86 129.84 99.91Z" fill="#C55B2D"/>
<path d="M83.5105 178.76C57.3005 176.85 55.5505 224.63 55.5505 224.63C47.3805 206.65 54.4205 185.79 49.6405 177.22C47.6705 173.69 46.1105 169.27 44.9805 164.57C59.4205 155.82 63.0205 115.53 92.5305 122.75C106.71 126.22 105.29 138.57 103.26 151.45C101.06 165.39 97.1305 179.74 83.5105 178.75V178.76Z" fill="#F7EFE9"/>
<path d="M97.0898 234.8C97.0498 235.84 96.5998 236.82 96.0398 237.72C95.4498 238.62 94.6798 239.42 93.7898 240.14C92.9098 240.85 92.0198 241.66 90.7298 241.96C90.0898 242.11 89.4098 242.22 88.6898 242.19C87.9798 242.17 87.1798 242.03 86.5498 241.65L86.5798 241.45C87.1998 241.23 87.6398 241 88.1098 240.76C88.3398 240.64 88.5598 240.51 88.7898 240.4C89.0098 240.27 89.2398 240.15 89.4698 240.04C90.3398 239.54 91.4598 239.3 92.3998 238.8C93.3298 238.3 94.1998 237.72 94.9798 237.06C95.7698 236.4 96.4198 235.63 96.8598 234.74L97.1098 234.8H97.0898Z" fill="#211B18"/>
<path d="M97.09 234.8C97.07 235.8 97.28 236.78 97.68 237.73C98.06 238.68 98.57 239.59 99.16 240.46C99.76 241.34 100.64 242.07 101.18 242.91C101.33 243.11 101.48 243.32 101.62 243.54C101.77 243.74 101.91 243.96 102.06 244.17C102.37 244.6 102.65 245.01 103.1 245.49L103.03 245.68C102.29 245.73 101.52 245.48 100.88 245.17C100.22 244.86 99.67 244.45 99.17 244.02C98.16 243.15 97.75 242.03 97.29 240.99C96.83 239.95 96.52 238.88 96.41 237.81C96.33 236.75 96.39 235.67 96.83 234.73L97.08 234.79L97.09 234.8Z" fill="#211B18"/>
<path d="M104.151 205.44C90.4905 202.09 78.1105 208.95 82.0305 217.67C82.0305 217.67 80.8505 232.9 96.4905 236.73C112.131 240.56 118.121 226.51 118.121 226.51C125.621 220.59 117.811 208.79 104.151 205.44Z" fill="#1A1A1A"/>
<g style="mix-blend-mode:multiply" opacity="0.3">
<path d="M117 212.46C117.6 213.91 117.81 215.48 117.42 217.08C116.3 221.71 111.7 222.55 107.67 221.82C102.24 220.83 96.4704 219.65 91.2804 217.77C87.2404 216.31 84.4504 212.15 87.2704 208.11C87.9804 207.09 88.9004 206.26 89.9204 205.59C83.4204 207.58 79.6004 212.26 82.0204 217.66C82.0204 217.66 80.8404 232.89 96.4804 236.72C112.12 240.55 118.11 226.5 118.11 226.5C122.65 222.91 121.57 217.17 116.99 212.46H117Z" fill="#534741"/>
</g>
<g style="mix-blend-mode:multiply" opacity="0.3">
<path d="M109.661 227.13C106.871 227.63 105.601 229.86 103.151 230.89C101.101 231.76 98.6205 231.22 96.6705 230.33C94.6905 229.43 93.4006 227.92 92.1506 226.21C90.2006 223.57 88.4006 221.82 85.5506 220.18C84.0606 219.32 82.7505 218.29 81.8105 217.1C81.8805 217.29 81.9405 217.48 82.0305 217.67C82.0305 217.67 80.8505 232.9 96.4905 236.73C112.131 240.56 118.121 226.51 118.121 226.51C118.201 226.44 118.271 226.37 118.351 226.31C115.701 227.19 112.331 226.66 109.661 227.14V227.13Z" fill="#534741"/>
</g>
<path d="M85.1504 218.88C92.3804 218.95 93.6404 223.09 92.3304 225.33C91.0304 227.57 85.1504 218.88 85.1504 218.88Z" fill="black"/>
<path d="M114.79 226.14C108.34 222.86 105.32 225.95 105.44 228.54C105.56 231.13 114.79 226.14 114.79 226.14Z" fill="black"/>
<path d="M171.44 171.67C168.61 183.24 156.94 190.31 145.37 187.48C133.79 184.65 126.72 172.98 129.55 161.41C130.03 159.46 130.76 157.63 131.7 155.96C136.32 147.73 146 143.23 155.63 145.59C165.26 147.95 171.78 156.43 172.05 165.89C172.11 167.79 171.91 169.73 171.44 171.67V171.67Z" fill="#603813"/>
<path d="M171.66 167.89C168.92 179.09 157.62 185.94 146.42 183.2C135.22 180.46 128.37 169.16 131.11 157.96C131.28 157.28 131.47 156.62 131.7 155.97C136.32 147.74 146 143.24 155.63 145.6C165.26 147.96 171.78 156.44 172.05 165.9C171.95 166.56 171.82 167.23 171.66 167.9V167.89Z" fill="#1A1A1A"/>
<path d="M165.99 169.68C161.92 172.96 155.3 171.5 151.21 166.43C147.11 161.35 147.09 154.57 151.16 151.29C155.23 148.01 161.85 149.47 165.94 154.54C170.04 159.62 170.06 166.4 165.99 169.68Z" fill="#F2F2F2"/>
<path d="M141.87 165.41C139.42 167.39 135.83 167 133.85 164.55C131.87 162.1 132.26 158.51 134.71 156.53C137.16 154.55 140.75 154.94 142.73 157.39C144.71 159.84 144.32 163.43 141.87 165.41Z" fill="#F2F2F2"/>
<g style="mix-blend-mode:multiply" opacity="0.3">
<path d="M162.88 177.66C160.36 177.03 157.77 179.7 155.36 180.06C153.41 180.35 152.08 179.61 151.05 178C150.28 176.79 149.71 175.58 148.39 174.85C147.07 174.13 145.59 174.03 144.12 174.16C141.82 174.37 139.57 175.14 137.23 175.04C135.21 174.95 133.37 174.12 132.15 172.48C131.48 171.58 131.07 170.53 130.51 169.56C130.06 168.79 129.56 168.36 129.01 168.17C129.71 177.21 136.1 185.18 145.38 187.46C153.23 189.38 161.13 186.73 166.29 181.22C164.78 180.52 164.74 178.1 162.9 177.65L162.88 177.66Z" fill="#534741"/>
</g>
<path d="M144.88 181.83C142.43 183.81 138.44 182.93 135.97 179.87C133.5 176.81 133.49 172.73 135.94 170.75C138.39 168.77 142.38 169.65 144.85 172.71C147.32 175.77 147.33 179.85 144.88 181.83Z" fill="#F2F2F2"/>
<path d="M157.071 185.12C155.301 186.55 152.711 186.27 151.291 184.5C149.861 182.73 150.141 180.14 151.911 178.72C153.681 177.29 156.271 177.57 157.691 179.34C159.121 181.11 158.841 183.7 157.071 185.12Z" fill="#F2F2F2"/>
<path d="M101.971 154.65C99.1405 166.22 87.4705 173.3 75.9005 170.46C64.3205 167.63 57.2505 155.96 60.0805 144.39C60.5605 142.44 61.2905 140.61 62.2305 138.94C66.8505 130.71 76.5305 126.21 86.1605 128.57C95.7905 130.93 102.311 139.41 102.581 148.87C102.641 150.77 102.441 152.71 101.971 154.65V154.65Z" fill="#603813"/>
<path d="M102.191 150.87C99.4505 162.07 88.1505 168.92 76.9505 166.18C65.7505 163.44 58.9005 152.14 61.6405 140.94C61.8105 140.26 62.0005 139.6 62.2305 138.95C66.8505 130.72 76.5305 126.22 86.1605 128.58C95.7905 130.94 102.311 139.42 102.581 148.88C102.481 149.54 102.351 150.21 102.191 150.88V150.87Z" fill="#1A1A1A"/>
<path d="M96.5202 152.66C92.4502 155.94 85.8302 154.48 81.7402 149.41C77.6402 144.33 77.6202 137.55 81.6902 134.27C85.7602 130.99 92.3802 132.45 96.4702 137.52C100.56 142.59 100.59 149.38 96.5202 152.66V152.66Z" fill="#F2F2F2"/>
<path d="M72.4004 148.39C69.9504 150.37 66.3604 149.98 64.3804 147.53C62.4004 145.08 62.7904 141.49 65.2404 139.51C67.6904 137.53 71.2804 137.92 73.2604 140.37C75.2404 142.82 74.8504 146.41 72.4004 148.39Z" fill="#F2F2F2"/>
<g style="mix-blend-mode:multiply" opacity="0.3">
<path d="M96.3207 161.84C95.1207 160.42 94.1207 159.23 92.0607 159.49C90.8407 159.64 89.7307 160.27 88.6007 160.7C87.0107 161.31 85.4507 161.58 84.0807 160.35C83.0907 159.46 82.6807 158.15 81.8807 157.11C80.1607 154.89 77.6507 155.71 75.5407 156.81C73.6407 157.8 71.7607 159.09 69.5207 159.01C67.3407 158.93 65.8107 157.7 64.9007 155.78C64.2907 154.49 63.8607 152.59 62.2007 152.21C61.3707 152.02 60.5107 152.29 59.6807 152.71C60.9407 161.11 67.1207 168.33 75.8807 170.47C84.2407 172.52 92.6507 169.39 97.7507 163.13C97.2607 162.82 96.7807 162.4 96.3107 161.85L96.3207 161.84Z" fill="#534741"/>
</g>
<path d="M75.4107 164.82C72.9607 166.8 68.9707 165.92 66.5007 162.86C64.0307 159.8 64.0207 155.72 66.4707 153.74C68.9207 151.76 72.9107 152.64 75.3807 155.7C77.8507 158.76 77.8607 162.84 75.4107 164.82Z" fill="#F2F2F2"/>
<path d="M87.6009 168.11C85.8309 169.54 83.2409 169.26 81.8209 167.49C80.3909 165.72 80.6709 163.13 82.4409 161.71C84.2109 160.28 86.8009 160.56 88.2209 162.33C89.6509 164.1 89.3709 166.69 87.6009 168.11Z" fill="#F2F2F2"/>
<g style="mix-blend-mode:multiply" opacity="0.3">
<path d="M151.2 126.12C148.12 126.27 146.05 128.61 145.41 131.78C144.77 134.92 145.75 137.81 147.98 140.07C151.48 143.61 156.71 145.46 161.38 146.89C163.91 147.66 166.56 148.4 169.22 148.36C171.7 148.32 175.51 146.79 175.22 143.86C165.09 144.56 153.48 136.21 151.21 126.13L151.2 126.12Z" fill="#C55B2D"/>
</g>
<path d="M176.34 143.73C172.97 147.25 164.33 144.97 157.36 138.3C150.39 131.63 147.73 123.1 151.1 119.58C154.47 116.06 159.73 121.87 166.7 128.53C173.67 135.19 179.7 140.2 176.33 143.72L176.34 143.73Z" fill="#CB5B2B"/>
<g style="mix-blend-mode:multiply" opacity="0.3">
<path d="M99.0801 113.36C101.74 114.92 102.49 117.94 101.6 121.05C100.72 124.13 98.5201 126.24 95.4901 127.21C90.7501 128.73 85.2501 127.96 80.4601 127.07C77.8601 126.59 75.1701 126.02 72.8301 124.75C70.6501 123.57 67.9701 120.45 69.5901 117.98C78.2501 123.28 92.4001 121.24 99.0801 113.36Z" fill="#C55B2D"/>
</g>
<path d="M68.6501 117.36C70.0101 122.04 78.7301 124.01 87.9901 121.32C97.2501 118.63 103.55 112.29 102.19 107.61C100.83 102.93 93.4801 105.65 84.2201 108.34C74.9601 111.03 67.3001 112.68 68.6601 117.36H68.6501Z" fill="#CB5B2B"/>
<g style="mix-blend-mode:multiply" opacity="0.3">
<path d="M66.94 190.35C59.5 189.38 54.37 183.52 49.87 177.71C49.79 177.55 49.71 177.39 49.63 177.23C42.55 164.54 40.79 140.32 44.85 132.63C44.82 143.26 48 153.99 51.41 163.88C54.65 173.27 58.64 184.2 66.94 190.35Z" fill="#B3B3B3"/>
</g>
<g style="mix-blend-mode:screen" opacity="0.3">
<path d="M100.84 207.73C100.4 206.38 92.7198 205.7 90.8798 207.01C89.6598 207.88 88.6898 209.59 89.9098 210.89C91.0298 212.09 93.2998 211.85 94.7698 211.66C96.5998 211.42 101.83 210.72 100.85 207.72L100.84 207.73Z" fill="#F2F2F2"/>
</g>
<path d="M178.92 77.55C210.53 98.11 192.46 100.16 216.3 115.13C240.14 130.1 253.91 142.55 248.29 154.05C242.67 165.55 216.79 216.17 189.1 210.31C161.41 204.44 176.87 162.27 182.59 143.77C188.3 125.27 197.12 95.71 178.93 77.56L178.92 77.55Z" fill="#CB5B2B"/>
<g style="mix-blend-mode:multiply" opacity="0.3">
<path d="M237.84 130.51C240.1 136.42 240.12 142.6 238.61 148.71C236.6 156.87 233.99 164.39 230.05 171.83C227.23 177.16 224.06 182.39 219.73 186.65C215.2 191.11 209.65 194.2 203.79 196.58C203.32 196.77 203.03 196.09 203.41 195.81C208.41 192.05 210.57 185.33 211.67 179.11C207.95 186.74 200.26 193.46 192.49 195.93C184.15 198.58 177.57 194.47 173.13 188.25C173.48 199.03 177.51 207.85 189.1 210.3C216.79 216.17 242.67 165.54 248.29 154.04C251.87 146.72 247.58 139.01 237.84 130.51Z" fill="#FF7236"/>
</g>
<path d="M96.9401 57.47C59.4101 61.1 74.4801 71.27 46.4301 73.52C18.3701 75.78 0.400083 80.46 0.0700831 93.26C-0.259917 106.06 -0.699917 162.91 26.5701 170.5C53.8401 178.09 59.6101 133.54 63.0901 114.5C66.5701 95.45 72.4101 65.17 96.9401 57.48V57.47Z" fill="#CB5B2B"/>
<g style="mix-blend-mode:multiply" opacity="0.3">
<path d="M44.3601 156.54C40.8901 157.65 37.8301 157.42 35.0701 156.37C32.7501 156.09 30.4801 155.46 28.3501 154.52C28.0901 154.44 27.8301 154.38 27.5701 154.29C9.82008 148.5 5.71008 128.27 5.40008 111.76C5.31008 107.21 5.58008 102.15 6.46008 97.21C6.92008 92.76 7.77008 88.36 9.57008 84.24C10.2601 82.66 11.0801 81.18 12.0001 79.77C4.50008 82.81 0.230083 87.09 0.0700831 93.26C-0.259917 106.06 -0.699917 162.91 26.5701 170.5C40.8601 174.48 49.2501 164.13 54.4901 150.64C51.4601 153.17 48.0801 155.35 44.3501 156.54H44.3601Z" fill="#FF7236"/>
</g>
</svg>
