<svg width="15" height="15" viewBox="0 0 15 15" fill="none" xmlns="http://www.w3.org/2000/svg">
<path d="M7.5 14.0625C5.75952 14.0625 4.09032 13.3711 2.85961 12.1404C1.6289 10.9097 0.9375 9.24048 0.9375 7.5C0.9375 5.75952 1.6289 4.09032 2.85961 2.85961C4.09032 1.6289 5.75952 0.9375 7.5 0.9375C9.24048 0.9375 10.9097 1.6289 12.1404 2.85961C13.3711 4.09032 14.0625 5.75952 14.0625 7.5C14.0625 9.24048 13.3711 10.9097 12.1404 12.1404C10.9097 13.3711 9.24048 14.0625 7.5 14.0625ZM7.5 15C9.48912 15 11.3968 14.2098 12.8033 12.8033C14.2098 11.3968 15 9.48912 15 7.5C15 5.51088 14.2098 3.60322 12.8033 2.1967C11.3968 0.790176 9.48912 0 7.5 0C5.51088 0 3.60322 0.790176 2.1967 2.1967C0.790176 3.60322 0 5.51088 0 7.5C0 9.48912 0.790176 11.3968 2.1967 12.8033C3.60322 14.2098 5.51088 15 7.5 15Z" fill="#2CDF53"/>
<path d="M10.2843 4.65938C10.2776 4.66585 10.2714 4.67274 10.2656 4.68L7.00964 8.82844L5.04745 6.86532C4.91416 6.74112 4.73787 6.6735 4.55571 6.67671C4.37355 6.67993 4.19976 6.75372 4.07093 6.88255C3.94211 7.01137 3.86831 7.18517 3.8651 7.36733C3.86189 7.54948 3.9295 7.72578 4.0537 7.85907L6.53433 10.3406C6.60115 10.4073 6.68073 10.4599 6.76831 10.4952C6.85589 10.5305 6.94968 10.5477 7.04409 10.546C7.13849 10.5442 7.23158 10.5235 7.31779 10.485C7.40401 10.4465 7.48158 10.391 7.54589 10.3219L11.2884 5.64375C11.4158 5.51 11.4855 5.33147 11.4823 5.14675C11.4792 4.96204 11.4035 4.78599 11.2716 4.65665C11.1396 4.52732 10.9621 4.45511 10.7774 4.45561C10.5926 4.45612 10.4155 4.52932 10.2843 4.65938Z" fill="#2CDF53"/>
</svg>
