<svg width="29" height="26" viewBox="0 0 29 26" fill="none" xmlns="http://www.w3.org/2000/svg">
<path d="M18.1274 9.7384C17.8185 8.8117 16.8876 8.59887 16.2155 9.29722C15.5195 10.02 15.3847 11.359 15.9284 12.1305C16.4461 12.8621 17.2769 12.8621 17.8033 12.1305C17.9403 11.9399 18.0556 11.7337 18.1752 11.5319C18.1817 11.5231 18.1883 11.5142 18.1948 11.5053C18.2557 11.0553 18.2057 10.5919 18.3296 10.1508C18.2122 10.0399 18.1774 9.88694 18.1274 9.74062V9.7384ZM18.1274 9.7384C17.8185 8.8117 16.8876 8.59887 16.2155 9.29722C15.5195 10.02 15.3847 11.359 15.9284 12.1305C16.4461 12.8621 17.2769 12.8621 17.8033 12.1305C17.9403 11.9399 18.0556 11.7337 18.1752 11.5319C18.1817 11.5231 18.1883 11.5142 18.1948 11.5053C18.2557 11.0553 18.2057 10.5919 18.3296 10.1508C18.2122 10.0399 18.1774 9.88694 18.1274 9.74062V9.7384ZM18.1274 9.7384C17.8185 8.8117 16.8876 8.59887 16.2155 9.29722C15.5195 10.02 15.3847 11.359 15.9284 12.1305C16.4461 12.8621 17.2769 12.8621 17.8033 12.1305C17.9403 11.9399 18.0556 11.7337 18.1752 11.5319C18.1817 11.5231 18.1883 11.5142 18.1948 11.5053C18.2557 11.0553 18.2057 10.5919 18.3296 10.1508C18.2122 10.0399 18.1774 9.88694 18.1274 9.74062V9.7384ZM21.329 14.2832C21.3159 14.1347 21.3246 13.9839 21.3246 13.8354C21.2463 13.7866 21.2311 13.6824 21.1898 13.6004C20.8266 12.8732 20.2458 12.7735 19.676 13.3477C19.1105 13.9174 18.9473 14.6047 19.1431 15.3829C19.167 15.4804 19.2301 15.5735 19.2018 15.6733C19.7216 16.2054 20.322 16.2985 20.8244 15.6977C21.1659 15.2964 21.3747 14.8353 21.329 14.2832V14.2832ZM21.329 14.2832C21.3159 14.1347 21.3246 13.9839 21.3246 13.8354C21.2463 13.7866 21.2311 13.6824 21.1898 13.6004C20.8266 12.8732 20.2458 12.7735 19.676 13.3477C19.1105 13.9174 18.9473 14.6047 19.1431 15.3829C19.167 15.4804 19.2301 15.5735 19.2018 15.6733C19.7216 16.2054 20.322 16.2985 20.8244 15.6977C21.1659 15.2964 21.3747 14.8353 21.329 14.2832V14.2832ZM18.1274 9.7384C17.8185 8.8117 16.8876 8.59887 16.2155 9.29722C15.5195 10.02 15.3847 11.359 15.9284 12.1305C16.4461 12.8621 17.2769 12.8621 17.8033 12.1305C17.9403 11.9399 18.0556 11.7337 18.1752 11.5319C18.1817 11.5231 18.1883 11.5142 18.1948 11.5053C18.2557 11.0553 18.2057 10.5919 18.3296 10.1508C18.2122 10.0399 18.1774 9.88694 18.1274 9.74062V9.7384ZM18.1274 9.7384C17.8185 8.8117 16.8876 8.59887 16.2155 9.29722C15.5195 10.02 15.3847 11.359 15.9284 12.1305C16.4461 12.8621 17.2769 12.8621 17.8033 12.1305C17.9403 11.9399 18.0556 11.7337 18.1752 11.5319C18.1817 11.5231 18.1883 11.5142 18.1948 11.5053C18.2557 11.0553 18.2057 10.5919 18.3296 10.1508C18.2122 10.0399 18.1774 9.88694 18.1274 9.74062V9.7384ZM21.329 14.2832C21.3159 14.1347 21.3246 13.9839 21.3246 13.8354C21.2463 13.7866 21.2311 13.6824 21.1898 13.6004C20.8266 12.8732 20.2458 12.7735 19.676 13.3477C19.1105 13.9174 18.9473 14.6047 19.1431 15.3829C19.167 15.4804 19.2301 15.5735 19.2018 15.6733C19.7216 16.2054 20.322 16.2985 20.8244 15.6977C21.1659 15.2964 21.3747 14.8353 21.329 14.2832V14.2832ZM21.329 14.2832C21.3159 14.1347 21.3246 13.9839 21.3246 13.8354C21.2463 13.7866 21.2311 13.6824 21.1898 13.6004C20.8266 12.8732 20.2458 12.7735 19.676 13.3477C19.1105 13.9174 18.9473 14.6047 19.1431 15.3829C19.167 15.4804 19.2301 15.5735 19.2018 15.6733C19.7216 16.2054 20.322 16.2985 20.8244 15.6977C21.1659 15.2964 21.3747 14.8353 21.329 14.2832V14.2832ZM18.1274 9.7384C17.8185 8.8117 16.8876 8.59887 16.2155 9.29722C15.5195 10.02 15.3847 11.359 15.9284 12.1305C16.4461 12.8621 17.2769 12.8621 17.8033 12.1305C17.9403 11.9399 18.0556 11.7337 18.1752 11.5319C18.1817 11.5231 18.1883 11.5142 18.1948 11.5053C18.2557 11.0553 18.2057 10.5919 18.3296 10.1508C18.2122 10.0399 18.1774 9.88694 18.1274 9.74062V9.7384ZM18.1274 9.7384C17.8185 8.8117 16.8876 8.59887 16.2155 9.29722C15.5195 10.02 15.3847 11.359 15.9284 12.1305C16.4461 12.8621 17.2769 12.8621 17.8033 12.1305C17.9403 11.9399 18.0556 11.7337 18.1752 11.5319C18.1817 11.5231 18.1883 11.5142 18.1948 11.5053C18.2557 11.0553 18.2057 10.5919 18.3296 10.1508C18.2122 10.0399 18.1774 9.88694 18.1274 9.74062V9.7384ZM21.329 14.2832C21.3159 14.1347 21.3246 13.9839 21.3246 13.8354C21.2463 13.7866 21.2311 13.6824 21.1898 13.6004C20.8266 12.8732 20.2458 12.7735 19.676 13.3477C19.1105 13.9174 18.9473 14.6047 19.1431 15.3829C19.167 15.4804 19.2301 15.5735 19.2018 15.6733C19.7216 16.2054 20.322 16.2985 20.8244 15.6977C21.1659 15.2964 21.3747 14.8353 21.329 14.2832V14.2832ZM21.329 14.2832C21.3159 14.1347 21.3246 13.9839 21.3246 13.8354C21.2463 13.7866 21.2311 13.6824 21.1898 13.6004C20.8266 12.8732 20.2458 12.7735 19.676 13.3477C19.1105 13.9174 18.9473 14.6047 19.1431 15.3829C19.167 15.4804 19.2301 15.5735 19.2018 15.6733C19.7216 16.2054 20.322 16.2985 20.8244 15.6977C21.1659 15.2964 21.3747 14.8353 21.329 14.2832V14.2832ZM18.1274 9.7384C17.8185 8.8117 16.8876 8.59887 16.2155 9.29722C15.5195 10.02 15.3847 11.359 15.9284 12.1305C16.4461 12.8621 17.2769 12.8621 17.8033 12.1305C17.9403 11.9399 18.0556 11.7337 18.1752 11.5319C18.1817 11.5231 18.1883 11.5142 18.1948 11.5053C18.2557 11.0553 18.2057 10.5919 18.3296 10.1508C18.2122 10.0399 18.1774 9.88694 18.1274 9.74062V9.7384ZM18.1274 9.7384C17.8185 8.8117 16.8876 8.59887 16.2155 9.29722C15.5195 10.02 15.3847 11.359 15.9284 12.1305C16.4461 12.8621 17.2769 12.8621 17.8033 12.1305C17.9403 11.9399 18.0556 11.7337 18.1752 11.5319C18.1817 11.5231 18.1883 11.5142 18.1948 11.5053C18.2557 11.0553 18.2057 10.5919 18.3296 10.1508C18.2122 10.0399 18.1774 9.88694 18.1274 9.74062V9.7384ZM21.329 14.2832C21.3159 14.1347 21.3246 13.9839 21.3246 13.8354C21.2463 13.7866 21.2311 13.6824 21.1898 13.6004C20.8266 12.8732 20.2458 12.7735 19.676 13.3477C19.1105 13.9174 18.9473 14.6047 19.1431 15.3829C19.167 15.4804 19.2301 15.5735 19.2018 15.6733C19.7216 16.2054 20.322 16.2985 20.8244 15.6977C21.1659 15.2964 21.3747 14.8353 21.329 14.2832V14.2832ZM21.3246 13.8465V13.8354C21.2463 13.7866 21.2311 13.6824 21.1898 13.6004C20.8266 12.8732 20.2458 12.7735 19.676 13.3477C19.1105 13.9174 18.9473 14.6047 19.1431 15.3829C19.167 15.4804 19.2301 15.5735 19.2018 15.6733C19.7216 16.2054 20.322 16.2985 20.8244 15.6977C21.1659 15.2964 21.3747 14.8353 21.329 14.2832C21.3181 14.1391 21.3246 13.9906 21.3246 13.8465V13.8465ZM18.1274 9.74062C17.8185 8.81392 16.8876 8.60109 16.2155 9.29944C15.5195 10.0222 15.3847 11.3612 15.9284 12.1327C16.4461 12.8644 17.2769 12.8644 17.8033 12.1327C17.9403 11.9421 18.0556 11.7359 18.1752 11.5342C18.1817 11.5253 18.1883 11.5164 18.1948 11.5076C18.2557 11.0575 18.2057 10.5942 18.3296 10.153C18.2122 10.0421 18.1774 9.88916 18.1274 9.74284V9.74062ZM28.3238 10.8513C26.8057 9.57656 25.2788 8.31288 23.7454 7.05585C23.5345 6.88293 23.4561 6.70557 23.4583 6.43288C23.4714 5.00292 23.467 3.57297 23.4649 2.14301C23.4649 1.55772 23.1342 1.16975 22.597 1.15867C21.8118 1.14093 21.0245 1.14315 20.2393 1.15867C19.7456 1.16754 19.3997 1.53777 19.3823 2.05211C19.3671 2.44452 19.3823 2.84136 19.378 3.23377C19.378 3.30249 19.4215 3.39561 19.2997 3.43995C18.1448 2.49108 16.9811 1.53999 15.824 0.582251C14.8909 -0.189261 14.1079 -0.195912 13.1749 0.573383C10.5692 2.71721 7.9657 4.86325 5.35785 7.00708C3.80924 8.27963 2.26063 9.55218 0.709849 10.8247C0.109545 11.3191 -0.127531 11.9576 0.066045 12.7158C0.253096 13.4563 0.729424 13.9174 1.49068 14.0394C2.18668 13.9928 2.88269 14.0283 3.57869 14.0194C3.98107 14.015 3.98107 14.0194 3.98107 14.4318C3.9615 17.7728 4.0224 21.1271 3.95932 24.4614C4.092 25.3925 4.81193 26 5.79721 26C11.7393 26 17.6837 26 23.6258 26C24.8873 26 25.592 25.2728 25.5942 23.9848C25.5942 20.7967 25.5985 17.6109 25.5855 14.4229C25.5855 14.1081 25.6768 14.046 25.9552 14.0615C26.3859 14.0837 26.8187 14.066 27.2494 14.0682C27.5669 14.0682 27.8627 13.9884 28.1346 13.8265C29.2004 13.1903 29.3048 11.6783 28.3195 10.8513H28.3238ZM15.5543 8.55453C16.5331 7.57019 18.0099 7.63892 18.7864 8.89595C18.9821 9.21298 19.1518 9.53444 19.1627 9.91798C19.3236 10.1973 19.254 10.5121 19.2866 10.8092C19.1714 11.257 19.1735 11.7426 18.9038 12.1438C18.9669 12.2636 18.8973 12.3567 18.8429 12.452C18.4493 13.1304 17.9077 13.6048 17.1203 13.7445C17.0899 13.7534 17.0573 13.76 17.0246 13.7622C16.9768 13.7578 16.9289 13.7534 16.8963 13.709C14.2972 13.5538 14.0209 10.0244 15.5521 8.55453H15.5543ZM10.2538 8.91812C11.039 7.72095 12.4288 7.59458 13.4293 8.58335C14.1079 9.2551 14.3689 10.1042 14.3863 11.0752C14.3668 11.9598 14.0557 12.7513 13.3315 13.2945C12.4506 13.9551 11.2782 13.7378 10.5387 12.8444C9.65568 11.778 9.51213 10.0532 10.2538 8.92034V8.91812ZM7.61334 16.5202C6.74986 15.6378 6.46929 14.5515 6.84774 13.3676C7.08264 12.636 7.59812 12.0884 8.41157 11.9997C9.94496 11.8423 10.9476 13.4452 10.9302 14.8929C10.9498 16.7241 9.0619 17.9302 7.61334 16.5202ZM19.1648 20.3445C18.8234 21.2823 18.0077 21.9673 16.9572 21.821C16.6266 21.7744 16.3199 21.6481 16.0111 21.535C15.0367 21.1781 14.0666 21.218 13.09 21.5261C12.7442 21.6348 12.3962 21.7633 12.0417 21.8143C10.9324 21.974 10.2495 21.3377 9.85796 20.3733C9.42296 19.3025 9.53823 18.2605 10.1755 17.2983C10.517 16.784 10.9955 16.4625 11.6219 16.4271C11.8002 16.4182 11.8655 16.3184 11.9351 16.1854C12.2788 15.527 12.6659 14.9106 13.3228 14.5204C14.158 14.0238 15.1585 14.1258 15.8936 14.7754C16.3395 15.17 16.6614 15.6578 16.9398 16.181C17.0072 16.3096 17.0681 16.4226 17.253 16.4226C18.9234 16.416 19.7064 18.4999 19.2866 19.9277C19.3019 20.0851 19.2845 20.2314 19.1627 20.3445H19.1648ZM22.2186 14.9461C22.1033 15.9327 21.118 17.3471 19.6586 17.0877C19.043 16.9791 18.6167 16.5955 18.3557 16.0213C18.1861 15.7996 18.1469 15.5314 18.0839 15.2698C18.086 15.2631 18.0882 15.2565 18.0904 15.2498C18.0795 15.2254 18.0665 15.2011 18.0534 15.1767C17.9403 14.3675 18.1252 13.627 18.5754 12.9575C18.6472 12.8511 18.7124 12.6737 18.8886 12.7646V12.7602C18.98 12.5828 19.1148 12.4542 19.2953 12.3722C19.5607 12.1172 19.9196 12.0906 20.2393 11.9643C20.3611 11.9643 20.4829 11.9643 20.6047 11.9643C20.8483 12.0019 21.105 12.0064 21.2877 12.217C21.4704 12.3944 21.7118 12.5096 21.8205 12.7624C22.3338 13.4164 22.4556 14.148 22.2229 14.9439L22.2186 14.9461ZM21.3268 13.8465V13.8354C21.2485 13.7866 21.2333 13.6824 21.192 13.6004C20.8287 12.8732 20.248 12.7735 19.6781 13.3477C19.1126 13.9174 18.9495 14.6047 19.1453 15.3829C19.1692 15.4804 19.2323 15.5735 19.204 15.6733C19.7238 16.2054 20.3241 16.2985 20.8266 15.6977C21.168 15.2964 21.3768 14.8353 21.3312 14.2832C21.3203 14.1391 21.3268 13.9906 21.3268 13.8465V13.8465ZM17.8055 12.1305C17.9425 11.9399 18.0578 11.7337 18.1774 11.5319C18.1839 11.5231 18.1904 11.5142 18.197 11.5053C18.2579 11.0553 18.2078 10.5919 18.3318 10.1508C18.2144 10.0399 18.1796 9.88694 18.1295 9.74062C17.8207 8.81392 16.8898 8.60109 16.2177 9.29944C15.5217 10.0222 15.3868 11.3612 15.9306 12.1327C16.4483 12.8644 17.2791 12.8644 17.8055 12.1327V12.1305ZM18.1295 9.74062C17.8207 8.81392 16.8898 8.60109 16.2177 9.29944C15.5217 10.0222 15.3868 11.3612 15.9306 12.1327C16.4483 12.8644 17.2791 12.8644 17.8055 12.1327C17.9425 11.9421 18.0578 11.7359 18.1774 11.5342C18.1839 11.5253 18.1904 11.5164 18.197 11.5076C18.2579 11.0575 18.2078 10.5942 18.3318 10.153C18.2144 10.0421 18.1796 9.88916 18.1295 9.74284V9.74062ZM21.3312 14.2854C21.3181 14.1369 21.3268 13.9861 21.3268 13.8376C21.2485 13.7888 21.2333 13.6846 21.192 13.6026C20.8287 12.8754 20.248 12.7757 19.6781 13.3499C19.1126 13.9196 18.9495 14.6069 19.1453 15.3851C19.1692 15.4826 19.2323 15.5757 19.204 15.6755C19.7238 16.2076 20.3241 16.3007 20.8266 15.6999C21.168 15.2986 21.3768 14.8375 21.3312 14.2854V14.2854ZM21.3312 14.2854C21.3181 14.1369 21.3268 13.9861 21.3268 13.8376C21.2485 13.7888 21.2333 13.6846 21.192 13.6026C20.8287 12.8754 20.248 12.7757 19.6781 13.3499C19.1126 13.9196 18.9495 14.6069 19.1453 15.3851C19.1692 15.4826 19.2323 15.5757 19.204 15.6755C19.7238 16.2076 20.3241 16.3007 20.8266 15.6999C21.168 15.2986 21.3768 14.8375 21.3312 14.2854V14.2854ZM18.1295 9.74062C17.8207 8.81392 16.8898 8.60109 16.2177 9.29944C15.5217 10.0222 15.3868 11.3612 15.9306 12.1327C16.4483 12.8644 17.2791 12.8644 17.8055 12.1327C17.9425 11.9421 18.0578 11.7359 18.1774 11.5342C18.1839 11.5253 18.1904 11.5164 18.197 11.5076C18.2579 11.0575 18.2078 10.5942 18.3318 10.153C18.2144 10.0421 18.1796 9.88916 18.1295 9.74284V9.74062ZM18.1295 9.74062C17.8207 8.81392 16.8898 8.60109 16.2177 9.29944C15.5217 10.0222 15.3868 11.3612 15.9306 12.1327C16.4483 12.8644 17.2791 12.8644 17.8055 12.1327C17.9425 11.9421 18.0578 11.7359 18.1774 11.5342C18.1839 11.5253 18.1904 11.5164 18.197 11.5076C18.2579 11.0575 18.2078 10.5942 18.3318 10.153C18.2144 10.0421 18.1796 9.88916 18.1295 9.74284V9.74062ZM21.3312 14.2854C21.3181 14.1369 21.3268 13.9861 21.3268 13.8376C21.2485 13.7888 21.2333 13.6846 21.192 13.6026C20.8287 12.8754 20.248 12.7757 19.6781 13.3499C19.1126 13.9196 18.9495 14.6069 19.1453 15.3851C19.1692 15.4826 19.2323 15.5757 19.204 15.6755C19.7238 16.2076 20.3241 16.3007 20.8266 15.6999C21.168 15.2986 21.3768 14.8375 21.3312 14.2854V14.2854ZM21.3312 14.2854C21.3181 14.1369 21.3268 13.9861 21.3268 13.8376C21.2485 13.7888 21.2333 13.6846 21.192 13.6026C20.8287 12.8754 20.248 12.7757 19.6781 13.3499C19.1126 13.9196 18.9495 14.6069 19.1453 15.3851C19.1692 15.4826 19.2323 15.5757 19.204 15.6755C19.7238 16.2076 20.3241 16.3007 20.8266 15.6999C21.168 15.2986 21.3768 14.8375 21.3312 14.2854V14.2854ZM18.1295 9.74062C17.8207 8.81392 16.8898 8.60109 16.2177 9.29944C15.5217 10.0222 15.3868 11.3612 15.9306 12.1327C16.4483 12.8644 17.2791 12.8644 17.8055 12.1327C17.9425 11.9421 18.0578 11.7359 18.1774 11.5342C18.1839 11.5253 18.1904 11.5164 18.197 11.5076C18.2579 11.0575 18.2078 10.5942 18.3318 10.153C18.2144 10.0421 18.1796 9.88916 18.1295 9.74284V9.74062ZM18.1295 9.74062C17.8207 8.81392 16.8898 8.60109 16.2177 9.29944C15.5217 10.0222 15.3868 11.3612 15.9306 12.1327C16.4483 12.8644 17.2791 12.8644 17.8055 12.1327C17.9425 11.9421 18.0578 11.7359 18.1774 11.5342C18.1839 11.5253 18.1904 11.5164 18.197 11.5076C18.2579 11.0575 18.2078 10.5942 18.3318 10.153C18.2144 10.0421 18.1796 9.88916 18.1295 9.74284V9.74062ZM21.3312 14.2854C21.3181 14.1369 21.3268 13.9861 21.3268 13.8376C21.2485 13.7888 21.2333 13.6846 21.192 13.6026C20.8287 12.8754 20.248 12.7757 19.6781 13.3499C19.1126 13.9196 18.9495 14.6069 19.1453 15.3851C19.1692 15.4826 19.2323 15.5757 19.204 15.6755C19.7238 16.2076 20.3241 16.3007 20.8266 15.6999C21.168 15.2986 21.3768 14.8375 21.3312 14.2854V14.2854ZM21.3312 14.2854C21.3181 14.1369 21.3268 13.9861 21.3268 13.8376C21.2485 13.7888 21.2333 13.6846 21.192 13.6026C20.8287 12.8754 20.248 12.7757 19.6781 13.3499C19.1126 13.9196 18.9495 14.6069 19.1453 15.3851C19.1692 15.4826 19.2323 15.5757 19.204 15.6755C19.7238 16.2076 20.3241 16.3007 20.8266 15.6999C21.168 15.2986 21.3768 14.8375 21.3312 14.2854V14.2854ZM18.1295 9.74062C17.8207 8.81392 16.8898 8.60109 16.2177 9.29944C15.5217 10.0222 15.3868 11.3612 15.9306 12.1327C16.4483 12.8644 17.2791 12.8644 17.8055 12.1327C17.9425 11.9421 18.0578 11.7359 18.1774 11.5342C18.1839 11.5253 18.1904 11.5164 18.197 11.5076C18.2579 11.0575 18.2078 10.5942 18.3318 10.153C18.2144 10.0421 18.1796 9.88916 18.1295 9.74284V9.74062ZM18.1295 9.74062C17.8207 8.81392 16.8898 8.60109 16.2177 9.29944C15.5217 10.0222 15.3868 11.3612 15.9306 12.1327C16.4483 12.8644 17.2791 12.8644 17.8055 12.1327C17.9425 11.9421 18.0578 11.7359 18.1774 11.5342C18.1839 11.5253 18.1904 11.5164 18.197 11.5076C18.2579 11.0575 18.2078 10.5942 18.3318 10.153C18.2144 10.0421 18.1796 9.88916 18.1295 9.74284V9.74062ZM21.3312 14.2854C21.3181 14.1369 21.3268 13.9861 21.3268 13.8376C21.2485 13.7888 21.2333 13.6846 21.192 13.6026C20.8287 12.8754 20.248 12.7757 19.6781 13.3499C19.1126 13.9196 18.9495 14.6069 19.1453 15.3851C19.1692 15.4826 19.2323 15.5757 19.204 15.6755C19.7238 16.2076 20.3241 16.3007 20.8266 15.6999C21.168 15.2986 21.3768 14.8375 21.3312 14.2854V14.2854ZM21.3312 14.2854C21.3181 14.1369 21.3268 13.9861 21.3268 13.8376C21.2485 13.7888 21.2333 13.6846 21.192 13.6026C20.8287 12.8754 20.248 12.7757 19.6781 13.3499C19.1126 13.9196 18.9495 14.6069 19.1453 15.3851C19.1692 15.4826 19.2323 15.5757 19.204 15.6755C19.7238 16.2076 20.3241 16.3007 20.8266 15.6999C21.168 15.2986 21.3768 14.8375 21.3312 14.2854V14.2854ZM18.1295 9.74062C17.8207 8.81392 16.8898 8.60109 16.2177 9.29944C15.5217 10.0222 15.3868 11.3612 15.9306 12.1327C16.4483 12.8644 17.2791 12.8644 17.8055 12.1327C17.9425 11.9421 18.0578 11.7359 18.1774 11.5342C18.1839 11.5253 18.1904 11.5164 18.197 11.5076C18.2579 11.0575 18.2078 10.5942 18.3318 10.153C18.2144 10.0421 18.1796 9.88916 18.1295 9.74284V9.74062ZM18.1295 9.74062C17.8207 8.81392 16.8898 8.60109 16.2177 9.29944C15.5217 10.0222 15.3868 11.3612 15.9306 12.1327C16.4483 12.8644 17.2791 12.8644 17.8055 12.1327C17.9425 11.9421 18.0578 11.7359 18.1774 11.5342C18.1839 11.5253 18.1904 11.5164 18.197 11.5076C18.2579 11.0575 18.2078 10.5942 18.3318 10.153C18.2144 10.0421 18.1796 9.88916 18.1295 9.74284V9.74062ZM18.1295 9.74062C17.8207 8.81392 16.8898 8.60109 16.2177 9.29944C15.5217 10.0222 15.3868 11.3612 15.9306 12.1327C16.4483 12.8644 17.2791 12.8644 17.8055 12.1327C17.9425 11.9421 18.0578 11.7359 18.1774 11.5342C18.1839 11.5253 18.1904 11.5164 18.197 11.5076C18.2579 11.0575 18.2078 10.5942 18.3318 10.153C18.2144 10.0421 18.1796 9.88916 18.1295 9.74284V9.74062Z" fill="url(#paint0_linear_458_19)"/>
<defs>
<linearGradient id="paint0_linear_458_19" x1="14.5" y1="0" x2="14.5" y2="26" gradientUnits="userSpaceOnUse">
<stop stop-color="#EE5B1D"/>
<stop offset="1" stop-color="#DF4300"/>
</linearGradient>
</defs>
</svg>
