<svg width="29" height="22" viewBox="0 0 29 22" fill="none" xmlns="http://www.w3.org/2000/svg">
<path fill-rule="evenodd" clip-rule="evenodd" d="M3.625 0C2.66359 0 1.74156 0.379898 1.06174 1.05612C0.381919 1.73234 0 2.6495 0 3.60582L0 18.0291C0 18.9854 0.381919 19.9026 1.06174 20.5788C1.74156 21.255 2.66359 21.6349 3.625 21.6349H25.375C26.3364 21.6349 27.2584 21.255 27.9383 20.5788C28.6181 19.9026 29 18.9854 29 18.0291V3.60582C29 2.6495 28.6181 1.73234 27.9383 1.05612C27.2584 0.379898 26.3364 0 25.375 0H3.625ZM14.5 4.50728C14.5 4.26819 14.4045 4.03891 14.2346 3.86985C14.0646 3.70079 13.8341 3.60582 13.5938 3.60582C13.3534 3.60582 13.1229 3.70079 12.9529 3.86985C12.783 4.03891 12.6875 4.26819 12.6875 4.50728V17.1276C12.6875 17.3667 12.783 17.596 12.9529 17.7651C13.1229 17.9341 13.3534 18.0291 13.5938 18.0291C13.8341 18.0291 14.0646 17.9341 14.2346 17.7651C14.4045 17.596 14.5 17.3667 14.5 17.1276V4.50728ZM3.625 6.31019C3.625 6.0711 3.72048 5.84182 3.89043 5.67276C4.06039 5.50371 4.2909 5.40873 4.53125 5.40873H9.96875C10.2091 5.40873 10.4396 5.50371 10.6096 5.67276C10.7795 5.84182 10.875 6.0711 10.875 6.31019C10.875 6.54927 10.7795 6.77855 10.6096 6.94761C10.4396 7.11667 10.2091 7.21164 9.96875 7.21164H4.53125C4.2909 7.21164 4.06039 7.11667 3.89043 6.94761C3.72048 6.77855 3.625 6.54927 3.625 6.31019ZM3.625 9.91601C3.625 9.67693 3.72048 9.44764 3.89043 9.27858C4.06039 9.10953 4.2909 9.01455 4.53125 9.01455H9.96875C10.2091 9.01455 10.4396 9.10953 10.6096 9.27858C10.7795 9.44764 10.875 9.67693 10.875 9.91601C10.875 10.1551 10.7795 10.3844 10.6096 10.5534C10.4396 10.7225 10.2091 10.8175 9.96875 10.8175H4.53125C4.2909 10.8175 4.06039 10.7225 3.89043 10.5534C3.72048 10.3844 3.625 10.1551 3.625 9.91601ZM3.625 13.5218C3.625 13.2827 3.72048 13.0535 3.89043 12.8844C4.06039 12.7153 4.2909 12.6204 4.53125 12.6204H9.96875C10.2091 12.6204 10.4396 12.7153 10.6096 12.8844C10.7795 13.0535 10.875 13.2827 10.875 13.5218C10.875 13.7609 10.7795 13.9902 10.6096 14.1593C10.4396 14.3283 10.2091 14.4233 9.96875 14.4233H4.53125C4.2909 14.4233 4.06039 14.3283 3.89043 14.1593C3.72048 13.9902 3.625 13.7609 3.625 13.5218Z" fill="url(#paint0_linear_495_7)"/>
<path d="M22.6137 8.79966C22.5108 8.48794 22.2005 8.41634 21.9765 8.65126C21.7445 8.89438 21.6995 9.34482 21.8808 9.60434C22.0533 9.85044 22.3303 9.85044 22.5057 9.60434C22.5514 9.54021 22.5898 9.47085 22.6297 9.40299C22.6319 9.4 22.634 9.39702 22.6362 9.39404C22.6565 9.24265 22.6398 9.08678 22.6812 8.93838C22.642 8.90109 22.6304 8.84963 22.6137 8.80041V8.79966ZM22.6137 8.79966C22.5108 8.48794 22.2005 8.41634 21.9765 8.65126C21.7445 8.89438 21.6995 9.34482 21.8808 9.60434C22.0533 9.85044 22.3303 9.85044 22.5057 9.60434C22.5514 9.54021 22.5898 9.47085 22.6297 9.40299C22.6319 9.4 22.634 9.39702 22.6362 9.39404C22.6565 9.24265 22.6398 9.08678 22.6812 8.93838C22.642 8.90109 22.6304 8.84963 22.6137 8.80041V8.79966ZM22.6137 8.79966C22.5108 8.48794 22.2005 8.41634 21.9765 8.65126C21.7445 8.89438 21.6995 9.34482 21.8808 9.60434C22.0533 9.85044 22.3303 9.85044 22.5057 9.60434C22.5514 9.54021 22.5898 9.47085 22.6297 9.40299C22.6319 9.4 22.634 9.39702 22.6362 9.39404C22.6565 9.24265 22.6398 9.08678 22.6812 8.93838C22.642 8.90109 22.6304 8.84963 22.6137 8.80041V8.79966ZM23.681 10.3285C23.6766 10.2785 23.6795 10.2278 23.6795 10.1778C23.6534 10.1614 23.6483 10.1264 23.6346 10.0988C23.5135 9.85417 23.3199 9.82061 23.1299 10.0138C22.9414 10.2054 22.8871 10.4366 22.9523 10.6984C22.9603 10.7312 22.9813 10.7625 22.9719 10.7961C23.1452 10.9751 23.3453 11.0064 23.5127 10.8043C23.6266 10.6693 23.6962 10.5142 23.681 10.3285V10.3285ZM23.681 10.3285C23.6766 10.2785 23.6795 10.2278 23.6795 10.1778C23.6534 10.1614 23.6483 10.1264 23.6346 10.0988C23.5135 9.85417 23.3199 9.82061 23.1299 10.0138C22.9414 10.2054 22.8871 10.4366 22.9523 10.6984C22.9603 10.7312 22.9813 10.7625 22.9719 10.7961C23.1452 10.9751 23.3453 11.0064 23.5127 10.8043C23.6266 10.6693 23.6962 10.5142 23.681 10.3285V10.3285ZM22.6137 8.79966C22.5108 8.48794 22.2005 8.41634 21.9765 8.65126C21.7445 8.89438 21.6995 9.34482 21.8808 9.60434C22.0533 9.85044 22.3303 9.85044 22.5057 9.60434C22.5514 9.54021 22.5898 9.47085 22.6297 9.40299C22.6319 9.4 22.634 9.39702 22.6362 9.39404C22.6565 9.24265 22.6398 9.08678 22.6812 8.93838C22.642 8.90109 22.6304 8.84963 22.6137 8.80041V8.79966ZM22.6137 8.79966C22.5108 8.48794 22.2005 8.41634 21.9765 8.65126C21.7445 8.89438 21.6995 9.34482 21.8808 9.60434C22.0533 9.85044 22.3303 9.85044 22.5057 9.60434C22.5514 9.54021 22.5898 9.47085 22.6297 9.40299C22.6319 9.4 22.634 9.39702 22.6362 9.39404C22.6565 9.24265 22.6398 9.08678 22.6812 8.93838C22.642 8.90109 22.6304 8.84963 22.6137 8.80041V8.79966ZM23.681 10.3285C23.6766 10.2785 23.6795 10.2278 23.6795 10.1778C23.6534 10.1614 23.6483 10.1264 23.6346 10.0988C23.5135 9.85417 23.3199 9.82061 23.1299 10.0138C22.9414 10.2054 22.8871 10.4366 22.9523 10.6984C22.9603 10.7312 22.9813 10.7625 22.9719 10.7961C23.1452 10.9751 23.3453 11.0064 23.5127 10.8043C23.6266 10.6693 23.6962 10.5142 23.681 10.3285V10.3285ZM23.681 10.3285C23.6766 10.2785 23.6795 10.2278 23.6795 10.1778C23.6534 10.1614 23.6483 10.1264 23.6346 10.0988C23.5135 9.85417 23.3199 9.82061 23.1299 10.0138C22.9414 10.2054 22.8871 10.4366 22.9523 10.6984C22.9603 10.7312 22.9813 10.7625 22.9719 10.7961C23.1452 10.9751 23.3453 11.0064 23.5127 10.8043C23.6266 10.6693 23.6962 10.5142 23.681 10.3285V10.3285ZM22.6137 8.79966C22.5108 8.48794 22.2005 8.41634 21.9765 8.65126C21.7445 8.89438 21.6995 9.34482 21.8808 9.60434C22.0533 9.85044 22.3303 9.85044 22.5057 9.60434C22.5514 9.54021 22.5898 9.47085 22.6297 9.40299C22.6319 9.4 22.634 9.39702 22.6362 9.39404C22.6565 9.24265 22.6398 9.08678 22.6812 8.93838C22.642 8.90109 22.6304 8.84963 22.6137 8.80041V8.79966ZM22.6137 8.79966C22.5108 8.48794 22.2005 8.41634 21.9765 8.65126C21.7445 8.89438 21.6995 9.34482 21.8808 9.60434C22.0533 9.85044 22.3303 9.85044 22.5057 9.60434C22.5514 9.54021 22.5898 9.47085 22.6297 9.40299C22.6319 9.4 22.634 9.39702 22.6362 9.39404C22.6565 9.24265 22.6398 9.08678 22.6812 8.93838C22.642 8.90109 22.6304 8.84963 22.6137 8.80041V8.79966ZM23.681 10.3285C23.6766 10.2785 23.6795 10.2278 23.6795 10.1778C23.6534 10.1614 23.6483 10.1264 23.6346 10.0988C23.5135 9.85417 23.3199 9.82061 23.1299 10.0138C22.9414 10.2054 22.8871 10.4366 22.9523 10.6984C22.9603 10.7312 22.9813 10.7625 22.9719 10.7961C23.1452 10.9751 23.3453 11.0064 23.5127 10.8043C23.6266 10.6693 23.6962 10.5142 23.681 10.3285V10.3285ZM23.681 10.3285C23.6766 10.2785 23.6795 10.2278 23.6795 10.1778C23.6534 10.1614 23.6483 10.1264 23.6346 10.0988C23.5135 9.85417 23.3199 9.82061 23.1299 10.0138C22.9414 10.2054 22.8871 10.4366 22.9523 10.6984C22.9603 10.7312 22.9813 10.7625 22.9719 10.7961C23.1452 10.9751 23.3453 11.0064 23.5127 10.8043C23.6266 10.6693 23.6962 10.5142 23.681 10.3285V10.3285ZM22.6137 8.79966C22.5108 8.48794 22.2005 8.41634 21.9765 8.65126C21.7445 8.89438 21.6995 9.34482 21.8808 9.60434C22.0533 9.85044 22.3303 9.85044 22.5057 9.60434C22.5514 9.54021 22.5898 9.47085 22.6297 9.40299C22.6319 9.4 22.634 9.39702 22.6362 9.39404C22.6565 9.24265 22.6398 9.08678 22.6812 8.93838C22.642 8.90109 22.6304 8.84963 22.6137 8.80041V8.79966ZM22.6137 8.79966C22.5108 8.48794 22.2005 8.41634 21.9765 8.65126C21.7445 8.89438 21.6995 9.34482 21.8808 9.60434C22.0533 9.85044 22.3303 9.85044 22.5057 9.60434C22.5514 9.54021 22.5898 9.47085 22.6297 9.40299C22.6319 9.4 22.634 9.39702 22.6362 9.39404C22.6565 9.24265 22.6398 9.08678 22.6812 8.93838C22.642 8.90109 22.6304 8.84963 22.6137 8.80041V8.79966ZM23.681 10.3285C23.6766 10.2785 23.6795 10.2278 23.6795 10.1778C23.6534 10.1614 23.6483 10.1264 23.6346 10.0988C23.5135 9.85417 23.3199 9.82061 23.1299 10.0138C22.9414 10.2054 22.8871 10.4366 22.9523 10.6984C22.9603 10.7312 22.9813 10.7625 22.9719 10.7961C23.1452 10.9751 23.3453 11.0064 23.5127 10.8043C23.6266 10.6693 23.6962 10.5142 23.681 10.3285V10.3285ZM23.6795 10.1816V10.1778C23.6534 10.1614 23.6483 10.1264 23.6346 10.0988C23.5135 9.85417 23.3199 9.82061 23.1299 10.0138C22.9414 10.2054 22.8871 10.4366 22.9523 10.6984C22.9603 10.7312 22.9813 10.7625 22.9719 10.7961C23.1452 10.9751 23.3453 11.0064 23.5127 10.8043C23.6266 10.6693 23.6962 10.5142 23.681 10.3285C23.6773 10.28 23.6795 10.23 23.6795 10.1816V10.1816ZM22.6137 8.80041C22.5108 8.48868 22.2005 8.41709 21.9765 8.652C21.7445 8.89512 21.6995 9.34556 21.8808 9.60509C22.0533 9.85119 22.3303 9.85119 22.5057 9.60509C22.5514 9.54095 22.5898 9.4716 22.6297 9.40373C22.6319 9.40075 22.634 9.39777 22.6362 9.39478C22.6565 9.24339 22.6398 9.08753 22.6812 8.93912C22.642 8.90183 22.6304 8.85038 22.6137 8.80116V8.80041ZM26.0126 9.17404C25.5065 8.74522 24.9976 8.32014 24.4864 7.89729C24.4161 7.83912 24.39 7.77946 24.3907 7.68773C24.3951 7.20672 24.3936 6.7257 24.3929 6.24468C24.3929 6.0478 24.2827 5.91729 24.1036 5.91356C23.8419 5.9076 23.5795 5.90834 23.3177 5.91356C23.1531 5.91655 23.0379 6.04109 23.0321 6.21411C23.027 6.34611 23.0321 6.4796 23.0306 6.6116C23.0306 6.63472 23.0451 6.66604 23.0045 6.68095C22.6195 6.36177 22.2317 6.04183 21.846 5.71966C21.5349 5.46014 21.2739 5.4579 20.9629 5.71668C20.0944 6.43783 19.2265 7.15973 18.3572 7.88089C17.841 8.30895 17.3248 8.73702 16.8079 9.16509C16.6078 9.33139 16.5288 9.54617 16.5933 9.80122C16.6557 10.0503 16.8144 10.2054 17.0682 10.2464C17.3002 10.2308 17.5322 10.2427 17.7642 10.2397C17.8983 10.2382 17.8983 10.2397 17.8983 10.3784C17.8918 11.5023 17.9121 12.6306 17.8911 13.7523C17.9353 14.0655 18.1753 14.2698 18.5037 14.2698C20.4844 14.2698 22.4658 14.2698 24.4466 14.2698C24.8671 14.2698 25.102 14.0252 25.1027 13.5919C25.1027 12.5195 25.1041 11.4479 25.0998 10.3755C25.0998 10.2696 25.1302 10.2487 25.223 10.2539C25.3666 10.2614 25.5109 10.2554 25.6544 10.2561C25.7603 10.2561 25.8589 10.2293 25.9495 10.1749C26.3047 9.96082 26.3395 9.45221 26.0111 9.17404H26.0126ZM21.7561 8.40143C22.0823 8.07031 22.5746 8.09343 22.8334 8.51628C22.8987 8.62292 22.9552 8.73105 22.9588 8.86007C23.0125 8.95404 22.9893 9.05994 23.0002 9.15987C22.9617 9.31051 22.9625 9.47383 22.8726 9.60882C22.8936 9.64909 22.8704 9.68041 22.8523 9.71248C22.721 9.94068 22.5405 10.1003 22.2781 10.1473C22.2679 10.1502 22.257 10.1525 22.2462 10.1532C22.2302 10.1517 22.2143 10.1502 22.2034 10.1353C21.337 10.0831 21.2449 8.89587 21.7553 8.40143H21.7561ZM19.9892 8.52373C20.251 8.12102 20.7142 8.07851 21.0477 8.41112C21.2739 8.63709 21.3609 8.92272 21.3667 9.24936C21.3602 9.54692 21.2565 9.81316 21.0151 9.99587C20.7215 10.2181 20.3307 10.145 20.0842 9.84448C19.7898 9.48577 19.742 8.90556 19.9892 8.52448V8.52373ZM19.1091 11.081C18.8212 10.7841 18.7277 10.4187 18.8539 10.0205C18.9322 9.77438 19.104 9.59017 19.3751 9.56034C19.8863 9.50739 20.2205 10.0466 20.2147 10.5336C20.2212 11.1496 19.5919 11.5553 19.1091 11.081ZM22.9596 12.3674C22.8457 12.6829 22.5739 12.9133 22.2237 12.8641C22.1135 12.8484 22.0113 12.8059 21.9083 12.7679C21.5835 12.6478 21.2602 12.6612 20.9346 12.7649C20.8194 12.8014 20.7034 12.8447 20.5852 12.8618C20.2154 12.9155 19.9878 12.7015 19.8573 12.3771C19.7123 12.0169 19.7507 11.6664 19.9631 11.3427C20.077 11.1697 20.2365 11.0616 20.4453 11.0496C20.5047 11.0466 20.5265 11.0131 20.5497 10.9683C20.6642 10.7469 20.7933 10.5395 21.0122 10.4083C21.2906 10.2412 21.6241 10.2755 21.8692 10.494C22.0178 10.6268 22.1251 10.7909 22.2179 10.9669C22.2404 11.0101 22.2607 11.0481 22.3223 11.0481C22.8791 11.0459 23.1401 11.7469 23.0002 12.2272C23.0052 12.2801 22.9994 12.3294 22.9588 12.3674H22.9596ZM23.9775 10.5515C23.9391 10.8833 23.6106 11.3591 23.1241 11.2719C22.919 11.2353 22.7769 11.1063 22.6899 10.9132C22.6333 10.8386 22.6203 10.7483 22.5992 10.6603C22.6 10.6581 22.6007 10.6559 22.6014 10.6536C22.5978 10.6454 22.5934 10.6372 22.5891 10.629C22.5514 10.3568 22.613 10.1077 22.7631 9.88251C22.787 9.84672 22.8088 9.78706 22.8675 9.81763V9.81614C22.8979 9.75648 22.9429 9.71322 23.0031 9.68563C23.0915 9.59987 23.2111 9.59092 23.3177 9.54841C23.3583 9.54841 23.3989 9.54841 23.4395 9.54841C23.5207 9.56109 23.6063 9.56258 23.6672 9.63343C23.7281 9.69309 23.8086 9.73187 23.8448 9.81689C24.0159 10.0369 24.0565 10.283 23.9789 10.5507L23.9775 10.5515ZM23.6802 10.1816V10.1778C23.6541 10.1614 23.6491 10.1264 23.6353 10.0988C23.5142 9.85417 23.3206 9.82061 23.1307 10.0138C22.9422 10.2054 22.8878 10.4366 22.953 10.6984C22.961 10.7312 22.982 10.7625 22.9726 10.7961C23.1459 10.9751 23.346 11.0064 23.5135 10.8043C23.6273 10.6693 23.6969 10.5142 23.6817 10.3285C23.6781 10.28 23.6802 10.23 23.6802 10.1816V10.1816ZM22.5064 9.60434C22.5521 9.54021 22.5905 9.47085 22.6304 9.40299C22.6326 9.4 22.6348 9.39702 22.6369 9.39404C22.6572 9.24265 22.6406 9.08678 22.6819 8.93838C22.6427 8.90109 22.6311 8.84963 22.6145 8.80041C22.5115 8.48868 22.2012 8.41709 21.9772 8.652C21.7452 8.89512 21.7002 9.34556 21.8815 9.60509C22.054 9.85119 22.331 9.85119 22.5064 9.60509V9.60434ZM22.6145 8.80041C22.5115 8.48868 22.2012 8.41709 21.9772 8.652C21.7452 8.89512 21.7002 9.34556 21.8815 9.60509C22.054 9.85119 22.331 9.85119 22.5064 9.60509C22.5521 9.54095 22.5905 9.4716 22.6304 9.40373C22.6326 9.40075 22.6348 9.39777 22.6369 9.39478C22.6572 9.24339 22.6406 9.08753 22.6819 8.93912C22.6427 8.90183 22.6311 8.85038 22.6145 8.80116V8.80041ZM23.6817 10.3292C23.6773 10.2793 23.6802 10.2285 23.6802 10.1786C23.6541 10.1622 23.6491 10.1271 23.6353 10.0995C23.5142 9.85492 23.3206 9.82136 23.1307 10.0145C22.9422 10.2062 22.8878 10.4374 22.953 10.6991C22.961 10.7319 22.982 10.7633 22.9726 10.7968C23.1459 10.9758 23.346 11.0071 23.5135 10.805C23.6273 10.67 23.6969 10.5149 23.6817 10.3292V10.3292ZM23.6817 10.3292C23.6773 10.2793 23.6802 10.2285 23.6802 10.1786C23.6541 10.1622 23.6491 10.1271 23.6353 10.0995C23.5142 9.85492 23.3206 9.82136 23.1307 10.0145C22.9422 10.2062 22.8878 10.4374 22.953 10.6991C22.961 10.7319 22.982 10.7633 22.9726 10.7968C23.1459 10.9758 23.346 11.0071 23.5135 10.805C23.6273 10.67 23.6969 10.5149 23.6817 10.3292V10.3292ZM22.6145 8.80041C22.5115 8.48868 22.2012 8.41709 21.9772 8.652C21.7452 8.89512 21.7002 9.34556 21.8815 9.60509C22.054 9.85119 22.331 9.85119 22.5064 9.60509C22.5521 9.54095 22.5905 9.4716 22.6304 9.40373C22.6326 9.40075 22.6348 9.39777 22.6369 9.39478C22.6572 9.24339 22.6406 9.08753 22.6819 8.93912C22.6427 8.90183 22.6311 8.85038 22.6145 8.80116V8.80041ZM22.6145 8.80041C22.5115 8.48868 22.2012 8.41709 21.9772 8.652C21.7452 8.89512 21.7002 9.34556 21.8815 9.60509C22.054 9.85119 22.331 9.85119 22.5064 9.60509C22.5521 9.54095 22.5905 9.4716 22.6304 9.40373C22.6326 9.40075 22.6348 9.39777 22.6369 9.39478C22.6572 9.24339 22.6406 9.08753 22.6819 8.93912C22.6427 8.90183 22.6311 8.85038 22.6145 8.80116V8.80041ZM23.6817 10.3292C23.6773 10.2793 23.6802 10.2285 23.6802 10.1786C23.6541 10.1622 23.6491 10.1271 23.6353 10.0995C23.5142 9.85492 23.3206 9.82136 23.1307 10.0145C22.9422 10.2062 22.8878 10.4374 22.953 10.6991C22.961 10.7319 22.982 10.7633 22.9726 10.7968C23.1459 10.9758 23.346 11.0071 23.5135 10.805C23.6273 10.67 23.6969 10.5149 23.6817 10.3292V10.3292ZM23.6817 10.3292C23.6773 10.2793 23.6802 10.2285 23.6802 10.1786C23.6541 10.1622 23.6491 10.1271 23.6353 10.0995C23.5142 9.85492 23.3206 9.82136 23.1307 10.0145C22.9422 10.2062 22.8878 10.4374 22.953 10.6991C22.961 10.7319 22.982 10.7633 22.9726 10.7968C23.1459 10.9758 23.346 11.0071 23.5135 10.805C23.6273 10.67 23.6969 10.5149 23.6817 10.3292V10.3292ZM22.6145 8.80041C22.5115 8.48868 22.2012 8.41709 21.9772 8.652C21.7452 8.89512 21.7002 9.34556 21.8815 9.60509C22.054 9.85119 22.331 9.85119 22.5064 9.60509C22.5521 9.54095 22.5905 9.4716 22.6304 9.40373C22.6326 9.40075 22.6348 9.39777 22.6369 9.39478C22.6572 9.24339 22.6406 9.08753 22.6819 8.93912C22.6427 8.90183 22.6311 8.85038 22.6145 8.80116V8.80041ZM22.6145 8.80041C22.5115 8.48868 22.2012 8.41709 21.9772 8.652C21.7452 8.89512 21.7002 9.34556 21.8815 9.60509C22.054 9.85119 22.331 9.85119 22.5064 9.60509C22.5521 9.54095 22.5905 9.4716 22.6304 9.40373C22.6326 9.40075 22.6348 9.39777 22.6369 9.39478C22.6572 9.24339 22.6406 9.08753 22.6819 8.93912C22.6427 8.90183 22.6311 8.85038 22.6145 8.80116V8.80041ZM23.6817 10.3292C23.6773 10.2793 23.6802 10.2285 23.6802 10.1786C23.6541 10.1622 23.6491 10.1271 23.6353 10.0995C23.5142 9.85492 23.3206 9.82136 23.1307 10.0145C22.9422 10.2062 22.8878 10.4374 22.953 10.6991C22.961 10.7319 22.982 10.7633 22.9726 10.7968C23.1459 10.9758 23.346 11.0071 23.5135 10.805C23.6273 10.67 23.6969 10.5149 23.6817 10.3292V10.3292ZM23.6817 10.3292C23.6773 10.2793 23.6802 10.2285 23.6802 10.1786C23.6541 10.1622 23.6491 10.1271 23.6353 10.0995C23.5142 9.85492 23.3206 9.82136 23.1307 10.0145C22.9422 10.2062 22.8878 10.4374 22.953 10.6991C22.961 10.7319 22.982 10.7633 22.9726 10.7968C23.1459 10.9758 23.346 11.0071 23.5135 10.805C23.6273 10.67 23.6969 10.5149 23.6817 10.3292V10.3292ZM22.6145 8.80041C22.5115 8.48868 22.2012 8.41709 21.9772 8.652C21.7452 8.89512 21.7002 9.34556 21.8815 9.60509C22.054 9.85119 22.331 9.85119 22.5064 9.60509C22.5521 9.54095 22.5905 9.4716 22.6304 9.40373C22.6326 9.40075 22.6348 9.39777 22.6369 9.39478C22.6572 9.24339 22.6406 9.08753 22.6819 8.93912C22.6427 8.90183 22.6311 8.85038 22.6145 8.80116V8.80041ZM22.6145 8.80041C22.5115 8.48868 22.2012 8.41709 21.9772 8.652C21.7452 8.89512 21.7002 9.34556 21.8815 9.60509C22.054 9.85119 22.331 9.85119 22.5064 9.60509C22.5521 9.54095 22.5905 9.4716 22.6304 9.40373C22.6326 9.40075 22.6348 9.39777 22.6369 9.39478C22.6572 9.24339 22.6406 9.08753 22.6819 8.93912C22.6427 8.90183 22.6311 8.85038 22.6145 8.80116V8.80041ZM23.6817 10.3292C23.6773 10.2793 23.6802 10.2285 23.6802 10.1786C23.6541 10.1622 23.6491 10.1271 23.6353 10.0995C23.5142 9.85492 23.3206 9.82136 23.1307 10.0145C22.9422 10.2062 22.8878 10.4374 22.953 10.6991C22.961 10.7319 22.982 10.7633 22.9726 10.7968C23.1459 10.9758 23.346 11.0071 23.5135 10.805C23.6273 10.67 23.6969 10.5149 23.6817 10.3292V10.3292ZM23.6817 10.3292C23.6773 10.2793 23.6802 10.2285 23.6802 10.1786C23.6541 10.1622 23.6491 10.1271 23.6353 10.0995C23.5142 9.85492 23.3206 9.82136 23.1307 10.0145C22.9422 10.2062 22.8878 10.4374 22.953 10.6991C22.961 10.7319 22.982 10.7633 22.9726 10.7968C23.1459 10.9758 23.346 11.0071 23.5135 10.805C23.6273 10.67 23.6969 10.5149 23.6817 10.3292V10.3292ZM22.6145 8.80041C22.5115 8.48868 22.2012 8.41709 21.9772 8.652C21.7452 8.89512 21.7002 9.34556 21.8815 9.60509C22.054 9.85119 22.331 9.85119 22.5064 9.60509C22.5521 9.54095 22.5905 9.4716 22.6304 9.40373C22.6326 9.40075 22.6348 9.39777 22.6369 9.39478C22.6572 9.24339 22.6406 9.08753 22.6819 8.93912C22.6427 8.90183 22.6311 8.85038 22.6145 8.80116V8.80041ZM22.6145 8.80041C22.5115 8.48868 22.2012 8.41709 21.9772 8.652C21.7452 8.89512 21.7002 9.34556 21.8815 9.60509C22.054 9.85119 22.331 9.85119 22.5064 9.60509C22.5521 9.54095 22.5905 9.4716 22.6304 9.40373C22.6326 9.40075 22.6348 9.39777 22.6369 9.39478C22.6572 9.24339 22.6406 9.08753 22.6819 8.93912C22.6427 8.90183 22.6311 8.85038 22.6145 8.80116V8.80041ZM22.6145 8.80041C22.5115 8.48868 22.2012 8.41709 21.9772 8.652C21.7452 8.89512 21.7002 9.34556 21.8815 9.60509C22.054 9.85119 22.331 9.85119 22.5064 9.60509C22.5521 9.54095 22.5905 9.4716 22.6304 9.40373C22.6326 9.40075 22.6348 9.39777 22.6369 9.39478C22.6572 9.24339 22.6406 9.08753 22.6819 8.93912C22.6427 8.90183 22.6311 8.85038 22.6145 8.80116V8.80041Z" fill="white"/>
<defs>
<linearGradient id="paint0_linear_495_7" x1="14.5" y1="0" x2="14.5" y2="21.6349" gradientUnits="userSpaceOnUse">
<stop stop-color="#EE5B1D"/>
<stop offset="1" stop-color="#DF4300"/>
</linearGradient>
</defs>
</svg>
