<svg width="33" height="33" viewBox="0 0 33 33" fill="none" xmlns="http://www.w3.org/2000/svg">
<path d="M16.1111 0.5C13.0235 0.5 10.0053 1.41558 7.43805 3.13095C4.87082 4.84632 2.8699 7.28444 1.68833 10.137C0.506764 12.9896 0.197612 16.1284 0.79997 19.1567C1.40233 22.1849 2.88914 24.9666 5.0724 27.1498C7.25565 29.3331 10.0373 30.8199 13.0655 31.4223C16.0938 32.0246 19.2327 31.7155 22.0852 30.5339C24.9378 29.3523 27.3759 27.3514 29.0913 24.7842C30.8067 22.2169 31.7222 19.1987 31.7222 16.1111C31.7222 11.9708 30.0775 8.00004 27.1498 5.07239C24.2222 2.14474 20.2514 0.5 16.1111 0.5ZM16.1111 28.8333C13.5949 28.8333 11.1352 28.0872 9.04303 26.6893C6.95087 25.2913 5.32023 23.3044 4.35732 20.9797C3.3944 18.655 3.14246 16.097 3.63335 13.6291C4.12424 11.1613 5.33591 8.89438 7.11515 7.11514C8.89438 5.33591 11.1613 4.12423 13.6291 3.63334C16.097 3.14245 18.655 3.3944 20.9797 4.35731C23.3044 5.32023 25.2913 6.95086 26.6893 9.04302C28.0872 11.1352 28.8333 13.5949 28.8333 16.1111C28.8333 19.4853 27.493 22.7212 25.1071 25.1071C22.7212 27.493 19.4853 28.8333 16.1111 28.8333Z" fill="#2CDF53" stroke="#2CDF53"/>
<path d="M23.871 10.1845L13.7412 20.2687L8.43339 14.9608C8.17101 14.6816 7.80919 14.5167 7.42604 14.502C7.03937 14.4872 6.66264 14.6266 6.37874 14.8895C6.09484 15.1525 5.92702 15.5174 5.9122 15.9041C5.89738 16.2908 6.03678 16.6675 6.29972 16.9514L6.30645 16.9587L6.31347 16.9657L13.3874 24.0207L13.7405 24.3728L14.0936 24.0206L25.9075 12.235C25.9078 12.2348 25.908 12.2346 25.9082 12.2343C26.0433 12.1002 26.1505 11.9407 26.2237 11.7649C26.2971 11.5889 26.3348 11.4001 26.3348 11.2094C26.3348 11.0187 26.2971 10.8299 26.2237 10.6539C26.1504 10.4779 26.0429 10.3181 25.9075 10.1839C25.6369 9.91508 25.271 9.76422 24.8896 9.76422C24.508 9.76422 24.1419 9.91523 23.8713 10.1843L23.871 10.1845Z" fill="#2CDF53" stroke="#2CDF53"/>
</svg>
