<svg width="31" height="31" viewBox="0 0 31 31" fill="none" xmlns="http://www.w3.org/2000/svg">
<path d="M18.9472 20.6514L11.4472 15.6514L18.9472 10.6514C19.0457 10.5857 19.1303 10.5013 19.1962 10.403C19.262 10.3046 19.3079 10.1942 19.3311 10.0782C19.3543 9.96209 19.3544 9.84258 19.3315 9.72646C19.3085 9.61034 19.2629 9.49988 19.1972 9.40139C19.1316 9.3029 19.0471 9.2183 18.9488 9.15244C18.8504 9.08657 18.7401 9.04072 18.624 9.0175C18.5079 8.99429 18.3884 8.99416 18.2723 9.01714C18.1562 9.04011 18.0457 9.08573 17.9472 9.15139L9.44522 14.8194C9.30827 14.9107 9.19597 15.0344 9.1183 15.1796C9.04064 15.3247 9 15.4868 9 15.6514C9 15.816 9.04064 15.9781 9.1183 16.1232C9.19597 16.2683 9.30827 16.3921 9.44522 16.4834L17.9472 22.1514C18.0457 22.217 18.1562 22.2627 18.2723 22.2856C18.3884 22.3086 18.5079 22.3085 18.624 22.2853C18.7401 22.2621 18.8504 22.2162 18.9488 22.1503C19.0471 22.0845 19.1316 21.9999 19.1972 21.9014C19.2629 21.8029 19.3085 21.6924 19.3315 21.5763C19.3544 21.4602 19.3543 21.3407 19.3311 21.2246C19.3079 21.1085 19.262 20.9982 19.1962 20.8998C19.1303 20.8015 19.0457 20.717 18.9472 20.6514Z" fill="white"/>
<path d="M18.9472 20.6514L11.4472 15.6514L18.9472 10.6514C19.0457 10.5857 19.1303 10.5013 19.1962 10.403C19.262 10.3046 19.3079 10.1942 19.3311 10.0782C19.3543 9.96209 19.3544 9.84258 19.3315 9.72646C19.3085 9.61034 19.2629 9.49988 19.1972 9.40139C19.1316 9.3029 19.0471 9.2183 18.9488 9.15244C18.8504 9.08657 18.7401 9.04072 18.624 9.0175C18.5079 8.99429 18.3884 8.99416 18.2723 9.01714C18.1562 9.04011 18.0457 9.08573 17.9472 9.15139L9.44522 14.8194C9.30827 14.9107 9.19597 15.0344 9.1183 15.1796C9.04064 15.3247 9 15.4868 9 15.6514C9 15.816 9.04064 15.9781 9.1183 16.1232C9.19597 16.2683 9.30827 16.3921 9.44522 16.4834L17.9472 22.1514C18.0457 22.217 18.1562 22.2627 18.2723 22.2856C18.3884 22.3086 18.5079 22.3085 18.624 22.2853C18.7401 22.2621 18.8504 22.2162 18.9488 22.1503C19.0471 22.0845 19.1316 21.9999 19.1972 21.9014C19.2629 21.8029 19.3085 21.6924 19.3315 21.5763C19.3544 21.4602 19.3543 21.3407 19.3311 21.2246C19.3079 21.1085 19.262 20.9982 19.1962 20.8998C19.1303 20.8015 19.0457 20.717 18.9472 20.6514Z" stroke="white"/>
<circle cx="15.5" cy="15.5" r="14.5" stroke="white" stroke-width="2"/>
</svg>
