<svg width="30" height="28" viewBox="0 0 30 28" fill="none" xmlns="http://www.w3.org/2000/svg">
<path d="M23.8449 15.4184L10.7522 13.3667L12.4878 21.1685L23.8449 15.4184Z" fill="#FDFDFD"/>
<path d="M23.8447 15.4184L13.9789 1.71097L10.7545 13.3692L23.8447 15.4184Z" fill="white"/>
<path d="M10.4486 13.2112L0.111206 0L13.6483 1.61714L10.4486 13.2112Z" fill="#FDFDFD"/>
<path d="M5.74023 7.69068L0 2.28128H1.51098L5.74023 7.69068Z" fill="#F8F8F8"/>
<path d="M26.6372 8.75479L24.2078 15.3443L20.2699 9.8979L26.6372 8.75479Z" fill="#FDFDFD"/>
<path d="M14.0161 20.7735L23.5486 16.9442L23.9486 15.727L14.0161 20.7735Z" fill="white"/>
<path d="M6.39197 28L10.4756 13.6753L12.547 22.9955L6.39197 28Z" fill="#F8F8F8"/>
<path d="M27.0174 8.80663L26.015 11.5274L29.6295 11.4681L27.0174 8.80663Z" fill="white"/>
</svg>
