<svg width="99" height="99" viewBox="0 0 99 99" fill="none" xmlns="http://www.w3.org/2000/svg">
<path d="M49.5 5.5C40.7976 5.5 32.2907 8.08055 25.0549 12.9153C17.8192 17.7501 12.1796 24.622 8.84932 32.6619C5.51906 40.7019 4.64772 49.5488 6.34547 58.084C8.04322 66.6191 12.2338 74.4592 18.3873 80.6127C24.5408 86.7662 32.3809 90.9568 40.916 92.6546C49.4512 94.3523 58.2981 93.481 66.3381 90.1507C74.378 86.8204 81.2499 81.1809 86.0847 73.9451C90.9195 66.7093 93.5 58.2024 93.5 49.5C93.5 37.8305 88.8643 26.6389 80.6127 18.3873C72.3611 10.1357 61.1695 5.5 49.5 5.5V5.5ZM49.5 88C41.8854 88 34.4419 85.742 28.1106 81.5116C21.7793 77.2811 16.8446 71.2683 13.9307 64.2333C11.0167 57.1984 10.2543 49.4573 11.7398 41.989C13.2253 34.5208 16.8921 27.6607 22.2764 22.2764C27.6607 16.8921 34.5208 13.2253 41.989 11.7398C49.4573 10.2542 57.1984 11.0167 64.2333 13.9306C71.2683 16.8446 77.2812 21.7793 81.5116 28.1105C85.742 34.4418 88 41.8854 88 49.5C88 59.7108 83.9438 69.5035 76.7236 76.7236C69.5035 83.9438 59.7109 88 49.5 88Z" fill="#FF540B"/>
<path d="M76.9996 33.275C76.4843 32.7628 75.7873 32.4753 75.0608 32.4753C74.3343 32.4753 73.6373 32.7628 73.1221 33.275L42.5971 63.6625L26.0971 47.1625C25.5938 46.6191 24.8953 46.2979 24.1553 46.2695C23.4152 46.2412 22.6942 46.508 22.1508 47.0112C21.6075 47.5145 21.2863 48.2129 21.2579 48.953C21.2295 49.6931 21.4963 50.4141 21.9996 50.9575L42.5971 71.5L76.9996 37.18C77.2573 36.9243 77.4619 36.6202 77.6015 36.285C77.7411 35.9499 77.813 35.5905 77.813 35.2275C77.813 34.8644 77.7411 34.505 77.6015 34.1699C77.4619 33.8348 77.2573 33.5306 76.9996 33.275Z" fill="#FF540B"/>
</svg>
