<svg width="477" height="387" viewBox="0 0 477 387" fill="none" xmlns="http://www.w3.org/2000/svg">
<path d="M408.5 180.75C418.165 180.75 426 177 426 172.375C426 167.75 418.165 164 408.5 164C398.835 164 391 167.75 391 172.375C391 177 398.835 180.75 408.5 180.75Z" stroke="url(#paint0_linear_540_60)" stroke-width="4" stroke-linecap="round" stroke-linejoin="round"/>
<path d="M391 172.375C391 172.375 391 179.475 391 184.1C391 188.725 398.835 192.475 408.5 192.475C418.165 192.475 426 188.725 426 184.1C426 181.36 426 172.375 426 172.375" stroke="url(#paint1_linear_540_60)" stroke-width="4" stroke-linecap="round" stroke-linejoin="round"/>
<path d="M391 184.1C391 184.1 391 191.2 391 195.825C391 200.45 398.835 204.2 408.5 204.2C418.165 204.2 426 200.45 426 195.825C426 193.085 426 184.1 426 184.1" stroke="url(#paint2_linear_540_60)" stroke-width="4" stroke-linecap="round" stroke-linejoin="round"/>
<path d="M391 195.825C391 195.825 391 202.925 391 207.55C391 212.175 398.835 215.925 408.5 215.925C418.165 215.925 426 212.175 426 207.55C426 204.81 426 195.825 426 195.825" stroke="url(#paint3_linear_540_60)" stroke-width="4" stroke-linecap="round" stroke-linejoin="round"/>
<path d="M391 207.55C391 207.55 391 214.65 391 219.275C391 223.9 398.835 227.65 408.5 227.65C418.165 227.65 426 223.9 426 219.275C426 216.535 426 207.55 426 207.55" stroke="url(#paint4_linear_540_60)" stroke-width="4" stroke-linecap="round" stroke-linejoin="round"/>
<path d="M443.5 204.2C453.165 204.2 461 200.45 461 195.825C461 191.2 453.165 187.45 443.5 187.45C433.835 187.45 426 191.2 426 195.825C426 200.45 433.835 204.2 443.5 204.2Z" stroke="url(#paint5_linear_540_60)" stroke-width="4" stroke-linecap="round" stroke-linejoin="round"/>
<path d="M426 195.825C426 195.825 426 202.925 426 207.55C426 212.175 433.835 215.925 443.5 215.925C453.165 215.925 461 212.175 461 207.55C461 204.81 461 195.825 461 195.825" stroke="url(#paint6_linear_540_60)" stroke-width="4" stroke-linecap="round" stroke-linejoin="round"/>
<path d="M426 207.55C426 207.55 426 214.65 426 219.275C426 223.9 433.835 227.65 443.5 227.65C453.165 227.65 461 223.9 461 219.275C461 216.535 461 207.55 461 207.55" stroke="url(#paint7_linear_540_60)" stroke-width="4" stroke-linecap="round" stroke-linejoin="round"/>
<path d="M379.844 243.662C377.268 243.662 375.504 245.706 375.504 248.394C375.504 251.124 377.128 253.14 379.844 253.14C382.392 253.14 384.184 251.25 384.17 248.352C384.156 245.762 382.588 243.662 379.844 243.662ZM377.254 248.394C377.254 246.322 378.332 245.16 379.816 245.16C381.454 245.16 382.42 246.434 382.42 248.394C382.434 250.34 381.482 251.642 379.9 251.642C378.178 251.642 377.254 250.2 377.254 248.394ZM390.966 246.196C390.966 246.126 390.952 246.098 390.868 246.098H389.398C389.314 246.098 389.286 246.126 389.286 246.196V251.166C388.936 251.488 388.544 251.67 388.012 251.67C387.172 251.67 386.794 251.138 386.794 250.27V246.196C386.794 246.126 386.78 246.098 386.696 246.098H385.226C385.142 246.098 385.114 246.112 385.114 246.196V250.466C385.114 252.426 386.136 253.14 387.466 253.14C388.096 253.14 388.81 252.986 389.412 252.426C389.426 252.566 389.468 252.776 389.51 252.916C389.524 252.972 389.552 253 389.65 253H390.938C391.022 253 391.064 252.972 391.05 252.902C391.022 252.608 390.966 252.188 390.966 251.46V246.196ZM392.337 246.098C392.267 246.098 392.253 246.112 392.253 246.182C392.309 246.644 392.323 247.456 392.323 248.058V252.888C392.323 252.958 392.351 253 392.449 253H393.905C393.989 253 394.031 252.972 394.031 252.888V248.38C394.353 247.96 395.179 247.61 396.173 247.638C396.271 247.638 396.299 247.61 396.299 247.54V246.056C396.299 245.972 396.271 245.958 396.187 245.958C395.221 245.958 394.423 246.462 393.947 247.05C393.933 246.742 393.877 246.392 393.807 246.21C393.779 246.126 393.737 246.098 393.653 246.098H392.337ZM402.7 253.14C403.54 253.14 404.436 252.986 405.346 252.594C405.416 252.566 405.43 252.538 405.43 252.468C405.402 252.216 405.374 251.852 405.374 251.572V243.116C405.374 243.06 405.374 243.032 405.304 243.032H403.778C403.722 243.032 403.694 243.06 403.694 243.13V246C403.456 245.972 403.288 245.958 403.092 245.958C400.628 245.958 399.116 247.582 399.116 249.612C399.116 251.964 400.67 253.14 402.7 253.14ZM403.694 251.572C403.442 251.656 403.162 251.684 402.882 251.684C401.762 251.684 400.852 251.054 400.852 249.528C400.852 248.17 401.79 247.372 403.036 247.372C403.288 247.372 403.512 247.4 403.694 247.47V251.572ZM409.699 245.958C407.599 245.958 406.297 247.568 406.297 249.556C406.297 251.334 407.333 253.14 409.671 253.14C411.645 253.14 413.031 251.684 413.031 249.514C413.031 247.596 411.855 245.958 409.699 245.958ZM409.615 247.372C410.805 247.372 411.309 248.394 411.309 249.556C411.309 250.998 410.567 251.712 409.699 251.712C408.635 251.712 408.005 250.816 408.005 249.528C408.005 248.198 408.677 247.372 409.615 247.372ZM413.926 252.888C413.926 252.958 413.954 253 414.038 253H415.508C415.578 253 415.62 252.958 415.62 252.888V248.002C415.956 247.638 416.418 247.428 416.978 247.428C417.79 247.428 418.182 247.96 418.182 248.884V252.874C418.182 252.958 418.224 253 418.308 253H419.764C419.834 253 419.876 252.972 419.876 252.874V248.73C419.876 246.49 418.588 245.958 417.538 245.958C416.782 245.958 416.11 246.224 415.508 246.728C415.48 246.504 415.452 246.322 415.41 246.196C415.382 246.126 415.34 246.098 415.242 246.098H413.968C413.884 246.098 413.87 246.126 413.87 246.196C413.898 246.476 413.926 247.232 413.926 247.708V252.888ZM424.759 251.642C424.451 251.768 424.129 251.81 423.765 251.81C422.757 251.81 422.393 251.362 422.393 250.844C422.393 250.242 422.883 249.878 423.989 249.878C424.311 249.878 424.549 249.892 424.759 249.92V251.642ZM426.397 248.73C426.397 247.176 425.557 245.958 423.611 245.958C422.855 245.958 422.085 246.098 421.483 246.378C421.413 246.42 421.399 246.448 421.399 246.518V247.736C421.399 247.82 421.469 247.834 421.511 247.82C422.029 247.568 422.645 247.428 423.345 247.428C424.577 247.428 424.759 248.156 424.759 248.478V248.646C424.633 248.632 424.311 248.618 423.891 248.618C422.071 248.618 420.741 249.36 420.741 250.844C420.741 252.426 421.959 253.14 423.485 253.14C424.437 253.14 425.249 253 426.397 252.51C426.425 252.496 426.425 252.482 426.425 252.454C426.397 252.16 426.397 251.88 426.397 251.572V248.73ZM430.936 251.768C430.936 251.684 430.894 251.67 430.852 251.684C430.656 251.726 430.502 251.74 430.32 251.74C429.718 251.74 429.522 251.446 429.522 250.83V247.512H430.894C430.964 247.512 430.992 247.484 430.992 247.414V246.196C430.992 246.126 430.964 246.098 430.894 246.098H429.536C429.536 245.412 429.564 244.586 429.606 244.124C429.606 244.054 429.578 244.04 429.508 244.054L428.094 244.25C428.024 244.264 427.996 244.306 427.982 244.376C427.912 244.726 427.856 245.608 427.842 246.098H426.96C426.876 246.098 426.848 246.126 426.848 246.21V247.386C426.848 247.47 426.876 247.498 426.946 247.512H427.828V251.194C427.828 252.58 428.514 253.14 429.662 253.14C430.124 253.14 430.474 253.084 430.852 252.944C430.922 252.916 430.936 252.86 430.936 252.776V251.768ZM431.752 252.874C431.752 252.958 431.794 253 431.892 253H433.334C433.432 253 433.46 252.972 433.46 252.888V246.196C433.46 246.112 433.432 246.098 433.348 246.098H431.864C431.794 246.098 431.752 246.126 431.752 246.196V252.874ZM432.606 245.16C433.194 245.16 433.572 244.768 433.572 244.194C433.572 243.634 433.222 243.228 432.62 243.228C432.06 243.228 431.654 243.62 431.654 244.194C431.654 244.768 432.032 245.16 432.606 245.16ZM437.773 245.958C435.673 245.958 434.371 247.568 434.371 249.556C434.371 251.334 435.407 253.14 437.745 253.14C439.719 253.14 441.105 251.684 441.105 249.514C441.105 247.596 439.929 245.958 437.773 245.958ZM437.689 247.372C438.879 247.372 439.383 248.394 439.383 249.556C439.383 250.998 438.641 251.712 437.773 251.712C436.709 251.712 436.079 250.816 436.079 249.528C436.079 248.198 436.751 247.372 437.689 247.372ZM442 252.888C442 252.958 442.028 253 442.112 253H443.582C443.652 253 443.694 252.958 443.694 252.888V248.002C444.03 247.638 444.492 247.428 445.052 247.428C445.864 247.428 446.256 247.96 446.256 248.884V252.874C446.256 252.958 446.298 253 446.382 253H447.838C447.908 253 447.95 252.972 447.95 252.874V248.73C447.95 246.49 446.662 245.958 445.612 245.958C444.856 245.958 444.184 246.224 443.582 246.728C443.554 246.504 443.526 246.322 443.484 246.196C443.456 246.126 443.414 246.098 443.316 246.098H442.042C441.958 246.098 441.944 246.126 441.944 246.196C441.972 246.476 442 247.232 442 247.708V252.888ZM452.21 247.512V252.888C452.21 252.958 452.238 253 452.322 253H453.778C453.89 253 453.904 252.958 453.904 252.888V247.512H455.136C455.22 247.498 455.248 247.484 455.248 247.414V246.182C455.248 246.126 455.234 246.098 455.136 246.098H453.904V245.636C453.904 244.67 454.254 244.362 454.828 244.362C454.954 244.362 455.122 244.376 455.262 244.404C455.332 244.432 455.36 244.39 455.36 244.334V243.13C455.36 243.06 455.36 243.018 455.276 242.99C455.122 242.92 454.87 242.906 454.59 242.906C453.526 242.906 452.882 243.382 452.518 244.138C452.322 244.558 452.21 245.076 452.21 245.776V246.098H451.356C451.3 246.098 451.272 246.112 451.272 246.182V247.414C451.272 247.484 451.286 247.512 451.356 247.512H452.21ZM461.536 246.196C461.536 246.126 461.522 246.098 461.438 246.098H459.968C459.884 246.098 459.856 246.126 459.856 246.196V251.166C459.506 251.488 459.114 251.67 458.582 251.67C457.742 251.67 457.364 251.138 457.364 250.27V246.196C457.364 246.126 457.35 246.098 457.266 246.098H455.796C455.712 246.098 455.684 246.112 455.684 246.196V250.466C455.684 252.426 456.706 253.14 458.036 253.14C458.666 253.14 459.38 252.986 459.982 252.426C459.996 252.566 460.038 252.776 460.08 252.916C460.094 252.972 460.122 253 460.22 253H461.508C461.592 253 461.634 252.972 461.62 252.902C461.592 252.608 461.536 252.188 461.536 251.46V246.196ZM462.893 252.888C462.893 252.958 462.921 253 463.005 253H464.475C464.545 253 464.587 252.958 464.587 252.888V248.002C464.923 247.638 465.385 247.428 465.945 247.428C466.757 247.428 467.149 247.96 467.149 248.884V252.874C467.149 252.958 467.191 253 467.275 253H468.731C468.801 253 468.843 252.972 468.843 252.874V248.73C468.843 246.49 467.555 245.958 466.505 245.958C465.749 245.958 465.077 246.224 464.475 246.728C464.447 246.504 464.419 246.322 464.377 246.196C464.349 246.126 464.307 246.098 464.209 246.098H462.935C462.851 246.098 462.837 246.126 462.837 246.196C462.865 246.476 462.893 247.232 462.893 247.708V252.888ZM473.333 253.14C474.173 253.14 475.069 252.986 475.979 252.594C476.049 252.566 476.063 252.538 476.063 252.468C476.035 252.216 476.007 251.852 476.007 251.572V243.116C476.007 243.06 476.007 243.032 475.937 243.032H474.411C474.355 243.032 474.327 243.06 474.327 243.13V246C474.089 245.972 473.921 245.958 473.725 245.958C471.261 245.958 469.749 247.582 469.749 249.612C469.749 251.964 471.303 253.14 473.333 253.14ZM474.327 251.572C474.075 251.656 473.795 251.684 473.515 251.684C472.395 251.684 471.485 251.054 471.485 249.528C471.485 248.17 472.423 247.372 473.669 247.372C473.921 247.372 474.145 247.4 474.327 247.47V251.572Z" fill="#696969"/>
<path d="M205.8 80.29C205.884 80.444 205.898 80.514 205.898 80.696V83.874C205.898 83.958 205.926 84 206.038 84H207.466C207.564 84 207.592 83.972 207.592 83.874C207.592 83.874 207.592 81.774 207.592 80.752C207.592 80.584 207.62 80.472 207.704 80.332L210.742 74.914C210.77 74.844 210.756 74.802 210.686 74.802H209.048C208.978 74.802 208.95 74.816 208.936 74.886C207.522 77.7 207.074 78.624 206.85 79.114C206.654 78.638 206.178 77.756 204.694 74.872C204.666 74.83 204.652 74.802 204.568 74.802H202.874C202.818 74.802 202.748 74.844 202.804 74.928L205.8 80.29ZM212.951 76.958C210.851 76.958 209.549 78.568 209.549 80.556C209.549 82.334 210.585 84.14 212.923 84.14C214.897 84.14 216.283 82.684 216.283 80.514C216.283 78.596 215.107 76.958 212.951 76.958ZM212.867 78.372C214.057 78.372 214.561 79.394 214.561 80.556C214.561 81.998 213.819 82.712 212.951 82.712C211.887 82.712 211.257 81.816 211.257 80.528C211.257 79.198 211.929 78.372 212.867 78.372ZM223.031 77.196C223.031 77.126 223.017 77.098 222.933 77.098H221.463C221.379 77.098 221.351 77.126 221.351 77.196V82.166C221.001 82.488 220.609 82.67 220.077 82.67C219.237 82.67 218.859 82.138 218.859 81.27V77.196C218.859 77.126 218.845 77.098 218.761 77.098H217.291C217.207 77.098 217.179 77.112 217.179 77.196V81.466C217.179 83.426 218.201 84.14 219.531 84.14C220.161 84.14 220.875 83.986 221.477 83.426C221.491 83.566 221.533 83.776 221.575 83.916C221.589 83.972 221.617 84 221.715 84H223.003C223.087 84 223.129 83.972 223.115 83.902C223.087 83.608 223.031 83.188 223.031 82.46V77.196ZM224.402 77.098C224.332 77.098 224.318 77.112 224.318 77.182C224.374 77.644 224.388 78.456 224.388 79.058V83.888C224.388 83.958 224.416 84 224.514 84H225.97C226.054 84 226.096 83.972 226.096 83.888V79.38C226.418 78.96 227.244 78.61 228.238 78.638C228.336 78.638 228.364 78.61 228.364 78.54V77.056C228.364 76.972 228.336 76.958 228.252 76.958C227.286 76.958 226.488 77.462 226.012 78.05C225.998 77.742 225.942 77.392 225.872 77.21C225.844 77.126 225.802 77.098 225.718 77.098H224.402ZM234.764 84.14C235.604 84.14 236.5 83.986 237.41 83.594C237.48 83.566 237.494 83.538 237.494 83.468C237.466 83.216 237.438 82.852 237.438 82.572V74.116C237.438 74.06 237.438 74.032 237.368 74.032H235.842C235.786 74.032 235.758 74.06 235.758 74.13V77C235.52 76.972 235.352 76.958 235.156 76.958C232.692 76.958 231.18 78.582 231.18 80.612C231.18 82.964 232.734 84.14 234.764 84.14ZM235.758 82.572C235.506 82.656 235.226 82.684 234.946 82.684C233.826 82.684 232.916 82.054 232.916 80.528C232.916 79.17 233.854 78.372 235.1 78.372C235.352 78.372 235.576 78.4 235.758 78.47V82.572ZM241.764 76.958C239.664 76.958 238.362 78.568 238.362 80.556C238.362 82.334 239.398 84.14 241.736 84.14C243.71 84.14 245.096 82.684 245.096 80.514C245.096 78.596 243.92 76.958 241.764 76.958ZM241.68 78.372C242.87 78.372 243.374 79.394 243.374 80.556C243.374 81.998 242.632 82.712 241.764 82.712C240.7 82.712 240.07 81.816 240.07 80.528C240.07 79.198 240.742 78.372 241.68 78.372ZM245.991 83.888C245.991 83.958 246.019 84 246.103 84H247.573C247.643 84 247.685 83.958 247.685 83.888V79.002C248.021 78.638 248.483 78.428 249.043 78.428C249.855 78.428 250.247 78.96 250.247 79.884V83.874C250.247 83.958 250.289 84 250.373 84H251.829C251.899 84 251.941 83.972 251.941 83.874V79.73C251.941 77.49 250.653 76.958 249.603 76.958C248.847 76.958 248.175 77.224 247.573 77.728C247.545 77.504 247.517 77.322 247.475 77.196C247.447 77.126 247.405 77.098 247.307 77.098H246.033C245.949 77.098 245.935 77.126 245.935 77.196C245.963 77.476 245.991 78.232 245.991 78.708V83.888ZM256.824 82.642C256.516 82.768 256.194 82.81 255.83 82.81C254.822 82.81 254.458 82.362 254.458 81.844C254.458 81.242 254.948 80.878 256.054 80.878C256.376 80.878 256.614 80.892 256.824 80.92V82.642ZM258.462 79.73C258.462 78.176 257.622 76.958 255.676 76.958C254.92 76.958 254.15 77.098 253.548 77.378C253.478 77.42 253.464 77.448 253.464 77.518V78.736C253.464 78.82 253.534 78.834 253.576 78.82C254.094 78.568 254.71 78.428 255.41 78.428C256.642 78.428 256.824 79.156 256.824 79.478V79.646C256.698 79.632 256.376 79.618 255.956 79.618C254.136 79.618 252.806 80.36 252.806 81.844C252.806 83.426 254.024 84.14 255.55 84.14C256.502 84.14 257.314 84 258.462 83.51C258.49 83.496 258.49 83.482 258.49 83.454C258.462 83.16 258.462 82.88 258.462 82.572V79.73ZM263.001 82.768C263.001 82.684 262.959 82.67 262.917 82.684C262.721 82.726 262.567 82.74 262.385 82.74C261.783 82.74 261.587 82.446 261.587 81.83V78.512H262.959C263.029 78.512 263.057 78.484 263.057 78.414V77.196C263.057 77.126 263.029 77.098 262.959 77.098H261.601C261.601 76.412 261.629 75.586 261.671 75.124C261.671 75.054 261.643 75.04 261.573 75.054L260.159 75.25C260.089 75.264 260.061 75.306 260.047 75.376C259.977 75.726 259.921 76.608 259.907 77.098H259.025C258.941 77.098 258.913 77.126 258.913 77.21V78.386C258.913 78.47 258.941 78.498 259.011 78.512H259.893V82.194C259.893 83.58 260.579 84.14 261.727 84.14C262.189 84.14 262.539 84.084 262.917 83.944C262.987 83.916 263.001 83.86 263.001 83.776V82.768ZM263.817 83.874C263.817 83.958 263.859 84 263.957 84H265.399C265.497 84 265.525 83.972 265.525 83.888V77.196C265.525 77.112 265.497 77.098 265.413 77.098H263.929C263.859 77.098 263.817 77.126 263.817 77.196V83.874ZM264.671 76.16C265.259 76.16 265.637 75.768 265.637 75.194C265.637 74.634 265.287 74.228 264.685 74.228C264.125 74.228 263.719 74.62 263.719 75.194C263.719 75.768 264.097 76.16 264.671 76.16ZM269.837 76.958C267.737 76.958 266.435 78.568 266.435 80.556C266.435 82.334 267.471 84.14 269.809 84.14C271.783 84.14 273.169 82.684 273.169 80.514C273.169 78.596 271.993 76.958 269.837 76.958ZM269.753 78.372C270.943 78.372 271.447 79.394 271.447 80.556C271.447 81.998 270.705 82.712 269.837 82.712C268.773 82.712 268.143 81.816 268.143 80.528C268.143 79.198 268.815 78.372 269.753 78.372ZM274.065 83.888C274.065 83.958 274.093 84 274.177 84H275.647C275.717 84 275.759 83.958 275.759 83.888V79.002C276.095 78.638 276.557 78.428 277.117 78.428C277.929 78.428 278.321 78.96 278.321 79.884V83.874C278.321 83.958 278.363 84 278.447 84H279.903C279.973 84 280.015 83.972 280.015 83.874V79.73C280.015 77.49 278.727 76.958 277.677 76.958C276.921 76.958 276.249 77.224 275.647 77.728C275.619 77.504 275.591 77.322 275.549 77.196C275.521 77.126 275.479 77.098 275.381 77.098H274.107C274.023 77.098 274.009 77.126 274.009 77.196C274.037 77.476 274.065 78.232 274.065 78.708V83.888Z" fill="#696969"/>
<path d="M276.437 29.8564C275.419 29.8191 274.49 30.1261 273.625 30.6332C272.085 31.5338 270.628 32.5599 269.243 33.6843C267.596 35.0191 266.049 36.4539 264.735 38.133C264.877 38.2025 265.033 38.2652 265.179 38.35C266.77 39.2676 267.229 40.4209 266.865 41.971C266.612 43.0514 265.918 43.8316 265.003 44.4235C263.864 45.1595 262.579 45.3766 261.263 45.4784C259.986 45.5767 258.702 45.5462 257.423 45.6548C256.424 45.7396 255.42 45.709 254.418 45.7192C252.856 45.7345 251.292 45.7192 249.73 45.6802C247.676 45.6293 245.62 45.5801 243.567 45.5242C243.153 45.5123 242.737 45.497 242.3 45.4326C242.417 45.2749 242.524 45.1714 242.703 45.1561C243.092 45.1222 243.478 45.0663 243.869 45.0408C245.678 44.9255 247.491 44.9391 249.301 44.8916C250.951 44.8475 252.603 44.9085 254.253 44.9441C255.948 44.9815 257.644 45.0035 259.338 44.9289C260.891 44.861 262.409 44.6066 263.873 44.069C264.453 43.857 265.004 43.5958 265.408 43.1091C266.392 41.9218 266.493 40.4972 265.287 39.31C264.997 39.0234 264.67 38.7859 264.324 38.5756C263.232 37.9108 262.012 37.6903 260.769 37.5682C258.695 37.363 256.636 37.5427 254.584 37.848C253.403 38.0227 252.223 38.2059 251.031 38.2602C249.33 38.3365 247.644 38.1855 245.975 37.8633C244.647 37.6055 243.363 37.2086 242.212 36.4743C241.302 35.8942 240.339 35.4295 239.338 35.0343C237.771 34.417 236.145 33.976 234.557 33.4197C231.162 32.2308 227.714 32.0307 224.207 32.8278C222.441 33.2298 220.726 33.8013 219.005 34.3576C217.809 34.7426 216.651 35.1989 215.64 35.9655C214.877 36.5438 214.117 37.1323 213.301 37.6309C212.458 38.1465 211.873 38.8894 211.295 39.6712C211.844 39.8917 212.25 40.2886 212.528 40.7906C213.089 41.8031 213.781 42.7291 214.409 43.6976C215.182 44.8882 215.847 46.1466 216.639 47.3253C217.879 49.1689 219.3 50.87 220.771 52.5321C220.81 52.5762 220.884 52.6305 220.876 52.6661C220.813 52.9595 221.027 52.8221 221.117 52.8102C221.335 52.7831 221.546 52.7085 221.747 52.6169C222.265 52.3828 222.802 52.2099 223.355 52.0843C223.778 51.9877 224.2 51.8842 224.62 51.7791C226.271 51.3669 227.931 51.1481 229.624 51.4992C230.791 51.7418 231.983 51.8588 233.134 52.1691C234.184 52.4524 235.221 52.7865 236.27 53.0731C237.22 53.3326 238.199 53.5039 239.11 53.8855C240.627 54.5232 242.166 55.1015 243.733 55.607C244.979 56.0106 246.211 56.4499 247.535 56.5245C248.812 56.5974 250.049 56.4736 251.19 55.8325C251.942 55.4102 252.671 54.954 253.358 54.4333C253.587 54.2603 253.858 54.1196 254.041 53.9177C254.35 53.5768 254.684 53.2733 255.05 53.007C256.997 51.5908 258.953 50.1865 260.969 48.8704C261.872 48.2819 262.781 47.7069 263.569 46.9709C264.606 46.0008 265.739 45.1612 266.911 44.3658C267.557 43.9265 268.167 43.4381 268.698 42.8597C268.922 42.6155 269.131 42.3577 269.329 42.0914C269.985 41.2129 270.62 40.3191 271.278 39.4423C271.883 38.635 272.507 37.8599 273.269 37.2052C274.387 36.2453 275.314 35.131 276.108 33.898C276.378 33.4791 276.661 33.0653 277 32.6955V29.9073C276.81 29.8903 276.622 29.8649 276.432 29.8581L276.437 29.8564Z" fill="url(#paint8_linear_540_60)"/>
<path d="M235.818 21.7766C236.898 22.8654 237.999 23.9322 239.079 25.0194C240.653 26.6034 242.217 28.1977 243.784 29.7903C244.7 30.7197 245.61 31.6525 246.525 32.5853C246.599 32.6616 246.694 32.7277 246.686 32.8821C246.796 32.6633 246.966 32.5378 247.11 32.3902C249.311 30.1413 251.509 27.889 253.721 25.6503C255.047 24.307 256.412 23.0045 257.734 21.6562C259.365 19.9907 260.898 18.2438 262.275 16.3595C263.135 15.1825 263.893 13.9563 264.385 12.5791C265.143 10.4557 265.367 8.295 264.792 6.09189C264.37 4.47389 263.59 3.05942 262.316 1.95023C260.825 0.651082 259.053 0.0778303 257.104 0.02695C254.82 -0.0324104 252.718 0.586634 250.787 1.80776C250.098 2.24364 249.51 2.80332 248.865 3.29347C248.083 3.88877 247.283 4.46372 246.713 5.30494C246.265 4.62823 245.663 4.13299 245.047 3.65133C244.647 3.33926 244.24 3.03228 243.85 2.70834C241.175 0.486569 238.136 -0.424189 234.697 0.184679C233.121 0.462825 231.746 1.18363 230.64 2.35557C229.057 4.03123 228.352 6.07153 228.304 8.3408C228.252 10.8594 229.006 13.1575 230.384 15.247C231.952 17.6231 233.816 19.7583 235.818 21.7766V21.7766Z" fill="url(#paint9_linear_540_60)"/>
<path d="M221.106 53.743C220.655 53.3309 220.146 52.9849 219.735 52.5253C218.662 51.3245 217.76 49.9999 216.927 48.6244C216.277 47.5492 215.723 46.4179 215.041 45.3596C213.801 43.4346 212.332 41.6877 210.882 39.9239C210.609 39.5932 210.251 39.371 209.837 39.2523C209.303 39.0979 208.752 39.047 208.201 39.0318C207.818 39.0216 207.463 39.1386 207.144 39.3625C207.044 39.432 206.998 39.5033 207 39.6305C207.007 40.2784 207.005 40.9279 207.002 41.5758C207.002 41.6827 207.024 41.7759 207.073 41.8692C207.602 42.8783 208.074 43.9146 208.513 44.9644C209.559 47.4677 210.689 49.9287 212.129 52.2369C213.104 53.8007 214.125 55.3288 215.419 56.655C216.35 57.6082 217.298 58.5495 218.061 59.7062C218.387 59.0752 218.792 58.5359 219.223 58.0152C220.068 56.9925 220.738 55.863 221.301 54.669C221.55 54.1415 221.545 54.1466 221.102 53.7413L221.106 53.743Z" fill="url(#paint10_linear_540_60)"/>
<path d="M266.04 33.9896C265.128 34.7104 264.195 35.4108 263.376 36.2436C263.065 36.5607 262.787 36.9033 262.613 37.3172C262.591 37.3697 262.519 37.4545 262.638 37.4664C263.03 37.5037 263.388 37.6767 263.774 37.7344C264.08 37.7785 264.334 37.7089 264.538 37.4528C264.739 37.2001 264.987 36.9864 265.233 36.7744C265.64 36.4234 266.069 36.096 266.446 35.711C267.914 34.2168 269.485 32.838 271.118 31.527C272.199 30.6603 273.347 29.9141 274.676 29.4884C275.245 29.3069 275.818 29.1848 276.403 29.4239C276.5 29.4629 276.51 29.4137 276.532 29.3425C276.63 29.0101 276.701 28.6726 276.701 28.3232C276.707 27.4158 276.238 26.9427 275.328 26.9511C274.741 26.9562 274.23 27.2038 273.737 27.4888C272.265 28.3402 270.994 29.446 269.802 30.645C268.615 31.8373 267.358 32.9482 266.039 33.9913L266.04 33.9896Z" fill="url(#paint11_linear_540_60)"/>
<path d="M265.591 31.9798C264.782 32.7431 263.98 33.5113 263.127 34.2305C262.293 34.9343 261.504 35.6856 260.921 36.6252C260.751 36.8983 260.551 37.1527 260.249 37.3359C260.593 37.3918 260.916 37.4105 261.239 37.419C261.674 37.4308 262.023 37.246 262.3 36.9186C262.461 36.727 262.617 36.5319 262.779 36.3403C262.922 36.1707 263.066 36.0028 263.254 35.8807C263.912 35.4533 264.487 34.9241 265.056 34.3882C266.277 33.2349 267.499 32.0833 268.722 30.9317C269.479 30.2177 270.322 29.6071 271.087 28.9033C271.46 28.5607 271.814 28.2011 272.104 27.7941C271.745 27.7941 271.394 27.7873 271.042 27.7941C270.579 27.8043 270.14 27.9094 269.74 28.157C269.207 28.4878 268.687 28.8405 268.241 29.2832C267.347 30.1702 266.511 31.1149 265.595 31.9815L265.591 31.9798Z" fill="url(#paint12_linear_540_60)"/>
<path d="M264.334 31.5287C263.554 32.2359 262.723 32.8838 261.938 33.5842C261.334 34.1219 260.667 34.5883 260.04 35.1005C259.606 35.4549 259.2 35.8433 258.921 36.3386C258.751 36.6387 258.654 36.983 258.371 37.2273C258.619 37.251 258.853 37.2442 259.087 37.251C259.65 37.268 260.081 37.0424 260.389 36.5692C260.871 35.8297 261.461 35.1819 262.129 34.6086C263.663 33.2942 265.12 31.8984 266.539 30.4636C266.973 30.0243 267.351 29.5308 267.833 29.1356C267.916 29.0678 267.981 28.9796 268.018 28.8507C267.691 29.0321 267.372 29.178 267.041 29.2865C266.427 29.4884 265.939 29.8666 265.499 30.3211C265.109 30.7231 264.746 31.1521 264.333 31.527L264.334 31.5287Z" fill="url(#paint13_linear_540_60)"/>
<path d="M210.042 373.914C210.014 373.83 210 373.802 209.93 373.802H208.306C208.236 373.802 208.18 373.83 208.166 373.914C207.088 378.492 206.668 380.032 206.5 380.942H206.486C206.374 380.172 206.122 378.898 204.932 373.9C204.918 373.802 204.862 373.802 204.792 373.802H203.21C203.14 373.802 203.112 373.83 203.126 373.914L205.464 382.888C205.506 382.958 205.534 383 205.618 383H207.102C207.2 383 207.228 382.944 207.242 382.874C207.69 381.166 208.782 377.12 209.034 375.706H209.048C209.328 377.092 210.266 381.096 210.686 382.916C210.714 382.972 210.728 383 210.826 383H212.338C212.422 383 212.45 382.986 212.478 382.916L214.844 373.928C214.858 373.844 214.83 373.802 214.746 373.802H213.276C213.192 373.802 213.15 373.844 213.136 373.914C212.156 378.31 211.792 380.172 211.652 380.956H211.638C211.26 379.038 210.588 376.224 210.042 373.914ZM219.199 379.934C219.885 379.934 220.445 379.92 220.641 379.878C220.711 379.864 220.739 379.836 220.753 379.78C220.795 379.626 220.809 379.304 220.809 378.912C220.809 377.582 220.011 375.958 217.939 375.958C215.825 375.958 214.649 377.68 214.649 379.626C214.649 381.348 215.559 383.14 218.107 383.14C219.059 383.14 219.675 382.986 220.207 382.734C220.263 382.706 220.291 382.664 220.291 382.58V381.418C220.291 381.348 220.249 381.334 220.207 381.362C219.675 381.586 219.101 381.698 218.471 381.698C217.043 381.698 216.399 380.914 216.357 379.934H219.199ZM216.357 378.73C216.469 378.044 216.903 377.302 217.869 377.302C218.933 377.302 219.213 378.198 219.213 378.604C219.213 378.618 219.213 378.674 219.213 378.716C219.157 378.73 218.975 378.73 218.443 378.73H216.357ZM224.568 373.032C224.512 373.032 224.47 373.06 224.47 373.13V382.706C224.47 382.748 224.512 382.818 224.568 382.832C225.24 383.042 225.94 383.14 226.668 383.14C228.74 383.14 230.756 381.852 230.756 379.262C230.756 377.386 229.468 375.958 227.452 375.958C226.99 375.958 226.556 376.028 226.178 376.154L226.164 373.144C226.164 373.046 226.136 373.032 226.038 373.032H224.568ZM229.034 379.43C229.034 380.984 227.97 381.712 226.822 381.712C226.584 381.712 226.374 381.698 226.178 381.642V377.554C226.402 377.47 226.668 377.4 227.158 377.4C228.264 377.4 229.034 378.1 229.034 379.43ZM237.531 376.196C237.531 376.126 237.517 376.098 237.433 376.098H235.963C235.879 376.098 235.851 376.126 235.851 376.196V381.166C235.501 381.488 235.109 381.67 234.577 381.67C233.737 381.67 233.359 381.138 233.359 380.27V376.196C233.359 376.126 233.345 376.098 233.261 376.098H231.791C231.707 376.098 231.679 376.112 231.679 376.196V380.466C231.679 382.426 232.701 383.14 234.031 383.14C234.661 383.14 235.375 382.986 235.977 382.426C235.991 382.566 236.033 382.776 236.075 382.916C236.089 382.972 236.117 383 236.215 383H237.503C237.587 383 237.629 382.972 237.615 382.902C237.587 382.608 237.531 382.188 237.531 381.46V376.196ZM238.172 376.098C238.102 376.098 238.06 376.14 238.088 376.196C238.928 378.394 240.272 381.726 240.65 382.65C240.678 382.748 240.664 382.79 240.636 382.874C240.188 383.938 239.74 384.932 239.32 385.772C239.292 385.856 239.306 385.884 239.39 385.884L240.916 385.772C241.028 385.772 241.07 385.73 241.098 385.674C242.232 383.084 243.758 379.304 244.766 376.21C244.78 376.14 244.766 376.098 244.682 376.098H243.24C243.156 376.098 243.114 376.126 243.086 376.182C242.456 378.142 241.966 379.584 241.504 380.998C241.322 380.312 240.846 378.8 239.936 376.182C239.908 376.112 239.866 376.098 239.81 376.098H238.172ZM248.141 377.512V382.888C248.141 382.958 248.169 383 248.253 383H249.709C249.821 383 249.835 382.958 249.835 382.888V377.512H251.067C251.151 377.498 251.179 377.484 251.179 377.414V376.182C251.179 376.126 251.165 376.098 251.067 376.098H249.835V375.636C249.835 374.67 250.185 374.362 250.759 374.362C250.885 374.362 251.053 374.376 251.193 374.404C251.263 374.432 251.291 374.39 251.291 374.334V373.13C251.291 373.06 251.291 373.018 251.207 372.99C251.053 372.92 250.801 372.906 250.521 372.906C249.457 372.906 248.813 373.382 248.449 374.138C248.253 374.558 248.141 375.076 248.141 375.776V376.098H247.287C247.231 376.098 247.203 376.112 247.203 376.182V377.414C247.203 377.484 247.217 377.512 247.287 377.512H248.141ZM254.677 375.958C252.577 375.958 251.275 377.568 251.275 379.556C251.275 381.334 252.311 383.14 254.649 383.14C256.623 383.14 258.009 381.684 258.009 379.514C258.009 377.596 256.833 375.958 254.677 375.958ZM254.593 377.372C255.783 377.372 256.287 378.394 256.287 379.556C256.287 380.998 255.545 381.712 254.677 381.712C253.613 381.712 252.983 380.816 252.983 379.528C252.983 378.198 253.655 377.372 254.593 377.372ZM261.955 375.958C259.855 375.958 258.553 377.568 258.553 379.556C258.553 381.334 259.589 383.14 261.927 383.14C263.901 383.14 265.287 381.684 265.287 379.514C265.287 377.596 264.111 375.958 261.955 375.958ZM261.871 377.372C263.061 377.372 263.565 378.394 263.565 379.556C263.565 380.998 262.823 381.712 261.955 381.712C260.891 381.712 260.261 380.816 260.261 379.528C260.261 378.198 260.933 377.372 261.871 377.372ZM269.414 383.14C270.254 383.14 271.15 382.986 272.06 382.594C272.13 382.566 272.144 382.538 272.144 382.468C272.116 382.216 272.088 381.852 272.088 381.572V373.116C272.088 373.06 272.088 373.032 272.018 373.032H270.492C270.436 373.032 270.408 373.06 270.408 373.13V376C270.17 375.972 270.002 375.958 269.806 375.958C267.342 375.958 265.83 377.582 265.83 379.612C265.83 381.964 267.384 383.14 269.414 383.14ZM270.408 381.572C270.156 381.656 269.876 381.684 269.596 381.684C268.476 381.684 267.566 381.054 267.566 379.528C267.566 378.17 268.504 377.372 269.75 377.372C270.002 377.372 270.226 377.4 270.408 377.47V381.572Z" fill="#696969"/>
<path d="M272.69 351.488C272.578 351.29 272.489 351.083 272.405 350.876C271.11 347.618 269.816 344.359 268.522 341.101C267.214 337.79 265.868 334.489 264.611 331.156C263.891 329.251 262.644 328.052 260.644 327.69C260.261 327.624 260.083 327.46 259.924 327.121C258.448 324.032 254.415 323.355 252.009 325.772C251.897 325.885 251.822 326.054 251.602 326.096C251.574 326.016 251.546 325.932 251.523 325.847C250.444 322.259 246.677 320.99 243.668 323.214C243.365 323.439 243.271 323.35 243.084 323.091C241.309 320.613 237.846 320.28 235.687 322.4C235.304 322.781 235.136 322.715 234.8 322.381C232.875 320.505 229.828 320.557 227.94 322.461C227.202 323.204 226.777 324.102 226.543 325.132C226.422 325.076 226.338 325.038 226.253 324.996C223.226 323.392 219.983 324.742 219.002 328.043C218.861 328.522 218.698 328.353 218.436 328.212C215.67 326.75 212.376 328.095 211.395 331.085C211.264 331.475 211.128 331.866 210.974 332.251C209.012 337.198 207.044 342.144 205.073 347.091C204.489 348.553 203.937 350.03 203.283 351.464C202.858 352.405 202.867 352.945 203.619 353.669C204.306 354.332 205.147 354.741 206.012 355.094C208.656 356.18 211.427 356.773 214.226 357.248C220.899 358.39 227.632 358.842 234.393 358.964C243.365 359.124 252.303 358.781 261.177 357.346C264.181 356.862 267.157 356.251 269.994 355.085C270.872 354.723 271.732 354.304 272.419 353.608C273.101 352.922 273.171 352.334 272.69 351.488V351.488ZM252.742 326.604C253.513 325.819 254.443 325.414 255.686 325.424C256.962 325.461 258.027 326.11 258.793 327.3C258.966 327.573 258.948 327.709 258.602 327.794C257.826 327.982 257.149 328.372 256.565 328.913C256.406 329.058 256.27 329.091 256.065 329.011C255.392 328.753 254.691 328.668 253.976 328.743C253.677 328.776 253.546 328.659 253.443 328.4C253.266 327.968 253.042 327.549 252.71 327.211C252.485 326.975 252.537 326.816 252.742 326.604V326.604ZM252.415 328.743C252.514 328.974 252.518 329.101 252.261 329.228C251.383 329.651 250.682 330.29 250.187 331.137C250.056 331.363 249.925 331.4 249.691 331.297C249.103 331.038 248.476 330.935 247.836 330.921C247.079 330.935 246.355 331.085 245.677 331.433C245.402 331.574 245.276 331.579 245.187 331.231C244.706 329.397 245.841 327.352 247.719 326.707C249.546 326.077 251.691 327.013 252.415 328.743ZM244.117 324.258C245.85 322.419 249.243 323.091 250.219 325.565C248.85 325.278 247.598 325.41 246.439 326.096C246.229 326.218 246.135 326.077 246.023 325.95C245.514 325.391 244.916 324.954 244.206 324.676C243.949 324.577 243.902 324.488 244.117 324.258ZM245.131 326.604C245.243 326.726 245.463 326.848 245.276 327.065C244.85 327.549 244.528 328.09 244.304 328.696C244.079 329.294 244.033 329.924 243.991 330.62C243.173 330.159 242.36 329.858 241.467 329.834C240.654 329.811 239.865 329.942 239.145 330.323C238.767 330.521 238.678 330.389 238.603 330.037C238.243 328.4 239.075 326.646 240.612 325.838C242.094 325.057 244.042 325.381 245.131 326.604V326.604ZM242.958 336.455C243 336.803 242.888 336.888 242.58 336.873C242.248 336.864 241.911 336.873 241.575 336.873V336.92C241.164 336.92 240.622 337.076 240.388 336.873C240.154 336.671 240.547 336.182 240.612 335.801C240.883 334.315 240.612 332.961 239.687 331.767C239.435 331.438 239.482 331.334 239.841 331.189C241.276 330.62 242.981 330.977 244.028 332.082C244.243 332.312 244.285 332.463 244.061 332.731C243.159 333.808 242.799 335.063 242.958 336.455V336.455ZM235.762 336.972V336.855C234.832 336.855 233.903 336.84 232.968 336.859C232.636 336.869 232.468 336.718 232.333 336.436C231.552 334.851 232.024 332.844 233.449 331.729C234.898 330.596 236.916 330.648 238.299 331.852C239.669 333.036 240.033 335.068 239.178 336.61C239.033 336.873 238.865 336.986 238.561 336.977C237.631 336.963 236.697 336.972 235.762 336.972V336.972ZM237.561 344.505C237.557 345.041 237.435 345.586 237.075 346.052C236.767 346.452 236.365 346.663 235.856 346.626C235.608 346.607 235.388 346.489 235.178 346.362C234.547 345.972 234.164 345.389 233.945 344.693C233.73 344.016 233.678 343.32 233.879 342.634C234.033 342.112 234.337 341.698 234.842 341.463C235.131 341.322 235.43 341.322 235.73 341.42C236.332 341.623 236.762 342.036 237.071 342.577C237.402 343.16 237.552 343.79 237.561 344.505V344.505ZM239.187 342.041C239.416 341.745 239.715 341.538 240.066 341.397C240.519 341.218 240.944 341.279 241.332 341.557C241.776 341.872 242.024 342.318 242.136 342.845C242.187 343.104 242.21 343.372 242.215 343.677C242.187 344.486 241.958 345.262 241.388 345.911C241.192 346.132 240.958 346.306 240.697 346.447C240.164 346.738 239.669 346.654 239.211 346.292C238.799 345.972 238.57 345.535 238.477 345.032C238.267 343.931 238.491 342.925 239.187 342.041V342.041ZM235.781 324.008C236.547 322.795 237.641 322.16 239.122 322.104C240.472 322.156 241.566 322.753 242.337 323.943C242.514 324.211 242.486 324.319 242.136 324.328C240.804 324.375 239.692 324.921 238.781 325.88C238.594 326.082 238.482 326.096 238.295 325.889C237.655 325.179 236.86 324.7 235.935 324.474C235.566 324.389 235.645 324.225 235.781 324.008V324.008ZM237.673 326.839C237.832 327.027 237.893 327.192 237.79 327.446C237.491 328.165 237.379 328.922 237.458 329.703C237.486 330.022 237.402 330.079 237.094 329.999C235.776 329.656 234.505 329.797 233.323 330.497C233.061 330.652 232.987 330.587 232.921 330.314C232.702 329.359 232.234 328.532 231.51 327.874C231.281 327.667 231.272 327.507 231.435 327.258C232.211 326.077 233.29 325.457 234.529 325.419C235.912 325.428 236.893 325.917 237.673 326.839V326.839ZM227.595 325.72C227.702 323.712 229.426 322.099 231.622 322.109C232.636 322.151 233.622 322.612 234.379 323.529C234.744 323.961 234.613 324.267 234.038 324.352C232.538 324.587 231.361 325.344 230.543 326.632C230.356 326.928 230.211 326.994 229.889 326.848C229.375 326.613 228.819 326.533 228.253 326.51C227.711 326.486 227.566 326.308 227.595 325.72ZM228.683 327.657C230.66 327.972 232.062 329.674 231.921 331.682C231.309 331.386 230.744 331.099 230.113 330.996C228.697 330.761 227.408 331.066 226.263 331.931C226.029 332.11 225.884 332.143 225.646 331.946C225.389 331.734 225.099 331.532 224.791 331.424C224.314 331.254 224.31 330.977 224.412 330.558C224.894 328.635 226.772 327.347 228.683 327.657V327.657ZM222.146 325.79C223.595 325.113 224.973 325.33 226.23 326.327C226.534 326.571 226.674 326.717 226.174 326.943C224.623 327.634 223.656 328.833 223.319 330.511C223.254 330.836 223.151 330.949 222.814 330.925C222.179 330.883 221.544 330.977 220.959 331.24C220.6 331.4 220.459 331.264 220.324 330.968C220.076 330.431 219.922 329.881 219.931 329.279C219.992 327.685 220.693 326.468 222.146 325.79V325.79ZM218.586 333.112C218.31 333.469 218.133 333.883 217.988 334.315C217.932 334.489 217.876 334.626 217.642 334.551C215.918 333.991 214.222 333.384 212.768 332.232C212.371 331.917 212.338 331.616 212.525 331.174C213.147 329.674 214.502 328.729 216.091 328.725C216.763 328.715 217.385 328.884 217.964 329.214C218.497 329.515 218.918 329.867 219.025 330.558C219.1 331.043 219.576 331.527 219.506 331.95C219.436 332.378 218.894 332.712 218.586 333.112V333.112ZM220.973 341.815H220.969L220.973 341.811V341.815ZM225.062 333.257C224.585 334 224.342 334.819 224.314 335.698C224.305 335.928 224.202 335.999 223.997 335.966C222.394 335.712 220.805 335.397 219.231 335.002C218.969 334.936 219.002 334.776 219.062 334.574C219.749 332.218 223.085 331.217 224.964 332.797C225.137 332.942 225.197 333.046 225.062 333.257V333.257ZM225.408 335.783C225.464 334.353 226.113 333.262 227.324 332.552C228.524 331.842 229.772 331.852 231.015 332.472C231.183 332.557 231.347 332.646 231.244 332.9C230.73 334.156 230.777 335.42 231.258 336.761C229.342 336.634 227.548 336.46 225.758 336.225C225.454 336.187 225.398 336.041 225.408 335.783V335.783ZM232.211 350.148C231.449 349.63 231.024 348.892 230.87 347.989C230.856 347.9 230.847 347.811 230.837 347.721C230.833 347.655 230.837 347.59 230.837 347.528C230.837 347.204 230.875 346.889 231.001 346.588C231.291 345.892 232.16 345.572 232.837 345.92C233.884 346.452 234.449 347.326 234.589 348.483C234.645 348.934 234.608 349.381 234.393 349.785C234.136 350.26 233.744 350.552 233.178 350.519C232.828 350.495 232.501 350.35 232.211 350.148V350.148ZM242.575 354.972C242.229 355.216 241.841 355.282 241.43 355.24C241.052 355.207 240.711 355.033 240.365 354.892C239.94 354.718 239.519 354.535 239.07 354.441C238.477 354.323 237.902 354.403 237.332 354.572C236.874 354.709 236.444 354.906 235.991 355.047C235.664 355.146 235.332 355.212 234.991 355.221C234.281 355.24 233.716 354.704 233.566 354.06C233.505 353.796 233.543 353.542 233.603 353.279C233.711 352.842 233.837 352.414 234.015 352C234.356 351.215 234.79 350.477 235.365 349.842C236.043 349.099 236.893 348.671 237.898 348.563C237.935 348.558 237.972 348.553 238.01 348.553C238.075 348.549 238.141 348.553 238.201 348.553C238.879 348.544 239.477 348.76 240.024 349.155C240.664 349.611 241.178 350.195 241.636 350.829C241.925 351.234 242.21 351.643 242.453 352.075C242.734 352.574 242.981 353.091 243.051 353.674C243.112 354.187 243.028 354.652 242.575 354.972V354.972ZM244.215 349.71C243.897 350.011 243.519 350.209 243.08 350.279C242.617 350.354 242.234 350.204 241.93 349.856C241.561 349.433 241.425 348.92 241.467 348.365C241.514 347.679 241.72 347.044 242.14 346.489C242.486 346.024 242.925 345.69 243.495 345.544C244.042 345.398 244.481 345.582 244.822 346.01C245.117 346.376 245.229 346.809 245.238 347.256C245.215 348.22 244.907 349.047 244.215 349.71V349.71ZM244.407 338.119C244.439 338.129 244.467 338.138 244.5 338.143C244.486 338.143 244.477 338.143 244.463 338.143C244.444 338.138 244.425 338.134 244.407 338.124V338.119ZM251.584 335.924C251.378 336.403 250.794 336.577 250.444 336.667C248.112 337.268 245.234 337 244.678 336.949C244.449 336.925 244.257 336.902 244.14 336.892C244.126 336.888 244.112 336.888 244.098 336.883C244.079 336.873 244.061 336.864 244.042 336.845C244.037 336.864 244.033 336.883 244.033 336.906C244.033 336.888 244.037 336.864 244.037 336.845C243.995 336.615 243.963 336.333 243.963 336.013C243.963 335.731 243.991 335.486 244.028 335.279C244.43 333.511 245.477 332.388 247.276 332.068C249.374 331.701 251.429 333.304 251.654 335.439C251.663 335.514 251.677 335.712 251.584 335.924V335.924ZM257.378 334.833C256.009 335.204 254.626 335.491 253.233 335.764C252.859 335.834 252.761 335.75 252.724 335.378C252.607 334.156 252.093 333.107 251.191 332.279C250.948 332.058 250.99 331.894 251.135 331.659C252.014 330.196 253.794 329.496 255.448 329.971C257.102 330.441 258.247 331.964 258.242 333.685C258.237 334.588 258.228 334.598 257.378 334.833V334.833ZM263.284 332.167C262.204 333.069 260.948 333.62 259.653 334.109C259.42 334.198 259.321 334.165 259.326 333.873C259.364 332.279 258.784 330.944 257.583 329.9C257.326 329.674 257.457 329.58 257.644 329.449C258.322 328.974 259.069 328.729 259.494 328.725C261.513 328.739 262.957 329.773 263.499 331.292C263.625 331.649 263.602 331.903 263.284 332.167V332.167Z" fill="url(#paint14_linear_540_60)"/>
<path d="M1.036 240.902C1.036 240.972 1.078 241 1.148 241H2.618C2.702 241 2.73 240.958 2.73 240.888V238.018C3.052 238.018 3.164 238.018 3.612 238.018C5.726 238.018 7.448 237.052 7.448 234.826C7.448 233.286 6.44 231.774 3.724 231.774C2.702 231.774 1.666 231.802 1.134 231.816C1.064 231.816 1.036 231.858 1.036 231.928V240.902ZM2.73 233.272C2.884 233.258 3.276 233.244 3.766 233.244C5.054 233.244 5.782 233.846 5.782 234.868C5.782 236.142 4.788 236.534 3.612 236.534C3.15 236.534 2.968 236.534 2.73 236.52V233.272ZM12.4257 237.934C13.1117 237.934 13.6717 237.92 13.8677 237.878C13.9377 237.864 13.9657 237.836 13.9797 237.78C14.0217 237.626 14.0357 237.304 14.0357 236.912C14.0357 235.582 13.2377 233.958 11.1657 233.958C9.05166 233.958 7.87566 235.68 7.87566 237.626C7.87566 239.348 8.78566 241.14 11.3337 241.14C12.2857 241.14 12.9017 240.986 13.4337 240.734C13.4897 240.706 13.5177 240.664 13.5177 240.58V239.418C13.5177 239.348 13.4757 239.334 13.4337 239.362C12.9017 239.586 12.3277 239.698 11.6977 239.698C10.2697 239.698 9.62566 238.914 9.58366 237.934H12.4257ZM9.58366 236.73C9.69566 236.044 10.1297 235.302 11.0957 235.302C12.1597 235.302 12.4397 236.198 12.4397 236.604C12.4397 236.618 12.4397 236.674 12.4397 236.716C12.3837 236.73 12.2017 236.73 11.6697 236.73H9.58366ZM18.3567 239.768C18.3567 239.684 18.3147 239.67 18.2727 239.684C18.0767 239.726 17.9227 239.74 17.7407 239.74C17.1387 239.74 16.9427 239.446 16.9427 238.83V235.512H18.3147C18.3847 235.512 18.4127 235.484 18.4127 235.414V234.196C18.4127 234.126 18.3847 234.098 18.3147 234.098H16.9567C16.9567 233.412 16.9847 232.586 17.0267 232.124C17.0267 232.054 16.9987 232.04 16.9287 232.054L15.5147 232.25C15.4447 232.264 15.4167 232.306 15.4027 232.376C15.3327 232.726 15.2767 233.608 15.2627 234.098H14.3807C14.2967 234.098 14.2687 234.126 14.2687 234.21V235.386C14.2687 235.47 14.2967 235.498 14.3667 235.512H15.2487V239.194C15.2487 240.58 15.9347 241.14 17.0827 241.14C17.5447 241.14 17.8947 241.084 18.2727 240.944C18.3427 240.916 18.3567 240.86 18.3567 240.776V239.768ZM20.3223 234.714C20.3923 234.714 20.4063 234.686 20.4483 234.644C20.8963 233.776 21.0923 232.866 21.0923 232.096C21.0923 231.704 21.0503 231.382 20.9943 231.144C20.9663 231.06 20.9243 231.032 20.8543 231.032H19.6223C19.5663 231.032 19.5523 231.074 19.5523 231.13C19.5943 231.354 19.6363 231.732 19.6363 232.068C19.6363 232.936 19.4683 233.594 19.1043 234.616C19.0903 234.672 19.1043 234.714 19.1603 234.714H20.3223ZM25.4329 235.722C25.5169 235.75 25.5589 235.708 25.5589 235.638V234.406C25.5589 234.336 25.5449 234.28 25.4749 234.238C25.1389 234.07 24.5229 233.958 23.7109 233.958C21.9609 233.958 21.0929 234.952 21.0929 236.016C21.0929 237.024 21.6389 237.654 23.1649 238.214C24.0329 238.564 24.2989 238.788 24.2989 239.138C24.2989 239.502 23.9489 239.754 23.2209 239.754C22.5909 239.754 21.8209 239.586 21.2189 239.194C21.1629 239.166 21.1069 239.194 21.1069 239.264V240.594C21.1069 240.678 21.1349 240.706 21.2049 240.748C21.6249 240.986 22.3529 241.14 23.1789 241.14C24.9009 241.14 25.9369 240.314 25.9369 238.998C25.9369 238.004 25.3909 237.374 23.7949 236.786C22.8989 236.436 22.6889 236.226 22.6889 235.918C22.6889 235.624 22.9409 235.316 23.6829 235.316C24.2989 235.316 24.9989 235.484 25.4329 235.722ZM32.7395 240.958C33.5935 241 34.2935 241.168 34.2935 241.784C34.2935 242.316 33.7055 242.862 32.3755 242.862C31.2135 242.862 30.5415 242.316 30.5415 241.826C30.5415 241.616 30.8075 241.168 31.2135 240.888L32.7395 240.958ZM32.0675 235.176C32.8515 235.176 33.1875 235.694 33.1875 236.352C33.1875 237.038 32.7675 237.444 32.0675 237.444C31.3255 237.444 30.9335 236.968 30.9335 236.324C30.9335 235.61 31.3675 235.176 32.0675 235.176ZM31.6755 239.474C31.5635 239.334 31.5075 239.194 31.4935 239.04C31.4655 238.9 31.4935 238.76 31.5355 238.62C31.7175 238.648 31.9135 238.662 32.0955 238.662C33.6075 238.662 34.7975 237.906 34.7975 236.408C34.7975 235.904 34.6435 235.568 34.4895 235.344C34.7975 235.386 35.3015 235.414 35.5675 235.414C35.6375 235.414 35.6515 235.386 35.6515 235.33V234.182C35.6515 234.126 35.6375 234.098 35.5675 234.098H33.6215C33.5375 234.098 33.4255 234.084 33.2995 234.056C33.0055 234 32.5575 233.958 32.0675 233.958C30.3035 233.958 29.2815 235.008 29.2815 236.352C29.2815 237.206 29.6735 237.808 30.2475 238.172C30.0795 238.452 29.9955 238.76 29.9955 239.082C29.9815 239.46 30.0795 239.824 30.2895 240.132C29.3655 240.93 28.9875 241.504 28.9875 241.952C28.9875 242.974 30.0095 244.108 32.2635 244.108C34.4475 244.108 35.8475 242.96 35.8475 241.532C35.8475 240.384 35.0215 239.628 33.1035 239.53L31.6755 239.474ZM40.3256 237.934C41.0116 237.934 41.5716 237.92 41.7676 237.878C41.8376 237.864 41.8656 237.836 41.8796 237.78C41.9216 237.626 41.9356 237.304 41.9356 236.912C41.9356 235.582 41.1376 233.958 39.0656 233.958C36.9516 233.958 35.7756 235.68 35.7756 237.626C35.7756 239.348 36.6856 241.14 39.2336 241.14C40.1856 241.14 40.8016 240.986 41.3336 240.734C41.3896 240.706 41.4176 240.664 41.4176 240.58V239.418C41.4176 239.348 41.3756 239.334 41.3336 239.362C40.8016 239.586 40.2276 239.698 39.5976 239.698C38.1696 239.698 37.5256 238.914 37.4836 237.934H40.3256ZM37.4836 236.73C37.5956 236.044 38.0296 235.302 38.9956 235.302C40.0596 235.302 40.3396 236.198 40.3396 236.604C40.3396 236.618 40.3396 236.674 40.3396 236.716C40.2836 236.73 40.1016 236.73 39.5696 236.73H37.4836ZM46.2567 239.768C46.2567 239.684 46.2147 239.67 46.1727 239.684C45.9767 239.726 45.8227 239.74 45.6407 239.74C45.0387 239.74 44.8427 239.446 44.8427 238.83V235.512H46.2147C46.2847 235.512 46.3127 235.484 46.3127 235.414V234.196C46.3127 234.126 46.2847 234.098 46.2147 234.098H44.8567C44.8567 233.412 44.8847 232.586 44.9267 232.124C44.9267 232.054 44.8987 232.04 44.8287 232.054L43.4147 232.25C43.3447 232.264 43.3167 232.306 43.3027 232.376C43.2327 232.726 43.1767 233.608 43.1627 234.098H42.2807C42.1967 234.098 42.1687 234.126 42.1687 234.21V235.386C42.1687 235.47 42.1967 235.498 42.2667 235.512H43.1487V239.194C43.1487 240.58 43.8347 241.14 44.9827 241.14C45.4447 241.14 45.7947 241.084 46.1727 240.944C46.2427 240.916 46.2567 240.86 46.2567 240.776V239.768ZM53.0319 239.768C53.0319 239.684 52.9899 239.67 52.9479 239.684C52.7519 239.726 52.5979 239.74 52.4159 239.74C51.8139 239.74 51.6179 239.446 51.6179 238.83V235.512H52.9899C53.0599 235.512 53.0879 235.484 53.0879 235.414V234.196C53.0879 234.126 53.0599 234.098 52.9899 234.098H51.6319C51.6319 233.412 51.6599 232.586 51.7019 232.124C51.7019 232.054 51.6739 232.04 51.6039 232.054L50.1899 232.25C50.1199 232.264 50.0919 232.306 50.0779 232.376C50.0079 232.726 49.9519 233.608 49.9379 234.098H49.0559C48.9719 234.098 48.9439 234.126 48.9439 234.21V235.386C48.9439 235.47 48.9719 235.498 49.0419 235.512H49.9239V239.194C49.9239 240.58 50.6099 241.14 51.7579 241.14C52.2199 241.14 52.5699 241.084 52.9479 240.944C53.0179 240.916 53.0319 240.86 53.0319 240.776V239.768ZM55.5419 235.918C55.9059 235.596 56.3679 235.428 56.8859 235.428C57.6979 235.428 58.1039 235.96 58.1039 236.898V240.874C58.1039 240.958 58.1459 241 58.2299 241H59.6859C59.7559 241 59.7979 240.972 59.7979 240.874V236.73C59.7979 234.49 58.5239 233.958 57.4599 233.958C56.6619 233.958 56.0739 234.21 55.5419 234.602V231.13C55.5419 231.06 55.5279 231.032 55.4439 231.032H53.9599C53.8759 231.032 53.8479 231.074 53.8479 231.13V240.888C53.8479 240.958 53.8759 241 53.9599 241H55.4439C55.5279 241 55.5419 240.972 55.5419 240.902V235.918ZM65.2685 237.934C65.9545 237.934 66.5145 237.92 66.7105 237.878C66.7805 237.864 66.8085 237.836 66.8225 237.78C66.8645 237.626 66.8785 237.304 66.8785 236.912C66.8785 235.582 66.0805 233.958 64.0085 233.958C61.8945 233.958 60.7185 235.68 60.7185 237.626C60.7185 239.348 61.6285 241.14 64.1765 241.14C65.1285 241.14 65.7445 240.986 66.2765 240.734C66.3325 240.706 66.3605 240.664 66.3605 240.58V239.418C66.3605 239.348 66.3185 239.334 66.2765 239.362C65.7445 239.586 65.1705 239.698 64.5405 239.698C63.1125 239.698 62.4685 238.914 62.4265 237.934H65.2685ZM62.4265 236.73C62.5385 236.044 62.9725 235.302 63.9385 235.302C65.0025 235.302 65.2825 236.198 65.2825 236.604C65.2825 236.618 65.2825 236.674 65.2825 236.716C65.2265 236.73 65.0445 236.73 64.5125 236.73H62.4265ZM67.7599 240.874C67.7599 240.958 67.8019 241 67.8999 241H69.3419C69.4399 241 69.4679 240.972 69.4679 240.888V234.196C69.4679 234.112 69.4399 234.098 69.3559 234.098H67.8719C67.8019 234.098 67.7599 234.126 67.7599 234.196V240.874ZM68.6139 233.16C69.2019 233.16 69.5799 232.768 69.5799 232.194C69.5799 231.634 69.2299 231.228 68.6279 231.228C68.0679 231.228 67.6619 231.62 67.6619 232.194C67.6619 232.768 68.0399 233.16 68.6139 233.16ZM70.7855 234.098C70.7155 234.098 70.7015 234.112 70.7015 234.182C70.7575 234.644 70.7715 235.456 70.7715 236.058V240.888C70.7715 240.958 70.7995 241 70.8975 241H72.3535C72.4375 241 72.4795 240.972 72.4795 240.888V236.38C72.8015 235.96 73.6275 235.61 74.6215 235.638C74.7195 235.638 74.7475 235.61 74.7475 235.54V234.056C74.7475 233.972 74.7195 233.958 74.6355 233.958C73.6695 233.958 72.8715 234.462 72.3955 235.05C72.3815 234.742 72.3255 234.392 72.2555 234.21C72.2275 234.126 72.1855 234.098 72.1015 234.098H70.7855ZM78.1379 235.512V240.888C78.1379 240.958 78.1659 241 78.2499 241H79.7059C79.8179 241 79.8319 240.958 79.8319 240.888V235.512H81.0639C81.1479 235.498 81.1759 235.484 81.1759 235.414V234.182C81.1759 234.126 81.1619 234.098 81.0639 234.098H79.8319V233.636C79.8319 232.67 80.1819 232.362 80.7559 232.362C80.8819 232.362 81.0499 232.376 81.1899 232.404C81.2599 232.432 81.2879 232.39 81.2879 232.334V231.13C81.2879 231.06 81.2879 231.018 81.2039 230.99C81.0499 230.92 80.7979 230.906 80.5179 230.906C79.4539 230.906 78.8099 231.382 78.4459 232.138C78.2499 232.558 78.1379 233.076 78.1379 233.776V234.098H77.2839C77.2279 234.098 77.1999 234.112 77.1999 234.182V235.414C77.1999 235.484 77.2139 235.512 77.2839 235.512H78.1379ZM84.6748 233.958C82.5748 233.958 81.2728 235.568 81.2728 237.556C81.2728 239.334 82.3088 241.14 84.6468 241.14C86.6208 241.14 88.0068 239.684 88.0068 237.514C88.0068 235.596 86.8308 233.958 84.6748 233.958ZM84.5908 235.372C85.7808 235.372 86.2848 236.394 86.2848 237.556C86.2848 238.998 85.5428 239.712 84.6748 239.712C83.6108 239.712 82.9808 238.816 82.9808 237.528C82.9808 236.198 83.6528 235.372 84.5908 235.372ZM91.9521 233.958C89.8521 233.958 88.5501 235.568 88.5501 237.556C88.5501 239.334 89.5861 241.14 91.9241 241.14C93.8981 241.14 95.2841 239.684 95.2841 237.514C95.2841 235.596 94.1081 233.958 91.9521 233.958ZM91.8681 235.372C93.0581 235.372 93.5621 236.394 93.5621 237.556C93.5621 238.998 92.8201 239.712 91.9521 239.712C90.8881 239.712 90.2581 238.816 90.2581 237.528C90.2581 236.198 90.9301 235.372 91.8681 235.372ZM99.4114 241.14C100.251 241.14 101.147 240.986 102.057 240.594C102.127 240.566 102.141 240.538 102.141 240.468C102.113 240.216 102.085 239.852 102.085 239.572V231.116C102.085 231.06 102.085 231.032 102.015 231.032H100.489C100.433 231.032 100.405 231.06 100.405 231.13V234C100.167 233.972 99.9994 233.958 99.8034 233.958C97.3394 233.958 95.8274 235.582 95.8274 237.612C95.8274 239.964 97.3814 241.14 99.4114 241.14ZM100.405 239.572C100.153 239.656 99.8734 239.684 99.5934 239.684C98.4734 239.684 97.5634 239.054 97.5634 237.528C97.5634 236.17 98.5014 235.372 99.7474 235.372C99.9994 235.372 100.223 235.4 100.405 235.47V239.572Z" fill="#696969"/>
<path d="M51.8902 164V166.191C52.7037 165.956 52.6791 164.933 53.6328 164.849C53.5557 166.181 53.5662 167.499 53.3769 168.789C53.2331 169.761 53.5101 170.118 54.4533 170.322C55.8312 170.62 56.7919 171.423 57.2162 172.899C57.7281 174.673 59.4987 175.101 60.8801 175.893C62.9453 177.082 62.9628 177.05 61.6761 179.084C59.979 181.769 59.2322 182.085 56.0591 181.373C55.3649 181.219 54.7057 180.96 54.1482 181.647C53.6609 182.25 53.8888 182.849 54.1412 183.445C54.7478 184.879 54.8775 186.37 54.6321 187.891C54.5094 188.656 54.5059 189.416 54.7232 190.139C55.8452 193.894 55.4981 197.614 54.3937 201.285C53.426 204.5 53.1455 207.764 53.2541 211.102C53.2892 212.214 53.3628 213.125 54.5164 213.679C55.0809 213.953 55.5682 214.521 55.3123 215.25C55.0844 215.902 54.4112 215.902 53.8397 215.962C51.3888 216.221 50.4983 215.464 50.4527 213.034C50.3826 209.181 49.1063 205.492 48.8539 201.615C48.2613 203.192 47.7214 204.784 47.6337 206.474C47.5636 207.81 47.6337 209.149 47.5951 210.485C47.5566 211.884 47.4584 213.255 49.0642 214.005C49.499 214.209 49.8707 214.752 49.6533 215.334C49.4429 215.899 48.8924 215.979 48.356 216.029C45.9192 216.249 44.7025 215.706 44.7165 212.996C44.7306 210.138 44.2327 207.277 43.1212 204.465C43.6542 208.091 42.9073 211.19 39.3836 213.42C40.751 213.574 41.7713 213.238 42.6023 213.918C43.0616 214.293 43.535 214.689 43.4122 215.355C43.265 216.151 42.5848 216.043 42.0238 216.046C38.3598 216.057 34.6958 216.046 31.0318 216.057C29.5838 216.06 28.1497 216.067 26.6982 216.292C23.5461 216.775 21.3196 215.44 20.096 212.407C19.0301 209.766 18.3394 207 17.6241 204.244C17.4207 203.462 17.2244 202.677 17 201.786C18.0694 201.436 18.427 202.41 18.8337 203.049C20.3099 205.366 20.8007 208.126 22.0945 210.538C22.8028 211.856 23.6197 212.841 25.215 212.954C26.067 213.013 26.4212 212.796 26.4387 211.821C26.4878 209.328 26.5053 206.797 27.1925 204.384C29.1665 197.46 33.3249 191.937 38.7034 187.341C40.9789 185.395 42.7671 183.263 43.8049 180.465C44.7551 177.909 45.7789 175.378 46.7817 172.843C47.0587 172.138 47.3146 171.275 48.0474 171.033C49.6147 170.518 49.8111 169.291 50.0039 167.959C50.1967 166.63 50.642 165.395 51.8972 164.004L51.8902 164Z" fill="url(#paint15_linear_540_60)"/>
<path d="M86.7915 199.826C86.4338 199.525 86.1183 199.805 85.8588 199.991C84.9682 200.626 84.4809 201.523 84.2284 202.579C83.8182 204.279 84.2039 205.931 84.4669 207.589C84.7824 209.574 84.7649 211.534 83.9164 213.399C83.5097 214.296 82.7979 214.721 81.7951 214.447C80.9466 214.219 80.3891 213.809 80.3821 212.768C80.3716 211.614 80.1367 210.461 80.0245 209.307C79.5266 204.332 77.8822 200.131 72.679 198.301C72.4651 198.228 72.2793 198.066 72.09 197.937C70.7927 197.053 69.8214 196.092 70.8803 194.374C71.0977 194.02 71.1293 193.438 71.0241 193.017C70.4315 190.559 69.4778 188.224 68.4751 185.605C68.0894 186.471 67.8404 187.025 67.5074 187.772C67.1673 187.043 66.9148 186.492 66.6588 185.945C66.5151 185.917 66.3748 185.886 66.2311 185.858C66.0032 188.677 63.8153 189.949 62.0307 191.52C61.4101 192.067 60.6562 192.439 60.8701 193.445C61.084 194.458 61.4556 195.433 62.6267 195.556C64.0923 195.707 63.9275 196.552 63.5664 197.474C62.5215 200.149 62.518 202.866 63.6014 205.464C64.5376 207.715 64.4605 209.994 64.4149 212.312C64.4009 212.982 64.2431 213.578 63.6365 213.967C62.9668 214.402 62.7249 215.05 62.9353 215.78C63.1877 216.67 63.9731 216.313 64.5586 216.313C70.0774 216.323 75.5997 216.26 81.1184 216.327C84.253 216.365 86.6653 214.177 86.7459 211.015C86.781 209.658 86.4233 208.375 86.1463 207.067C85.694 204.903 85.1225 202.716 86.7599 200.745C86.9808 200.475 87.1526 200.131 86.7915 199.826V199.826ZM67.297 213.399C66.5607 212.161 66.8903 211.393 67.3706 210.405C67.6266 211.404 67.5529 212.172 67.297 213.399Z" fill="url(#paint16_linear_540_60)"/>
<path d="M421.83 141.645C422.638 141.464 423.147 140.663 422.967 139.854L420.024 126.679C419.843 125.87 419.042 125.361 418.233 125.542C417.425 125.722 416.916 126.524 417.096 127.333L419.712 139.044L408 141.66C407.192 141.84 406.683 142.642 406.863 143.451C407.044 144.259 407.846 144.768 408.654 144.588L421.83 141.645ZM295.692 62.0853L420.699 141.447L422.307 138.915L297.3 59.5526L295.692 62.0853Z" fill="#FF804A"/>
<path d="M291.106 340.586C290.925 341.394 291.435 342.196 292.243 342.377L305.418 345.319C306.227 345.5 307.029 344.991 307.209 344.182C307.39 343.374 306.881 342.572 306.072 342.391L294.361 339.776L296.977 328.064C297.157 327.256 296.648 326.454 295.84 326.273C295.031 326.093 294.229 326.602 294.049 327.41L291.106 340.586ZM409.627 264.821L291.766 339.646L293.374 342.179L411.235 267.354L409.627 264.821Z" fill="#FF804A"/>
<path d="M72.673 265.536C71.8645 265.717 71.3555 266.519 71.5361 267.327L74.4795 280.502C74.6601 281.311 75.462 281.82 76.2704 281.639C77.0789 281.459 77.5879 280.657 77.4073 279.848L74.791 268.137L86.5023 265.521C87.3108 265.34 87.8198 264.538 87.6391 263.73C87.4585 262.921 86.6567 262.412 85.8482 262.593L72.673 265.536ZM188.804 338.734L73.8039 265.734L72.1961 268.266L187.196 341.266L188.804 338.734Z" fill="#FF804A"/>
<path d="M50.5501 139.616C50.3378 140.416 50.8148 141.238 51.6156 141.45L64.6648 144.909C65.4656 145.122 66.2868 144.645 66.4991 143.844C66.7114 143.043 66.2343 142.222 65.4336 142.01L53.8343 138.934L56.9095 127.335C57.1218 126.534 56.6447 125.713 55.8439 125.501C55.0432 125.289 54.2219 125.766 54.0096 126.566L50.5501 139.616ZM187.247 59.703L184.631 61.2222L186.138 63.8163L188.753 62.297L187.247 59.703ZM179.4 64.2606L174.17 67.2991L175.677 69.8932L180.907 66.8547L179.4 64.2606ZM168.939 70.3376L163.708 73.376L165.215 75.9701L170.446 72.9317L168.939 70.3376ZM158.477 76.4145L153.247 79.453L154.753 82.0471L159.984 79.0086L158.477 76.4145ZM148.016 82.4914L142.785 85.5299L144.292 88.124L149.523 85.0855L148.016 82.4914ZM137.554 88.5683L132.323 91.6068L133.83 94.2009L139.061 91.1624L137.554 88.5683ZM127.093 94.6453L121.862 97.6837L123.369 100.278L128.6 97.2394L127.093 94.6453ZM116.631 100.722L111.4 103.761L112.907 106.355L118.138 103.316L116.631 100.722ZM106.17 106.799L100.939 109.838L102.446 112.432L107.676 109.393L106.17 106.799ZM95.7081 112.876L90.4773 115.914L91.9842 118.509L97.215 115.47L95.7081 112.876ZM85.2465 118.953L80.0158 121.991L81.5226 124.586L86.7534 121.547L85.2465 118.953ZM74.785 125.03L69.5543 128.068L71.0611 130.662L76.2919 127.624L74.785 125.03ZM64.3235 131.107L59.0927 134.145L60.5996 136.739L65.8304 133.701L64.3235 131.107ZM53.862 137.184L51.2466 138.703L52.7534 141.297L55.3688 139.778L53.862 137.184Z" fill="#FF804A"/>
<defs>
<linearGradient id="paint0_linear_540_60" x1="408.5" y1="164" x2="408.5" y2="180.75" gradientUnits="userSpaceOnUse">
<stop stop-color="#EE5B1D"/>
<stop offset="1" stop-color="#DF4300"/>
</linearGradient>
<linearGradient id="paint1_linear_540_60" x1="408.5" y1="172.375" x2="408.5" y2="192.475" gradientUnits="userSpaceOnUse">
<stop stop-color="#EE5B1D"/>
<stop offset="1" stop-color="#DF4300"/>
</linearGradient>
<linearGradient id="paint2_linear_540_60" x1="408.5" y1="184.1" x2="408.5" y2="204.2" gradientUnits="userSpaceOnUse">
<stop stop-color="#EE5B1D"/>
<stop offset="1" stop-color="#DF4300"/>
</linearGradient>
<linearGradient id="paint3_linear_540_60" x1="408.5" y1="195.825" x2="408.5" y2="215.925" gradientUnits="userSpaceOnUse">
<stop stop-color="#EE5B1D"/>
<stop offset="1" stop-color="#DF4300"/>
</linearGradient>
<linearGradient id="paint4_linear_540_60" x1="408.5" y1="207.55" x2="408.5" y2="227.65" gradientUnits="userSpaceOnUse">
<stop stop-color="#EE5B1D"/>
<stop offset="1" stop-color="#DF4300"/>
</linearGradient>
<linearGradient id="paint5_linear_540_60" x1="443.5" y1="187.45" x2="443.5" y2="204.2" gradientUnits="userSpaceOnUse">
<stop stop-color="#EE5B1D"/>
<stop offset="1" stop-color="#DF4300"/>
</linearGradient>
<linearGradient id="paint6_linear_540_60" x1="443.5" y1="195.825" x2="443.5" y2="215.925" gradientUnits="userSpaceOnUse">
<stop stop-color="#EE5B1D"/>
<stop offset="1" stop-color="#DF4300"/>
</linearGradient>
<linearGradient id="paint7_linear_540_60" x1="443.5" y1="207.55" x2="443.5" y2="227.65" gradientUnits="userSpaceOnUse">
<stop stop-color="#EE5B1D"/>
<stop offset="1" stop-color="#DF4300"/>
</linearGradient>
<linearGradient id="paint8_linear_540_60" x1="244.148" y1="29.8534" x2="244.148" y2="56.5431" gradientUnits="userSpaceOnUse">
<stop stop-color="#EE5B1D"/>
<stop offset="1" stop-color="#DF4300"/>
</linearGradient>
<linearGradient id="paint9_linear_540_60" x1="246.709" y1="0" x2="246.709" y2="32.8821" gradientUnits="userSpaceOnUse">
<stop stop-color="#EE5B1D"/>
<stop offset="1" stop-color="#DF4300"/>
</linearGradient>
<linearGradient id="paint10_linear_540_60" x1="214.233" y1="39.0312" x2="214.233" y2="59.7062" gradientUnits="userSpaceOnUse">
<stop stop-color="#EE5B1D"/>
<stop offset="1" stop-color="#DF4300"/>
</linearGradient>
<linearGradient id="paint11_linear_540_60" x1="269.636" y1="26.951" x2="269.636" y2="37.7467" gradientUnits="userSpaceOnUse">
<stop stop-color="#EE5B1D"/>
<stop offset="1" stop-color="#DF4300"/>
</linearGradient>
<linearGradient id="paint12_linear_540_60" x1="266.177" y1="27.7911" x2="266.177" y2="37.4195" gradientUnits="userSpaceOnUse">
<stop stop-color="#EE5B1D"/>
<stop offset="1" stop-color="#DF4300"/>
</linearGradient>
<linearGradient id="paint13_linear_540_60" x1="263.195" y1="28.8507" x2="263.195" y2="37.2519" gradientUnits="userSpaceOnUse">
<stop stop-color="#EE5B1D"/>
<stop offset="1" stop-color="#DF4300"/>
</linearGradient>
<linearGradient id="paint14_linear_540_60" x1="238" y1="321" x2="238" y2="359" gradientUnits="userSpaceOnUse">
<stop stop-color="#EE5B1D"/>
<stop offset="1" stop-color="#DF4300"/>
</linearGradient>
<linearGradient id="paint15_linear_540_60" x1="39.7769" y1="164" x2="39.7769" y2="216.388" gradientUnits="userSpaceOnUse">
<stop stop-color="#EE5B1D"/>
<stop offset="1" stop-color="#DF4300"/>
</linearGradient>
<linearGradient id="paint16_linear_540_60" x1="73.9167" y1="185.605" x2="73.9167" y2="216.384" gradientUnits="userSpaceOnUse">
<stop stop-color="#EE5B1D"/>
<stop offset="1" stop-color="#DF4300"/>
</linearGradient>
</defs>
</svg>
