<svg width="29" height="25" viewBox="0 0 29 25" fill="none" xmlns="http://www.w3.org/2000/svg">
<path d="M28.7669 12.3692C28.3453 12.3537 27.9603 12.4809 27.6019 12.691C26.964 13.0641 26.3604 13.4892 25.7863 13.955C25.1041 14.508 24.4633 15.1024 23.9187 15.7981C23.9777 15.8269 24.0424 15.8529 24.1028 15.888C24.7619 16.2681 24.9523 16.7459 24.8012 17.3881C24.6965 17.8357 24.4092 18.1589 24.0297 18.4041C23.5583 18.7091 23.0257 18.799 22.4804 18.8412C21.9513 18.8819 21.4194 18.8693 20.8896 18.9143C20.4758 18.9494 20.0598 18.9367 19.6446 18.941C18.9974 18.9473 18.3496 18.941 17.7025 18.9248C16.8516 18.9037 16 18.8833 15.1491 18.8602C14.9776 18.8552 14.8055 18.8489 14.6242 18.8222C14.6727 18.7569 14.717 18.714 14.7915 18.7077C14.9524 18.6936 15.1126 18.6704 15.2742 18.6599C16.0239 18.6121 16.775 18.6177 17.5247 18.5981C18.2084 18.5798 18.8927 18.6051 19.5764 18.6199C20.2784 18.6353 20.981 18.6444 21.6829 18.6135C22.3265 18.5854 22.9554 18.48 23.5618 18.2573C23.8021 18.1695 24.0304 18.0613 24.1977 17.8596C24.6052 17.3678 24.6474 16.7775 24.1478 16.2857C24.0276 16.1669 23.892 16.0686 23.7487 15.9814C23.2962 15.706 22.791 15.6147 22.276 15.5641C21.4166 15.4791 20.5636 15.5535 19.7134 15.68C19.2244 15.7524 18.7354 15.8283 18.2414 15.8508C17.5367 15.8824 16.8382 15.8198 16.1468 15.6863C15.5967 15.5795 15.0648 15.4151 14.5877 15.1109C14.2111 14.8706 13.812 14.6781 13.3974 14.5143C12.7482 14.2586 12.0743 14.0759 11.4167 13.8454C10.01 13.3529 8.58154 13.27 7.12848 13.6002C6.39703 13.7667 5.68667 14.0035 4.97349 14.234C4.47813 14.3935 3.99823 14.5825 3.57946 14.9001C3.26327 15.1397 2.94849 15.3835 2.61052 15.5901C2.26131 15.8037 2.0189 16.1114 1.7793 16.4354C2.00695 16.5267 2.17488 16.6911 2.29011 16.8991C2.52269 17.3186 2.80936 17.7022 3.06934 18.1034C3.38974 18.5967 3.66518 19.118 3.99331 19.6064C4.50694 20.3701 5.09575 21.0749 5.70494 21.7635C5.7211 21.7817 5.75201 21.8042 5.7485 21.819C5.7225 21.9405 5.81103 21.8836 5.84827 21.8787C5.93891 21.8674 6.02604 21.8365 6.10966 21.7986C6.32396 21.7016 6.5467 21.63 6.77576 21.578C6.95071 21.5379 7.12567 21.495 7.29992 21.4515C7.98359 21.2807 8.67147 21.1901 9.37271 21.3356C9.85612 21.436 10.3501 21.4845 10.8272 21.6131C11.2621 21.7304 11.6914 21.8689 12.1263 21.9876C12.5198 22.0951 12.9252 22.1661 13.3026 22.3242C13.9314 22.5884 14.5687 22.828 15.218 23.0373C15.7344 23.2046 16.2445 23.3866 16.7933 23.4175C17.3224 23.4477 17.8346 23.3964 18.3075 23.1308C18.6187 22.9558 18.9209 22.7668 19.2054 22.5511C19.3003 22.4794 19.4127 22.4211 19.4886 22.3375C19.6165 22.1963 19.7549 22.0705 19.9067 21.9602C20.7133 21.3735 21.5234 20.7917 22.3589 20.2465C22.7327 20.0026 23.1093 19.7645 23.436 19.4595C23.8653 19.0576 24.3347 18.7098 24.8202 18.3803C25.0879 18.1983 25.3409 17.9959 25.5608 17.7563C25.6535 17.6551 25.74 17.5483 25.8222 17.438C26.0941 17.0741 26.3569 16.7038 26.6295 16.3405C26.8803 16.006 27.1389 15.6849 27.4544 15.4137C27.9174 15.016 28.3018 14.5544 28.6306 14.0436C28.7423 13.87 28.8597 13.6986 29.0002 13.5454V12.3903C28.9215 12.3832 28.8435 12.3727 28.7648 12.3699L28.7669 12.3692Z" fill="url(#paint0_linear_458_21)"/>
<path d="M11.9385 9.0218C12.386 9.47289 12.8421 9.91485 13.2896 10.3652C13.9417 11.0215 14.5895 11.682 15.2388 12.3418C15.6182 12.7268 15.9955 13.1133 16.3742 13.4997C16.4051 13.5313 16.4445 13.5587 16.441 13.6227C16.4866 13.532 16.5569 13.48 16.6166 13.4189C17.5286 12.4872 18.4393 11.5541 19.3555 10.6266C19.905 10.0701 20.4706 9.53051 21.0179 8.97191C21.6939 8.28192 22.3291 7.5582 22.8996 6.77757C23.2559 6.28994 23.5699 5.78193 23.7737 5.21139C24.0878 4.33169 24.1805 3.43653 23.9423 2.5238C23.7674 1.85348 23.4442 1.26748 22.9165 0.807957C22.2989 0.269736 21.5646 0.0322442 20.7573 0.0111651C19.8108 -0.0134273 18.9402 0.243036 18.1399 0.748935C17.8547 0.929513 17.6109 1.16138 17.3439 1.36445C17.0199 1.61107 16.6883 1.84927 16.4522 2.19777C16.2667 1.91742 16.0173 1.71225 15.7622 1.5127C15.5964 1.38342 15.4278 1.25624 15.2662 1.12204C14.1581 0.20158 12.899 -0.175737 11.474 0.0765104C10.8213 0.191743 10.2514 0.490364 9.79331 0.975887C9.13775 1.67009 8.84545 2.51537 8.82577 3.4555C8.80399 4.49891 9.11667 5.45099 9.68721 6.31664C10.3371 7.30104 11.1093 8.18566 11.9385 9.0218V9.0218Z" fill="url(#paint1_linear_458_21)"/>
<path d="M5.84386 22.2651C5.65696 22.0944 5.44617 21.951 5.27613 21.7606C4.83136 21.2631 4.45755 20.7144 4.11256 20.1445C3.84345 19.6991 3.61369 19.2304 3.33123 18.792C2.8176 17.9945 2.20911 17.2708 1.60836 16.54C1.49523 16.403 1.34698 16.3109 1.17553 16.2618C0.954201 16.1978 0.725844 16.1767 0.497487 16.1704C0.33869 16.1662 0.191839 16.2147 0.059743 16.3074C0.0182874 16.3362 -0.000683833 16.3658 1.88047e-05 16.4185C0.00282936 16.6869 0.00212672 16.956 0.000721443 17.2244C0.000721443 17.2686 0.00985574 17.3073 0.0302322 17.3459C0.249455 17.764 0.444789 18.1933 0.626772 18.6282C1.0603 19.6653 1.52826 20.6849 2.1248 21.6412C2.52881 22.289 2.9518 22.9221 3.48791 23.4715C3.87366 23.8664 4.26644 24.2564 4.58262 24.7356C4.71753 24.4742 4.88546 24.2508 5.06393 24.035C5.41385 23.6114 5.69139 23.1434 5.92466 22.6487C6.02795 22.4302 6.02584 22.4323 5.84245 22.2644L5.84386 22.2651Z" fill="url(#paint2_linear_458_21)"/>
<path d="M24.4596 14.0815C24.0816 14.3801 23.6952 14.6703 23.3558 15.0153C23.2272 15.1467 23.112 15.2887 23.0396 15.4601C23.0305 15.4819 23.0009 15.517 23.0501 15.5219C23.2124 15.5374 23.3607 15.6091 23.5209 15.6329C23.6474 15.6512 23.7528 15.6224 23.8371 15.5163C23.9207 15.4116 24.0233 15.3231 24.1252 15.2353C24.2938 15.0898 24.4716 14.9542 24.6276 14.7947C25.236 14.1757 25.8867 13.6044 26.5633 13.0613C27.0109 12.7022 27.4866 12.3931 28.0375 12.2167C28.2728 12.1415 28.5103 12.0909 28.7527 12.19C28.7928 12.2062 28.797 12.1858 28.8061 12.1563C28.8469 12.0186 28.8764 11.8788 28.8764 11.734C28.8785 11.3581 28.6846 11.1621 28.3073 11.1656C28.0642 11.1677 27.8527 11.2703 27.6482 11.3883C27.0383 11.741 26.512 12.1992 26.0181 12.6959C25.5262 13.1899 25.0056 13.6501 24.4589 14.0822L24.4596 14.0815Z" fill="url(#paint3_linear_458_21)"/>
<path d="M24.2739 13.2488C23.9387 13.565 23.6064 13.8833 23.2529 14.1812C22.9072 14.4728 22.5805 14.7841 22.3388 15.1734C22.2685 15.2865 22.1856 15.3919 22.0605 15.4678C22.2032 15.491 22.3367 15.4987 22.4709 15.5022C22.6508 15.5071 22.7955 15.4305 22.91 15.2949C22.9768 15.2155 23.0414 15.1347 23.1089 15.0553C23.1679 14.9851 23.2276 14.9155 23.3056 14.8649C23.5782 14.6879 23.8164 14.4686 24.0518 14.2466C24.5577 13.7688 25.0643 13.2917 25.5709 12.8146C25.8843 12.5188 26.2335 12.2659 26.5504 11.9743C26.705 11.8323 26.8518 11.6834 26.972 11.5147C26.823 11.5147 26.6776 11.5119 26.5321 11.5147C26.3403 11.519 26.1583 11.5625 25.9925 11.6651C25.7719 11.8021 25.5562 11.9483 25.3714 12.1317C25.0011 12.4991 24.6547 12.8905 24.2753 13.2496L24.2739 13.2488Z" fill="url(#paint4_linear_458_21)"/>
<path d="M23.7527 13.062C23.4295 13.355 23.0852 13.6234 22.7599 13.9136C22.5097 14.1363 22.2336 14.3295 21.9736 14.5417C21.7937 14.6886 21.6258 14.8495 21.5099 15.0547C21.4396 15.179 21.3996 15.3217 21.2822 15.4228C21.3848 15.4327 21.4818 15.4299 21.5787 15.4327C21.812 15.4397 21.9905 15.3463 22.1184 15.1502C22.3179 14.8439 22.5624 14.5755 22.8393 14.338C23.4745 13.7934 24.078 13.2152 24.6661 12.6207C24.846 12.4387 25.0027 12.2343 25.2022 12.0706C25.2367 12.0425 25.2634 12.0059 25.2788 11.9525C25.1432 12.0277 25.0111 12.0881 24.8741 12.1331C24.6198 12.2167 24.4174 12.3734 24.2354 12.5617C24.0738 12.7282 23.9234 12.906 23.752 13.0613L23.7527 13.062Z" fill="url(#paint5_linear_458_21)"/>
<defs>
<linearGradient id="paint0_linear_458_21" x1="15.3897" y1="12.3679" x2="15.3897" y2="23.4252" gradientUnits="userSpaceOnUse">
<stop stop-color="#EE5B1D"/>
<stop offset="1" stop-color="#DF4300"/>
</linearGradient>
<linearGradient id="paint1_linear_458_21" x1="16.4506" y1="0" x2="16.4506" y2="13.6227" gradientUnits="userSpaceOnUse">
<stop stop-color="#EE5B1D"/>
<stop offset="1" stop-color="#DF4300"/>
</linearGradient>
<linearGradient id="paint2_linear_458_21" x1="2.99671" y1="16.1702" x2="2.99671" y2="24.7356" gradientUnits="userSpaceOnUse">
<stop stop-color="#EE5B1D"/>
<stop offset="1" stop-color="#DF4300"/>
</linearGradient>
<linearGradient id="paint3_linear_458_21" x1="25.9494" y1="11.1655" x2="25.9494" y2="15.6381" gradientUnits="userSpaceOnUse">
<stop stop-color="#EE5B1D"/>
<stop offset="1" stop-color="#DF4300"/>
</linearGradient>
<linearGradient id="paint4_linear_458_21" x1="24.5163" y1="11.5135" x2="24.5163" y2="15.5024" gradientUnits="userSpaceOnUse">
<stop stop-color="#EE5B1D"/>
<stop offset="1" stop-color="#DF4300"/>
</linearGradient>
<linearGradient id="paint5_linear_458_21" x1="23.2805" y1="11.9525" x2="23.2805" y2="15.433" gradientUnits="userSpaceOnUse">
<stop stop-color="#EE5B1D"/>
<stop offset="1" stop-color="#DF4300"/>
</linearGradient>
</defs>
</svg>
