<svg width="516" height="502" viewBox="0 0 516 502" fill="none" xmlns="http://www.w3.org/2000/svg">
<path d="M447.5 248.75C457.165 248.75 465 245 465 240.375C465 235.75 457.165 232 447.5 232C437.835 232 430 235.75 430 240.375C430 245 437.835 248.75 447.5 248.75Z" stroke="url(#paint0_linear_556_111)" stroke-width="4" stroke-linecap="round" stroke-linejoin="round"/>
<path d="M430 240.375C430 240.375 430 247.475 430 252.1C430 256.725 437.835 260.475 447.5 260.475C457.165 260.475 465 256.725 465 252.1C465 249.36 465 240.375 465 240.375" stroke="url(#paint1_linear_556_111)" stroke-width="4" stroke-linecap="round" stroke-linejoin="round"/>
<path d="M430 252.1C430 252.1 430 259.2 430 263.825C430 268.45 437.835 272.2 447.5 272.2C457.165 272.2 465 268.45 465 263.825C465 261.085 465 252.1 465 252.1" stroke="url(#paint2_linear_556_111)" stroke-width="4" stroke-linecap="round" stroke-linejoin="round"/>
<path d="M430 263.825C430 263.825 430 270.925 430 275.55C430 280.175 437.835 283.925 447.5 283.925C457.165 283.925 465 280.175 465 275.55C465 272.81 465 263.825 465 263.825" stroke="url(#paint3_linear_556_111)" stroke-width="4" stroke-linecap="round" stroke-linejoin="round"/>
<path d="M430 275.55C430 275.55 430 282.65 430 287.275C430 291.9 437.835 295.65 447.5 295.65C457.165 295.65 465 291.9 465 287.275C465 284.535 465 275.55 465 275.55" stroke="url(#paint4_linear_556_111)" stroke-width="4" stroke-linecap="round" stroke-linejoin="round"/>
<path d="M482.5 272.2C492.165 272.2 500 268.45 500 263.825C500 259.2 492.165 255.45 482.5 255.45C472.835 255.45 465 259.2 465 263.825C465 268.45 472.835 272.2 482.5 272.2Z" stroke="url(#paint5_linear_556_111)" stroke-width="4" stroke-linecap="round" stroke-linejoin="round"/>
<path d="M465 263.825C465 263.825 465 270.925 465 275.55C465 280.175 472.835 283.925 482.5 283.925C492.165 283.925 500 280.175 500 275.55C500 272.81 500 263.825 500 263.825" stroke="url(#paint6_linear_556_111)" stroke-width="4" stroke-linecap="round" stroke-linejoin="round"/>
<path d="M465 275.55C465 275.55 465 282.65 465 287.275C465 291.9 472.835 295.65 482.5 295.65C492.165 295.65 500 291.9 500 287.275C500 284.535 500 275.55 500 275.55" stroke="url(#paint7_linear_556_111)" stroke-width="4" stroke-linecap="round" stroke-linejoin="round"/>
<path d="M418.844 300.662C416.268 300.662 414.504 302.706 414.504 305.394C414.504 308.124 416.128 310.14 418.844 310.14C421.392 310.14 423.184 308.25 423.17 305.352C423.156 302.762 421.588 300.662 418.844 300.662ZM416.254 305.394C416.254 303.322 417.332 302.16 418.816 302.16C420.454 302.16 421.42 303.434 421.42 305.394C421.434 307.34 420.482 308.642 418.9 308.642C417.178 308.642 416.254 307.2 416.254 305.394ZM429.966 303.196C429.966 303.126 429.952 303.098 429.868 303.098H428.398C428.314 303.098 428.286 303.126 428.286 303.196V308.166C427.936 308.488 427.544 308.67 427.012 308.67C426.172 308.67 425.794 308.138 425.794 307.27V303.196C425.794 303.126 425.78 303.098 425.696 303.098H424.226C424.142 303.098 424.114 303.112 424.114 303.196V307.466C424.114 309.426 425.136 310.14 426.466 310.14C427.096 310.14 427.81 309.986 428.412 309.426C428.426 309.566 428.468 309.776 428.51 309.916C428.524 309.972 428.552 310 428.65 310H429.938C430.022 310 430.064 309.972 430.05 309.902C430.022 309.608 429.966 309.188 429.966 308.46V303.196ZM431.337 303.098C431.267 303.098 431.253 303.112 431.253 303.182C431.309 303.644 431.323 304.456 431.323 305.058V309.888C431.323 309.958 431.351 310 431.449 310H432.905C432.989 310 433.031 309.972 433.031 309.888V305.38C433.353 304.96 434.179 304.61 435.173 304.638C435.271 304.638 435.299 304.61 435.299 304.54V303.056C435.299 302.972 435.271 302.958 435.187 302.958C434.221 302.958 433.423 303.462 432.947 304.05C432.933 303.742 432.877 303.392 432.807 303.21C432.779 303.126 432.737 303.098 432.653 303.098H431.337ZM441.7 310.14C442.54 310.14 443.436 309.986 444.346 309.594C444.416 309.566 444.43 309.538 444.43 309.468C444.402 309.216 444.374 308.852 444.374 308.572V300.116C444.374 300.06 444.374 300.032 444.304 300.032H442.778C442.722 300.032 442.694 300.06 442.694 300.13V303C442.456 302.972 442.288 302.958 442.092 302.958C439.628 302.958 438.116 304.582 438.116 306.612C438.116 308.964 439.67 310.14 441.7 310.14ZM442.694 308.572C442.442 308.656 442.162 308.684 441.882 308.684C440.762 308.684 439.852 308.054 439.852 306.528C439.852 305.17 440.79 304.372 442.036 304.372C442.288 304.372 442.512 304.4 442.694 304.47V308.572ZM448.699 302.958C446.599 302.958 445.297 304.568 445.297 306.556C445.297 308.334 446.333 310.14 448.671 310.14C450.645 310.14 452.031 308.684 452.031 306.514C452.031 304.596 450.855 302.958 448.699 302.958ZM448.615 304.372C449.805 304.372 450.309 305.394 450.309 306.556C450.309 307.998 449.567 308.712 448.699 308.712C447.635 308.712 447.005 307.816 447.005 306.528C447.005 305.198 447.677 304.372 448.615 304.372ZM452.926 309.888C452.926 309.958 452.954 310 453.038 310H454.508C454.578 310 454.62 309.958 454.62 309.888V305.002C454.956 304.638 455.418 304.428 455.978 304.428C456.79 304.428 457.182 304.96 457.182 305.884V309.874C457.182 309.958 457.224 310 457.308 310H458.764C458.834 310 458.876 309.972 458.876 309.874V305.73C458.876 303.49 457.588 302.958 456.538 302.958C455.782 302.958 455.11 303.224 454.508 303.728C454.48 303.504 454.452 303.322 454.41 303.196C454.382 303.126 454.34 303.098 454.242 303.098H452.968C452.884 303.098 452.87 303.126 452.87 303.196C452.898 303.476 452.926 304.232 452.926 304.708V309.888ZM463.759 308.642C463.451 308.768 463.129 308.81 462.765 308.81C461.757 308.81 461.393 308.362 461.393 307.844C461.393 307.242 461.883 306.878 462.989 306.878C463.311 306.878 463.549 306.892 463.759 306.92V308.642ZM465.397 305.73C465.397 304.176 464.557 302.958 462.611 302.958C461.855 302.958 461.085 303.098 460.483 303.378C460.413 303.42 460.399 303.448 460.399 303.518V304.736C460.399 304.82 460.469 304.834 460.511 304.82C461.029 304.568 461.645 304.428 462.345 304.428C463.577 304.428 463.759 305.156 463.759 305.478V305.646C463.633 305.632 463.311 305.618 462.891 305.618C461.071 305.618 459.741 306.36 459.741 307.844C459.741 309.426 460.959 310.14 462.485 310.14C463.437 310.14 464.249 310 465.397 309.51C465.425 309.496 465.425 309.482 465.425 309.454C465.397 309.16 465.397 308.88 465.397 308.572V305.73ZM469.936 308.768C469.936 308.684 469.894 308.67 469.852 308.684C469.656 308.726 469.502 308.74 469.32 308.74C468.718 308.74 468.522 308.446 468.522 307.83V304.512H469.894C469.964 304.512 469.992 304.484 469.992 304.414V303.196C469.992 303.126 469.964 303.098 469.894 303.098H468.536C468.536 302.412 468.564 301.586 468.606 301.124C468.606 301.054 468.578 301.04 468.508 301.054L467.094 301.25C467.024 301.264 466.996 301.306 466.982 301.376C466.912 301.726 466.856 302.608 466.842 303.098H465.96C465.876 303.098 465.848 303.126 465.848 303.21V304.386C465.848 304.47 465.876 304.498 465.946 304.512H466.828V308.194C466.828 309.58 467.514 310.14 468.662 310.14C469.124 310.14 469.474 310.084 469.852 309.944C469.922 309.916 469.936 309.86 469.936 309.776V308.768ZM470.752 309.874C470.752 309.958 470.794 310 470.892 310H472.334C472.432 310 472.46 309.972 472.46 309.888V303.196C472.46 303.112 472.432 303.098 472.348 303.098H470.864C470.794 303.098 470.752 303.126 470.752 303.196V309.874ZM471.606 302.16C472.194 302.16 472.572 301.768 472.572 301.194C472.572 300.634 472.222 300.228 471.62 300.228C471.06 300.228 470.654 300.62 470.654 301.194C470.654 301.768 471.032 302.16 471.606 302.16ZM476.773 302.958C474.673 302.958 473.371 304.568 473.371 306.556C473.371 308.334 474.407 310.14 476.745 310.14C478.719 310.14 480.105 308.684 480.105 306.514C480.105 304.596 478.929 302.958 476.773 302.958ZM476.689 304.372C477.879 304.372 478.383 305.394 478.383 306.556C478.383 307.998 477.641 308.712 476.773 308.712C475.709 308.712 475.079 307.816 475.079 306.528C475.079 305.198 475.751 304.372 476.689 304.372ZM481 309.888C481 309.958 481.028 310 481.112 310H482.582C482.652 310 482.694 309.958 482.694 309.888V305.002C483.03 304.638 483.492 304.428 484.052 304.428C484.864 304.428 485.256 304.96 485.256 305.884V309.874C485.256 309.958 485.298 310 485.382 310H486.838C486.908 310 486.95 309.972 486.95 309.874V305.73C486.95 303.49 485.662 302.958 484.612 302.958C483.856 302.958 483.184 303.224 482.582 303.728C482.554 303.504 482.526 303.322 482.484 303.196C482.456 303.126 482.414 303.098 482.316 303.098H481.042C480.958 303.098 480.944 303.126 480.944 303.196C480.972 303.476 481 304.232 481 304.708V309.888ZM491.21 304.512V309.888C491.21 309.958 491.238 310 491.322 310H492.778C492.89 310 492.904 309.958 492.904 309.888V304.512H494.136C494.22 304.498 494.248 304.484 494.248 304.414V303.182C494.248 303.126 494.234 303.098 494.136 303.098H492.904V302.636C492.904 301.67 493.254 301.362 493.828 301.362C493.954 301.362 494.122 301.376 494.262 301.404C494.332 301.432 494.36 301.39 494.36 301.334V300.13C494.36 300.06 494.36 300.018 494.276 299.99C494.122 299.92 493.87 299.906 493.59 299.906C492.526 299.906 491.882 300.382 491.518 301.138C491.322 301.558 491.21 302.076 491.21 302.776V303.098H490.356C490.3 303.098 490.272 303.112 490.272 303.182V304.414C490.272 304.484 490.286 304.512 490.356 304.512H491.21ZM500.536 303.196C500.536 303.126 500.522 303.098 500.438 303.098H498.968C498.884 303.098 498.856 303.126 498.856 303.196V308.166C498.506 308.488 498.114 308.67 497.582 308.67C496.742 308.67 496.364 308.138 496.364 307.27V303.196C496.364 303.126 496.35 303.098 496.266 303.098H494.796C494.712 303.098 494.684 303.112 494.684 303.196V307.466C494.684 309.426 495.706 310.14 497.036 310.14C497.666 310.14 498.38 309.986 498.982 309.426C498.996 309.566 499.038 309.776 499.08 309.916C499.094 309.972 499.122 310 499.22 310H500.508C500.592 310 500.634 309.972 500.62 309.902C500.592 309.608 500.536 309.188 500.536 308.46V303.196ZM501.893 309.888C501.893 309.958 501.921 310 502.005 310H503.475C503.545 310 503.587 309.958 503.587 309.888V305.002C503.923 304.638 504.385 304.428 504.945 304.428C505.757 304.428 506.149 304.96 506.149 305.884V309.874C506.149 309.958 506.191 310 506.275 310H507.731C507.801 310 507.843 309.972 507.843 309.874V305.73C507.843 303.49 506.555 302.958 505.505 302.958C504.749 302.958 504.077 303.224 503.475 303.728C503.447 303.504 503.419 303.322 503.377 303.196C503.349 303.126 503.307 303.098 503.209 303.098H501.935C501.851 303.098 501.837 303.126 501.837 303.196C501.865 303.476 501.893 304.232 501.893 304.708V309.888ZM512.333 310.14C513.173 310.14 514.069 309.986 514.979 309.594C515.049 309.566 515.063 309.538 515.063 309.468C515.035 309.216 515.007 308.852 515.007 308.572V300.116C515.007 300.06 515.007 300.032 514.937 300.032H513.411C513.355 300.032 513.327 300.06 513.327 300.13V303C513.089 302.972 512.921 302.958 512.725 302.958C510.261 302.958 508.749 304.582 508.749 306.612C508.749 308.964 510.303 310.14 512.333 310.14ZM513.327 308.572C513.075 308.656 512.795 308.684 512.515 308.684C511.395 308.684 510.485 308.054 510.485 306.528C510.485 305.17 511.423 304.372 512.669 304.372C512.921 304.372 513.145 304.4 513.327 304.47V308.572Z" fill="#696969"/>
<path d="M224.8 80.29C224.884 80.444 224.898 80.514 224.898 80.696V83.874C224.898 83.958 224.926 84 225.038 84H226.466C226.564 84 226.592 83.972 226.592 83.874C226.592 83.874 226.592 81.774 226.592 80.752C226.592 80.584 226.62 80.472 226.704 80.332L229.742 74.914C229.77 74.844 229.756 74.802 229.686 74.802H228.048C227.978 74.802 227.95 74.816 227.936 74.886C226.522 77.7 226.074 78.624 225.85 79.114C225.654 78.638 225.178 77.756 223.694 74.872C223.666 74.83 223.652 74.802 223.568 74.802H221.874C221.818 74.802 221.748 74.844 221.804 74.928L224.8 80.29ZM231.951 76.958C229.851 76.958 228.549 78.568 228.549 80.556C228.549 82.334 229.585 84.14 231.923 84.14C233.897 84.14 235.283 82.684 235.283 80.514C235.283 78.596 234.107 76.958 231.951 76.958ZM231.867 78.372C233.057 78.372 233.561 79.394 233.561 80.556C233.561 81.998 232.819 82.712 231.951 82.712C230.887 82.712 230.257 81.816 230.257 80.528C230.257 79.198 230.929 78.372 231.867 78.372ZM242.031 77.196C242.031 77.126 242.017 77.098 241.933 77.098H240.463C240.379 77.098 240.351 77.126 240.351 77.196V82.166C240.001 82.488 239.609 82.67 239.077 82.67C238.237 82.67 237.859 82.138 237.859 81.27V77.196C237.859 77.126 237.845 77.098 237.761 77.098H236.291C236.207 77.098 236.179 77.112 236.179 77.196V81.466C236.179 83.426 237.201 84.14 238.531 84.14C239.161 84.14 239.875 83.986 240.477 83.426C240.491 83.566 240.533 83.776 240.575 83.916C240.589 83.972 240.617 84 240.715 84H242.003C242.087 84 242.129 83.972 242.115 83.902C242.087 83.608 242.031 83.188 242.031 82.46V77.196ZM243.402 77.098C243.332 77.098 243.318 77.112 243.318 77.182C243.374 77.644 243.388 78.456 243.388 79.058V83.888C243.388 83.958 243.416 84 243.514 84H244.97C245.054 84 245.096 83.972 245.096 83.888V79.38C245.418 78.96 246.244 78.61 247.238 78.638C247.336 78.638 247.364 78.61 247.364 78.54V77.056C247.364 76.972 247.336 76.958 247.252 76.958C246.286 76.958 245.488 77.462 245.012 78.05C244.998 77.742 244.942 77.392 244.872 77.21C244.844 77.126 244.802 77.098 244.718 77.098H243.402ZM253.764 84.14C254.604 84.14 255.5 83.986 256.41 83.594C256.48 83.566 256.494 83.538 256.494 83.468C256.466 83.216 256.438 82.852 256.438 82.572V74.116C256.438 74.06 256.438 74.032 256.368 74.032H254.842C254.786 74.032 254.758 74.06 254.758 74.13V77C254.52 76.972 254.352 76.958 254.156 76.958C251.692 76.958 250.18 78.582 250.18 80.612C250.18 82.964 251.734 84.14 253.764 84.14ZM254.758 82.572C254.506 82.656 254.226 82.684 253.946 82.684C252.826 82.684 251.916 82.054 251.916 80.528C251.916 79.17 252.854 78.372 254.1 78.372C254.352 78.372 254.576 78.4 254.758 78.47V82.572ZM260.764 76.958C258.664 76.958 257.362 78.568 257.362 80.556C257.362 82.334 258.398 84.14 260.736 84.14C262.71 84.14 264.096 82.684 264.096 80.514C264.096 78.596 262.92 76.958 260.764 76.958ZM260.68 78.372C261.87 78.372 262.374 79.394 262.374 80.556C262.374 81.998 261.632 82.712 260.764 82.712C259.7 82.712 259.07 81.816 259.07 80.528C259.07 79.198 259.742 78.372 260.68 78.372ZM264.991 83.888C264.991 83.958 265.019 84 265.103 84H266.573C266.643 84 266.685 83.958 266.685 83.888V79.002C267.021 78.638 267.483 78.428 268.043 78.428C268.855 78.428 269.247 78.96 269.247 79.884V83.874C269.247 83.958 269.289 84 269.373 84H270.829C270.899 84 270.941 83.972 270.941 83.874V79.73C270.941 77.49 269.653 76.958 268.603 76.958C267.847 76.958 267.175 77.224 266.573 77.728C266.545 77.504 266.517 77.322 266.475 77.196C266.447 77.126 266.405 77.098 266.307 77.098H265.033C264.949 77.098 264.935 77.126 264.935 77.196C264.963 77.476 264.991 78.232 264.991 78.708V83.888ZM275.824 82.642C275.516 82.768 275.194 82.81 274.83 82.81C273.822 82.81 273.458 82.362 273.458 81.844C273.458 81.242 273.948 80.878 275.054 80.878C275.376 80.878 275.614 80.892 275.824 80.92V82.642ZM277.462 79.73C277.462 78.176 276.622 76.958 274.676 76.958C273.92 76.958 273.15 77.098 272.548 77.378C272.478 77.42 272.464 77.448 272.464 77.518V78.736C272.464 78.82 272.534 78.834 272.576 78.82C273.094 78.568 273.71 78.428 274.41 78.428C275.642 78.428 275.824 79.156 275.824 79.478V79.646C275.698 79.632 275.376 79.618 274.956 79.618C273.136 79.618 271.806 80.36 271.806 81.844C271.806 83.426 273.024 84.14 274.55 84.14C275.502 84.14 276.314 84 277.462 83.51C277.49 83.496 277.49 83.482 277.49 83.454C277.462 83.16 277.462 82.88 277.462 82.572V79.73ZM282.001 82.768C282.001 82.684 281.959 82.67 281.917 82.684C281.721 82.726 281.567 82.74 281.385 82.74C280.783 82.74 280.587 82.446 280.587 81.83V78.512H281.959C282.029 78.512 282.057 78.484 282.057 78.414V77.196C282.057 77.126 282.029 77.098 281.959 77.098H280.601C280.601 76.412 280.629 75.586 280.671 75.124C280.671 75.054 280.643 75.04 280.573 75.054L279.159 75.25C279.089 75.264 279.061 75.306 279.047 75.376C278.977 75.726 278.921 76.608 278.907 77.098H278.025C277.941 77.098 277.913 77.126 277.913 77.21V78.386C277.913 78.47 277.941 78.498 278.011 78.512H278.893V82.194C278.893 83.58 279.579 84.14 280.727 84.14C281.189 84.14 281.539 84.084 281.917 83.944C281.987 83.916 282.001 83.86 282.001 83.776V82.768ZM282.817 83.874C282.817 83.958 282.859 84 282.957 84H284.399C284.497 84 284.525 83.972 284.525 83.888V77.196C284.525 77.112 284.497 77.098 284.413 77.098H282.929C282.859 77.098 282.817 77.126 282.817 77.196V83.874ZM283.671 76.16C284.259 76.16 284.637 75.768 284.637 75.194C284.637 74.634 284.287 74.228 283.685 74.228C283.125 74.228 282.719 74.62 282.719 75.194C282.719 75.768 283.097 76.16 283.671 76.16ZM288.837 76.958C286.737 76.958 285.435 78.568 285.435 80.556C285.435 82.334 286.471 84.14 288.809 84.14C290.783 84.14 292.169 82.684 292.169 80.514C292.169 78.596 290.993 76.958 288.837 76.958ZM288.753 78.372C289.943 78.372 290.447 79.394 290.447 80.556C290.447 81.998 289.705 82.712 288.837 82.712C287.773 82.712 287.143 81.816 287.143 80.528C287.143 79.198 287.815 78.372 288.753 78.372ZM293.065 83.888C293.065 83.958 293.093 84 293.177 84H294.647C294.717 84 294.759 83.958 294.759 83.888V79.002C295.095 78.638 295.557 78.428 296.117 78.428C296.929 78.428 297.321 78.96 297.321 79.884V83.874C297.321 83.958 297.363 84 297.447 84H298.903C298.973 84 299.015 83.972 299.015 83.874V79.73C299.015 77.49 297.727 76.958 296.677 76.958C295.921 76.958 295.249 77.224 294.647 77.728C294.619 77.504 294.591 77.322 294.549 77.196C294.521 77.126 294.479 77.098 294.381 77.098H293.107C293.023 77.098 293.009 77.126 293.009 77.196C293.037 77.476 293.065 78.232 293.065 78.708V83.888Z" fill="#696969"/>
<path d="M295.437 29.8564C294.419 29.8191 293.49 30.1261 292.625 30.6332C291.085 31.5338 289.628 32.5599 288.243 33.6843C286.596 35.0191 285.049 36.4539 283.735 38.1329C283.877 38.2025 284.033 38.2652 284.179 38.35C285.77 39.2676 286.229 40.4209 285.865 41.971C285.612 43.0514 284.918 43.8315 284.003 44.4235C282.864 45.1595 281.579 45.3766 280.263 45.4784C278.986 45.5767 277.702 45.5462 276.423 45.6548C275.424 45.7396 274.42 45.709 273.418 45.7192C271.856 45.7345 270.292 45.7192 268.73 45.6802C266.676 45.6293 264.62 45.5801 262.567 45.5242C262.153 45.5123 261.737 45.497 261.3 45.4326C261.417 45.2749 261.524 45.1714 261.703 45.1561C262.092 45.1222 262.478 45.0662 262.869 45.0408C264.678 44.9255 266.491 44.939 268.301 44.8916C269.951 44.8475 271.603 44.9085 273.253 44.9441C274.948 44.9814 276.644 45.0035 278.338 44.9289C279.891 44.861 281.409 44.6066 282.873 44.069C283.453 43.857 284.004 43.5958 284.408 43.109C285.392 41.9218 285.493 40.4972 284.287 39.31C283.997 39.0234 283.67 38.7859 283.324 38.5756C282.232 37.9108 281.012 37.6903 279.769 37.5682C277.695 37.363 275.636 37.5427 273.584 37.848C272.403 38.0227 271.223 38.2059 270.031 38.2601C268.33 38.3365 266.644 38.1855 264.975 37.8633C263.647 37.6055 262.363 37.2086 261.212 36.4742C260.302 35.8942 259.339 35.4295 258.338 35.0343C256.771 34.417 255.145 33.976 253.557 33.4197C250.162 32.2308 246.714 32.0307 243.207 32.8278C241.441 33.2298 239.726 33.8013 238.005 34.3576C236.809 34.7426 235.651 35.1988 234.64 35.9654C233.877 36.5438 233.117 37.1323 232.301 37.6309C231.458 38.1465 230.873 38.8894 230.295 39.6712C230.844 39.8917 231.25 40.2886 231.528 40.7906C232.089 41.8031 232.781 42.7291 233.409 43.6976C234.182 44.8882 234.847 46.1466 235.639 47.3253C236.879 49.1689 238.3 50.87 239.771 52.5321C239.81 52.5762 239.884 52.6305 239.876 52.6661C239.813 52.9595 240.027 52.8221 240.117 52.8102C240.335 52.7831 240.546 52.7085 240.747 52.6169C241.265 52.3828 241.802 52.2098 242.355 52.0843C242.778 51.9877 243.2 51.8842 243.62 51.7791C245.271 51.3669 246.931 51.1481 248.624 51.4992C249.791 51.7417 250.983 51.8588 252.134 52.1691C253.184 52.4524 254.221 52.7865 255.27 53.0731C256.22 53.3326 257.199 53.5039 258.11 53.8855C259.627 54.5232 261.166 55.1015 262.733 55.607C263.979 56.0106 265.211 56.4499 266.535 56.5245C267.812 56.5974 269.049 56.4736 270.19 55.8325C270.942 55.4102 271.671 54.954 272.358 54.4333C272.587 54.2603 272.858 54.1196 273.041 53.9177C273.35 53.5768 273.684 53.2732 274.05 53.007C275.997 51.5908 277.953 50.1865 279.969 48.8704C280.872 48.2819 281.781 47.7069 282.569 46.9709C283.606 46.0007 284.739 45.1612 285.911 44.3658C286.557 43.9265 287.167 43.4381 287.698 42.8597C287.922 42.6155 288.131 42.3577 288.329 42.0914C288.985 41.2129 289.62 40.3191 290.278 39.4423C290.883 38.635 291.507 37.8599 292.269 37.2052C293.387 36.2453 294.314 35.131 295.108 33.898C295.378 33.4791 295.661 33.0653 296 32.6955V29.9073C295.81 29.8903 295.622 29.8649 295.432 29.8581L295.437 29.8564Z" fill="url(#paint8_linear_556_111)"/>
<path d="M254.818 21.7766C255.898 22.8654 256.999 23.9322 258.079 25.0194C259.653 26.6034 261.217 28.1977 262.784 29.7903C263.7 30.7197 264.61 31.6525 265.525 32.5853C265.599 32.6616 265.694 32.7277 265.686 32.8821C265.796 32.6633 265.966 32.5378 266.11 32.3902C268.311 30.1413 270.509 27.889 272.721 25.6503C274.047 24.307 275.412 23.0045 276.734 21.6562C278.365 19.9907 279.898 18.2438 281.275 16.3595C282.135 15.1825 282.893 13.9563 283.385 12.5791C284.143 10.4557 284.367 8.295 283.792 6.09189C283.37 4.47389 282.59 3.05942 281.316 1.95023C279.825 0.651082 278.053 0.0778303 276.104 0.02695C273.82 -0.0324104 271.718 0.586634 269.787 1.80776C269.098 2.24364 268.51 2.80332 267.865 3.29347C267.083 3.88877 266.283 4.46372 265.713 5.30494C265.265 4.62823 264.663 4.13299 264.047 3.65133C263.647 3.33926 263.24 3.03228 262.85 2.70834C260.175 0.486569 257.136 -0.424189 253.697 0.184679C252.121 0.462825 250.746 1.18363 249.64 2.35557C248.057 4.03123 247.352 6.07153 247.304 8.3408C247.252 10.8594 248.006 13.1575 249.384 15.247C250.952 17.6231 252.816 19.7583 254.818 21.7766V21.7766Z" fill="url(#paint9_linear_556_111)"/>
<path d="M240.106 53.743C239.655 53.3309 239.146 52.9849 238.735 52.5253C237.662 51.3245 236.76 49.9999 235.927 48.6244C235.277 47.5492 234.723 46.4179 234.041 45.3596C232.801 43.4346 231.332 41.6877 229.882 39.9239C229.609 39.5932 229.251 39.371 228.837 39.2523C228.303 39.0979 227.752 39.0471 227.201 39.0318C226.818 39.0216 226.463 39.1386 226.144 39.3625C226.044 39.432 225.998 39.5033 226 39.6305C226.007 40.2784 226.005 40.9279 226.002 41.5758C226.002 41.6827 226.024 41.7759 226.073 41.8692C226.602 42.8783 227.074 43.9146 227.513 44.9644C228.559 47.4677 229.689 49.9287 231.129 52.2369C232.104 53.8007 233.125 55.3288 234.419 56.655C235.35 57.6082 236.298 58.5495 237.061 59.7062C237.387 59.0753 237.792 58.5359 238.223 58.0152C239.068 56.9926 239.738 55.863 240.301 54.669C240.55 54.1416 240.545 54.1466 240.102 53.7413L240.106 53.743Z" fill="url(#paint10_linear_556_111)"/>
<path d="M285.04 33.9896C284.128 34.7104 283.195 35.4108 282.376 36.2436C282.065 36.5607 281.787 36.9033 281.613 37.3172C281.591 37.3697 281.519 37.4545 281.638 37.4664C282.03 37.5037 282.388 37.6767 282.774 37.7344C283.08 37.7785 283.334 37.7089 283.538 37.4528C283.739 37.2001 283.987 36.9864 284.233 36.7744C284.64 36.4234 285.069 36.096 285.446 35.711C286.914 34.2168 288.485 32.838 290.118 31.527C291.199 30.6603 292.347 29.9141 293.676 29.4884C294.245 29.3069 294.818 29.1848 295.403 29.4239C295.5 29.4629 295.51 29.4137 295.532 29.3425C295.63 29.0101 295.701 28.6726 295.701 28.3232C295.707 27.4158 295.238 26.9427 294.328 26.9511C293.741 26.9562 293.23 27.2038 292.737 27.4888C291.265 28.3402 289.994 29.446 288.802 30.645C287.615 31.8373 286.358 32.9482 285.039 33.9913L285.04 33.9896Z" fill="url(#paint11_linear_556_111)"/>
<path d="M284.591 31.9798C283.782 32.7431 282.98 33.5113 282.127 34.2305C281.293 34.9343 280.504 35.6856 279.921 36.6252C279.751 36.8983 279.551 37.1527 279.249 37.3359C279.593 37.3918 279.916 37.4105 280.239 37.419C280.674 37.4308 281.023 37.246 281.3 36.9186C281.461 36.727 281.617 36.5319 281.779 36.3403C281.922 36.1707 282.066 36.0028 282.254 35.8807C282.912 35.4533 283.487 34.9241 284.056 34.3882C285.277 33.2349 286.499 32.0833 287.722 30.9317C288.479 30.2177 289.322 29.6071 290.087 28.9033C290.46 28.5607 290.814 28.2011 291.104 27.7941C290.745 27.7941 290.394 27.7873 290.042 27.7941C289.579 27.8043 289.14 27.9094 288.74 28.157C288.207 28.4878 287.687 28.8405 287.241 29.2832C286.347 30.1702 285.511 31.1149 284.595 31.9815L284.591 31.9798Z" fill="url(#paint12_linear_556_111)"/>
<path d="M283.334 31.5287C282.554 32.2359 281.723 32.8838 280.938 33.5842C280.334 34.1219 279.667 34.5883 279.04 35.1005C278.606 35.4549 278.2 35.8433 277.921 36.3386C277.751 36.6387 277.654 36.983 277.371 37.2273C277.619 37.251 277.853 37.2442 278.087 37.251C278.65 37.268 279.081 37.0424 279.389 36.5692C279.871 35.8297 280.461 35.1819 281.129 34.6086C282.663 33.2942 284.12 31.8984 285.539 30.4636C285.973 30.0243 286.351 29.5308 286.833 29.1356C286.916 29.0678 286.981 28.9796 287.018 28.8507C286.691 29.0321 286.372 29.178 286.041 29.2865C285.427 29.4884 284.939 29.8666 284.499 30.3211C284.109 30.7231 283.746 31.1521 283.333 31.527L283.334 31.5287Z" fill="url(#paint13_linear_556_111)"/>
<path d="M233.042 488.914C233.014 488.83 233 488.802 232.93 488.802H231.306C231.236 488.802 231.18 488.83 231.166 488.914C230.088 493.492 229.668 495.032 229.5 495.942H229.486C229.374 495.172 229.122 493.898 227.932 488.9C227.918 488.802 227.862 488.802 227.792 488.802H226.21C226.14 488.802 226.112 488.83 226.126 488.914L228.464 497.888C228.506 497.958 228.534 498 228.618 498H230.102C230.2 498 230.228 497.944 230.242 497.874C230.69 496.166 231.782 492.12 232.034 490.706H232.048C232.328 492.092 233.266 496.096 233.686 497.916C233.714 497.972 233.728 498 233.826 498H235.338C235.422 498 235.45 497.986 235.478 497.916L237.844 488.928C237.858 488.844 237.83 488.802 237.746 488.802H236.276C236.192 488.802 236.15 488.844 236.136 488.914C235.156 493.31 234.792 495.172 234.652 495.956H234.638C234.26 494.038 233.588 491.224 233.042 488.914ZM242.199 494.934C242.885 494.934 243.445 494.92 243.641 494.878C243.711 494.864 243.739 494.836 243.753 494.78C243.795 494.626 243.809 494.304 243.809 493.912C243.809 492.582 243.011 490.958 240.939 490.958C238.825 490.958 237.649 492.68 237.649 494.626C237.649 496.348 238.559 498.14 241.107 498.14C242.059 498.14 242.675 497.986 243.207 497.734C243.263 497.706 243.291 497.664 243.291 497.58V496.418C243.291 496.348 243.249 496.334 243.207 496.362C242.675 496.586 242.101 496.698 241.471 496.698C240.043 496.698 239.399 495.914 239.357 494.934H242.199ZM239.357 493.73C239.469 493.044 239.903 492.302 240.869 492.302C241.933 492.302 242.213 493.198 242.213 493.604C242.213 493.618 242.213 493.674 242.213 493.716C242.157 493.73 241.975 493.73 241.443 493.73H239.357ZM247.568 488.032C247.512 488.032 247.47 488.06 247.47 488.13V497.706C247.47 497.748 247.512 497.818 247.568 497.832C248.24 498.042 248.94 498.14 249.668 498.14C251.74 498.14 253.756 496.852 253.756 494.262C253.756 492.386 252.468 490.958 250.452 490.958C249.99 490.958 249.556 491.028 249.178 491.154L249.164 488.144C249.164 488.046 249.136 488.032 249.038 488.032H247.568ZM252.034 494.43C252.034 495.984 250.97 496.712 249.822 496.712C249.584 496.712 249.374 496.698 249.178 496.642V492.554C249.402 492.47 249.668 492.4 250.158 492.4C251.264 492.4 252.034 493.1 252.034 494.43ZM260.531 491.196C260.531 491.126 260.517 491.098 260.433 491.098H258.963C258.879 491.098 258.851 491.126 258.851 491.196V496.166C258.501 496.488 258.109 496.67 257.577 496.67C256.737 496.67 256.359 496.138 256.359 495.27V491.196C256.359 491.126 256.345 491.098 256.261 491.098H254.791C254.707 491.098 254.679 491.112 254.679 491.196V495.466C254.679 497.426 255.701 498.14 257.031 498.14C257.661 498.14 258.375 497.986 258.977 497.426C258.991 497.566 259.033 497.776 259.075 497.916C259.089 497.972 259.117 498 259.215 498H260.503C260.587 498 260.629 497.972 260.615 497.902C260.587 497.608 260.531 497.188 260.531 496.46V491.196ZM261.172 491.098C261.102 491.098 261.06 491.14 261.088 491.196C261.928 493.394 263.272 496.726 263.65 497.65C263.678 497.748 263.664 497.79 263.636 497.874C263.188 498.938 262.74 499.932 262.32 500.772C262.292 500.856 262.306 500.884 262.39 500.884L263.916 500.772C264.028 500.772 264.07 500.73 264.098 500.674C265.232 498.084 266.758 494.304 267.766 491.21C267.78 491.14 267.766 491.098 267.682 491.098H266.24C266.156 491.098 266.114 491.126 266.086 491.182C265.456 493.142 264.966 494.584 264.504 495.998C264.322 495.312 263.846 493.8 262.936 491.182C262.908 491.112 262.866 491.098 262.81 491.098H261.172ZM271.141 492.512V497.888C271.141 497.958 271.169 498 271.253 498H272.709C272.821 498 272.835 497.958 272.835 497.888V492.512H274.067C274.151 492.498 274.179 492.484 274.179 492.414V491.182C274.179 491.126 274.165 491.098 274.067 491.098H272.835V490.636C272.835 489.67 273.185 489.362 273.759 489.362C273.885 489.362 274.053 489.376 274.193 489.404C274.263 489.432 274.291 489.39 274.291 489.334V488.13C274.291 488.06 274.291 488.018 274.207 487.99C274.053 487.92 273.801 487.906 273.521 487.906C272.457 487.906 271.813 488.382 271.449 489.138C271.253 489.558 271.141 490.076 271.141 490.776V491.098H270.287C270.231 491.098 270.203 491.112 270.203 491.182V492.414C270.203 492.484 270.217 492.512 270.287 492.512H271.141ZM277.677 490.958C275.577 490.958 274.275 492.568 274.275 494.556C274.275 496.334 275.311 498.14 277.649 498.14C279.623 498.14 281.009 496.684 281.009 494.514C281.009 492.596 279.833 490.958 277.677 490.958ZM277.593 492.372C278.783 492.372 279.287 493.394 279.287 494.556C279.287 495.998 278.545 496.712 277.677 496.712C276.613 496.712 275.983 495.816 275.983 494.528C275.983 493.198 276.655 492.372 277.593 492.372ZM284.955 490.958C282.855 490.958 281.553 492.568 281.553 494.556C281.553 496.334 282.589 498.14 284.927 498.14C286.901 498.14 288.287 496.684 288.287 494.514C288.287 492.596 287.111 490.958 284.955 490.958ZM284.871 492.372C286.061 492.372 286.565 493.394 286.565 494.556C286.565 495.998 285.823 496.712 284.955 496.712C283.891 496.712 283.261 495.816 283.261 494.528C283.261 493.198 283.933 492.372 284.871 492.372ZM292.414 498.14C293.254 498.14 294.15 497.986 295.06 497.594C295.13 497.566 295.144 497.538 295.144 497.468C295.116 497.216 295.088 496.852 295.088 496.572V488.116C295.088 488.06 295.088 488.032 295.018 488.032H293.492C293.436 488.032 293.408 488.06 293.408 488.13V491C293.17 490.972 293.002 490.958 292.806 490.958C290.342 490.958 288.83 492.582 288.83 494.612C288.83 496.964 290.384 498.14 292.414 498.14ZM293.408 496.572C293.156 496.656 292.876 496.684 292.596 496.684C291.476 496.684 290.566 496.054 290.566 494.528C290.566 493.17 291.504 492.372 292.75 492.372C293.002 492.372 293.226 492.4 293.408 492.47V496.572Z" fill="#696969"/>
<path d="M295.69 466.488C295.578 466.29 295.489 466.083 295.405 465.876C294.11 462.618 292.816 459.359 291.522 456.101C290.214 452.79 288.868 449.489 287.611 446.156C286.891 444.251 285.644 443.052 283.644 442.69C283.261 442.624 283.083 442.46 282.924 442.121C281.448 439.032 277.415 438.355 275.009 440.772C274.897 440.885 274.822 441.054 274.602 441.096C274.574 441.016 274.546 440.932 274.523 440.847C273.444 437.259 269.677 435.99 266.668 438.214C266.365 438.439 266.271 438.35 266.084 438.091C264.309 435.613 260.846 435.28 258.687 437.4C258.304 437.781 258.136 437.715 257.8 437.381C255.875 435.505 252.828 435.557 250.94 437.461C250.202 438.204 249.777 439.102 249.543 440.132C249.422 440.076 249.338 440.038 249.253 439.996C246.226 438.392 242.983 439.742 242.002 443.043C241.861 443.522 241.698 443.353 241.436 443.212C238.67 441.75 235.376 443.095 234.395 446.085C234.264 446.475 234.128 446.866 233.974 447.251C232.012 452.198 230.044 457.144 228.073 462.091C227.489 463.553 226.937 465.03 226.283 466.464C225.858 467.405 225.867 467.945 226.619 468.669C227.306 469.332 228.147 469.741 229.012 470.094C231.656 471.18 234.427 471.773 237.226 472.248C243.899 473.39 250.632 473.842 257.393 473.964C266.365 474.124 275.303 473.781 284.177 472.346C287.181 471.862 290.157 471.251 292.994 470.085C293.872 469.723 294.732 469.304 295.419 468.608C296.101 467.922 296.171 467.334 295.69 466.488V466.488ZM275.742 441.604C276.513 440.819 277.443 440.414 278.686 440.424C279.962 440.461 281.027 441.11 281.793 442.3C281.966 442.573 281.948 442.709 281.602 442.794C280.826 442.982 280.149 443.372 279.565 443.913C279.406 444.058 279.27 444.091 279.065 444.011C278.392 443.753 277.691 443.668 276.976 443.743C276.677 443.776 276.546 443.659 276.443 443.4C276.266 442.968 276.042 442.549 275.71 442.211C275.485 441.975 275.537 441.816 275.742 441.604V441.604ZM275.415 443.743C275.514 443.974 275.518 444.101 275.261 444.228C274.383 444.651 273.682 445.29 273.187 446.137C273.056 446.363 272.925 446.4 272.691 446.297C272.103 446.038 271.476 445.935 270.836 445.921C270.079 445.935 269.355 446.085 268.677 446.433C268.402 446.574 268.276 446.579 268.187 446.231C267.706 444.397 268.841 442.352 270.719 441.707C272.546 441.077 274.691 442.013 275.415 443.743ZM267.117 439.258C268.85 437.419 272.243 438.091 273.219 440.565C271.85 440.278 270.598 440.41 269.439 441.096C269.229 441.218 269.135 441.077 269.023 440.95C268.514 440.391 267.916 439.954 267.206 439.676C266.949 439.577 266.902 439.488 267.117 439.258ZM268.131 441.604C268.243 441.726 268.463 441.848 268.276 442.065C267.85 442.549 267.528 443.09 267.304 443.696C267.079 444.294 267.033 444.924 266.991 445.62C266.173 445.159 265.36 444.858 264.467 444.834C263.654 444.811 262.865 444.942 262.145 445.323C261.767 445.521 261.678 445.389 261.603 445.037C261.243 443.4 262.075 441.646 263.612 440.838C265.094 440.057 267.042 440.381 268.131 441.604V441.604ZM265.958 451.455C266 451.803 265.888 451.888 265.58 451.873C265.248 451.864 264.911 451.873 264.575 451.873V451.92C264.164 451.92 263.622 452.076 263.388 451.873C263.154 451.671 263.547 451.182 263.612 450.801C263.883 449.315 263.612 447.961 262.687 446.767C262.435 446.438 262.482 446.334 262.841 446.189C264.276 445.62 265.981 445.977 267.028 447.082C267.243 447.312 267.285 447.463 267.061 447.731C266.159 448.808 265.799 450.063 265.958 451.455V451.455ZM258.762 451.972V451.855C257.832 451.855 256.903 451.84 255.968 451.859C255.636 451.869 255.468 451.718 255.333 451.436C254.552 449.851 255.024 447.844 256.449 446.729C257.898 445.596 259.916 445.648 261.299 446.852C262.669 448.036 263.033 450.068 262.178 451.61C262.033 451.873 261.865 451.986 261.561 451.977C260.631 451.963 259.697 451.972 258.762 451.972V451.972ZM260.561 459.505C260.557 460.041 260.435 460.586 260.075 461.052C259.767 461.452 259.365 461.663 258.856 461.626C258.608 461.607 258.388 461.489 258.178 461.362C257.547 460.972 257.164 460.389 256.945 459.693C256.73 459.016 256.678 458.32 256.879 457.634C257.033 457.112 257.337 456.698 257.842 456.463C258.131 456.322 258.43 456.322 258.73 456.42C259.332 456.623 259.762 457.036 260.071 457.577C260.402 458.16 260.552 458.79 260.561 459.505V459.505ZM262.187 457.041C262.416 456.745 262.715 456.538 263.066 456.397C263.519 456.218 263.944 456.279 264.332 456.557C264.776 456.872 265.024 457.318 265.136 457.845C265.187 458.104 265.21 458.372 265.215 458.677C265.187 459.486 264.958 460.262 264.388 460.911C264.192 461.132 263.958 461.306 263.697 461.447C263.164 461.738 262.669 461.654 262.211 461.292C261.799 460.972 261.57 460.535 261.477 460.032C261.267 458.931 261.491 457.925 262.187 457.041V457.041ZM258.781 439.008C259.547 437.795 260.641 437.16 262.122 437.104C263.472 437.156 264.566 437.753 265.337 438.943C265.514 439.211 265.486 439.319 265.136 439.328C263.804 439.375 262.692 439.921 261.781 440.88C261.594 441.082 261.482 441.096 261.295 440.889C260.655 440.179 259.86 439.7 258.935 439.474C258.566 439.389 258.645 439.225 258.781 439.008V439.008ZM260.673 441.839C260.832 442.027 260.893 442.192 260.79 442.446C260.491 443.165 260.379 443.922 260.458 444.703C260.486 445.022 260.402 445.079 260.094 444.999C258.776 444.656 257.505 444.797 256.323 445.497C256.061 445.652 255.987 445.587 255.921 445.314C255.702 444.359 255.234 443.532 254.51 442.874C254.281 442.667 254.272 442.507 254.435 442.258C255.211 441.077 256.29 440.457 257.529 440.419C258.912 440.428 259.893 440.917 260.673 441.839V441.839ZM250.595 440.72C250.702 438.712 252.426 437.099 254.622 437.109C255.636 437.151 256.622 437.612 257.379 438.529C257.744 438.961 257.613 439.267 257.038 439.352C255.538 439.587 254.361 440.344 253.543 441.632C253.356 441.928 253.211 441.994 252.889 441.848C252.375 441.613 251.819 441.533 251.253 441.51C250.711 441.486 250.566 441.308 250.595 440.72ZM251.683 442.657C253.66 442.972 255.062 444.674 254.921 446.682C254.309 446.386 253.744 446.099 253.113 445.996C251.697 445.761 250.408 446.066 249.263 446.931C249.029 447.11 248.884 447.143 248.646 446.946C248.389 446.734 248.099 446.532 247.791 446.424C247.314 446.254 247.31 445.977 247.412 445.558C247.894 443.635 249.772 442.347 251.683 442.657V442.657ZM245.146 440.79C246.595 440.113 247.973 440.33 249.23 441.327C249.534 441.571 249.674 441.717 249.174 441.943C247.623 442.634 246.656 443.833 246.319 445.511C246.254 445.836 246.151 445.949 245.814 445.925C245.179 445.883 244.544 445.977 243.959 446.24C243.6 446.4 243.459 446.264 243.324 445.968C243.076 445.431 242.922 444.881 242.931 444.279C242.992 442.685 243.693 441.468 245.146 440.79V440.79ZM241.586 448.112C241.31 448.469 241.133 448.883 240.988 449.315C240.932 449.489 240.876 449.626 240.642 449.551C238.918 448.991 237.222 448.384 235.768 447.232C235.371 446.917 235.338 446.616 235.525 446.174C236.147 444.674 237.502 443.729 239.091 443.725C239.763 443.715 240.385 443.884 240.964 444.214C241.497 444.515 241.918 444.867 242.025 445.558C242.1 446.043 242.576 446.527 242.506 446.95C242.436 447.378 241.894 447.712 241.586 448.112V448.112ZM243.973 456.815H243.969L243.973 456.811V456.815ZM248.062 448.257C247.585 449 247.342 449.819 247.314 450.698C247.305 450.928 247.202 450.999 246.997 450.966C245.394 450.712 243.805 450.397 242.231 450.002C241.969 449.936 242.002 449.776 242.062 449.574C242.749 447.218 246.085 446.217 247.964 447.797C248.137 447.942 248.197 448.046 248.062 448.257V448.257ZM248.408 450.783C248.464 449.353 249.113 448.262 250.324 447.552C251.524 446.842 252.772 446.852 254.015 447.472C254.183 447.557 254.347 447.646 254.244 447.9C253.73 449.156 253.777 450.42 254.258 451.761C252.342 451.634 250.548 451.46 248.758 451.225C248.454 451.187 248.398 451.041 248.408 450.783V450.783ZM255.211 465.148C254.449 464.63 254.024 463.892 253.87 462.989C253.856 462.9 253.847 462.811 253.837 462.721C253.833 462.655 253.837 462.59 253.837 462.528C253.837 462.204 253.875 461.889 254.001 461.588C254.291 460.892 255.16 460.572 255.837 460.92C256.884 461.452 257.449 462.326 257.589 463.483C257.645 463.934 257.608 464.381 257.393 464.785C257.136 465.26 256.744 465.552 256.178 465.519C255.828 465.495 255.501 465.35 255.211 465.148V465.148ZM265.575 469.972C265.229 470.216 264.841 470.282 264.43 470.24C264.052 470.207 263.711 470.033 263.365 469.892C262.94 469.718 262.519 469.535 262.07 469.441C261.477 469.323 260.902 469.403 260.332 469.572C259.874 469.709 259.444 469.906 258.991 470.047C258.664 470.146 258.332 470.212 257.991 470.221C257.281 470.24 256.716 469.704 256.566 469.06C256.505 468.796 256.543 468.542 256.603 468.279C256.711 467.842 256.837 467.414 257.015 467C257.356 466.215 257.79 465.477 258.365 464.842C259.043 464.099 259.893 463.671 260.898 463.563C260.935 463.558 260.972 463.553 261.01 463.553C261.075 463.549 261.141 463.553 261.201 463.553C261.879 463.544 262.477 463.76 263.024 464.155C263.664 464.611 264.178 465.195 264.636 465.829C264.925 466.234 265.21 466.643 265.453 467.075C265.734 467.574 265.981 468.091 266.051 468.674C266.112 469.187 266.028 469.652 265.575 469.972V469.972ZM267.215 464.71C266.897 465.011 266.519 465.209 266.08 465.279C265.617 465.354 265.234 465.204 264.93 464.856C264.561 464.433 264.425 463.92 264.467 463.365C264.514 462.679 264.72 462.044 265.14 461.489C265.486 461.024 265.925 460.69 266.495 460.544C267.042 460.398 267.481 460.582 267.822 461.01C268.117 461.376 268.229 461.809 268.238 462.256C268.215 463.22 267.907 464.047 267.215 464.71V464.71ZM267.407 453.119C267.439 453.129 267.467 453.138 267.5 453.143C267.486 453.143 267.477 453.143 267.463 453.143C267.444 453.138 267.425 453.134 267.407 453.124V453.119ZM274.584 450.924C274.378 451.403 273.794 451.577 273.444 451.667C271.112 452.268 268.234 452 267.678 451.949C267.449 451.925 267.257 451.902 267.14 451.892C267.126 451.888 267.112 451.888 267.098 451.883C267.079 451.873 267.061 451.864 267.042 451.845C267.037 451.864 267.033 451.883 267.033 451.906C267.033 451.888 267.037 451.864 267.037 451.845C266.995 451.615 266.963 451.333 266.963 451.013C266.963 450.731 266.991 450.486 267.028 450.279C267.43 448.511 268.477 447.388 270.276 447.068C272.374 446.701 274.429 448.304 274.654 450.439C274.663 450.514 274.677 450.712 274.584 450.924V450.924ZM280.378 449.833C279.009 450.204 277.626 450.491 276.233 450.764C275.859 450.834 275.761 450.75 275.724 450.378C275.607 449.156 275.093 448.107 274.191 447.279C273.948 447.058 273.99 446.894 274.135 446.659C275.014 445.196 276.794 444.496 278.448 444.971C280.102 445.441 281.247 446.964 281.242 448.685C281.237 449.588 281.228 449.598 280.378 449.833V449.833ZM286.284 447.167C285.204 448.069 283.948 448.62 282.653 449.109C282.42 449.198 282.321 449.165 282.326 448.873C282.364 447.279 281.784 445.944 280.583 444.9C280.326 444.674 280.457 444.58 280.644 444.449C281.322 443.974 282.069 443.729 282.494 443.725C284.513 443.739 285.957 444.773 286.499 446.292C286.625 446.649 286.602 446.903 286.284 447.167V447.167Z" fill="url(#paint14_linear_556_111)"/>
<path d="M1.036 300.902C1.036 300.972 1.078 301 1.148 301H2.618C2.702 301 2.73 300.958 2.73 300.888V298.018C3.052 298.018 3.164 298.018 3.612 298.018C5.726 298.018 7.448 297.052 7.448 294.826C7.448 293.286 6.44 291.774 3.724 291.774C2.702 291.774 1.666 291.802 1.134 291.816C1.064 291.816 1.036 291.858 1.036 291.928V300.902ZM2.73 293.272C2.884 293.258 3.276 293.244 3.766 293.244C5.054 293.244 5.782 293.846 5.782 294.868C5.782 296.142 4.788 296.534 3.612 296.534C3.15 296.534 2.968 296.534 2.73 296.52V293.272ZM12.4257 297.934C13.1117 297.934 13.6717 297.92 13.8677 297.878C13.9377 297.864 13.9657 297.836 13.9797 297.78C14.0217 297.626 14.0357 297.304 14.0357 296.912C14.0357 295.582 13.2377 293.958 11.1657 293.958C9.05166 293.958 7.87566 295.68 7.87566 297.626C7.87566 299.348 8.78566 301.14 11.3337 301.14C12.2857 301.14 12.9017 300.986 13.4337 300.734C13.4897 300.706 13.5177 300.664 13.5177 300.58V299.418C13.5177 299.348 13.4757 299.334 13.4337 299.362C12.9017 299.586 12.3277 299.698 11.6977 299.698C10.2697 299.698 9.62566 298.914 9.58366 297.934H12.4257ZM9.58366 296.73C9.69566 296.044 10.1297 295.302 11.0957 295.302C12.1597 295.302 12.4397 296.198 12.4397 296.604C12.4397 296.618 12.4397 296.674 12.4397 296.716C12.3837 296.73 12.2017 296.73 11.6697 296.73H9.58366ZM18.3567 299.768C18.3567 299.684 18.3147 299.67 18.2727 299.684C18.0767 299.726 17.9227 299.74 17.7407 299.74C17.1387 299.74 16.9427 299.446 16.9427 298.83V295.512H18.3147C18.3847 295.512 18.4127 295.484 18.4127 295.414V294.196C18.4127 294.126 18.3847 294.098 18.3147 294.098H16.9567C16.9567 293.412 16.9847 292.586 17.0267 292.124C17.0267 292.054 16.9987 292.04 16.9287 292.054L15.5147 292.25C15.4447 292.264 15.4167 292.306 15.4027 292.376C15.3327 292.726 15.2767 293.608 15.2627 294.098H14.3807C14.2967 294.098 14.2687 294.126 14.2687 294.21V295.386C14.2687 295.47 14.2967 295.498 14.3667 295.512H15.2487V299.194C15.2487 300.58 15.9347 301.14 17.0827 301.14C17.5447 301.14 17.8947 301.084 18.2727 300.944C18.3427 300.916 18.3567 300.86 18.3567 300.776V299.768ZM20.3223 294.714C20.3923 294.714 20.4063 294.686 20.4483 294.644C20.8963 293.776 21.0923 292.866 21.0923 292.096C21.0923 291.704 21.0503 291.382 20.9943 291.144C20.9663 291.06 20.9243 291.032 20.8543 291.032H19.6223C19.5663 291.032 19.5523 291.074 19.5523 291.13C19.5943 291.354 19.6363 291.732 19.6363 292.068C19.6363 292.936 19.4683 293.594 19.1043 294.616C19.0903 294.672 19.1043 294.714 19.1603 294.714H20.3223ZM25.4329 295.722C25.5169 295.75 25.5589 295.708 25.5589 295.638V294.406C25.5589 294.336 25.5449 294.28 25.4749 294.238C25.1389 294.07 24.5229 293.958 23.7109 293.958C21.9609 293.958 21.0929 294.952 21.0929 296.016C21.0929 297.024 21.6389 297.654 23.1649 298.214C24.0329 298.564 24.2989 298.788 24.2989 299.138C24.2989 299.502 23.9489 299.754 23.2209 299.754C22.5909 299.754 21.8209 299.586 21.2189 299.194C21.1629 299.166 21.1069 299.194 21.1069 299.264V300.594C21.1069 300.678 21.1349 300.706 21.2049 300.748C21.6249 300.986 22.3529 301.14 23.1789 301.14C24.9009 301.14 25.9369 300.314 25.9369 298.998C25.9369 298.004 25.3909 297.374 23.7949 296.786C22.8989 296.436 22.6889 296.226 22.6889 295.918C22.6889 295.624 22.9409 295.316 23.6829 295.316C24.2989 295.316 24.9989 295.484 25.4329 295.722ZM32.7395 300.958C33.5935 301 34.2935 301.168 34.2935 301.784C34.2935 302.316 33.7055 302.862 32.3755 302.862C31.2135 302.862 30.5415 302.316 30.5415 301.826C30.5415 301.616 30.8075 301.168 31.2135 300.888L32.7395 300.958ZM32.0675 295.176C32.8515 295.176 33.1875 295.694 33.1875 296.352C33.1875 297.038 32.7675 297.444 32.0675 297.444C31.3255 297.444 30.9335 296.968 30.9335 296.324C30.9335 295.61 31.3675 295.176 32.0675 295.176ZM31.6755 299.474C31.5635 299.334 31.5075 299.194 31.4935 299.04C31.4655 298.9 31.4935 298.76 31.5355 298.62C31.7175 298.648 31.9135 298.662 32.0955 298.662C33.6075 298.662 34.7975 297.906 34.7975 296.408C34.7975 295.904 34.6435 295.568 34.4895 295.344C34.7975 295.386 35.3015 295.414 35.5675 295.414C35.6375 295.414 35.6515 295.386 35.6515 295.33V294.182C35.6515 294.126 35.6375 294.098 35.5675 294.098H33.6215C33.5375 294.098 33.4255 294.084 33.2995 294.056C33.0055 294 32.5575 293.958 32.0675 293.958C30.3035 293.958 29.2815 295.008 29.2815 296.352C29.2815 297.206 29.6735 297.808 30.2475 298.172C30.0795 298.452 29.9955 298.76 29.9955 299.082C29.9815 299.46 30.0795 299.824 30.2895 300.132C29.3655 300.93 28.9875 301.504 28.9875 301.952C28.9875 302.974 30.0095 304.108 32.2635 304.108C34.4475 304.108 35.8475 302.96 35.8475 301.532C35.8475 300.384 35.0215 299.628 33.1035 299.53L31.6755 299.474ZM40.3256 297.934C41.0116 297.934 41.5716 297.92 41.7676 297.878C41.8376 297.864 41.8656 297.836 41.8796 297.78C41.9216 297.626 41.9356 297.304 41.9356 296.912C41.9356 295.582 41.1376 293.958 39.0656 293.958C36.9516 293.958 35.7756 295.68 35.7756 297.626C35.7756 299.348 36.6856 301.14 39.2336 301.14C40.1856 301.14 40.8016 300.986 41.3336 300.734C41.3896 300.706 41.4176 300.664 41.4176 300.58V299.418C41.4176 299.348 41.3756 299.334 41.3336 299.362C40.8016 299.586 40.2276 299.698 39.5976 299.698C38.1696 299.698 37.5256 298.914 37.4836 297.934H40.3256ZM37.4836 296.73C37.5956 296.044 38.0296 295.302 38.9956 295.302C40.0596 295.302 40.3396 296.198 40.3396 296.604C40.3396 296.618 40.3396 296.674 40.3396 296.716C40.2836 296.73 40.1016 296.73 39.5696 296.73H37.4836ZM46.2567 299.768C46.2567 299.684 46.2147 299.67 46.1727 299.684C45.9767 299.726 45.8227 299.74 45.6407 299.74C45.0387 299.74 44.8427 299.446 44.8427 298.83V295.512H46.2147C46.2847 295.512 46.3127 295.484 46.3127 295.414V294.196C46.3127 294.126 46.2847 294.098 46.2147 294.098H44.8567C44.8567 293.412 44.8847 292.586 44.9267 292.124C44.9267 292.054 44.8987 292.04 44.8287 292.054L43.4147 292.25C43.3447 292.264 43.3167 292.306 43.3027 292.376C43.2327 292.726 43.1767 293.608 43.1627 294.098H42.2807C42.1967 294.098 42.1687 294.126 42.1687 294.21V295.386C42.1687 295.47 42.1967 295.498 42.2667 295.512H43.1487V299.194C43.1487 300.58 43.8347 301.14 44.9827 301.14C45.4447 301.14 45.7947 301.084 46.1727 300.944C46.2427 300.916 46.2567 300.86 46.2567 300.776V299.768ZM53.0319 299.768C53.0319 299.684 52.9899 299.67 52.9479 299.684C52.7519 299.726 52.5979 299.74 52.4159 299.74C51.8139 299.74 51.6179 299.446 51.6179 298.83V295.512H52.9899C53.0599 295.512 53.0879 295.484 53.0879 295.414V294.196C53.0879 294.126 53.0599 294.098 52.9899 294.098H51.6319C51.6319 293.412 51.6599 292.586 51.7019 292.124C51.7019 292.054 51.6739 292.04 51.6039 292.054L50.1899 292.25C50.1199 292.264 50.0919 292.306 50.0779 292.376C50.0079 292.726 49.9519 293.608 49.9379 294.098H49.0559C48.9719 294.098 48.9439 294.126 48.9439 294.21V295.386C48.9439 295.47 48.9719 295.498 49.0419 295.512H49.9239V299.194C49.9239 300.58 50.6099 301.14 51.7579 301.14C52.2199 301.14 52.5699 301.084 52.9479 300.944C53.0179 300.916 53.0319 300.86 53.0319 300.776V299.768ZM55.5419 295.918C55.9059 295.596 56.3679 295.428 56.8859 295.428C57.6979 295.428 58.1039 295.96 58.1039 296.898V300.874C58.1039 300.958 58.1459 301 58.2299 301H59.6859C59.7559 301 59.7979 300.972 59.7979 300.874V296.73C59.7979 294.49 58.5239 293.958 57.4599 293.958C56.6619 293.958 56.0739 294.21 55.5419 294.602V291.13C55.5419 291.06 55.5279 291.032 55.4439 291.032H53.9599C53.8759 291.032 53.8479 291.074 53.8479 291.13V300.888C53.8479 300.958 53.8759 301 53.9599 301H55.4439C55.5279 301 55.5419 300.972 55.5419 300.902V295.918ZM65.2685 297.934C65.9545 297.934 66.5145 297.92 66.7105 297.878C66.7805 297.864 66.8085 297.836 66.8225 297.78C66.8645 297.626 66.8785 297.304 66.8785 296.912C66.8785 295.582 66.0805 293.958 64.0085 293.958C61.8945 293.958 60.7185 295.68 60.7185 297.626C60.7185 299.348 61.6285 301.14 64.1765 301.14C65.1285 301.14 65.7445 300.986 66.2765 300.734C66.3325 300.706 66.3605 300.664 66.3605 300.58V299.418C66.3605 299.348 66.3185 299.334 66.2765 299.362C65.7445 299.586 65.1705 299.698 64.5405 299.698C63.1125 299.698 62.4685 298.914 62.4265 297.934H65.2685ZM62.4265 296.73C62.5385 296.044 62.9725 295.302 63.9385 295.302C65.0025 295.302 65.2825 296.198 65.2825 296.604C65.2825 296.618 65.2825 296.674 65.2825 296.716C65.2265 296.73 65.0445 296.73 64.5125 296.73H62.4265ZM67.7599 300.874C67.7599 300.958 67.8019 301 67.8999 301H69.3419C69.4399 301 69.4679 300.972 69.4679 300.888V294.196C69.4679 294.112 69.4399 294.098 69.3559 294.098H67.8719C67.8019 294.098 67.7599 294.126 67.7599 294.196V300.874ZM68.6139 293.16C69.2019 293.16 69.5799 292.768 69.5799 292.194C69.5799 291.634 69.2299 291.228 68.6279 291.228C68.0679 291.228 67.6619 291.62 67.6619 292.194C67.6619 292.768 68.0399 293.16 68.6139 293.16ZM70.7855 294.098C70.7155 294.098 70.7015 294.112 70.7015 294.182C70.7575 294.644 70.7715 295.456 70.7715 296.058V300.888C70.7715 300.958 70.7995 301 70.8975 301H72.3535C72.4375 301 72.4795 300.972 72.4795 300.888V296.38C72.8015 295.96 73.6275 295.61 74.6215 295.638C74.7195 295.638 74.7475 295.61 74.7475 295.54V294.056C74.7475 293.972 74.7195 293.958 74.6355 293.958C73.6695 293.958 72.8715 294.462 72.3955 295.05C72.3815 294.742 72.3255 294.392 72.2555 294.21C72.2275 294.126 72.1855 294.098 72.1015 294.098H70.7855ZM78.1379 295.512V300.888C78.1379 300.958 78.1659 301 78.2499 301H79.7059C79.8179 301 79.8319 300.958 79.8319 300.888V295.512H81.0639C81.1479 295.498 81.1759 295.484 81.1759 295.414V294.182C81.1759 294.126 81.1619 294.098 81.0639 294.098H79.8319V293.636C79.8319 292.67 80.1819 292.362 80.7559 292.362C80.8819 292.362 81.0499 292.376 81.1899 292.404C81.2599 292.432 81.2879 292.39 81.2879 292.334V291.13C81.2879 291.06 81.2879 291.018 81.2039 290.99C81.0499 290.92 80.7979 290.906 80.5179 290.906C79.4539 290.906 78.8099 291.382 78.4459 292.138C78.2499 292.558 78.1379 293.076 78.1379 293.776V294.098H77.2839C77.2279 294.098 77.1999 294.112 77.1999 294.182V295.414C77.1999 295.484 77.2139 295.512 77.2839 295.512H78.1379ZM84.6748 293.958C82.5748 293.958 81.2728 295.568 81.2728 297.556C81.2728 299.334 82.3088 301.14 84.6468 301.14C86.6208 301.14 88.0068 299.684 88.0068 297.514C88.0068 295.596 86.8308 293.958 84.6748 293.958ZM84.5908 295.372C85.7808 295.372 86.2848 296.394 86.2848 297.556C86.2848 298.998 85.5428 299.712 84.6748 299.712C83.6108 299.712 82.9808 298.816 82.9808 297.528C82.9808 296.198 83.6528 295.372 84.5908 295.372ZM91.9521 293.958C89.8521 293.958 88.5501 295.568 88.5501 297.556C88.5501 299.334 89.5861 301.14 91.9241 301.14C93.8981 301.14 95.2841 299.684 95.2841 297.514C95.2841 295.596 94.1081 293.958 91.9521 293.958ZM91.8681 295.372C93.0581 295.372 93.5621 296.394 93.5621 297.556C93.5621 298.998 92.8201 299.712 91.9521 299.712C90.8881 299.712 90.2581 298.816 90.2581 297.528C90.2581 296.198 90.9301 295.372 91.8681 295.372ZM99.4114 301.14C100.251 301.14 101.147 300.986 102.057 300.594C102.127 300.566 102.141 300.538 102.141 300.468C102.113 300.216 102.085 299.852 102.085 299.572V291.116C102.085 291.06 102.085 291.032 102.015 291.032H100.489C100.433 291.032 100.405 291.06 100.405 291.13V294C100.167 293.972 99.9994 293.958 99.8034 293.958C97.3394 293.958 95.8274 295.582 95.8274 297.612C95.8274 299.964 97.3814 301.14 99.4114 301.14ZM100.405 299.572C100.153 299.656 99.8734 299.684 99.5934 299.684C98.4734 299.684 97.5634 299.054 97.5634 297.528C97.5634 296.17 98.5014 295.372 99.7474 295.372C99.9994 295.372 100.223 295.4 100.405 295.47V299.572Z" fill="#696969"/>
<path d="M50.8902 232V234.191C51.7037 233.956 51.6791 232.933 52.6328 232.849C52.5557 234.181 52.5662 235.499 52.3769 236.789C52.2331 237.761 52.5101 238.118 53.4533 238.322C54.8312 238.62 55.7919 239.423 56.2162 240.899C56.7281 242.673 58.4987 243.101 59.8801 243.893C61.9453 245.082 61.9628 245.05 60.6761 247.084C58.979 249.769 58.2322 250.085 55.0591 249.373C54.3649 249.219 53.7057 248.96 53.1482 249.647C52.6609 250.25 52.8888 250.849 53.1412 251.445C53.7478 252.879 53.8775 254.37 53.6321 255.891C53.5094 256.656 53.5059 257.416 53.7232 258.139C54.8452 261.894 54.4981 265.614 53.3937 269.285C52.426 272.5 52.1455 275.764 52.2541 279.102C52.2892 280.214 52.3628 281.125 53.5164 281.679C54.0809 281.953 54.5682 282.521 54.3123 283.25C54.0844 283.902 53.4112 283.902 52.8397 283.962C50.3888 284.221 49.4983 283.464 49.4527 281.034C49.3826 277.181 48.1063 273.492 47.8539 269.615C47.2613 271.192 46.7214 272.784 46.6337 274.474C46.5636 275.81 46.6337 277.149 46.5951 278.485C46.5566 279.884 46.4584 281.255 48.0642 282.005C48.499 282.209 48.8707 282.752 48.6533 283.334C48.4429 283.899 47.8924 283.979 47.356 284.029C44.9192 284.249 43.7025 283.706 43.7165 280.996C43.7306 278.138 43.2327 275.277 42.1212 272.465C42.6542 276.091 41.9073 279.19 38.3836 281.42C39.751 281.574 40.7713 281.238 41.6023 281.918C42.0616 282.293 42.535 282.689 42.4122 283.355C42.265 284.151 41.5848 284.043 41.0238 284.046C37.3598 284.057 33.6958 284.046 30.0318 284.057C28.5838 284.06 27.1497 284.067 25.6982 284.292C22.5461 284.775 20.3196 283.44 19.096 280.407C18.0301 277.766 17.3394 275 16.6241 272.244C16.4207 271.462 16.2244 270.677 16 269.786C17.0694 269.436 17.427 270.41 17.8337 271.049C19.3099 273.366 19.8007 276.126 21.0945 278.538C21.8028 279.856 22.6197 280.841 24.215 280.954C25.067 281.013 25.4212 280.796 25.4387 279.821C25.4878 277.328 25.5053 274.797 26.1925 272.384C28.1665 265.46 32.3249 259.937 37.7034 255.341C39.9789 253.395 41.7671 251.263 42.8049 248.465C43.7551 245.909 44.7789 243.378 45.7817 240.843C46.0587 240.138 46.3146 239.275 47.0474 239.033C48.6147 238.518 48.8111 237.291 49.0039 235.959C49.1967 234.63 49.642 233.395 50.8972 232.004L50.8902 232Z" fill="url(#paint15_linear_556_111)"/>
<path d="M85.7915 267.826C85.4338 267.525 85.1183 267.805 84.8588 267.991C83.9682 268.626 83.4809 269.523 83.2284 270.579C82.8182 272.279 83.2039 273.931 83.4669 275.589C83.7824 277.574 83.7649 279.534 82.9164 281.399C82.5097 282.296 81.7979 282.721 80.7951 282.447C79.9466 282.219 79.3891 281.809 79.3821 280.768C79.3716 279.614 79.1367 278.461 79.0245 277.307C78.5266 272.332 76.8822 268.131 71.679 266.301C71.4651 266.228 71.2793 266.066 71.09 265.937C69.7927 265.053 68.8214 264.092 69.8803 262.374C70.0977 262.02 70.1293 261.438 70.0241 261.017C69.4315 258.559 68.4778 256.224 67.4751 253.605C67.0894 254.471 66.8404 255.025 66.5074 255.772C66.1673 255.043 65.9148 254.492 65.6588 253.945C65.5151 253.917 65.3748 253.886 65.2311 253.858C65.0032 256.677 62.8153 257.949 61.0307 259.52C60.4101 260.067 59.6562 260.439 59.8701 261.445C60.084 262.458 60.4556 263.433 61.6267 263.556C63.0923 263.707 62.9275 264.552 62.5664 265.474C61.5215 268.149 61.518 270.866 62.6014 273.464C63.5376 275.715 63.4605 277.994 63.4149 280.312C63.4009 280.982 63.2431 281.578 62.6365 281.967C61.9668 282.402 61.7249 283.05 61.9353 283.78C62.1877 284.67 62.9731 284.313 63.5586 284.313C69.0774 284.323 74.5997 284.26 80.1184 284.327C83.253 284.365 85.6653 282.177 85.7459 279.015C85.781 277.658 85.4233 276.375 85.1463 275.067C84.694 272.903 84.1225 270.716 85.7599 268.745C85.9808 268.475 86.1526 268.131 85.7915 267.826V267.826ZM66.297 281.399C65.5607 280.161 65.8903 279.393 66.3706 278.405C66.6266 279.404 66.5529 280.172 66.297 281.399Z" fill="url(#paint16_linear_556_111)"/>
<path d="M465.17 216.14C446.92 139.28 386.42 78.78 309.56 60.53" stroke="#BDBDBD" stroke-width="4"/>
<path d="M468.726 235.713L450.742 216.964L475.971 210.763L468.726 235.713Z" fill="#BDBDBD"/>
<path d="M56.5303 313.55C74.7803 390.42 135.28 450.92 212.15 469.17" stroke="#BDBDBD" stroke-width="4"/>
<path d="M46.3604 327.568L53.6591 302.633L71.6037 321.422L46.3604 327.568Z" fill="#BDBDBD"/>
<path d="M465.17 313.55C446.92 390.41 386.42 450.92 309.56 469.17" stroke="#BDBDBD" stroke-width="4"/>
<path d="M316.065 455.568L319.774 481.283L295.65 471.638L316.065 455.568Z" fill="#BDBDBD"/>
<path d="M212.15 60.53C135.29 78.78 74.7803 139.28 56.5303 216.14" stroke="#BDBDBD" stroke-width="4" stroke-dasharray="8 8"/>
<path d="M57.0571 224.476L48.2542 200.032L73.8247 204.63L57.0571 224.476Z" fill="#BDBDBD"/>
<defs>
<linearGradient id="paint0_linear_556_111" x1="447.5" y1="232" x2="447.5" y2="248.75" gradientUnits="userSpaceOnUse">
<stop stop-color="#EE5B1D"/>
<stop offset="1" stop-color="#DF4300"/>
</linearGradient>
<linearGradient id="paint1_linear_556_111" x1="447.5" y1="240.375" x2="447.5" y2="260.475" gradientUnits="userSpaceOnUse">
<stop stop-color="#EE5B1D"/>
<stop offset="1" stop-color="#DF4300"/>
</linearGradient>
<linearGradient id="paint2_linear_556_111" x1="447.5" y1="252.1" x2="447.5" y2="272.2" gradientUnits="userSpaceOnUse">
<stop stop-color="#EE5B1D"/>
<stop offset="1" stop-color="#DF4300"/>
</linearGradient>
<linearGradient id="paint3_linear_556_111" x1="447.5" y1="263.825" x2="447.5" y2="283.925" gradientUnits="userSpaceOnUse">
<stop stop-color="#EE5B1D"/>
<stop offset="1" stop-color="#DF4300"/>
</linearGradient>
<linearGradient id="paint4_linear_556_111" x1="447.5" y1="275.55" x2="447.5" y2="295.65" gradientUnits="userSpaceOnUse">
<stop stop-color="#EE5B1D"/>
<stop offset="1" stop-color="#DF4300"/>
</linearGradient>
<linearGradient id="paint5_linear_556_111" x1="482.5" y1="255.45" x2="482.5" y2="272.2" gradientUnits="userSpaceOnUse">
<stop stop-color="#EE5B1D"/>
<stop offset="1" stop-color="#DF4300"/>
</linearGradient>
<linearGradient id="paint6_linear_556_111" x1="482.5" y1="263.825" x2="482.5" y2="283.925" gradientUnits="userSpaceOnUse">
<stop stop-color="#EE5B1D"/>
<stop offset="1" stop-color="#DF4300"/>
</linearGradient>
<linearGradient id="paint7_linear_556_111" x1="482.5" y1="275.55" x2="482.5" y2="295.65" gradientUnits="userSpaceOnUse">
<stop stop-color="#EE5B1D"/>
<stop offset="1" stop-color="#DF4300"/>
</linearGradient>
<linearGradient id="paint8_linear_556_111" x1="263.148" y1="29.8534" x2="263.148" y2="56.5431" gradientUnits="userSpaceOnUse">
<stop stop-color="#EE5B1D"/>
<stop offset="1" stop-color="#DF4300"/>
</linearGradient>
<linearGradient id="paint9_linear_556_111" x1="265.709" y1="0" x2="265.709" y2="32.8821" gradientUnits="userSpaceOnUse">
<stop stop-color="#EE5B1D"/>
<stop offset="1" stop-color="#DF4300"/>
</linearGradient>
<linearGradient id="paint10_linear_556_111" x1="233.233" y1="39.0312" x2="233.233" y2="59.7062" gradientUnits="userSpaceOnUse">
<stop stop-color="#EE5B1D"/>
<stop offset="1" stop-color="#DF4300"/>
</linearGradient>
<linearGradient id="paint11_linear_556_111" x1="288.636" y1="26.951" x2="288.636" y2="37.7467" gradientUnits="userSpaceOnUse">
<stop stop-color="#EE5B1D"/>
<stop offset="1" stop-color="#DF4300"/>
</linearGradient>
<linearGradient id="paint12_linear_556_111" x1="285.177" y1="27.7911" x2="285.177" y2="37.4195" gradientUnits="userSpaceOnUse">
<stop stop-color="#EE5B1D"/>
<stop offset="1" stop-color="#DF4300"/>
</linearGradient>
<linearGradient id="paint13_linear_556_111" x1="282.195" y1="28.8507" x2="282.195" y2="37.2519" gradientUnits="userSpaceOnUse">
<stop stop-color="#EE5B1D"/>
<stop offset="1" stop-color="#DF4300"/>
</linearGradient>
<linearGradient id="paint14_linear_556_111" x1="261" y1="436" x2="261" y2="474" gradientUnits="userSpaceOnUse">
<stop stop-color="#EE5B1D"/>
<stop offset="1" stop-color="#DF4300"/>
</linearGradient>
<linearGradient id="paint15_linear_556_111" x1="38.7769" y1="232" x2="38.7769" y2="284.388" gradientUnits="userSpaceOnUse">
<stop stop-color="#EE5B1D"/>
<stop offset="1" stop-color="#DF4300"/>
</linearGradient>
<linearGradient id="paint16_linear_556_111" x1="72.9167" y1="253.605" x2="72.9167" y2="284.384" gradientUnits="userSpaceOnUse">
<stop stop-color="#EE5B1D"/>
<stop offset="1" stop-color="#DF4300"/>
</linearGradient>
</defs>
</svg>
