<svg width="18" height="16" viewBox="0 0 18 16" fill="none" xmlns="http://www.w3.org/2000/svg">
<path d="M12.5813 2.59L15.4 5.40129C15.5187 5.51973 15.5187 5.71297 15.4 5.8314L8.575 12.6383L5.675 12.9594C5.2875 13.003 4.95938 12.6757 5.00313 12.2893L5.325 9.39694L12.15 2.59C12.2687 2.47157 12.4625 2.47157 12.5813 2.59ZM17.6437 1.87627L16.1187 0.355307C15.6437 -0.118436 14.8719 -0.118436 14.3938 0.355307L13.2875 1.45863C13.1688 1.57707 13.1688 1.7703 13.2875 1.88874L16.1063 4.70003C16.225 4.81847 16.4188 4.81847 16.5375 4.70003L17.6437 3.59671C18.1187 3.11985 18.1187 2.35001 17.6437 1.87627ZM12 10.787V13.9598H2V3.9863H9.18125C9.28125 3.9863 9.375 3.94578 9.44687 3.87721L10.6969 2.63052C10.9344 2.39365 10.7656 1.99159 10.4312 1.99159H1.5C0.671875 1.99159 0 2.66169 0 3.48762V14.4585C0 15.2844 0.671875 15.9545 1.5 15.9545H12.5C13.3281 15.9545 14 15.2844 14 14.4585V9.54031C14 9.20682 13.5969 9.04164 13.3594 9.27539L12.1094 10.5221C12.0406 10.5938 12 10.6873 12 10.787Z" fill="white"/>
</svg>
