<svg width="55" height="55" viewBox="0 0 55 55" fill="none" xmlns="http://www.w3.org/2000/svg">
<g clip-path="url(#clip0_660_38)">
<path d="M27.5001 -0.0584717C12.3046 -0.0584717 -0.0600586 12.3028 -0.0600586 27.5C-0.0600586 42.6972 12.3046 55.0584 27.5001 55.0584C42.6956 55.0584 55.0603 42.6972 55.0603 27.5C55.0603 12.3028 42.6956 -0.0584717 27.5001 -0.0584717ZM27.5001 53.2228C13.317 53.2228 1.779 41.6831 1.779 27.5C1.779 13.3168 13.317 1.77715 27.5001 1.77715C41.6832 1.77715 53.2212 13.3168 53.2212 27.5C53.2212 41.6831 41.6832 53.2228 27.5001 53.2228Z" fill="white"/>
<path d="M33.5155 12.0312H28.9299C23.0896 11.9728 22.3436 15.5873 22.3436 19.4992V22.3437H19.7655C19.649 22.3281 19.5304 22.3396 19.4191 22.3773C19.3077 22.415 19.2066 22.4779 19.1234 22.561C19.0403 22.6441 18.9775 22.7453 18.9398 22.8566C18.9021 22.968 18.8906 23.0865 18.9061 23.2031V28.3593C18.8906 28.4758 18.9021 28.5944 18.9398 28.7058C18.9775 28.8171 19.0403 28.9183 19.1234 29.0014C19.2066 29.0845 19.3077 29.1474 19.4191 29.1851C19.5304 29.2228 19.649 29.2343 19.7655 29.2187H22.3436V42.1093C22.3293 42.2261 22.3419 42.3445 22.3803 42.4557C22.4188 42.5668 22.4822 42.6677 22.5656 42.7506C22.649 42.8335 22.7502 42.8963 22.8616 42.9341C22.973 42.9719 23.0915 42.9837 23.2082 42.9687H28.459C28.966 43.0271 29.3768 42.6164 29.2152 42.1093L29.2186 29.2187H33.5155C33.632 29.2343 33.7506 29.2228 33.862 29.1851C33.9733 29.1474 34.0745 29.0845 34.1576 29.0014C34.2407 28.9183 34.3036 28.8171 34.3413 28.7058C34.379 28.5944 34.3905 28.4758 34.3749 28.3593V23.2031C34.3905 23.0865 34.379 22.968 34.3413 22.8566C34.3036 22.7453 34.2407 22.6441 34.1576 22.561C34.0745 22.4779 33.9733 22.415 33.862 22.3773C33.7506 22.3396 33.632 22.3281 33.5155 22.3437H29.2135L29.2186 19.7656C29.3854 18.6673 29.3854 18.846 30.4046 18.9062H33.4794C33.7183 18.8529 33.9727 18.8821 34.1515 18.7085C34.3302 18.5349 34.4333 18.2978 34.3732 18.0468V12.8906C34.389 12.7741 34.3778 12.6556 34.3403 12.5442C34.3029 12.4329 34.2402 12.3316 34.1572 12.2485C34.0742 12.1653 33.9731 12.1024 33.8618 12.0647C33.7505 12.027 33.632 12.0156 33.5155 12.0312ZM32.596 17.0912L30.4407 17.0087C27.7715 17.0087 27.548 18.4576 27.548 19.9409L27.5411 23.1996C27.5409 23.3203 27.5645 23.4398 27.6105 23.5514C27.6565 23.6629 27.7241 23.7643 27.8094 23.8497C27.8946 23.9351 27.9959 24.0029 28.1073 24.0491C28.2188 24.0954 28.3383 24.1192 28.459 24.1192H32.6561V27.4398H28.4624C28.2188 27.4398 27.9852 27.5364 27.8128 27.7085C27.6404 27.8806 27.5433 28.114 27.5429 28.3576L27.5411 41.2499H24.0624V28.3593C24.0624 27.8523 23.7169 27.4415 23.2082 27.4415H20.6249V24.1209H23.2082C23.3288 24.1211 23.4482 24.0975 23.5597 24.0515C23.6712 24.0055 23.7725 23.9379 23.8579 23.8528C24.0297 23.6792 24.0607 23.4454 24.0607 23.2014V19.4974C24.0607 15.644 24.8393 13.8084 28.9282 13.8084H32.5943V17.0912H32.596Z" fill="white"/>
</g>
<defs>
<clipPath id="clip0_660_38">
<rect width="55" height="55" fill="white"/>
</clipPath>
</defs>
</svg>
