<svg width="296" height="276" viewBox="0 0 296 276" fill="none" xmlns="http://www.w3.org/2000/svg">
<g clip-path="url(#clip0_380_214)">
<g opacity="0.5">
<path d="M254.411 114.006C254.411 123.919 246.385 131.953 236.482 131.953C226.579 131.953 218.559 123.919 218.559 114.006C218.559 104.093 226.585 96.066 236.482 96.066C246.379 96.066 254.411 104.1 254.411 114.006Z" fill="#451E0E"/>
<path d="M281.433 116.953C281.178 115.807 280.916 114.674 280.628 113.541C278.653 105.606 275.938 97.9582 272.556 90.6904C272.321 90.1797 272.079 89.669 271.837 89.1648C265.067 75.081 255.792 62.4311 244.593 51.7913C244.443 51.6472 244.292 51.5097 244.142 51.3722C238.418 45.9836 232.198 41.1187 225.558 36.8497C224.466 36.1426 223.354 35.4551 222.235 34.7872C208.139 26.3278 192.277 20.507 175.335 18.0254C174.439 17.8879 173.543 17.7635 172.647 17.6522C167.394 16.9975 162.044 16.657 156.615 16.657C151.185 16.657 145.501 17.0171 140.092 17.7177C139.189 17.8355 138.299 17.9599 137.41 18.0909C120.651 20.6183 104.959 26.4063 91.0004 34.7872C89.8819 35.4551 88.7699 36.1426 87.671 36.8497C81.0317 41.1187 74.8176 45.9836 69.0941 51.3722C68.9437 51.5097 68.7932 51.6472 68.6428 51.7913C57.4443 62.4311 48.169 75.081 41.3989 89.1648C41.1569 89.669 40.9148 90.1797 40.6794 90.6904C37.2976 97.9582 34.583 105.606 32.6076 113.541C32.3198 114.674 32.0581 115.807 31.803 116.953C29.8472 125.851 28.8137 135.103 28.8137 144.59C28.8137 146.764 28.8661 148.925 28.9707 151.066C29.095 153.534 29.2912 155.983 29.5529 158.405C29.6052 158.929 29.6641 159.447 29.7295 159.964C29.8407 160.939 29.9715 161.908 30.1154 162.871C30.1808 163.395 30.2593 163.912 30.3443 164.429C30.4948 165.405 30.6583 166.38 30.8284 167.343C30.92 167.867 31.0181 168.384 31.1227 168.901C31.3059 169.877 31.5021 170.846 31.7114 171.815C31.8292 172.339 31.9404 172.856 32.0581 173.373C32.2871 174.349 32.5226 175.318 32.7646 176.28C32.8954 176.804 33.0328 177.321 33.1767 177.839C33.8439 180.34 34.5896 182.815 35.4072 185.251C40.9345 201.777 49.7454 216.797 61.055 229.538C64.2537 233.146 67.6616 236.57 71.2461 239.792C71.547 240.06 71.8479 240.329 72.1488 240.597C73.045 241.389 73.9542 242.169 74.8699 242.928C77.2313 244.906 79.6711 246.791 82.1764 248.592H82.1829C83.2884 249.391 84.4004 250.163 85.532 250.923C89.8361 253.81 94.3299 256.449 98.9806 258.799C116.295 267.58 135.879 272.523 156.615 272.523C185.337 272.523 211.842 263.042 233.179 247.027C238.045 243.386 242.637 239.399 246.928 235.11C256.864 225.178 265.172 213.621 271.418 200.867C273.701 196.218 275.709 191.405 277.417 186.455C277.6 185.938 277.776 185.421 277.946 184.897C278.411 183.502 278.849 182.095 279.268 180.68C279.418 180.163 279.569 179.646 279.713 179.122C280.098 177.727 280.465 176.326 280.811 174.912C280.936 174.395 281.06 173.877 281.178 173.354C281.498 171.959 281.799 170.551 282.067 169.137C282.172 168.62 282.27 168.102 282.362 167.579C282.617 166.184 282.846 164.783 283.048 163.369C283.134 162.851 283.205 162.334 283.271 161.81C283.703 158.635 284.01 155.42 284.2 152.172C284.35 149.664 284.422 147.137 284.422 144.59C284.422 135.103 283.389 125.851 281.433 116.953V116.953ZM267.467 146.45C252.371 146.45 240.139 158.694 240.139 173.799C240.139 186.77 249.159 197.639 261.266 200.447C241.309 237.841 201.932 263.285 156.615 263.285C137.554 263.285 119.539 258.78 103.586 250.779C104.41 248.356 104.855 245.757 104.855 243.059C104.855 229.8 94.1205 219.049 80.8747 219.049C75.9754 219.049 71.4293 220.516 67.6354 223.037C57.9611 212.056 50.2883 199.269 45.1862 185.251H62.5006L68.3026 196.028V185.251H73.2608C77.977 185.251 82.2418 183.339 85.3358 180.242C88.4232 177.151 90.3332 172.876 90.3332 168.155C90.3332 158.713 82.6931 151.066 73.2608 151.066H38.2199C38.1022 148.925 38.0433 146.764 38.0433 144.59C38.0433 134.939 39.1945 125.556 41.3662 116.573L49.1305 120.659V117.666L47.2401 106.653L56.6594 97.4672V94.4749L49.5819 93.447C56.038 79.9393 64.9666 67.8459 75.7792 57.7496L79.5534 55.7657L91.733 62.1757V59.1835L89.8492 48.1705L94.9643 43.1812C110.055 33.9688 127.363 28.0367 145.9 26.3736L146.044 26.5111L144.154 37.5307V40.5229L156.34 34.1063L168.52 40.5229V37.5307L166.629 26.5111L166.819 26.3343C185.553 27.9254 203.05 33.8902 218.285 43.1878L223.387 48.1705L221.503 59.1835V62.1757L233.682 55.7657L237.457 57.7496C248.269 67.8459 257.198 79.9393 263.647 93.447L256.576 94.4749V97.4672L265.996 106.653L264.105 117.666V120.659L271.87 116.573C274.041 125.556 275.193 134.939 275.193 144.59C275.193 145.579 275.179 146.567 275.153 147.55C272.713 146.829 270.136 146.45 267.467 146.45V146.45Z" fill="#451E0E"/>
<path d="M231.916 246.189L261.855 266.074L246.189 233.585L231.916 246.189Z" fill="#451E0E"/>
</g>
<path d="M49.1306 120.659L41.3662 116.573C41.5821 115.689 41.8045 114.812 42.0399 113.934C43.7733 107.4 46.0562 101.095 48.8297 95.0577C49.0782 94.5143 49.3268 93.9774 49.5819 93.447L56.6594 94.475V97.4672L47.2402 106.653L49.1306 117.667V120.659V120.659Z" fill="white"/>
<path d="M68.3027 196.028L62.5007 185.251H45.1863C44.2967 182.815 43.4856 180.346 42.7595 177.839C42.6091 177.321 42.4586 176.804 42.3213 176.28C42.0531 175.318 41.798 174.349 41.556 173.373C41.4251 172.856 41.3009 172.339 41.1766 171.815C40.9476 170.846 40.7383 169.877 40.5355 168.901C40.4243 168.384 40.3197 167.86 40.2216 167.343C40.0319 166.374 39.8553 165.405 39.6983 164.429C39.6067 163.912 39.5217 163.395 39.4432 162.871C39.2927 161.908 39.1554 160.939 39.0311 159.964C38.9591 159.447 38.9002 158.923 38.8348 158.406C38.5601 155.976 38.3508 153.534 38.22 151.066H73.2609C82.6932 151.066 90.3333 158.713 90.3333 168.155C90.3333 172.876 88.4233 177.151 85.3359 180.242C82.2419 183.339 77.9771 185.251 73.2609 185.251H68.3027V196.028V196.028Z" fill="white"/>
<path d="M79.5535 55.7657L75.7793 57.7496C77.3819 56.2502 79.0368 54.7967 80.7244 53.3889C83.5698 51.0122 86.5329 48.7664 89.5942 46.6646C91.3538 45.4533 93.1395 44.2944 94.9645 43.1813L89.8493 48.1705L91.7332 59.1836V62.1758L79.5535 55.7657V55.7657Z" fill="white"/>
<path d="M104.855 243.059C104.855 245.757 104.41 248.356 103.586 250.779C97.7248 247.845 92.1386 244.434 86.8861 240.597C85.3358 239.478 83.8248 238.312 82.3335 237.114C81.3588 236.335 80.4038 235.536 79.4554 234.718C78.3499 233.768 77.2575 232.799 76.1848 231.804C73.1889 229.034 70.3305 226.107 67.6355 223.037C71.4294 220.516 75.9755 219.049 80.8748 219.049C94.1206 219.049 104.855 229.8 104.855 243.059V243.059Z" fill="white"/>
<path d="M166.629 26.5111L168.52 37.5307V40.5229L156.34 34.1063L144.154 40.5229V37.5307L146.044 26.5111L145.9 26.3736C145.959 26.3736 146.018 26.3605 146.07 26.3605C149.544 26.0528 153.063 25.8956 156.615 25.8956C159.977 25.8956 163.306 26.0331 166.596 26.3147C166.668 26.3147 166.74 26.3212 166.819 26.3343L166.629 26.5111V26.5111Z" fill="white"/>
<path d="M223.387 48.1706L218.285 43.1879C220.103 44.301 221.889 45.4599 223.642 46.6712C226.703 48.7664 229.666 51.0122 232.512 53.389C234.199 54.7967 235.848 56.2503 237.457 57.7497L233.683 55.7658L221.503 62.1758V59.1836L223.387 48.1706V48.1706Z" fill="white"/>
<path d="M236.482 131.953C226.585 131.953 218.559 123.919 218.559 114.006C218.559 104.093 226.585 96.066 236.482 96.066C246.379 96.066 254.411 104.1 254.411 114.006C254.411 123.913 246.385 131.953 236.482 131.953Z" fill="white"/>
<path d="M265.996 106.653L256.576 97.4672V94.475L263.647 93.447C263.902 93.9774 264.158 94.5143 264.406 95.0577C267.18 101.095 269.462 107.4 271.196 113.934C271.431 114.812 271.654 115.689 271.87 116.573L264.105 120.659V117.667L265.996 106.653V106.653Z" fill="white"/>
<path d="M275.153 147.55C275.036 152.382 274.63 157.142 273.95 161.81C273.878 162.334 273.799 162.851 273.714 163.369C273.492 164.783 273.243 166.184 272.969 167.579C272.871 168.103 272.766 168.62 272.655 169.137C272.354 170.551 272.033 171.959 271.687 173.354C271.556 173.871 271.425 174.395 271.288 174.912C270.915 176.326 270.516 177.727 270.097 179.122C269.94 179.646 269.777 180.163 269.613 180.68C269.162 182.101 268.684 183.502 268.181 184.897C267.991 185.421 267.801 185.938 267.605 186.455C265.793 191.274 263.667 195.949 261.267 200.448C249.159 197.639 240.139 186.77 240.139 173.799C240.139 158.694 252.371 146.45 267.468 146.45C270.136 146.45 272.714 146.829 275.153 147.55Z" fill="white"/>
<path d="M254.411 114.006C254.411 123.919 246.385 131.953 236.482 131.953C226.579 131.953 218.559 123.919 218.559 114.006C218.559 104.093 226.585 96.066 236.482 96.066C246.379 96.066 254.411 104.1 254.411 114.006Z" stroke="#FFB397" stroke-miterlimit="10"/>
<path d="M275.821 114.491C275.605 113.613 275.376 112.736 275.134 111.865C273.577 106.208 271.634 100.715 269.319 95.4178C268.939 94.5404 268.547 93.6696 268.141 92.7987C262.509 80.6595 254.948 69.5941 245.862 59.9954C245.339 59.4388 244.809 58.8888 244.273 58.3454C235.573 49.4865 225.545 41.9372 214.51 36.0313C214.452 35.9985 214.393 35.9658 214.334 35.9396C201.101 28.8748 186.423 24.1736 170.868 22.3796C169.952 22.2683 169.03 22.17 168.107 22.0849C164.327 21.7314 160.494 21.5546 156.615 21.5546C152.736 21.5546 148.563 21.751 144.618 22.1373C143.696 22.2224 142.78 22.3206 141.864 22.4385C126.493 24.2718 111.991 28.9533 98.9022 35.9396C98.8433 35.9658 98.7844 35.9985 98.7255 36.0313C87.6906 41.9372 77.6631 49.4865 68.9633 58.3454C68.427 58.8888 67.8971 59.4388 67.3738 59.9954C58.2882 69.5941 50.7266 80.6595 45.0947 92.7987C44.6891 93.6696 44.2967 94.5404 43.9173 95.4178C41.6017 100.715 39.659 106.208 38.1022 111.865C37.8602 112.736 37.6312 113.613 37.4154 114.491C34.9886 124.122 33.7065 134.206 33.7065 144.59C33.7065 146.764 33.7654 148.918 33.8701 151.066C34.0009 153.534 34.2037 155.976 34.4784 158.405C34.5307 158.929 34.5896 159.447 34.6616 159.964C34.7793 160.939 34.9101 161.908 35.054 162.871C35.1325 163.388 35.211 163.912 35.296 164.429C35.453 165.405 35.6231 166.374 35.8063 167.343C35.9044 167.867 36.0025 168.384 36.1071 168.901C36.3034 169.877 36.5062 170.846 36.7286 171.815C36.8398 172.332 36.964 172.856 37.0883 173.373C37.3238 174.349 37.5658 175.318 37.8275 176.28C37.9583 176.804 38.1022 177.321 38.2526 177.839C38.946 180.34 39.7244 182.815 40.5747 185.251C45.8404 200.303 53.9449 214.021 64.2472 225.754C67.7598 229.761 71.5275 233.532 75.5306 237.055C76.9043 238.26 78.3106 239.445 79.7431 240.597C80.7701 241.422 81.8101 242.228 82.8633 243.02C85.2769 244.833 87.756 246.562 90.3006 248.199C94.0094 250.582 97.8556 252.769 101.826 254.753C118.323 262.99 136.926 267.626 156.615 267.626C204.143 267.626 245.372 240.623 265.819 201.109C268.266 196.394 270.404 191.503 272.229 186.455C272.419 185.938 272.602 185.414 272.785 184.897C273.263 183.502 273.721 182.095 274.153 180.68C274.316 180.163 274.473 179.646 274.624 179.122C275.029 177.727 275.408 176.326 275.762 174.912C275.899 174.395 276.03 173.871 276.154 173.354C276.488 171.959 276.795 170.551 277.083 169.137C277.188 168.62 277.292 168.102 277.39 167.579C277.652 166.184 277.894 164.776 278.11 163.369C278.188 162.851 278.26 162.327 278.339 161.81C278.915 157.672 279.287 153.475 279.444 149.213C279.503 147.681 279.529 146.142 279.529 144.59C279.529 134.206 278.247 124.122 275.821 114.491V114.491ZM267.468 146.45C252.371 146.45 240.139 158.694 240.139 173.799C240.139 186.77 249.159 197.639 261.267 200.447C241.309 237.841 201.932 263.285 156.615 263.285C137.554 263.285 119.539 258.78 103.586 250.779C104.41 248.356 104.855 245.757 104.855 243.059C104.855 229.8 94.1206 219.049 80.8748 219.049C75.9754 219.049 71.4293 220.516 67.6355 223.037C57.9611 212.056 50.2884 199.269 45.1863 185.251H62.5007L68.3027 196.028V185.251H73.2609C77.977 185.251 82.2419 183.339 85.3358 180.242C88.4232 177.151 90.3333 172.876 90.3333 168.155C90.3333 158.713 82.6932 151.066 73.2609 151.066H38.2199C38.1022 148.925 38.0433 146.764 38.0433 144.59C38.0433 134.939 39.1946 125.556 41.3662 116.573L49.1306 120.659V117.666L47.2402 106.653L56.6594 97.4672V94.4749L49.5819 93.447C56.038 79.9393 64.9667 67.8459 75.7792 57.7496L79.5534 55.7657L91.7331 62.1757V59.1835L89.8492 48.1705L94.9644 43.1812C110.055 33.9688 127.363 28.0367 145.9 26.3736L146.044 26.5111L144.154 37.5307V40.5229L156.34 34.1063L168.52 40.5229V37.5307L166.629 26.5111L166.819 26.3343C185.553 27.9254 203.05 33.8902 218.285 43.1878L223.387 48.1705L221.503 59.1835V62.1757L233.682 55.7657L237.457 57.7496C248.269 67.8459 257.198 79.9393 263.647 93.447L256.577 94.4749V97.4672L265.996 106.653L264.105 117.666V120.659L271.87 116.573C274.041 125.556 275.193 134.939 275.193 144.59C275.193 145.579 275.18 146.567 275.153 147.55C272.714 146.829 270.136 146.45 267.468 146.45V146.45Z" stroke="#FFB397" stroke-miterlimit="10"/>
<path d="M176.048 14.3391V17.3248L175.335 18.0254L170.868 22.3796L166.819 26.3343L166.629 26.5111L166.191 26.9432L168.519 37.5307V40.5229L156.34 34.1063L144.154 40.5229V37.5307L146.482 26.9432L146.044 26.5111L145.9 26.3736L141.864 22.4385L137.41 18.0909L136.625 17.3248V14.3391L150.25 15.3475L156.34 2.99219L162.43 15.3475L176.048 14.3391Z" fill="#FF4648"/>
<path d="M168.107 22.085L166.191 23.951L166.596 26.3147L166.629 26.5111L168.519 37.5307L156.34 31.1206L144.154 37.5307L146.044 26.5111L146.07 26.3605L146.482 23.951L144.618 22.1374L140.092 17.7177L136.625 14.3392L150.25 12.3553L156.34 0L162.43 12.3553L176.048 14.3392L172.647 17.6523L168.107 22.085Z" fill="#FF8775"/>
<path d="M99.2619 35.9921V38.9843L94.9644 43.1813L89.8492 48.1706L89.411 48.5962L91.7331 59.1836V62.1759L79.5535 55.7658L75.7792 57.7497L67.3738 62.1759V59.1836L69.0942 51.3723L69.7025 48.5962L69.2642 48.1706L59.845 38.9843V35.9921L73.4636 37.0004L79.5535 24.6451L85.6433 37.0004L87.671 36.8498L98.7255 36.0314L99.2619 35.9921Z" fill="#FF4648"/>
<path d="M89.8492 48.1706L91.7331 59.1836L80.7243 53.389L79.5535 52.7735L68.9633 58.3455L67.3738 59.1836L68.6428 51.7914L69.2642 48.1706L69.7025 45.6039L59.845 35.9921L73.4636 34.0082L79.5535 21.6594L85.6433 34.0082L91.0005 34.7873L98.9022 35.9397L99.2619 35.9921L89.411 45.6039L89.5941 46.6646L89.8492 48.1706Z" fill="#FF8775"/>
<path d="M47.2401 106.653L46.8018 107.086L49.1305 117.666V120.659L41.3661 116.573L37.4153 114.491L36.9509 114.249L31.803 116.953L24.7647 120.659V117.666L27.0933 107.086L26.6551 106.653L17.2358 97.4672V94.4749L30.8545 95.4833L36.9509 83.1345L40.6793 90.6904L43.0407 95.4833L43.9172 95.4178L48.8296 95.0577L56.6593 94.4749V97.4672L47.2401 106.653Z" fill="#FF4648"/>
<path d="M47.2401 106.653L49.1305 117.666L42.0399 113.934L38.1021 111.865L36.9509 111.256L32.6075 113.542L24.7647 117.666L26.6551 106.653L27.0933 104.093L17.2358 94.475L30.8545 92.4976L36.9509 80.1423L41.3988 89.1649L43.0407 92.4976L45.0946 92.7988L49.5818 93.447L56.6593 94.475L46.8018 104.093L47.2401 106.653Z" fill="#FF8775"/>
<path d="M243.972 48.1706L243.533 48.5962L244.142 51.3723L245.862 59.1836V62.1759L237.457 57.7497L233.682 55.7658L221.503 62.1759V59.1836L223.825 48.5962L223.387 48.1706L218.284 43.1879L213.974 38.9843V35.9921L214.51 36.0314L225.558 36.8498L227.593 37.0004L233.682 24.6451L239.772 37.0004L253.391 35.9921V38.9843L243.972 48.1706Z" fill="#FF4648"/>
<path d="M244.593 51.7914L245.862 59.1836L244.272 58.3455L233.682 52.7735L232.511 53.389L221.503 59.1836L223.387 48.1706L223.642 46.6712L223.825 45.6039L213.974 35.9921L214.334 35.9397L222.235 34.7873L227.593 34.0082L233.682 21.6594L239.772 34.0082L253.391 35.9921L243.533 45.6039L243.972 48.1706L244.593 51.7914Z" fill="#FF8775"/>
<path d="M286.581 106.653L286.142 107.086L288.471 117.666V120.659L281.433 116.953L276.285 114.249L275.82 114.491L271.87 116.573L264.105 120.659V117.666L266.434 107.086L265.996 106.653L256.576 97.4672V94.4749L264.406 95.0577L269.319 95.4178L270.195 95.4833L272.556 90.6904L276.285 83.1345L282.375 95.4833L296 94.4749V97.4672L286.581 106.653Z" fill="#FF4648"/>
<path d="M286.581 106.653L288.471 117.666L280.628 113.542L276.285 111.256L275.134 111.865L271.196 113.934L264.105 117.666L265.996 106.653L266.434 104.093L256.576 94.475L263.647 93.447L268.141 92.7988L270.195 92.4976L271.837 89.1649L276.285 80.1423L282.375 92.4976L296 94.475L286.142 104.093L286.581 106.653Z" fill="#FF8775"/>
<path d="M90.3333 168.155C90.3333 172.876 88.4232 177.151 85.3358 180.242C82.2419 183.339 77.977 185.251 73.2609 185.251H17.0789C7.6466 185.251 0 177.596 0 168.155C0 163.434 1.91002 159.158 5.00398 156.068C8.0914 152.978 12.3628 151.066 17.0789 151.066H73.2609C82.6932 151.066 90.3333 158.713 90.3333 168.155V168.155Z" fill="#451E0E"/>
<path d="M68.3027 182.232V196.028L62.5007 185.251L61.2056 182.841L68.3027 182.232Z" fill="#451E0E"/>
<path d="M294.79 173.799C294.79 182.684 290.558 190.587 283.997 195.583C282.283 196.886 280.413 197.992 278.417 198.87C276.22 199.832 273.871 200.513 271.418 200.867C270.13 201.056 268.809 201.155 267.468 201.155C266.912 201.155 266.362 201.135 265.819 201.109C264.262 201.011 262.745 200.788 261.267 200.448C249.159 197.639 240.139 186.77 240.139 173.799C240.139 158.694 252.371 146.45 267.468 146.45C270.136 146.45 272.714 146.829 275.153 147.55C276.645 147.982 278.077 148.538 279.444 149.213C281.139 150.038 282.728 151.033 284.2 152.172C290.643 157.181 294.79 165.006 294.79 173.799V173.799Z" fill="#FFB397"/>
<path d="M276.488 197.2L286.443 205.817L283.48 193.429L276.488 197.2Z" fill="#FFB397"/>
<path d="M286.456 163.369H249.787C249.355 163.369 249.008 163.022 249.008 162.589C249.008 162.157 249.355 161.81 249.787 161.81H286.456C286.888 161.81 287.235 162.157 287.235 162.589C287.235 163.022 286.888 163.369 286.456 163.369Z" fill="white"/>
<path d="M286.456 169.137H249.787C249.355 169.137 249.008 168.79 249.008 168.358C249.008 167.926 249.355 167.579 249.787 167.579H286.456C286.888 167.579 287.235 167.926 287.235 168.358C287.235 168.79 286.888 169.137 286.456 169.137Z" fill="white"/>
<path d="M286.456 174.912H249.787C249.355 174.912 249.008 174.565 249.008 174.133C249.008 173.701 249.355 173.354 249.787 173.354H286.456C286.888 173.354 287.235 173.701 287.235 174.133C287.235 174.565 286.888 174.912 286.456 174.912Z" fill="white"/>
<path d="M286.456 180.68H249.787C249.355 180.68 249.008 180.333 249.008 179.901C249.008 179.469 249.355 179.122 249.787 179.122H286.456C286.888 179.122 287.235 179.469 287.235 179.901C287.235 180.333 286.888 180.68 286.456 180.68Z" fill="white"/>
<path d="M286.456 186.455H249.787C249.355 186.455 249.008 186.108 249.008 185.676C249.008 185.244 249.355 184.897 249.787 184.897H286.456C286.888 184.897 287.235 185.244 287.235 185.676C287.235 186.108 286.888 186.455 286.456 186.455Z" fill="white"/>
<path d="M79.6581 159.964H10.649C10.2173 159.964 9.87061 159.617 9.87061 159.185C9.87061 158.753 10.2173 158.406 10.649 158.406H79.6581C80.0898 158.406 80.4365 158.753 80.4365 159.185C80.4365 159.617 80.0898 159.964 79.6581 159.964Z" fill="#FFB397"/>
<path d="M79.6581 164.429H10.649C10.2173 164.429 9.87061 164.082 9.87061 163.65C9.87061 163.218 10.2173 162.871 10.649 162.871H79.6581C80.0898 162.871 80.4365 163.218 80.4365 163.65C80.4365 164.082 80.0898 164.429 79.6581 164.429Z" fill="#FFB397"/>
<path d="M79.6581 168.901H10.649C10.2173 168.901 9.87061 168.554 9.87061 168.122C9.87061 167.69 10.2173 167.343 10.649 167.343H79.6581C80.0898 167.343 80.4365 167.69 80.4365 168.122C80.4365 168.554 80.0898 168.901 79.6581 168.901Z" fill="#FFB397"/>
<path d="M79.6581 173.373H10.649C10.2173 173.373 9.87061 173.026 9.87061 172.594C9.87061 172.162 10.2173 171.815 10.649 171.815H79.6581C80.0898 171.815 80.4365 172.162 80.4365 172.594C80.4365 173.026 80.0898 173.373 79.6581 173.373Z" fill="#FFB397"/>
<path d="M79.6581 177.839H10.649C10.2173 177.839 9.87061 177.492 9.87061 177.06C9.87061 176.627 10.2173 176.28 10.649 176.28H79.6581C80.0898 176.28 80.4365 176.627 80.4365 177.06C80.4365 177.492 80.0898 177.839 79.6581 177.839Z" fill="#FFB397"/>
<path d="M254.411 114.006C254.411 123.919 246.385 131.953 236.482 131.953C226.579 131.953 218.559 123.919 218.559 114.006C218.559 104.093 226.585 96.066 236.482 96.066C246.379 96.066 254.411 104.1 254.411 114.006Z" fill="#FF4648"/>
<path d="M236.482 101.992C231.825 101.992 228.037 105.789 228.037 110.451C228.037 111.846 228.391 113.234 229.051 114.465L236.024 127.082C236.116 127.252 236.292 127.357 236.482 127.357C236.672 127.357 236.855 127.252 236.946 127.082L243.919 114.465C244.58 113.234 244.927 111.846 244.927 110.451C244.927 105.789 241.139 101.992 236.482 101.992ZM236.482 114.674C234.153 114.674 232.263 112.782 232.263 110.451C232.263 108.12 234.153 106.221 236.482 106.221C238.811 106.221 240.708 108.12 240.708 110.451C240.708 112.782 238.811 114.674 236.482 114.674Z" fill="white"/>
<path d="M156.379 154.038C208.898 154.038 217.212 129.943 217.212 129.943C217.212 129.943 204.084 113.954 199.924 90.075C195.764 66.2025 181.105 47.7973 154.626 49.336C128.148 50.8747 116.334 59.4127 109.545 90.9524C102.762 122.492 93.7871 137.388 93.7871 137.388C93.7871 137.388 112.606 154.038 156.373 154.038H156.379Z" fill="#451E0E"/>
<g opacity="0.29">
<path d="M189.321 84.7715C192.572 102.378 198.23 119.899 208.342 134.808L210.409 137.754L208.198 134.913C197.49 120.331 191.702 102.581 189.321 84.778V84.7715Z" fill="white"/>
<path d="M176.402 96.747C178.992 113.398 184.683 129.603 193.154 144.165L194.874 147.072L193.003 144.256C183.924 130.009 178.142 113.555 176.402 96.7405V96.747Z" fill="white"/>
<path d="M170.247 116.187C172 127.691 175.277 138.999 180.052 149.612C180.379 150.319 180.699 151.026 181.013 151.74C180.634 151.059 180.261 150.378 179.888 149.691C174.492 139.339 171.143 127.835 170.247 116.187Z" fill="white"/>
<path d="M121.384 82.8596C119.01 101.055 113.679 118.95 105.784 135.502L104.155 138.796L105.62 135.43C112.881 118.622 118.166 100.885 121.384 82.8596Z" fill="white"/>
<path d="M133.917 100.604C131.405 116.586 126.329 132.228 118.977 146.633L120.174 143.844L121.338 141.048C126.768 128.018 130.921 114.399 133.91 100.604H133.917Z" fill="white"/>
<path d="M144.095 119.389C142.859 130.84 139.686 142.109 134.754 152.513C134.996 151.832 135.245 151.157 135.5 150.49C139.248 140.393 142.087 129.969 144.095 119.389V119.389Z" fill="white"/>
</g>
<path d="M166.198 55.2223C162.705 52.6491 160.553 48.3539 160.572 44.0128C164.837 45.6759 166.518 50.6586 166.198 55.2223Z" fill="#451E0E"/>
<path d="M164.196 56.3026C164.392 51.9681 166.767 47.7842 170.377 45.3878C171.372 49.8598 168.167 54.0306 164.196 56.3026V56.3026Z" fill="#451E0E"/>
<path d="M155.673 60.3817C173.766 60.3817 188.437 75.356 188.437 93.8202C188.437 112.284 173.766 140.229 155.673 140.229C137.58 140.229 122.908 112.291 122.908 93.8202C122.908 75.3495 137.58 60.3817 155.673 60.3817" fill="#FF8775"/>
<path d="M120.848 103.334C127.291 96.8846 130.346 87.2138 128.776 78.2305C141.315 80.5614 154.476 76.2008 163.607 67.2895C162.921 69.1883 161.985 72.246 161.671 74.243C161.612 74.6032 161.573 75.0026 161.789 75.2972C161.946 75.5133 162.221 75.6246 162.482 75.6639C163.555 75.8014 164.458 74.8978 165.112 74.0335C166.865 71.7157 168.245 69.1163 169.18 66.3663C170.234 72.6716 174.708 78.7543 180.64 81.1245C180.863 89.5447 184.48 98.4298 190.74 104.061C193.926 95.3262 194.22 85.9566 191.139 77.1829C190.02 73.9942 188.483 70.9234 186.325 68.324C183.591 65.0306 179.96 62.6014 176.173 60.6175C171.627 58.2342 166.76 56.414 161.704 55.5432C148.929 53.3432 135.081 57.7431 126.297 67.283C117.512 76.8228 116.452 91.1292 120.841 103.334H120.848Z" fill="#451E0E"/>
<path d="M157.616 89.4203C157.792 94.8548 157.746 101.769 162.881 105.036C161.468 107.387 159.356 109.626 156.621 110.287C158.296 109.358 159.584 108.015 160.644 106.47C160.991 105.966 161.298 105.429 161.606 104.892L161.789 105.678C156.386 102.273 156.334 94.9857 157.622 89.4203H157.616Z" fill="#451E0E"/>
<path d="M144.972 93.5386C144.972 95.097 144.128 96.3672 143.088 96.3672C142.048 96.3672 141.204 95.1035 141.204 93.5386C141.204 91.9738 142.048 90.7101 143.088 90.7101C144.128 90.7101 144.972 91.9738 144.972 93.5386Z" fill="#451E0E"/>
<path d="M133.839 89.1518C134.905 86.0941 137.253 83.5078 140.007 81.8185C142.721 79.8739 146.234 78.9965 149.439 80.2143L149.459 80.4828C148.72 80.928 147.994 81.2554 147.281 81.5566C145.246 82.5518 143.088 82.9447 140.995 83.7107C138.234 84.9089 135.781 86.7357 134.067 89.2696L133.825 89.1518H133.839Z" fill="#451E0E"/>
<path d="M166.701 93.5386C166.701 95.097 167.545 96.3672 168.585 96.3672C169.625 96.3672 170.469 95.1035 170.469 93.5386C170.469 91.9738 169.625 90.7101 168.585 90.7101C167.545 90.7101 166.701 91.9738 166.701 93.5386V93.5386Z" fill="#451E0E"/>
<path d="M177.592 89.2696C175.46 86.1726 172.202 83.9333 168.572 83.0494C166.342 82.447 164.268 81.622 162.208 80.4828L162.227 80.2143C167.172 78.3614 172.137 81.3994 175.408 85.0006C176.448 86.2577 177.318 87.6458 177.828 89.1518L177.586 89.2696H177.592Z" fill="#451E0E"/>
<path d="M150.414 118.406C152.023 119.912 154.286 121.235 157.269 121.235C159.597 121.235 161.468 120.377 162.927 119.251C158.852 118.21 154.587 117.922 150.414 118.406Z" fill="#FF4648"/>
<path d="M167.048 113.751C167.048 113.751 161.874 116.246 157.275 116.246C152.677 116.246 147.307 114.137 147.307 114.137C147.307 114.137 148.294 116.429 150.414 118.406C154.587 117.922 158.852 118.21 162.927 119.251C165.779 117.031 167.041 113.758 167.041 113.758L167.048 113.751Z" fill="#451E0E"/>
<path d="M168.552 147.34C165.72 138.023 164.209 124.188 164.209 124.188L155.503 123.821L146.797 124.188C146.797 124.188 145.364 137.283 142.682 146.574C151.166 148.375 159.983 148.643 168.559 147.34H168.552Z" fill="#FF8775"/>
<path d="M214.471 176.385C206.949 167.192 175.29 160.579 170.94 153.226C170.063 151.747 169.272 149.684 168.559 147.34C159.983 148.637 151.166 148.375 142.682 146.574C141.91 149.239 141.04 151.59 140.072 153.226C135.716 160.579 104.057 167.192 96.5409 176.385C89.0185 185.578 68.8391 246.228 68.8391 246.228L155.509 276.007L242.18 246.228C242.18 246.228 221.994 185.571 214.478 176.385H214.471Z" fill="#451E0E"/>
<path d="M187.685 204.081C187.685 204.081 166.394 187.608 164.857 182.992C163.32 178.376 163.32 173.327 161.128 173.544C158.93 173.766 157.066 179.05 156.739 181.23C156.078 185.624 157.616 190.017 157.616 190.017L147.091 189.795C144.887 189.795 143.297 191.903 143.899 194.024L144.128 194.83C144.337 195.55 144.291 196.323 144.004 197.017L142.78 199.95C142.44 200.762 142.44 201.672 142.774 202.484L143.729 204.821C144.049 205.607 144.056 206.491 143.748 207.283L143.258 208.547C142.898 209.47 142.97 210.498 143.448 211.362L144.062 212.469C144.579 213.405 144.618 214.531 144.167 215.494C143.552 216.803 143.853 218.355 144.913 219.344L145.07 219.488C145.789 220.156 146.77 220.477 147.752 220.346L171.888 217.249L176.938 221.203L187.692 204.068L187.685 204.081Z" fill="#FF8775"/>
<path d="M235.893 241.763C224.218 233.068 210.893 222.906 199.374 213.968L187.286 204.592L188.235 204.429L184.343 210.662C181.844 214.597 175.146 225.217 172.575 229.296L172.497 228.583C179.692 236.073 187.705 244.526 194.802 252.108C197.261 254.74 199.727 257.366 202.167 260.017C197.032 254.963 191.917 249.888 186.848 244.768C182.393 240.211 176.016 233.919 171.659 229.394L171.339 229.067L171.581 228.681C176.003 221.616 182.701 210.688 187.136 203.741L187.522 203.132L188.084 203.577L200.1 213.039C211.554 222.068 224.63 232.531 235.893 241.763V241.763Z" fill="#622B15"/>
<path d="M207.27 219.553C209.219 209.961 211.554 199.505 213.876 189.991C213.307 200.107 211.057 210.158 207.27 219.553Z" fill="#451E0E"/>
<path d="M177.664 234.809C184.146 226.847 189.536 217.988 193.624 208.573" stroke="#451E0E" stroke-width="1.02" stroke-miterlimit="10"/>
<path d="M180.078 236.688C186.56 228.727 191.95 219.868 196.038 210.452" stroke="#763419" stroke-width="1.02" stroke-miterlimit="10"/>
<path d="M99.1836 183.522C102.264 209.391 104.443 235.438 110.807 260.77C102.644 235.896 100.433 209.535 99.1836 183.522Z" fill="#451E0E"/>
<path d="M140.465 133.734C145.423 137.355 151.395 139.333 157.478 139.241C162.005 138.94 166.139 136.753 169.756 134.101C171.005 133.197 172.209 132.215 173.38 131.161C172.549 132.503 171.502 133.702 170.397 134.847C166.963 138.298 162.6 140.871 157.589 141.244C151.186 141.33 144.514 138.75 140.465 133.734Z" fill="#451E0E"/>
<g opacity="0.37">
<path d="M173.661 52.9503C173.589 63.2235 178.089 74.1776 187.535 79.0817C190.57 80.712 193.997 81.6614 197.484 81.6811C193.978 81.943 190.439 81.0984 187.299 79.54C177.572 74.8061 172.811 63.3741 173.661 52.9503V52.9503Z" fill="white"/>
<path d="M179.24 55.8051C181.157 63.1056 185.546 70.3341 192.826 73.2085C193.834 73.6341 194.893 73.9353 195.973 74.1579C194.867 74.0793 193.781 73.8436 192.715 73.5162C185.101 71.0805 180.339 63.4395 179.24 55.8051V55.8051Z" fill="white"/>
<path d="M166.616 55.2354C158.302 69.2865 140.458 75.618 125.132 70.0918C123 69.3257 120.933 68.3829 119.003 67.2109C122.993 69.293 127.343 70.6549 131.798 71.1983C145.24 73.0448 159.113 66.4906 166.616 55.2419V55.2354Z" fill="white"/>
<path d="M158.289 50.5735C152.239 58.5419 141.027 60.9841 131.686 58.2931C130.345 57.9068 129.031 57.4615 127.755 56.8984C129.076 57.3175 130.411 57.6973 131.758 57.9723C141.099 60.133 151.696 57.8217 158.283 50.5735H158.289Z" fill="white"/>
</g>
<path d="M112.73 105.652C113.653 109.135 116.191 112.153 119.527 113.725C120.567 114.216 121.711 114.576 122.882 114.511C125.518 114.36 127.657 111.99 128.18 109.475C128.71 106.961 127.952 104.388 126.885 102.07C125.512 99.0779 123.176 96.0529 119.788 95.7256C114.326 95.1952 111.586 101.33 112.724 105.645L112.73 105.652Z" fill="#FF8775"/>
<g style="mix-blend-mode:multiply">
<path d="M125.616 111.04C124.432 110.851 123.32 110.333 122.437 109.561C122.261 109.403 122.084 109.233 122.019 109.004C121.894 108.578 122.202 108.146 122.496 107.793C123.085 107.079 123.674 106.359 124.262 105.645C124.38 105.501 124.504 105.351 124.531 105.174C124.563 104.977 124.485 104.781 124.406 104.604C123.392 102.293 122.215 99.8178 119.912 98.672C119.291 98.3643 118.585 98.1678 117.885 98.2399C116.838 98.3512 115.929 99.0583 115.347 99.9161C114.765 100.774 114.464 101.769 114.189 102.758C114.189 102.758 114.215 107.976 118.264 110.602C122.313 113.234 125.623 111.04 125.623 111.04H125.616Z" fill="#FF8775"/>
</g>
<path d="M114.182 102.751C114.908 96.3345 120.58 96.3672 123.504 101.429C124.138 102.574 124.707 103.642 125.086 104.873C125.132 105.095 125.073 105.423 124.962 105.606C124.413 106.392 123.929 106.824 123.34 107.511C122.993 107.911 122.575 108.31 122.424 108.631C122.352 108.801 122.339 108.893 122.424 109.05C123.196 110.012 124.387 110.667 125.616 111.04C124.406 111.027 121.155 110.045 121.672 108.369C121.855 107.806 122.287 107.361 122.607 106.915C123.006 106.352 123.615 105.639 123.974 105.102C123.988 105.056 123.974 105.102 123.974 105.062C121.979 99.7458 117.06 95.0512 114.189 102.758L114.182 102.751Z" fill="#451E0E"/>
<path d="M197.248 105.652C196.326 109.135 193.788 112.153 190.452 113.725C189.412 114.216 188.261 114.576 187.096 114.511C184.46 114.36 182.321 111.99 181.798 109.475C181.268 106.961 182.027 104.388 183.093 102.07C184.467 99.0779 186.802 96.0529 190.19 95.7256C195.652 95.1952 198.393 101.33 197.255 105.645L197.248 105.652Z" fill="#FF8775"/>
<g style="mix-blend-mode:multiply">
<path d="M184.362 111.04C185.546 110.851 186.658 110.333 187.541 109.561C187.718 109.403 187.894 109.233 187.96 109.004C188.084 108.578 187.777 108.146 187.482 107.793C186.894 107.079 186.305 106.359 185.716 105.645C185.599 105.501 185.474 105.351 185.448 105.174C185.415 104.977 185.494 104.781 185.572 104.604C186.586 102.293 187.764 99.8178 190.066 98.672C190.688 98.3643 191.394 98.1678 192.094 98.2399C193.14 98.3512 194.05 99.0583 194.632 99.9161C195.214 100.774 195.515 101.769 195.79 102.758C195.79 102.758 195.763 107.976 191.715 110.602C187.666 113.234 184.356 111.04 184.356 111.04H184.362Z" fill="#FF8775"/>
</g>
<path d="M195.796 102.751C192.925 95.0447 188.006 99.7458 186.011 105.056C186.011 105.095 185.991 105.043 186.011 105.095C186.37 105.626 186.979 106.346 187.378 106.909C187.692 107.361 188.13 107.799 188.313 108.362C188.837 110.032 185.579 111.027 184.369 111.034C185.592 110.661 186.783 110.006 187.561 109.043C187.646 108.886 187.633 108.795 187.561 108.624C187.411 108.304 186.992 107.904 186.645 107.505C186.057 106.817 185.572 106.379 185.023 105.599C184.912 105.416 184.853 105.089 184.899 104.866C185.272 103.635 185.847 102.568 186.482 101.422C189.399 96.3673 195.077 96.328 195.803 102.745L195.796 102.751Z" fill="#451E0E"/>
<path d="M152.448 189.775C157.125 189.598 161.782 189.867 166.407 190.593C161.73 190.77 157.073 190.495 152.448 189.775Z" fill="#451E0E"/>
<path d="M104.855 243.059C104.855 245.757 104.41 248.356 103.586 250.779C103.121 252.16 102.526 253.496 101.826 254.753C101.015 256.2 100.06 257.556 98.9807 258.8C94.5916 263.867 88.1093 267.069 80.8748 267.069C67.629 267.069 56.8884 256.318 56.8884 243.059C56.8884 238.05 58.4256 233.388 61.0551 229.538C61.984 228.17 63.0567 226.9 64.2472 225.754C65.2873 224.752 66.4254 223.842 67.6355 223.037C71.4294 220.516 75.9755 219.049 80.8748 219.049C94.1206 219.049 104.855 229.8 104.855 243.059V243.059Z" fill="#FF675D"/>
<path d="M87.1673 237.114C87.3374 235.713 87.5075 234.325 87.6775 232.943C87.8541 231.568 88.0242 230.18 88.1943 228.779H84.5443C84.4004 230.18 84.2369 231.568 84.0537 232.943C83.8641 234.325 83.7005 235.713 83.5566 237.114H79.1348C79.246 236.309 79.3572 235.516 79.4553 234.718C79.5338 234.128 79.6058 233.532 79.6712 232.943C79.8282 231.568 80.0048 230.18 80.2076 228.779H76.5576C76.4333 229.794 76.309 230.802 76.1847 231.804C76.139 232.184 76.0866 232.563 76.0408 232.943C75.8708 234.305 75.7072 235.674 75.5306 237.055C75.5306 237.075 75.5241 237.094 75.5241 237.114H71.534C71.449 237.69 71.3835 238.26 71.3378 238.836C71.3181 239.15 71.2854 239.471 71.2462 239.792C71.22 240.054 71.1873 240.322 71.1481 240.597H75.1382C75.0531 241.318 74.9681 242.051 74.8831 242.81C74.8765 242.85 74.8765 242.889 74.87 242.928C74.7915 243.648 74.6999 244.362 74.6214 245.069H70.5855C70.5267 245.645 70.4678 246.222 70.3958 246.811C70.3239 247.394 70.2454 247.99 70.1538 248.592H74.1504C74.0065 249.941 73.8561 251.296 73.6991 252.658C73.5421 254.02 73.3786 255.388 73.2085 256.763H76.8585C77.0024 255.388 77.1594 254.02 77.3294 252.658C77.4995 251.296 77.6565 249.941 77.8004 248.592H82.183C82.0391 249.941 81.8821 251.296 81.712 252.658C81.5419 254.02 81.385 255.388 81.2411 256.763H84.8452C85.0218 255.388 85.1854 254.02 85.3424 252.658C85.4078 252.075 85.4732 251.499 85.532 250.923C85.6236 250.144 85.7087 249.365 85.7937 248.592H90.2613C90.2744 248.461 90.2875 248.33 90.3005 248.199C90.3398 247.728 90.3921 247.269 90.451 246.811C90.5229 246.222 90.6014 245.645 90.6865 245.069H86.2647C86.3497 244.323 86.4347 243.57 86.5198 242.81C86.6048 242.051 86.6898 241.318 86.7814 240.597H91.2425C91.334 239.995 91.3929 239.412 91.4387 238.836C91.4845 238.26 91.5303 237.69 91.5892 237.114H87.1673V237.114ZM82.6147 245.069H78.2321C78.3172 244.323 78.4087 243.57 78.5134 242.81C78.6115 242.051 78.69 241.318 78.7489 240.597H83.1249C83.0399 241.318 82.9614 242.051 82.8894 242.81C82.8829 242.882 82.8763 242.948 82.8633 243.02C82.7978 243.707 82.7128 244.395 82.6147 245.069Z" fill="white"/>
</g>
<defs>
<clipPath id="clip0_380_214">
<rect width="296" height="276" fill="white"/>
</clipPath>
</defs>
</svg>
