<svg width="538" height="487" viewBox="0 0 538 487" fill="none" xmlns="http://www.w3.org/2000/svg">
<rect width="538" height="487" fill="#D9D9D9"/>
<path d="M319.947 246.526V288.895C319.947 292.105 318.672 295.184 316.402 297.454C314.132 299.725 311.053 301 307.842 301H223.105C219.895 301 216.816 299.725 214.546 297.454C212.275 295.184 211 292.105 211 288.895V204.158C211 200.947 212.275 197.868 214.546 195.598C216.816 193.328 219.895 192.053 223.105 192.053H265.474M289.684 204.158H326M307.842 186V222.316" stroke="#C9C9C9" stroke-width="12" stroke-linecap="round" stroke-linejoin="round"/>
<path d="M319.948 264.684L301.269 246.006C298.999 243.736 295.921 242.462 292.711 242.462C289.501 242.462 286.422 243.736 284.152 246.006L229.158 301" stroke="#C9C9C9" stroke-width="12" stroke-linecap="round" stroke-linejoin="round"/>
<path d="M244.979 229.732C246.422 229.713 247.702 230.183 248.869 231.023C250.238 232.005 251.332 233.25 252.311 234.613C252.929 235.475 253.534 236.35 254.052 237.272C254.651 238.342 255.183 239.452 255.335 240.697C255.468 241.792 255.281 242.788 254.315 243.474C253.58 243.997 252.75 244.136 251.871 244.052C251.058 243.975 250.339 243.608 249.598 243.305C248.692 242.935 247.795 242.536 246.829 242.339C245.568 242.082 244.336 242.26 243.119 242.618C242.148 242.905 241.223 243.332 240.254 243.633C239.557 243.849 238.852 243.989 238.117 244.008C236.604 244.046 235.397 242.905 235.082 241.526C234.952 240.957 235.028 240.41 235.161 239.849C235.383 238.914 235.652 237.997 236.034 237.116C236.766 235.428 237.686 233.849 238.92 232.492C240.363 230.9 242.183 229.989 244.323 229.759C244.404 229.751 244.486 229.737 244.567 229.735C244.703 229.729 244.841 229.735 244.979 229.735V229.732Z" fill="#C9C9C9"/>
<path d="M253.522 219.171C253.469 220.928 252.97 222.613 251.715 224.023C251.288 224.504 250.777 224.878 250.211 225.186C249.048 225.819 247.966 225.633 246.962 224.85C246.071 224.157 245.566 223.202 245.358 222.116C244.9 219.727 245.394 217.539 246.914 215.616C247.417 214.977 248.072 214.525 248.832 214.222C249.823 213.828 250.749 213.967 251.601 214.567C252.573 215.249 253.111 216.221 253.352 217.364C253.472 217.928 253.513 218.503 253.522 219.169V219.171Z" fill="black"/>
<path d="M243.343 220.912C243.338 222.081 243.081 223.28 242.333 224.305C241.701 225.174 240.869 225.642 239.817 225.558C239.302 225.515 238.851 225.26 238.423 224.98C237.116 224.126 236.327 222.848 235.873 221.321C235.432 219.836 235.322 218.318 235.739 216.811C236.054 215.67 236.686 214.763 237.723 214.239C238.321 213.936 238.937 213.936 239.559 214.155C240.806 214.595 241.69 215.497 242.33 216.687C243.013 217.959 243.32 219.343 243.343 220.912Z" fill="#C9C9C9"/>
<path d="M260 226.692C259.95 228.83 259.303 230.663 257.866 232.127C257.203 232.802 256.418 233.235 255.504 233.391C254.542 233.558 253.75 233.224 253.118 232.456C252.344 231.513 252.067 230.377 252.149 229.15C252.246 227.629 252.682 226.224 253.549 224.995C254.273 223.967 255.181 223.222 256.368 222.896C257.509 222.582 258.418 222.987 259.134 223.936C259.744 224.746 259.982 225.703 260 226.692Z" fill="#C9C9C9"/>
<path d="M229.002 227.466C229.002 226.774 229.089 226.094 229.364 225.454C230 223.961 231.916 223.275 233.418 224.019C235.721 225.161 236.967 227.035 237.278 229.519C237.399 230.483 237.32 231.444 236.841 232.314C236.275 233.34 235.412 233.966 234.171 233.889C233.39 233.843 232.678 233.524 232.031 233.096C230.35 231.981 229.414 230.4 229.075 228.46C229.041 228.268 229.019 228.076 229.005 227.883C228.994 227.746 229.005 227.606 229.005 227.469L229.002 227.466Z" fill="#C9C9C9"/>
</svg>
