<svg width="55" height="55" viewBox="0 0 55 55" fill="none" xmlns="http://www.w3.org/2000/svg">
<path d="M27.5 14.8958C25.0071 14.8958 22.5702 15.6351 20.4975 17.02C18.4248 18.405 16.8092 20.3735 15.8553 22.6766C14.9013 24.9797 14.6517 27.514 15.138 29.959C15.6244 32.4039 16.8248 34.6498 18.5875 36.4125C20.3502 38.1752 22.5961 39.3756 25.041 39.862C27.486 40.3483 30.0203 40.0987 32.3234 39.1447C34.6265 38.1908 36.595 36.5752 37.98 34.5025C39.3649 32.4298 40.1042 29.9929 40.1042 27.5C40.1042 24.1572 38.7762 20.9512 36.4125 18.5875C34.0488 16.2238 30.8428 14.8958 27.5 14.8958ZM27.5 37.8125C25.4604 37.8125 23.4666 37.2077 21.7707 36.0745C20.0748 34.9414 18.753 33.3308 17.9725 31.4464C17.192 29.5621 16.9877 27.4886 17.3857 25.4881C17.7836 23.4877 18.7657 21.6502 20.208 20.208C21.6502 18.7657 23.4877 17.7836 25.4881 17.3857C27.4886 16.9877 29.5621 17.192 31.4464 17.9725C33.3308 18.753 34.9414 20.0748 36.0745 21.7707C37.2077 23.4666 37.8125 25.4604 37.8125 27.5C37.8125 30.235 36.726 32.8581 34.792 34.792C32.8581 36.726 30.235 37.8125 27.5 37.8125ZM40.1042 0H14.8958C10.9452 0 7.1564 1.56938 4.36289 4.36289C1.56938 7.1564 0 10.9452 0 14.8958V40.1042C0 42.0603 0.385292 43.9973 1.13388 45.8046C1.88246 47.6118 2.97968 49.2539 4.36289 50.6371C7.1564 53.4306 10.9452 55 14.8958 55H40.1042C42.0603 55 43.9973 54.6147 45.8046 53.8661C47.6118 53.1175 49.2539 52.0203 50.6371 50.6371C52.0203 49.2539 53.1175 47.6118 53.8661 45.8046C54.6147 43.9973 55 42.0603 55 40.1042V14.8958C55 12.9397 54.6147 11.0027 53.8661 9.19545C53.1175 7.3882 52.0203 5.74609 50.6371 4.36289C49.2539 2.97968 47.6118 1.88246 45.8046 1.13388C43.9973 0.385292 42.0603 0 40.1042 0ZM52.7083 40.1042C52.7083 43.447 51.3804 46.6529 49.0167 49.0167C46.6529 51.3804 43.447 52.7083 40.1042 52.7083H14.8958C11.553 52.7083 8.34708 51.3804 5.98334 49.0167C3.6196 46.6529 2.29167 43.447 2.29167 40.1042V14.8958C2.29167 11.553 3.6196 8.34708 5.98334 5.98334C8.34708 3.6196 11.553 2.29167 14.8958 2.29167H40.1042C43.447 2.29167 46.6529 3.6196 49.0167 5.98334C51.3804 8.34708 52.7083 11.553 52.7083 14.8958V40.1042ZM44.6875 12.6042C44.6875 13.0574 44.5531 13.5005 44.3013 13.8773C44.0495 14.2542 43.6916 14.5479 43.2728 14.7214C42.8541 14.8948 42.3933 14.9402 41.9487 14.8518C41.5042 14.7634 41.0959 14.5451 40.7754 14.2246C40.4549 13.9041 40.2366 13.4958 40.1482 13.0512C40.0598 12.6067 40.1052 12.1459 40.2786 11.7272C40.4521 11.3084 40.7458 10.9505 41.1227 10.6987C41.4995 10.4469 41.9426 10.3125 42.3958 10.3125C43.0036 10.3125 43.5865 10.5539 44.0163 10.9837C44.4461 11.4135 44.6875 11.9964 44.6875 12.6042Z" fill="white"/>
</svg>
