<svg width="132" height="128" viewBox="0 0 132 128" fill="none" xmlns="http://www.w3.org/2000/svg">
<path d="M66 0L41.118 15.6033H19.8V28.8264L6.402 37.3554C2.574 39.6694 0 43.8347 0 48.6612V114.777C0 118.284 1.39071 121.647 3.86619 124.127C6.34167 126.607 9.69914 128 13.2 128H118.8C126.126 128 132 122.116 132 114.777V48.6612C132 43.8347 129.426 39.6694 125.598 37.3554L112.2 28.8264V15.6033H90.882M33 28.8264H99V61.0909L66 81.719L33 61.0909M39.6 35.438V45.3554H92.4V35.438M19.8 44.562V52.8264L13.2 48.6612M112.2 44.562L118.8 48.6612L112.2 52.8264M39.6 51.9669V61.8843H92.4V51.9669H39.6Z" fill="#451E0E"/>
</svg>
