<svg width="29" height="30" viewBox="0 0 29 30" fill="none" xmlns="http://www.w3.org/2000/svg">
<path d="M10.9679 6.59672e-06C4.90064 -0.00655969 0.00219174 4.8897 2.97825e-06 10.9679C-0.00437454 17.0964 4.81747 22.0671 10.8169 22.1153C16.9301 22.1678 21.9489 17.2387 21.9642 11.1736C21.9774 4.92253 17.1402 0.00438412 10.9679 6.59672e-06ZM10.911 19.3596C6.36492 19.3487 2.64622 15.5709 2.69218 11.0095C2.73814 6.389 6.40651 2.72939 10.9876 2.73377C15.5555 2.73815 19.2699 6.45685 19.2699 11.0292C19.2699 15.6015 15.549 19.3705 10.911 19.3596V19.3596Z" fill="#EB5A41"/>
<path d="M28.0206 24.9716C26.1864 23.3935 24.3741 21.7869 22.553 20.1913C20.6598 18.5323 20.6751 18.5476 18.9897 20.3621C18.6045 20.7779 18.6133 21.0274 18.9722 21.4346C21.0034 23.7393 23.0083 26.0638 25.0263 28.3795C25.5035 28.9267 26.0835 29.2484 26.7533 29.1587C28.1825 29.1631 28.8961 28.4649 28.9924 27.1407C29.058 26.2236 28.6991 25.556 28.0206 24.9716Z" fill="#EB5A41"/>
<path d="M14.1745 12.4344C13.6514 12.0251 13.253 11.5107 12.9181 10.9526C12.4344 10.1493 11.7099 9.85601 10.6134 9.84726C10.1143 9.86696 9.44457 9.97202 9.05716 10.6746C8.68288 11.3509 8.15758 11.8916 7.5688 12.3818C6.80711 13.0144 6.80492 13.8067 7.14199 14.6428C7.48563 15.5008 8.22105 15.9058 9.05059 15.7372C10.2851 15.4877 11.4582 15.4811 12.6905 15.7394C13.5157 15.9101 14.2664 15.5337 14.621 14.6779C14.9712 13.8396 14.9624 13.0494 14.1745 12.4344V12.4344Z" fill="#EB5A41"/>
<path d="M9.42047 9.33723C10.1231 9.265 10.2281 8.73095 10.2347 8.34135C10.2216 7.20757 9.57587 6.29485 8.89955 6.31455C8.18163 6.33644 8.04374 6.85518 8.03499 7.44176C8.01748 8.42014 8.72663 9.40946 9.42047 9.33723V9.33723Z" fill="#EB5A41"/>
<path d="M12.4038 9.33725C13.067 9.36789 13.7258 8.42892 13.7302 7.50088C13.7367 6.75014 13.4588 6.33646 12.9313 6.30801C12.2374 6.26861 11.5042 7.24698 11.5305 8.20347C11.5458 8.78131 11.699 9.30661 12.4038 9.33725V9.33725Z" fill="#EB5A41"/>
<path d="M8.02414 10.7819C8.08761 10.0443 7.27558 8.98051 6.60801 8.94331C6.04769 8.91266 5.84413 9.24973 5.83756 9.75971C5.8113 10.5871 6.58612 11.5326 7.28433 11.5348C7.79213 11.537 7.98474 11.2327 8.02414 10.7819V10.7819Z" fill="#EB5A41"/>
<path d="M15.4351 8.9411C14.7806 8.93015 13.9183 9.95887 13.9511 10.7184C13.9708 11.2087 14.1744 11.5589 14.7434 11.5304C15.4132 11.4976 16.1355 10.6177 16.1464 9.82317C16.1464 9.33945 16.0129 8.94985 15.4351 8.9411Z" fill="#EB5A41"/>
</svg>
