<svg width="29" height="22" viewBox="0 0 29 22" fill="none" xmlns="http://www.w3.org/2000/svg">
<path fill-rule="evenodd" clip-rule="evenodd" d="M3.625 0C2.66359 0 1.74156 0.379898 1.06174 1.05612C0.381919 1.73234 0 2.6495 0 3.60582L0 18.0291C0 18.9854 0.381919 19.9026 1.06174 20.5788C1.74156 21.255 2.66359 21.6349 3.625 21.6349H25.375C26.3364 21.6349 27.2584 21.255 27.9383 20.5788C28.6181 19.9026 29 18.9854 29 18.0291V3.60582C29 2.6495 28.6181 1.73234 27.9383 1.05612C27.2584 0.379898 26.3364 0 25.375 0H3.625ZM14.5 4.50728C14.5 4.26819 14.4045 4.03891 14.2346 3.86985C14.0646 3.70079 13.8341 3.60582 13.5938 3.60582C13.3534 3.60582 13.1229 3.70079 12.9529 3.86985C12.783 4.03891 12.6875 4.26819 12.6875 4.50728V17.1276C12.6875 17.3667 12.783 17.596 12.9529 17.7651C13.1229 17.9341 13.3534 18.0291 13.5938 18.0291C13.8341 18.0291 14.0646 17.9341 14.2346 17.7651C14.4045 17.596 14.5 17.3667 14.5 17.1276V4.50728ZM3.625 6.31019C3.625 6.0711 3.72048 5.84182 3.89043 5.67276C4.06039 5.50371 4.2909 5.40873 4.53125 5.40873H9.96875C10.2091 5.40873 10.4396 5.50371 10.6096 5.67276C10.7795 5.84182 10.875 6.0711 10.875 6.31019C10.875 6.54927 10.7795 6.77855 10.6096 6.94761C10.4396 7.11667 10.2091 7.21164 9.96875 7.21164H4.53125C4.2909 7.21164 4.06039 7.11667 3.89043 6.94761C3.72048 6.77855 3.625 6.54927 3.625 6.31019ZM3.625 9.91601C3.625 9.67693 3.72048 9.44764 3.89043 9.27858C4.06039 9.10953 4.2909 9.01455 4.53125 9.01455H9.96875C10.2091 9.01455 10.4396 9.10953 10.6096 9.27858C10.7795 9.44764 10.875 9.67693 10.875 9.91601C10.875 10.1551 10.7795 10.3844 10.6096 10.5534C10.4396 10.7225 10.2091 10.8175 9.96875 10.8175H4.53125C4.2909 10.8175 4.06039 10.7225 3.89043 10.5534C3.72048 10.3844 3.625 10.1551 3.625 9.91601ZM3.625 13.5218C3.625 13.2827 3.72048 13.0535 3.89043 12.8844C4.06039 12.7153 4.2909 12.6204 4.53125 12.6204H9.96875C10.2091 12.6204 10.4396 12.7153 10.6096 12.8844C10.7795 13.0535 10.875 13.2827 10.875 13.5218C10.875 13.7609 10.7795 13.9902 10.6096 14.1593C10.4396 14.3283 10.2091 14.4233 9.96875 14.4233H4.53125C4.2909 14.4233 4.06039 14.3283 3.89043 14.1593C3.72048 13.9902 3.625 13.7609 3.625 13.5218Z" fill="url(#paint0_linear_495_30)"/>
<path d="M20.6572 6C18.6341 5.99781 17.0007 7.63046 17 9.65722C16.9985 11.7008 18.6064 13.3582 20.6069 13.3743C22.6453 13.3918 24.3188 11.7482 24.3239 9.72583C24.3283 7.64141 22.7154 6.00146 20.6572 6ZM20.6382 12.4554C19.1224 12.4518 17.8824 11.1921 17.8977 9.67109C17.913 8.1304 19.1362 6.91011 20.6638 6.91157C22.187 6.91303 23.4255 8.15303 23.4255 9.67766C23.4255 11.2023 22.1848 12.4591 20.6382 12.4554V12.4554Z" fill="white"/>
<path d="M26.3431 14.3267C25.7315 13.8005 25.1272 13.2648 24.52 12.7327C23.8887 12.1795 23.8938 12.1846 23.3318 12.7897C23.2034 12.9283 23.2063 13.0115 23.326 13.1473C24.0033 13.9158 24.6718 14.6909 25.3447 15.4631C25.5038 15.6455 25.6972 15.7528 25.9206 15.7229C26.3971 15.7243 26.6351 15.4915 26.6672 15.05C26.6891 14.7442 26.5694 14.5216 26.3431 14.3267Z" fill="white"/>
<path d="M21.7266 10.1462C21.5522 10.0098 21.4194 9.83825 21.3077 9.65214C21.1464 9.38429 20.9048 9.28649 20.5392 9.28357C20.3728 9.29014 20.1495 9.32517 20.0203 9.55945C19.8955 9.78497 19.7203 9.96524 19.524 10.1287C19.27 10.3396 19.2693 10.6038 19.3817 10.8826C19.4963 11.1687 19.7415 11.3038 20.0181 11.2476C20.4297 11.1644 20.8209 11.1622 21.2318 11.2483C21.507 11.3052 21.7573 11.1797 21.8755 10.8943C21.9923 10.6148 21.9894 10.3513 21.7266 10.1462V10.1462Z" fill="white"/>
<path d="M20.1413 9.11348C20.3756 9.0894 20.4106 8.91132 20.4128 8.7814C20.4084 8.40335 20.1931 8.099 19.9676 8.10557C19.7282 8.11287 19.6822 8.28584 19.6793 8.48144C19.6735 8.80768 19.9099 9.13757 20.1413 9.11348V9.11348Z" fill="white"/>
<path d="M21.1362 9.11351C21.3573 9.12373 21.577 8.81063 21.5784 8.50117C21.5806 8.25084 21.4879 8.1129 21.3121 8.10341C21.0807 8.09027 20.8362 8.41651 20.845 8.73545C20.8501 8.92813 20.9012 9.10329 21.1362 9.11351V9.11351Z" fill="white"/>
<path d="M19.6756 9.59521C19.6968 9.34926 19.426 8.99456 19.2034 8.98215C19.0166 8.97193 18.9487 9.08433 18.9465 9.25438C18.9377 9.53026 19.1961 9.84555 19.4289 9.84628C19.5983 9.84701 19.6625 9.74556 19.6756 9.59521V9.59521Z" fill="white"/>
<path d="M22.147 8.98141C21.9288 8.97776 21.6412 9.32079 21.6522 9.57404C21.6587 9.73753 21.7266 9.8543 21.9164 9.84481C22.1397 9.83386 22.3805 9.54047 22.3842 9.27554C22.3842 9.11424 22.3397 8.98433 22.147 8.98141Z" fill="white"/>
<defs>
<linearGradient id="paint0_linear_495_30" x1="14.5" y1="0" x2="14.5" y2="21.6349" gradientUnits="userSpaceOnUse">
<stop stop-color="#EE5B1D"/>
<stop offset="1" stop-color="#DF4300"/>
</linearGradient>
</defs>
</svg>
