<svg width="29" height="30" viewBox="0 0 29 30" fill="none" xmlns="http://www.w3.org/2000/svg">
<path d="M10.9679 6.59672e-06C4.90064 -0.00655969 0.00219174 4.8897 2.97825e-06 10.9679C-0.00437454 17.0964 4.81747 22.0671 10.8169 22.1153C16.9301 22.1678 21.9489 17.2387 21.9642 11.1736C21.9774 4.92253 17.1402 0.00438412 10.9679 6.59672e-06ZM10.911 19.3596C6.36492 19.3487 2.64622 15.5709 2.69218 11.0095C2.73814 6.389 6.40651 2.72939 10.9876 2.73377C15.5555 2.73815 19.2699 6.45685 19.2699 11.0292C19.2699 15.6015 15.549 19.3705 10.911 19.3596V19.3596Z" fill="url(#paint0_linear_495_14)"/>
<path d="M28.0203 24.9716C26.1861 23.3935 24.3738 21.7869 22.5528 20.1913C20.6595 18.5322 20.6748 18.5475 18.9895 20.362C18.6043 20.7779 18.613 21.0274 18.972 21.4345C21.0032 23.7393 23.0081 26.0638 25.0261 28.3795C25.5032 28.9267 26.0833 29.2484 26.753 29.1587C28.1823 29.163 28.8958 28.4648 28.9921 27.1406C29.0578 26.2235 28.6988 25.556 28.0203 24.9716Z" fill="url(#paint1_linear_495_14)"/>
<path d="M14.1745 12.4343C13.6514 12.025 13.253 11.5107 12.9181 10.9526C12.4344 10.1493 11.7099 9.85598 10.6134 9.84723C10.1143 9.86693 9.44457 9.97199 9.05716 10.6746C8.68288 11.3509 8.15758 11.8915 7.5688 12.3818C6.80711 13.0144 6.80492 13.8067 7.14199 14.6428C7.48563 15.5008 8.22105 15.9057 9.05059 15.7372C10.2851 15.4877 11.4582 15.4811 12.6905 15.7394C13.5157 15.9101 14.2664 15.5336 14.621 14.6778C14.9712 13.8395 14.9624 13.0494 14.1745 12.4343V12.4343Z" fill="url(#paint2_linear_495_14)"/>
<path d="M9.42047 9.33726C10.1231 9.26503 10.2281 8.73098 10.2347 8.34138C10.2216 7.2076 9.57587 6.29488 8.89955 6.31458C8.18163 6.33647 8.04374 6.85521 8.03499 7.4418C8.01748 8.42017 8.72663 9.40949 9.42047 9.33726V9.33726Z" fill="url(#paint3_linear_495_14)"/>
<path d="M12.4038 9.33722C13.067 9.36786 13.7258 8.42889 13.7302 7.50085C13.7367 6.75011 13.4588 6.33643 12.9313 6.30798C12.2374 6.26858 11.5042 7.24695 11.5305 8.20344C11.5458 8.78128 11.699 9.30658 12.4038 9.33722V9.33722Z" fill="url(#paint4_linear_495_14)"/>
<path d="M8.02414 10.7818C8.08761 10.0442 7.27558 8.98048 6.60801 8.94327C6.04769 8.91263 5.84413 9.2497 5.83756 9.75968C5.8113 10.587 6.58612 11.5326 7.28433 11.5348C7.79213 11.537 7.98474 11.2327 8.02414 10.7818V10.7818Z" fill="url(#paint5_linear_495_14)"/>
<path d="M15.4351 8.94107C14.7806 8.93012 13.9183 9.95884 13.9511 10.7183C13.9708 11.2086 14.1744 11.5588 14.7434 11.5304C15.4132 11.4975 16.1355 10.6177 16.1464 9.82314C16.1464 9.33942 16.0129 8.94982 15.4351 8.94107Z" fill="url(#paint6_linear_495_14)"/>
<defs>
<linearGradient id="paint0_linear_495_14" x1="10.9821" y1="0" x2="10.9821" y2="22.1157" gradientUnits="userSpaceOnUse">
<stop stop-color="#EE5B1D"/>
<stop offset="1" stop-color="#DF4300"/>
</linearGradient>
<linearGradient id="paint1_linear_495_14" x1="23.8507" y1="18.9731" x2="23.8507" y2="29.1736" gradientUnits="userSpaceOnUse">
<stop stop-color="#EE5B1D"/>
<stop offset="1" stop-color="#DF4300"/>
</linearGradient>
<linearGradient id="paint2_linear_495_14" x1="10.8847" y1="9.84723" x2="10.8847" y2="15.7796" gradientUnits="userSpaceOnUse">
<stop stop-color="#EE5B1D"/>
<stop offset="1" stop-color="#DF4300"/>
</linearGradient>
<linearGradient id="paint3_linear_495_14" x1="9.13468" y1="6.31427" x2="9.13468" y2="9.34099" gradientUnits="userSpaceOnUse">
<stop stop-color="#EE5B1D"/>
<stop offset="1" stop-color="#DF4300"/>
</linearGradient>
<linearGradient id="paint4_linear_495_14" x1="12.63" y1="6.30682" x2="12.63" y2="9.33795" gradientUnits="userSpaceOnUse">
<stop stop-color="#EE5B1D"/>
<stop offset="1" stop-color="#DF4300"/>
</linearGradient>
<linearGradient id="paint5_linear_495_14" x1="6.93228" y1="8.94135" x2="6.93228" y2="11.5348" gradientUnits="userSpaceOnUse">
<stop stop-color="#EE5B1D"/>
<stop offset="1" stop-color="#DF4300"/>
</linearGradient>
<linearGradient id="paint6_linear_495_14" x1="15.0483" y1="8.94098" x2="15.0483" y2="11.532" gradientUnits="userSpaceOnUse">
<stop stop-color="#EE5B1D"/>
<stop offset="1" stop-color="#DF4300"/>
</linearGradient>
</defs>
</svg>
