<svg width="16" height="18" viewBox="0 0 16 18" fill="none" xmlns="http://www.w3.org/2000/svg">
<g clip-path="url(#clip0_445_428)">
<path d="M5.7131 15.75L7.99805 13.5V14.625C9.129 14.6251 10.2346 14.295 11.1748 13.6763C12.115 13.0576 12.8476 12.1783 13.2799 11.1495C13.7122 10.1208 13.8247 8.98893 13.6031 7.89723C13.3816 6.80552 12.836 5.80306 12.0354 5.01675L13.6461 3.42375C14.393 4.15447 14.9854 5.02359 15.3893 5.98094C15.7931 6.93829 16.0003 7.9649 15.9988 9.0015C15.9988 13.35 12.4179 16.875 8.00034 16.875H7.99882V18L5.7131 15.75ZM-0.00118535 9C0.00414799 4.653 3.58281 1.13025 7.99805 1.125H7.99882V0L10.2845 2.25L7.99882 4.5V3.375H7.99729C6.86635 3.37506 5.76085 3.70538 4.82069 4.32415C3.88054 4.94292 3.14798 5.82232 2.71574 6.85107C2.2835 7.87982 2.171 9.01167 2.39248 10.1034C2.61396 11.1951 3.15947 12.1976 3.95996 12.984L2.35081 14.577C1.60432 13.8506 1.01191 12.9855 0.608008 12.0318C0.204109 11.0782 -0.0032255 10.055 -0.00194725 9.02175V8.99925V9.00075L-0.00118535 9Z" fill="#5974FF"/>
</g>
<defs>
<clipPath id="clip0_445_428">
<rect width="16" height="18" fill="white"/>
</clipPath>
</defs>
</svg>
