<svg width="26" height="26" viewBox="0 0 26 26" fill="none" xmlns="http://www.w3.org/2000/svg">
<path d="M25.6464 22.4787L20.5831 17.4163C20.3546 17.1878 20.0448 17.0608 19.7198 17.0608H18.892C20.2937 15.2684 21.1265 13.014 21.1265 10.5615C21.1265 4.72727 16.3985 0 10.5633 0C4.72808 0 0 4.72727 0 10.5615C0 16.3957 4.72808 21.1229 10.5633 21.1229C13.0162 21.1229 15.271 20.2902 17.0637 18.8888V19.7164C17.0637 20.0414 17.1907 20.3511 17.4192 20.5796L22.4825 25.642C22.9599 26.1193 23.7318 26.1193 24.2041 25.642L25.6413 24.2051C26.1187 23.7278 26.1187 22.956 25.6464 22.4787ZM10.5633 17.0608C6.97278 17.0608 4.0628 14.1564 4.0628 10.5615C4.0628 6.97158 6.9677 4.0621 10.5633 4.0621C14.1538 4.0621 17.0637 6.96651 17.0637 10.5615C17.0637 14.1514 14.1588 17.0608 10.5633 17.0608Z" fill="white"/>
</svg>
