<svg width="55" height="55" viewBox="0 0 55 55" fill="none" xmlns="http://www.w3.org/2000/svg">
<path d="M27.5 0C12.3377 0 0 12.3343 0 27.4983C0 42.6623 12.3377 54.9966 27.5 54.9966C42.6623 54.9966 55 42.6623 55 27.4983C55 12.3343 42.6623 0 27.5 0ZM27.5 53.1649C13.3478 53.1649 1.83505 41.6505 1.83505 27.4983C1.83505 13.3461 13.3478 1.83162 27.5 1.83162C41.6522 1.83162 53.165 13.3461 53.165 27.4983C53.165 41.6505 41.6522 53.1649 27.5 53.1649Z" fill="white"/>
<path d="M42.5814 19.0022C42.7716 18.6501 42.9284 18.2809 43.0496 17.8994C43.1057 17.7225 43.1068 17.5327 43.0528 17.3551C42.9988 17.1776 42.8923 17.0205 42.7472 16.9048C42.6021 16.789 42.4253 16.72 42.2401 16.7069C42.055 16.6937 41.8702 16.737 41.7102 16.831C40.8314 17.353 39.8801 17.742 38.8873 17.9852C37.6821 16.8975 36.1169 16.2945 34.4935 16.2925C33.6115 16.2932 32.7387 16.4719 31.9275 16.8181C31.1162 17.1642 30.3832 17.6706 29.7724 18.3068C29.1616 18.9431 28.6856 19.6962 28.3728 20.5208C28.0601 21.3455 27.9171 22.2249 27.9525 23.1062C24.0954 22.6206 20.5734 20.6689 18.1169 17.6559C18.0228 17.5418 17.9025 17.452 17.7663 17.3943C17.6301 17.3366 17.482 17.3126 17.3345 17.3244C17.187 17.3362 17.0446 17.3834 16.9192 17.462C16.7939 17.5406 16.6894 17.6483 16.6146 17.776C16.0521 18.7414 15.7464 19.8348 15.7266 20.952C15.7068 22.0691 15.9735 23.1727 16.5014 24.1575C16.3719 24.1793 16.2476 24.2246 16.1344 24.2912C15.9957 24.3797 15.8816 24.5016 15.8024 24.6457C15.7233 24.7899 15.6818 24.9517 15.6816 25.1161C15.6816 27.0627 16.5477 28.8497 17.9437 30.0639L17.8837 30.1239C17.7783 30.2432 17.7058 30.3878 17.6733 30.5436C17.6408 30.6994 17.6495 30.8609 17.6985 31.0123C17.9896 31.9204 18.4756 32.754 19.1226 33.4546C19.7696 34.1552 20.5619 34.7059 21.444 35.0683C19.6323 35.9521 17.6048 36.2968 15.6027 36.0613C15.397 36.0403 15.19 36.0882 15.0144 36.1974C14.8387 36.3067 14.7042 36.4711 14.6321 36.6649C14.5627 36.8602 14.5614 37.0732 14.6284 37.2694C14.6953 37.4655 14.8265 37.6332 15.0008 37.7454C17.7225 39.4922 20.8888 40.4203 24.1229 40.4191C34.7216 40.4191 41.0568 31.8098 41.0568 23.4869L41.055 23.2056C42.0822 22.4037 42.9744 21.4426 43.6979 20.3587C43.8074 20.1949 43.8613 20.0001 43.8515 19.8033C43.8417 19.6064 43.7688 19.4179 43.6435 19.2657C43.5183 19.1135 43.3474 19.0057 43.1561 18.9583C42.9648 18.9108 42.7633 18.9262 42.5814 19.0022ZM39.5887 22.012C39.4643 22.1015 39.3642 22.2207 39.2977 22.3588C39.2312 22.4969 39.2004 22.6495 39.208 22.8026C39.2183 23.029 39.2234 23.2588 39.2234 23.4852C39.2234 30.9077 33.5759 38.5857 24.1246 38.5857C22.4389 38.5865 20.7651 38.3036 19.1734 37.7488C21.0798 37.3835 22.8706 36.566 24.3955 35.365C24.544 35.2479 24.6527 35.0879 24.7067 34.9068C24.7607 34.7256 24.7575 34.5322 24.6974 34.353C24.6374 34.1737 24.5234 34.0174 24.3712 33.9054C24.2189 33.7934 24.0357 33.7311 23.8467 33.7272C23.1073 33.713 22.3815 33.5253 21.7279 33.1792C21.0743 32.833 20.5112 32.3381 20.084 31.7343C20.5179 31.7052 20.9433 31.6331 21.3566 31.5217C21.5566 31.4681 21.7326 31.3484 21.8558 31.182C21.979 31.0155 22.0422 30.8123 22.0351 30.6053C22.0279 30.3984 21.9508 30.1999 21.8164 30.0424C21.6819 29.8849 21.4981 29.7776 21.2948 29.7381C20.4597 29.5682 19.6864 29.1744 19.0578 28.599C18.4291 28.0235 17.9688 27.2879 17.7259 26.471C18.1821 26.5859 18.6503 26.6528 19.1185 26.6682C19.5215 26.6665 19.8954 26.4195 20.0206 26.032C20.1458 25.6444 19.9983 25.2173 19.657 24.991C18.8501 24.4533 18.2287 23.6797 17.8779 22.7757C17.527 21.8718 17.4638 20.8815 17.6968 19.9403C20.6758 22.9969 24.6983 24.8171 28.9609 25.0373C29.2627 25.039 29.5268 24.9309 29.7103 24.7097C29.8938 24.4885 29.9641 24.1952 29.899 23.9139C29.6644 22.9038 29.7693 21.8445 30.1975 20.9C30.6256 19.9555 31.3531 19.1785 32.2674 18.6891C33.1817 18.1997 34.2318 18.0253 35.2552 18.1929C36.2785 18.3605 37.2182 18.8607 37.9286 19.6161C38.0351 19.7298 38.1687 19.8144 38.3169 19.8621C38.4651 19.9098 38.6231 19.919 38.7758 19.8888C39.0588 19.8322 39.3383 19.7671 39.6144 19.6916C39.49 19.7848 39.3606 19.8712 39.2269 19.9506C39.049 20.0595 38.9136 20.2258 38.8429 20.422C38.7722 20.6182 38.7705 20.8326 38.838 21.03C38.9055 21.2273 39.0382 21.3957 39.2143 21.5075C39.3903 21.6193 39.5992 21.6678 39.8065 21.645L40.1187 21.6055C39.9468 21.7471 39.77 21.8827 39.5887 22.012Z" fill="white"/>
</svg>
