<svg width="82" height="82" viewBox="0 0 82 82" fill="none" xmlns="http://www.w3.org/2000/svg">
<path d="M11.7143 11.7143C11.7143 8.60746 12.9485 5.62789 15.1453 3.43104C17.3422 1.23418 20.3217 0 23.4286 0C26.5354 0 29.515 1.23418 31.7118 3.43104C33.9087 5.62789 35.1429 8.60746 35.1429 11.7143C35.1429 14.8211 33.9087 17.8007 31.7118 19.9975C29.515 22.1944 26.5354 23.4286 23.4286 23.4286C20.3217 23.4286 17.3422 22.1944 15.1453 19.9975C12.9485 17.8007 11.7143 14.8211 11.7143 11.7143V11.7143ZM51.4199 20.992L51.6659 21.1794C54.151 23.0215 57.2639 23.8059 60.3252 23.3613C63.3865 22.9167 66.1477 21.2793 68.0062 18.8063C69.8646 16.3334 70.6695 13.2257 70.2451 10.1616C69.8207 7.09738 68.2016 4.32545 65.741 2.4507C63.2804 0.575946 60.1781 -0.249417 57.1112 0.154729C54.0443 0.558875 51.2617 2.15972 49.3708 4.6079C47.4798 7.05608 46.634 10.1528 47.0179 13.2224C47.4018 16.2919 48.9842 19.0849 51.4199 20.992V20.992ZM30.8554 29.2857C31.5911 27.8927 32.6002 26.6623 33.8223 25.6683C35.0445 24.6742 36.4546 23.9369 37.9683 23.5004C39.482 23.0639 41.0681 22.9373 42.6319 23.1279C44.1957 23.3186 45.7049 23.8228 47.0694 24.6102C48.4338 25.3977 49.6254 26.4522 50.5729 27.7109C51.5203 28.9695 52.2042 30.4062 52.5836 31.9352C52.9629 33.4643 53.03 35.0541 52.7807 36.6096C52.5314 38.1651 51.971 39.6544 51.1329 40.9883C49.5205 43.5545 46.9763 45.3959 44.0348 46.1257C41.0933 46.8555 37.9835 46.4169 35.3586 44.902C32.7337 43.3871 30.798 40.9138 29.9583 38.0018C29.1186 35.0898 29.4402 31.9656 30.8554 29.2857V29.2857ZM8.78571 29.2857H24.4243C23.3833 32.2586 23.157 35.4558 23.7688 38.5457C24.3806 41.6355 25.8082 44.5053 27.9034 46.8571H26.3571C23.3374 46.8567 20.3913 47.7895 17.9222 49.5279C15.453 51.2663 13.5814 53.7253 12.5636 56.5683C10.5975 55.7785 8.75671 54.7072 7.09886 53.3879C2.69429 49.8443 0 44.608 0 38.0714C0 35.7413 0.925635 33.5066 2.57328 31.859C4.22092 30.2113 6.4556 29.2857 8.78571 29.2857V29.2857ZM55.6429 46.8571C58.6618 46.8571 61.6069 47.7901 64.0751 49.5285C66.5433 51.2669 68.4138 53.7257 69.4306 56.5683C71.422 55.7541 73.267 54.694 74.9011 53.3879C79.3057 49.8443 82 44.608 82 38.0714C82 35.7413 81.0744 33.5066 79.4267 31.859C77.7791 30.2113 75.5444 29.2857 73.2143 29.2857H57.5757C58.22 31.119 58.5714 33.0929 58.5714 35.1429C58.5768 39.4661 56.983 43.6386 54.0966 46.8571H55.6429ZM63.7667 58.1497C64.1943 59.1806 64.4286 60.3169 64.4286 61.5C64.4286 68.0366 61.7401 73.2729 57.3297 76.8164C52.9896 80.3014 47.1676 82 41 82C34.8324 82 29.0104 80.3014 24.6703 76.8164C20.2657 73.2729 17.5714 68.0366 17.5714 61.5C17.5683 60.3454 17.7935 59.2015 18.2339 58.1342C18.6743 57.0669 19.3214 56.0971 20.1378 55.2807C20.9543 54.4642 21.924 53.8172 22.9913 53.3768C24.0587 52.9363 25.2025 52.7112 26.3571 52.7143H55.6429C57.383 52.7139 59.0841 53.2303 60.5304 54.198C61.9768 55.1656 63.1031 56.541 63.7667 58.1497Z" fill="url(#paint0_linear_458_20)"/>
<defs>
<linearGradient id="paint0_linear_458_20" x1="41" y1="0" x2="41" y2="82" gradientUnits="userSpaceOnUse">
<stop stop-color="#EE5B1D"/>
<stop offset="1" stop-color="#DF4300"/>
</linearGradient>
</defs>
</svg>
