<?xml version="1.0" encoding="UTF-8"?><svg id="Layer_2" xmlns="http://www.w3.org/2000/svg" viewBox="0 0 93.96 80.23"><defs><style>.cls-1{fill:#451e0e;}</style></defs><g id="Layer_1-2"><g><path class="cls-1" d="M77.26,45.37c.08-11.63,.07-23.26-.01-34.89-.05-6.96-3.5-10.38-10.45-10.43C47.86,0,28.92-.04,9.99,.05,3.97,.11,.23,3.3,.14,8.96-.06,21.58-.01,34.21,.11,46.83c.04,4.77,2.87,8.53,7.36,8.61,5.34,.1,5.44,2.62,5.04,6.41-.29,4.46-.76,12.48,5.67,6.82,25.07-25.09,59.16-1.5,59.08-23.31Zm-59.03-12.72c-5.66-.3-5.5-9.26,.28-8.76,5.79-.02,5.22,8.85-.28,8.76Zm21.97-.1c-5.75,.49-6.21-8.59-.28-8.73,5.69-.3,5.93,8.83,.28,8.73Zm19.92-8.68c6.2,.06,4.83,9.36-.33,8.7-5.69,.12-5.55-9.22,.33-8.7Z"/><path class="cls-1" d="M80.53,23.59c-.78,12.53,5.48,35.68-13.55,35.53-12.54,1.17-27.15-3.62-36.89,6.38,10.05,6.91,28.72-4.2,44.07,10.63,2.1,1.93,5.11,5.35,8,3.63,3.86-2.24-2.55-11.09,3.44-12.05,6.18-.62,8.26-3.29,8.29-9.52,.04-9.8,.08-19.6-.01-29.39,1.41-8.85-14.1-12.84-13.34-5.21Z"/></g></g></svg>