<svg width="36" height="24" viewBox="0 0 36 24" fill="none" xmlns="http://www.w3.org/2000/svg">
<path d="M10.7454 10.7446C13.7124 10.7446 16.1177 8.33935 16.1177 5.37231C16.1177 2.40526 13.7124 0 10.7454 0C7.77831 0 5.37305 2.40526 5.37305 5.37231C5.37305 8.33935 7.77831 10.7446 10.7454 10.7446Z" fill="#451E0E"/>
<path d="M25.0715 10.7446C28.0386 10.7446 30.4438 8.33935 30.4438 5.37231C30.4438 2.40526 28.0386 0 25.0715 0C22.1045 0 19.6992 2.40526 19.6992 5.37231C19.6992 8.33935 22.1045 10.7446 25.0715 10.7446Z" fill="#451E0E"/>
<path d="M25.0708 12.5354C30.9982 12.5354 35.8154 15.7409 35.8154 19.6985V23.28H25.0708V19.6985C25.0708 17.0481 22.9039 14.738 19.6985 13.5024C21.2743 12.8756 23.1188 12.5354 25.0708 12.5354ZM10.7446 12.5354C16.6721 12.5354 21.4892 15.7409 21.4892 19.6985V23.28H0V19.6985C0 15.7409 4.81717 12.5354 10.7446 12.5354Z" fill="#451E0E"/>
</svg>
