<svg width="29" height="24" viewBox="0 0 29 24" fill="none" xmlns="http://www.w3.org/2000/svg">
<path d="M28.275 9.45819H25.375V6.54798C25.375 6.14782 25.0487 5.82042 24.65 5.82042H23.2C22.8013 5.82042 22.475 6.14782 22.475 6.54798V9.45819H19.575C19.1763 9.45819 18.85 9.78559 18.85 10.1857V11.6408C18.85 12.041 19.1763 12.3684 19.575 12.3684H22.475V15.2786C22.475 15.6788 22.8013 16.0062 23.2 16.0062H24.65C25.0487 16.0062 25.375 15.6788 25.375 15.2786V12.3684H28.275C28.6738 12.3684 29 12.041 29 11.6408V10.1857C29 9.78559 28.6738 9.45819 28.275 9.45819ZM10.15 11.6408C13.3536 11.6408 15.95 9.0353 15.95 5.82042C15.95 2.60555 13.3536 0 10.15 0C6.94641 0 4.35 2.60555 4.35 5.82042C4.35 9.0353 6.94641 11.6408 10.15 11.6408ZM14.21 13.096H13.4533C12.4473 13.5598 11.3281 13.8235 10.15 13.8235C8.97188 13.8235 7.85719 13.5598 6.84672 13.096H6.09C2.72781 13.096 0 15.8334 0 19.2074V21.099C0 22.304 0.974219 23.2817 2.175 23.2817H18.125C19.3258 23.2817 20.3 22.304 20.3 21.099V19.2074C20.3 15.8334 17.5722 13.096 14.21 13.096Z" fill="#451E0E"/>
</svg>
